<svg width="490" height="436" viewBox="0 0 490 436" fill="none" xmlns="http://www.w3.org/2000/svg">
<g clip-path="url(#clip0_1795_1046)">
<mask id="mask0_1795_1046" style="mask-type:luminance" maskUnits="userSpaceOnUse" x="49" y="0" width="421" height="420">
<path d="M469.508 0H49.4688V419.731H469.508V0Z" fill="white"/>
</mask>
<g mask="url(#mask0_1795_1046)">
<path d="M469.039 209.866C469.039 93.9604 375.01 0 259.02 0C143.029 0 49 93.9604 49 209.866C49 325.771 143.029 419.731 259.02 419.731C375.01 419.731 469.039 325.771 469.039 209.866Z" fill="url(#paint0_linear_1795_1046)"/>
</g>
<path d="M490 404.656C490 404.944 380.299 405.155 245.01 405.155C109.721 405.155 0 404.982 0 404.656C0 404.33 109.669 404.157 245 404.157C380.33 404.157 490 404.387 490 404.656Z" fill="#263238"/>
<path d="M421.867 355.629C421.719 355.629 420.494 350.584 419.132 344.295C417.769 338.005 416.83 332.834 416.925 332.834C417.02 332.834 418.297 337.878 419.67 344.179C421.043 350.479 422.025 355.597 421.867 355.629Z" fill="#263238"/>
<path d="M431.956 333.517L401.953 339.66L404.44 351.787L434.443 345.644L431.956 333.517Z" fill="white"/>
<path d="M434.435 345.656C434.34 345.374 434.266 345.084 434.213 344.791L433.664 342.374C433.21 340.263 432.555 337.256 431.752 333.573L431.984 333.72L402.045 339.947L402.256 339.62V339.694V339.799V339.989L402.34 340.39L402.499 341.182L402.815 342.754C403.037 343.809 403.238 344.865 403.449 345.835C403.861 347.862 404.262 349.835 404.653 351.724L404.336 351.524L425.796 347.25L432.132 346.046L433.833 345.73C434.034 345.681 434.239 345.65 434.445 345.635C434.272 345.703 434.091 345.753 433.907 345.783L432.27 346.152L426.081 347.492L404.495 352.041H404.241L404.157 351.83C403.766 349.941 403.354 347.967 402.942 345.941L402.309 342.859C402.192 342.342 402.087 341.804 401.981 341.287L401.823 340.496L401.738 340.105V339.905V339.81V339.725C401.738 339.799 402.15 339.113 401.96 339.409L431.974 333.341H432.164V333.52C432.893 337.266 433.474 340.316 433.896 342.48C434.086 343.482 434.223 344.284 434.34 344.875C434.456 345.466 434.445 345.667 434.435 345.656Z" fill="#263238"/>
<path d="M430.736 341.276C430.736 341.276 430.62 341.403 430.345 341.572C429.941 341.815 429.513 342.013 429.067 342.163C427.395 342.749 425.564 342.689 423.935 341.994C423.648 341.863 423.397 341.665 423.203 341.417C423.008 341.169 422.875 340.879 422.815 340.569C422.749 340.208 422.812 339.834 422.995 339.514C423.089 339.346 423.225 339.205 423.39 339.103C423.554 339.001 423.741 338.943 423.935 338.934C424.324 338.932 424.7 339.069 424.997 339.321C425.293 339.572 425.49 339.922 425.551 340.306C425.617 341.055 425.415 341.803 424.98 342.416C424.551 343.083 423.97 343.639 423.286 344.041C422.602 344.442 421.832 344.677 421.041 344.727C420.186 344.774 419.334 344.598 418.566 344.22C417.798 343.841 417.141 343.271 416.658 342.564C416.394 342.159 416.292 341.669 416.373 341.193C416.42 340.952 416.528 340.729 416.687 340.544C416.846 340.359 417.051 340.219 417.281 340.137C417.524 340.068 417.782 340.072 418.022 340.149C418.264 340.226 418.476 340.372 418.633 340.569C418.79 340.743 418.909 340.947 418.984 341.168C419.058 341.39 419.087 341.625 419.066 341.857C418.913 342.662 418.515 343.399 417.926 343.967C417.423 344.54 416.835 345.032 416.183 345.424C415.541 345.811 414.818 346.042 414.071 346.099C413.365 346.151 412.659 346.005 412.033 345.678C411.44 345.38 410.956 344.903 410.649 344.316C410.488 344.039 410.398 343.726 410.388 343.405C410.38 343.084 410.451 342.766 410.596 342.48C410.687 342.346 410.808 342.233 410.948 342.152C411.09 342.072 411.247 342.025 411.41 342.016C411.571 342.013 411.731 342.057 411.867 342.143C412.003 342.23 412.112 342.354 412.181 342.501C412.343 342.98 412.321 343.504 412.117 343.967C411.864 344.68 411.469 345.334 410.955 345.888C410.64 346.226 410.286 346.523 409.899 346.775C409.761 346.867 409.607 346.935 409.445 346.975C409.949 346.615 410.413 346.201 410.829 345.741C411.301 345.194 411.66 344.559 411.885 343.872C412.032 343.482 412.032 343.05 411.885 342.659C411.737 342.279 411.177 342.321 410.945 342.659C410.843 342.885 410.8 343.133 410.818 343.38C410.837 343.626 410.917 343.865 411.051 344.073C411.322 344.576 411.748 344.98 412.265 345.223C412.843 345.5 413.484 345.621 414.123 345.572C414.762 345.524 415.378 345.309 415.909 344.95C416.507 344.573 417.048 344.11 417.514 343.577C418.022 343.084 418.369 342.447 418.507 341.752C418.602 341.129 417.978 340.39 417.45 340.59C417.308 340.651 417.184 340.746 417.09 340.869C416.995 340.991 416.934 341.135 416.912 341.288C416.861 341.63 416.94 341.98 417.134 342.268C417.563 342.905 418.148 343.419 418.835 343.764C419.521 344.107 420.285 344.269 421.052 344.231C421.759 344.188 422.448 343.98 423.062 343.625C423.676 343.27 424.199 342.777 424.59 342.184C424.971 341.668 425.152 341.03 425.096 340.39C425.073 340.109 424.947 339.846 424.743 339.652C424.538 339.457 424.269 339.344 423.988 339.335C423.481 339.335 423.185 339.904 423.269 340.39C423.312 340.639 423.416 340.875 423.571 341.075C423.725 341.275 423.926 341.435 424.157 341.54C425.012 341.943 425.946 342.148 426.892 342.142C427.606 342.138 428.316 342.038 429.004 341.846C429.592 341.691 430.171 341.501 430.736 341.276Z" fill="#263238"/>
<path d="M453.336 300.352C448.795 302.779 444.803 306.567 443.018 311.401C441.234 316.234 442.733 323.473 446.345 327.156C452.998 327.832 459.557 320.825 462.978 315.094C466.4 309.364 467.414 302.504 468.069 295.856C462.946 296.544 457.969 298.062 453.336 300.352Z" fill="#79C384"/>
<path d="M445.755 349.244C445.614 348.779 445.519 348.302 445.469 347.819C445.3 346.901 445.142 345.55 445.005 343.883C444.352 335.138 445.595 326.355 448.648 318.133C449.24 316.572 449.768 315.316 450.18 314.482C450.363 314.027 450.593 313.592 450.866 313.184C450.744 313.658 450.582 314.12 450.38 314.567C450.032 315.421 449.556 316.677 449.018 318.26C447.612 322.377 446.594 326.617 445.976 330.924C445.385 335.22 445.191 339.561 445.396 343.894C445.48 345.55 445.586 346.901 445.681 347.83C445.755 348.297 445.779 348.771 445.755 349.244Z" fill="#467471"/>
<path d="M440.843 322.017C439.633 319.425 437.491 317.383 434.845 316.297C432.21 315.236 429.363 314.81 426.533 315.052C423.709 315.285 420.913 315.779 418.18 316.529C418.75 319.579 419.363 322.735 421.168 325.267C422.49 327.015 424.177 328.456 426.111 329.489C428.154 330.706 430.425 331.493 432.785 331.8C435.33 332.003 437.874 331.405 440.062 330.09C440.873 328.924 441.372 327.569 441.509 326.155C441.645 324.741 441.416 323.317 440.843 322.017Z" fill="#79C384"/>
<path d="M425.414 319.01C425.78 319.106 426.135 319.244 426.47 319.422C427.146 319.707 428.097 320.16 429.248 320.782C432.264 322.375 435.073 324.331 437.612 326.608C440.187 328.869 442.29 331.616 443.8 334.692C444.096 335.283 444.286 335.842 444.487 336.328C444.688 336.813 444.783 337.246 444.878 337.594C444.997 337.955 445.065 338.332 445.078 338.713C444.973 338.713 444.656 337.151 443.452 334.861C441.863 331.894 439.756 329.235 437.232 327.009C434.721 324.765 431.981 322.791 429.058 321.121C427.938 320.456 427.019 319.96 426.375 319.612C426.027 319.46 425.702 319.257 425.414 319.01Z" fill="#467471"/>
<path d="M444.963 346.553C432.564 345.909 419.331 352.674 410.312 361.528H482.306C471.66 354.921 457.35 347.154 444.963 346.553Z" fill="#AA6755"/>
<path d="M444.963 353.042C432.564 352.399 419.331 359.163 410.312 368.017H482.306C471.66 361.411 457.35 353.644 444.963 353.042Z" fill="#99584B"/>
<path d="M470.36 404.912H420.745L413.289 366.118H478.777L470.36 404.912Z" fill="#C0A1E2"/>
<path d="M483.297 358.183H408.77V369.569H483.297V358.183Z" fill="#532A6B"/>
<path d="M54.7061 348.716C39.2028 347.946 29.9727 355.375 29.9727 355.375H81.7203C73.2283 351.44 64.0558 349.179 54.7061 348.716Z" fill="#AA6755"/>
<path d="M69.8428 275.246C65.1538 277.789 60.9295 281.757 59.0602 286.801C57.1909 291.846 58.8173 299.412 62.5347 303.285C69.4943 303.992 76.3483 296.69 79.9179 290.685C83.4873 284.68 84.554 277.525 85.1982 270.571C79.939 271.457 74.5952 272.681 69.8428 275.246Z" fill="#79C384"/>
<path d="M54.3991 349.719C54.3296 349.506 54.2836 349.287 54.2618 349.065C54.1984 348.632 54.0717 348.009 53.9978 347.176C53.7449 344.845 53.6355 342.501 53.6704 340.158C53.8017 332.417 54.8835 324.723 56.8914 317.247C58.8715 309.769 61.603 302.51 65.0444 295.581C65.7203 294.262 66.3117 293.059 66.8609 292.025L68.3182 289.366L69.2899 287.719C69.392 287.525 69.5122 287.342 69.6489 287.171C69.5874 287.385 69.4986 287.59 69.3849 287.783C69.1526 288.215 68.8674 288.775 68.5083 289.471L67.0932 292.131L65.3507 295.729C62.0286 302.675 59.3593 309.913 57.3772 317.352C55.3864 324.789 54.2596 332.431 54.0189 340.126C53.9133 343.081 54.0189 345.476 54.1667 347.123C54.1667 347.946 54.304 348.579 54.3252 349.022C54.373 349.251 54.3978 349.484 54.3991 349.719Z" fill="#467471"/>
<path d="M50.0382 325.573C48.9793 323.28 47.0935 321.471 44.7578 320.508C42.4136 319.568 39.8821 319.188 37.3652 319.4C34.8669 319.615 32.3929 320.053 29.9727 320.708C30.4796 323.41 31.0287 326.207 32.6234 328.444C33.7948 329.983 35.2865 331.251 36.9956 332.159C38.807 333.234 40.8198 333.927 42.9097 334.195C45.1732 334.401 47.4437 333.884 49.394 332.718C50.0999 331.68 50.5295 330.479 50.6422 329.229C50.7549 327.979 50.547 326.72 50.0382 325.573Z" fill="#79C384"/>
<path d="M68.5644 327.061C71.4943 327.584 74.5137 326.977 77.013 325.362C79.4888 323.753 81.5506 321.584 83.0324 319.031C84.5117 316.487 85.753 313.813 86.7392 311.042C83.8033 309.712 80.741 308.351 77.5199 308.393C75.2448 308.483 73.017 309.07 70.9933 310.113C68.741 311.127 66.721 312.592 65.0582 314.419C63.3465 316.46 62.3228 318.99 62.1328 321.648C62.6511 323.025 63.5147 324.245 64.6409 325.194C65.7671 326.142 67.1181 326.785 68.5644 327.061Z" fill="#79C384"/>
<path d="M36.3844 322.914C36.7112 322.99 37.027 323.107 37.3243 323.262C37.9157 323.516 38.7711 323.906 39.785 324.455C42.4638 325.877 44.9544 327.629 47.1987 329.668C49.482 331.675 51.3449 334.114 52.6797 336.844C53.0729 337.672 53.391 338.534 53.6302 339.419C53.7326 339.741 53.7895 340.074 53.7992 340.411C53.6936 340.411 53.4084 339.029 52.3312 337.013C50.9279 334.388 49.0642 332.036 46.829 330.069C44.6033 328.084 42.1792 326.334 39.5949 324.845C37.62 323.621 36.3316 323.009 36.3844 322.914Z" fill="#467471"/>
<path d="M70.8655 316.076C70.8655 316.171 69.8095 316.424 68.0881 317.131C65.8972 318.106 63.8447 319.366 61.9839 320.877C60.1108 322.366 58.3914 324.038 56.8513 325.869C55.6685 327.283 55.0349 328.233 54.9609 328.191C55.3627 327.268 55.8963 326.407 56.5451 325.637C58.0159 323.698 59.7262 321.954 61.6354 320.445C63.5481 318.91 65.6851 317.679 67.9719 316.793C68.3655 316.641 68.7674 316.51 69.1758 316.403C69.4757 316.302 69.7828 316.224 70.0946 316.171C70.5804 316.076 70.8655 316.033 70.8655 316.076Z" fill="#467471"/>
<path d="M81.6915 355.375H28.2539V424.645H81.6915V355.375Z" fill="#C0A1E2"/>
<path d="M85 355H25V365H85V355Z" fill="#532A6B"/>
<path d="M324.337 76.9108C326.54 77.1305 328.747 76.5386 330.544 75.2462C332.341 73.9539 333.604 72.0502 334.095 69.893C328.97 72.2327 323.163 72.6082 317.779 70.9483C321.17 68.4191 323.669 64.879 324.916 60.8386C326.164 56.7982 326.094 52.4663 324.719 48.4677C323.343 44.4691 320.732 41.0105 317.262 38.5908C313.792 36.171 309.642 34.9152 305.412 35.0044C296.963 35.1944 287.406 44.1434 285.051 52.2165L296.33 70.9588C298.081 74.5973 300.723 77.735 304.012 80.0814C307.3 82.4278 311.127 83.9069 315.139 84.3818C319.153 84.8559 323.22 84.3112 326.965 82.7964C330.711 81.2821 334.013 78.8475 336.567 75.7183C332.726 77.4249 328.435 77.8433 324.337 76.9108Z" fill="#263238"/>
<path d="M318.665 122.205C313.036 83.1585 303.066 40.355 247.284 44.3441C247.284 44.3441 209.181 52.1534 192.854 77.5124C183.243 92.4241 178.649 155.51 177.012 206.26C176.938 208.371 177.804 222.744 177.741 224.76L325.413 237.044L343.102 231.767C343.102 231.767 322.171 146.466 318.665 122.205Z" fill="#263238"/>
<path d="M239.858 58.8755L243.354 55.5513L281.067 70.7372C283.696 70.891 286.173 72.0207 288.011 73.9046C289.849 75.7886 290.917 78.2909 291.004 80.9209L290.677 203.717C290.677 212.043 289.051 219.262 284.024 225.878L278.743 232.865C266.672 248.8 241.78 247.491 232.276 229.931C231.691 228.939 231.24 227.875 230.934 226.765C230.699 225.861 230.512 224.945 230.375 224.021C229.255 214.143 229.192 205.574 229.192 205.574C228.516 194.726 228.294 190.272 228.294 190.378C228.294 190.483 205.198 187.718 198.946 158.096C195.841 143.322 196.432 123.081 197.298 103.125C198.481 75.5283 217.649 58.8438 239.858 58.8755Z" fill="#F9CBB3"/>
<path d="M247.59 123.355C247.631 124.354 248.06 125.297 248.786 125.985C249.511 126.672 250.476 127.05 251.476 127.038C251.966 127.052 252.454 126.968 252.911 126.791C253.367 126.615 253.784 126.348 254.136 126.008C254.489 125.668 254.769 125.26 254.961 124.811C255.154 124.36 255.255 123.876 255.257 123.387C255.219 122.388 254.791 121.443 254.064 120.754C253.338 120.067 252.371 119.689 251.371 119.704C250.882 119.69 250.393 119.774 249.937 119.951C249.48 120.128 249.063 120.394 248.711 120.734C248.359 121.074 248.078 121.482 247.886 121.931C247.693 122.382 247.593 122.866 247.59 123.355Z" fill="#263238"/>
<path d="M208.602 123.354C208.643 124.355 209.074 125.299 209.801 125.988C210.529 126.675 211.497 127.052 212.499 127.037C212.988 127.05 213.475 126.965 213.931 126.788C214.387 126.61 214.803 126.344 215.155 126.004C215.508 125.664 215.788 125.258 215.981 124.808C216.174 124.359 216.275 123.876 216.279 123.386C216.241 122.387 215.813 121.442 215.087 120.754C214.36 120.066 213.394 119.688 212.393 119.703C211.902 119.688 211.414 119.77 210.956 119.947C210.498 120.123 210.08 120.389 209.727 120.73C209.373 121.07 209.091 121.478 208.898 121.928C208.706 122.379 208.604 122.864 208.602 123.354Z" fill="#263238"/>
<path d="M201.219 111.028C201.716 111.503 204.514 109.213 208.612 109.013C212.71 108.812 215.857 110.733 216.279 110.205C216.49 109.973 215.962 109.15 214.6 108.2C212.752 107.053 210.594 106.504 208.422 106.628C206.279 106.733 204.223 107.513 202.55 108.855C201.388 109.899 200.976 110.817 201.219 111.028Z" fill="#263238"/>
<path d="M243.08 111.462C243.63 111.884 246.175 109.351 250.251 108.697C254.328 108.043 257.644 109.657 258.013 109.087C258.193 108.834 257.58 108.032 256.123 107.262C254.157 106.307 251.943 105.986 249.787 106.344C247.66 106.657 245.691 107.645 244.168 109.161C243.102 110.312 242.816 111.272 243.08 111.462Z" fill="#263238"/>
<path d="M228.667 141.464C228.667 141.232 226.091 140.916 221.909 140.588C220.852 140.536 219.796 140.377 219.627 139.67C219.458 138.963 219.722 137.76 220.177 136.504C221.043 133.908 221.94 131.228 222.891 128.336C226.64 116.728 229.301 107.167 228.836 107.019C228.372 106.871 224.94 116.179 221.19 127.809C220.282 130.669 219.427 133.402 218.603 136.019C218.265 137.233 217.653 138.626 218.265 140.177C218.439 140.54 218.692 140.858 219.007 141.108C219.322 141.359 219.689 141.535 220.082 141.623C220.67 141.758 221.274 141.811 221.877 141.781C226.07 141.823 228.667 141.697 228.667 141.464Z" fill="#263238"/>
<path d="M228.262 190.366C242.347 189.877 256.019 185.492 267.759 177.703C267.759 177.703 258.73 198.883 228.684 197.585L228.262 190.366Z" fill="#EAB498"/>
<path d="M230.959 151.321C231.691 150.292 232.674 149.468 233.815 148.927C234.956 148.386 236.215 148.145 237.475 148.229C238.39 148.265 239.289 148.486 240.117 148.877C240.944 149.27 241.684 149.824 242.291 150.508C242.877 151.168 243.245 151.991 243.347 152.867C243.449 153.742 243.28 154.629 242.862 155.405C241.805 157.02 239.524 157.516 237.581 157.041C235.598 156.45 233.753 155.471 232.153 154.16C231.67 153.852 231.248 153.459 230.907 152.999C230.745 152.779 230.653 152.516 230.642 152.243C230.63 151.971 230.7 151.701 230.843 151.469" fill="#EAB498"/>
<path d="M240.949 143.712C240.284 143.712 240.495 148.176 236.82 151.543C233.145 154.909 228.371 154.656 228.371 155.289C228.371 155.574 229.48 156.101 231.539 156.059C234.166 155.963 236.674 154.948 238.626 153.189C240.497 151.496 241.633 149.141 241.794 146.625C241.815 144.746 241.255 143.67 240.949 143.712Z" fill="#263238"/>
<path d="M239.13 95.3894C239.701 96.4448 243.693 95.2839 248.572 95.1256C253.451 94.9673 257.527 95.6849 258.013 94.598C258.224 94.0703 257.39 93.1311 255.658 92.2974C253.371 91.3021 250.888 90.8403 248.395 90.9466C245.904 91.0529 243.468 91.7235 241.274 92.9095C239.627 93.8804 238.877 94.8935 239.13 95.3894Z" fill="#263238"/>
<path d="M201.811 93.2789C202.582 94.1759 205.38 93.0678 208.791 92.8462C212.202 92.6246 215.128 93.1628 215.751 92.1497C216.015 91.6537 215.519 90.7461 214.209 89.923C212.469 88.9147 210.456 88.4756 208.453 88.6672C206.448 88.8076 204.534 89.5634 202.972 90.8305C201.821 91.8964 201.473 92.8778 201.811 93.2789Z" fill="#263238"/>
<path d="M290.257 133.381C290.257 133.381 269.135 139.955 257.169 87.844C253.082 70.0302 236.555 55.604 236.555 55.604L243.261 53.5884C243.261 53.5884 284.923 65.2601 285.62 65.8405C286.317 66.4209 296.128 87.3691 296.128 87.3691L290.257 133.381Z" fill="#263238"/>
<path d="M285.05 131.385C284.945 129.158 287.258 123.787 289.433 123.333C295.263 122.13 305.866 122.067 306.711 136.957C307.862 157.325 287.173 154.275 287.099 153.694C287.025 153.114 285.42 139.068 285.05 131.385Z" fill="#F9CBB3"/>
<path d="M292.886 145.633C292.97 145.559 293.255 145.865 293.868 146.097C294.732 146.418 295.689 146.384 296.529 146.002C298.641 145.095 300.257 141.58 300.141 137.908C300.095 136.159 299.658 134.442 298.863 132.885C298.636 132.26 298.262 131.698 297.77 131.25C297.279 130.801 296.687 130.479 296.043 130.31C295.632 130.224 295.204 130.281 294.831 130.474C294.458 130.666 294.163 130.98 293.994 131.365C293.762 131.956 293.91 132.357 293.804 132.42C293.699 132.484 293.35 132.114 293.466 131.259C293.551 130.749 293.808 130.284 294.195 129.94C294.731 129.484 295.425 129.256 296.128 129.307C297.701 129.307 299.201 130.69 300.014 132.251C300.977 133.967 301.51 135.889 301.567 137.855C301.672 141.971 299.782 145.928 296.888 146.941C296.35 147.131 295.778 147.199 295.211 147.139C294.644 147.079 294.098 146.892 293.614 146.593C292.949 146.129 292.822 145.675 292.886 145.633Z" fill="#EAB498"/>
<path d="M254.372 93.3519C252.935 88.0754 251.383 83.031 249.683 78.5778C248.212 74.6207 246.448 70.7792 244.402 67.0855C243.02 64.5916 241.461 62.2004 239.734 59.9305C239.132 59.1179 238.615 58.5375 238.277 58.1259C238.117 57.9092 237.936 57.7079 237.738 57.5244C237.864 57.7628 238.016 57.9858 238.192 58.1893C238.499 58.6219 238.995 59.2446 239.565 60.0572C241.217 62.362 242.72 64.7694 244.064 67.2649C246.066 70.9667 247.8 74.8073 249.25 78.7572C250.918 83.2104 252.418 88.2548 253.875 93.5313C255.333 98.8079 256.473 103.958 258.321 108.38C259.18 110.483 260.242 112.497 261.49 114.395C262.616 116.029 263.927 117.527 265.397 118.859C267.52 120.806 270.076 122.221 272.854 122.985C273.864 123.265 274.909 123.404 275.958 123.397C275.958 123.323 274.838 123.323 272.906 122.774C270.193 121.949 267.708 120.504 265.651 118.553C264.224 117.225 262.956 115.738 261.87 114.12C260.646 112.244 259.613 110.251 258.786 108.168" fill="#263238"/>
<path d="M126.078 326.703C126.078 326.703 148.33 256.187 153.536 245.771C161.563 229.857 169.842 223.873 178.28 220.043C184.733 217.109 183.096 342.216 183.096 342.216C183.096 342.216 134.432 339.546 126.078 326.703Z" fill="#C0A1E2"/>
<path d="M324.59 209.996L291.006 203.664C291.006 203.664 287.299 226.512 258.099 224.053C228.898 221.594 229.025 205.606 229.025 205.606L177.625 220.296L178.586 243.407L182.536 342.173C182.536 342.173 188.756 386.496 187.901 391.773C187.045 397.049 198.345 418.768 198.345 418.768L343.092 414.494L347.443 361.327L350.295 343.387L395.896 324.729C397.385 322.281 384.11 276.185 369.008 244.156C364.83 235.361 358.627 227.681 350.906 221.743C343.185 215.806 334.167 211.78 324.59 209.996Z" fill="#C0A1E2"/>
<path d="M388.632 327.557C388.632 327.557 397.629 385.082 396.901 394.485C396.172 403.888 387.449 419.812 369.01 423.126C350.57 426.44 307.26 413.46 307.26 413.46L303.828 385.884L311.77 385.156C311.77 385.156 335.004 385.209 339.228 384.386C343.452 383.563 352.144 379.764 352.144 379.764L350.813 343.092L388.632 327.557Z" fill="#F9CBB3"/>
<path d="M352.121 380.323C352.404 379.908 352.762 379.55 353.177 379.268C354.25 378.473 355.455 377.872 356.736 377.495C360.987 376.258 365.511 376.32 369.726 377.674C372.052 378.444 374.155 379.77 375.851 381.537C377.232 382.961 378.339 384.629 379.115 386.454C379.647 387.678 380.003 388.972 380.171 390.296C380.254 390.777 380.254 391.27 380.171 391.752C379.838 390.011 379.325 388.31 378.639 386.676C377.824 384.945 376.716 383.367 375.365 382.011C373.725 380.356 371.717 379.113 369.504 378.381C365.42 377.097 361.06 376.965 356.905 378.001C355.188 378.491 353.569 379.277 352.121 380.323Z" fill="#EAB498"/>
<path d="M138.021 334.173C138.021 334.173 132.297 391.16 133.11 400.542C133.924 409.923 142.193 428.951 160.664 432.127C179.134 435.304 222.318 421.827 222.318 421.827L223.807 384.786C223.807 384.786 214.872 382.433 209.085 388.68C202.833 395.423 192.557 393.524 190.075 393.06C186.247 392.182 182.468 391.101 178.754 389.82L182.535 342.183L138.021 334.173Z" fill="#F9CBB3"/>
<path d="M178.756 389.821C177.234 388.771 175.551 387.976 173.771 387.467C169.457 386.291 164.917 386.204 160.56 387.214C158.207 387.836 156.057 389.058 154.318 390.76C152.881 392.147 151.705 393.78 150.844 395.583C150.122 397.278 149.59 399.047 149.26 400.859C149.184 400.359 149.184 399.85 149.26 399.35C149.403 397.967 149.759 396.614 150.316 395.34C151.136 393.439 152.312 391.713 153.78 390.253C155.579 388.426 157.837 387.117 160.317 386.465C164.796 385.413 169.473 385.577 173.867 386.94C175.2 387.341 176.46 387.958 177.594 388.765C177.903 388.98 178.19 389.224 178.45 389.493C178.693 389.683 178.777 389.821 178.756 389.821Z" fill="#EAB498"/>
<path d="M219.753 387.341L223.819 384.787L239.787 392.005C239.787 392.005 252.323 391.203 254.741 394.264C257.16 397.324 263.654 402.189 260.159 414.114C256.663 426.039 244.318 431.083 244.318 431.083L224.875 422.841L217.145 410.842L218.929 397.482L219.753 387.341Z" fill="#F9CBB3"/>
<path d="M316.502 386.517L314.39 385.81C311.762 384.919 308.962 384.651 306.212 385.029C303.463 385.406 300.839 386.418 298.549 387.984L293.796 391.224C293.796 391.224 281.271 390.422 278.853 393.472C276.434 396.522 269.929 401.408 273.424 413.333C276.92 425.258 289.266 430.302 289.266 430.302L308.708 422.06L316.502 410.051L323.99 387.889L316.502 386.517Z" fill="#F9CBB3"/>
<path d="M308.547 392.322C306.435 387.794 301.767 385.008 297.046 383.394C292.325 381.779 287.309 381.062 282.683 379.173C275.291 376.175 268.595 370.181 260.653 370.73C255.954 371.068 251.772 373.706 247.822 376.26L231.822 386.655C229.44 388.062 227.235 389.748 225.253 391.678C223.259 393.625 222.02 396.217 221.758 398.991L306.361 401.513C309.55 400.057 310.015 395.498 308.547 392.322Z" fill="#AA6755"/>
<path d="M226.12 411.865C224.706 410.594 223.561 409.055 222.751 407.337C222.369 406.47 222.245 405.512 222.393 404.576C222.54 403.64 222.955 402.767 223.585 402.061C224.926 400.805 226.943 400.826 228.697 400.32C232.203 399.317 234.663 396.204 237.367 393.713C240.071 391.223 243.936 389.133 247.252 390.706C249.921 386.89 253.955 384.245 258.52 383.319C263.076 382.449 267.792 383.375 271.679 385.904C274.066 387.476 276.263 389.693 279.072 389.988C280.962 390.189 282.853 389.471 284.743 389.693C287.806 390.041 290.087 392.679 292.938 393.914C296.634 395.465 301.228 394.547 304.428 396.985C306.741 398.758 307.681 401.902 307.597 404.847C307.322 412.234 301.26 418.365 294.353 420.793C287.446 423.22 279.98 422.692 272.756 421.848C257.274 420.085 241.855 417.12 227.176 411.801" fill="#99584B"/>
<path d="M204.997 393.44C206.653 391.741 208.417 390.152 210.278 388.681C215.232 394.236 221.122 398.879 227.682 402.4C228.738 400.237 232.17 395.34 236.131 396.068C237.166 396.157 238.127 396.649 238.802 397.439C239.478 398.229 239.816 399.253 239.742 400.289C240.587 398.179 242.911 394.538 246.691 395.308C250.472 396.079 251.18 400.838 251.18 400.838C252.236 399.055 254.961 398.158 254.961 398.158C260.452 398.263 260.178 404.247 260.178 404.247H260.273C260.877 403.994 261.534 403.894 262.187 403.955C262.838 404.015 263.465 404.235 264.013 404.595C264.56 404.955 265.011 405.442 265.326 406.016C265.64 406.59 265.809 407.233 265.817 407.888C265.944 411.739 266.06 418.293 265.543 420.551C264.782 423.865 258.657 423.411 258.657 423.411C258.657 423.411 256.935 430.798 256.481 433.152C256.027 435.505 253.366 435.041 250.145 435.262C246.924 435.484 243.122 433.289 243.122 433.289C243.122 433.289 238.507 436.93 233.332 435.653C231.732 435.184 230.243 434.397 228.957 433.338C227.67 432.278 226.611 430.969 225.844 429.49C225.844 429.49 219.74 428.434 216.002 425.564C212.263 422.694 209.834 415.486 209.834 415.486C205.61 415.116 203.191 411.201 203.191 411.201L204.997 393.44Z" fill="#F9CBB3"/>
<path d="M219.752 427.96C219.387 427.876 219.033 427.753 218.696 427.59C217.699 427.132 216.774 426.532 215.95 425.807C213.14 423.177 211.092 419.837 210.026 416.14L210.385 416.394C208.805 416.457 207.252 415.98 205.981 415.043C205.32 414.577 204.715 414.039 204.175 413.439C203.567 412.832 203.078 412.116 202.739 411.328C202.402 410.469 202.297 409.538 202.432 408.626C202.58 407.803 202.728 406.991 202.865 406.189C203.161 404.595 203.436 403.023 203.7 401.588C204.238 398.696 204.756 396.068 205.157 393.799C205.53 392.811 206.073 391.897 206.762 391.098C207.322 390.391 207.818 389.8 208.251 389.335C208.66 388.818 209.128 388.351 209.645 387.942C209.298 388.5 208.906 389.03 208.473 389.525C208.093 390.021 207.618 390.581 207.1 391.351C206.496 392.113 206.018 392.969 205.685 393.884C205.305 396.163 204.861 398.791 204.386 401.693L203.594 406.305C203.457 407.107 203.32 407.919 203.172 408.743C203.053 409.519 203.144 410.313 203.436 411.043C204.819 413.702 207.66 415.855 210.342 415.676H210.617L210.702 415.94C211.706 419.525 213.611 422.794 216.235 425.438C217.303 426.415 218.483 427.262 219.752 427.96Z" fill="#EAB498"/>
<path d="M208.864 399.319C209.323 399.292 209.783 399.342 210.226 399.466C211.454 399.683 212.659 400.012 213.827 400.448C215.597 401.077 217.221 402.057 218.601 403.329C220.343 404.912 221.466 407.063 221.769 409.397C221.898 410.575 221.73 411.767 221.28 412.864C220.83 413.961 220.112 414.927 219.192 415.676C218.39 416.341 217.416 416.769 216.383 416.91C215.493 417.003 214.592 416.906 213.743 416.626C212.6 416.185 211.414 415.863 210.205 415.665C209.36 415.591 208.895 415.76 208.874 415.665C209.279 415.426 209.747 415.315 210.215 415.349C211.463 415.439 212.695 415.687 213.88 416.087C214.662 416.311 215.48 416.376 216.288 416.277C217.2 416.127 218.053 415.725 218.749 415.116C219.563 414.431 220.198 413.555 220.595 412.567C220.993 411.579 221.143 410.509 221.03 409.449C220.744 407.293 219.726 405.3 218.147 403.804C216.843 402.565 215.316 401.583 213.648 400.912C210.765 399.72 208.832 399.403 208.864 399.319Z" fill="#EAB498"/>
<path d="M221.547 399.192C221.758 399.276 221.336 400.49 220.565 401.756C219.794 403.023 219.149 404.057 218.959 403.973C218.769 403.888 219.139 402.696 219.91 401.387C220.681 400.078 221.367 399.129 221.547 399.192Z" fill="#EAB498"/>
<path d="M239.764 400.374C239.806 400.804 239.78 401.238 239.69 401.661C239.539 402.823 239.32 403.976 239.036 405.112C238.137 408.858 236.845 412.498 235.181 415.971C233.528 419.471 231.525 422.794 229.203 425.891C228.507 426.832 227.76 427.734 226.965 428.593C226.394 429.194 226.067 429.511 226.025 429.479C225.982 429.447 227.081 427.991 228.781 425.574C230.948 422.424 232.862 419.107 234.505 415.655C236.142 412.196 237.494 408.61 238.55 404.933C239.321 402.104 239.638 400.31 239.764 400.374Z" fill="#EAB498"/>
<path d="M251.202 400.88C251.261 401.322 251.261 401.768 251.202 402.21C251.202 403.054 251.064 404.321 250.895 405.798C250.441 409.747 249.735 413.663 248.783 417.523C247.854 421.387 246.654 425.182 245.193 428.878C244.622 430.281 244.137 431.421 243.746 432.181C243.587 432.596 243.37 432.988 243.102 433.342C243.549 431.763 244.081 430.209 244.696 428.688C245.7 425.828 246.967 421.839 248.055 417.343C249.142 412.848 249.871 408.732 250.325 405.735C250.517 404.1 250.81 402.479 251.202 400.88Z" fill="#EAB498"/>
<path d="M260.199 404.288C260.429 405.277 260.518 406.293 260.464 407.306C260.484 409.738 260.368 412.17 260.115 414.588C259.885 417.007 259.533 419.412 259.059 421.796C258.929 422.801 258.667 423.784 258.277 424.719C258.056 424.719 258.827 420.139 259.333 414.514C259.84 408.889 259.988 404.299 260.199 404.288Z" fill="#EAB498"/>
<path d="M219.254 416.784C219.565 416.037 219.962 415.328 220.437 414.673C221.398 413.08 222.39 411.433 223.468 409.629C224.65 407.655 225.696 405.851 226.425 404.542C226.775 403.807 227.185 403.101 227.65 402.432C227.573 403.265 227.318 404.071 226.9 404.796C226.067 406.602 225.14 408.362 224.122 410.072C221.767 413.956 219.455 416.942 219.254 416.784Z" fill="#EAB498"/>
<path d="M239.151 403.983C239.046 403.983 239.405 402.685 239.542 400.617C239.579 400.064 239.532 399.509 239.405 398.97C239.229 398.372 238.905 397.828 238.465 397.387C237.964 396.881 237.337 396.517 236.649 396.331C235.96 396.146 235.235 396.146 234.547 396.332C233.134 396.729 231.844 397.477 230.798 398.506C229.958 399.385 229.217 400.355 228.591 401.397C227.535 403.181 226.901 404.352 226.816 404.31C226.873 404.006 226.981 403.713 227.133 403.445C227.467 402.676 227.841 401.926 228.253 401.197C228.848 400.091 229.583 399.066 230.439 398.147C231.535 397.024 232.908 396.213 234.42 395.794C235.231 395.594 236.08 395.612 236.881 395.847C237.628 396.071 238.302 396.49 238.835 397.06C239.322 397.568 239.667 398.193 239.838 398.875C239.961 399.461 239.994 400.063 239.933 400.659C239.85 401.493 239.695 402.32 239.468 403.128C239.4 403.425 239.294 403.713 239.151 403.983Z" fill="#EAB498"/>
<path d="M240.102 400.658C240.102 400.658 240.039 400.404 240.102 399.94C240.206 399.287 240.428 398.658 240.757 398.083C241.25 397.213 241.959 396.487 242.816 395.972C243.883 395.358 245.116 395.091 246.341 395.213C247.567 395.334 248.724 395.836 249.649 396.648C250.382 397.322 250.93 398.172 251.244 399.117C251.459 399.744 251.552 400.407 251.519 401.069C251.53 401.314 251.479 401.557 251.371 401.776C251.318 400.915 251.155 400.063 250.885 399.244C250.54 398.393 250.001 397.634 249.311 397.027C248.455 396.307 247.401 395.863 246.287 395.752C245.173 395.641 244.052 395.868 243.07 396.405C242.271 396.863 241.591 397.503 241.085 398.273C240.66 399.024 240.33 399.826 240.102 400.658Z" fill="#EAB498"/>
<path d="M251.297 401.324C251.276 400.971 251.338 400.619 251.477 400.294C251.616 399.97 251.83 399.683 252.1 399.456C252.64 398.913 253.332 398.545 254.085 398.4C255.022 398.229 255.989 398.366 256.841 398.791C257.589 399.175 258.248 399.709 258.781 400.358C259.314 401.009 259.707 401.761 259.936 402.569C260.179 403.211 260.274 403.9 260.21 404.585C260.115 404.585 259.999 403.835 259.566 402.706C259.051 401.232 257.993 400.009 256.609 399.287C255.858 398.913 255.01 398.776 254.18 398.896C253.505 399.016 252.877 399.319 252.364 399.772C251.915 400.219 251.554 400.745 251.297 401.324Z" fill="#EAB498"/>
<path d="M328.591 392.659C326.932 390.961 325.169 389.368 323.31 387.889C318.349 393.441 312.456 398.084 305.895 401.608C304.839 399.434 301.407 394.538 297.394 395.277C296.359 395.368 295.401 395.861 294.726 396.651C294.051 397.44 293.712 398.462 293.782 399.498C292.948 397.387 290.614 393.757 286.844 394.527C283.073 395.298 282.355 400.057 282.355 400.057C281.299 398.263 278.564 397.377 278.564 397.377C273.072 397.472 273.347 403.466 273.347 403.466L273.252 403.413C272.647 403.165 271.991 403.07 271.34 403.133C270.69 403.196 270.065 403.418 269.52 403.777C268.974 404.137 268.525 404.625 268.211 405.198C267.897 405.77 267.728 406.412 267.718 407.064C267.591 410.906 267.464 417.459 267.982 419.728C268.742 423.042 274.868 422.577 274.868 422.577C274.868 422.577 276.589 429.965 277.043 432.318C277.497 434.671 280.211 434.217 283.38 434.429C286.548 434.64 290.413 432.445 290.413 432.445C290.413 432.445 295.028 436.085 300.192 434.819C301.794 434.351 303.284 433.562 304.572 432.501C305.859 431.44 306.916 430.129 307.68 428.645C307.68 428.645 313.784 427.59 317.523 424.73C321.261 421.87 323.69 414.641 323.69 414.641C327.915 414.283 330.333 410.357 330.333 410.357L328.591 392.659Z" fill="#F9CBB3"/>
<path d="M313.84 427.167C314.23 427.102 314.608 426.978 314.959 426.798C315.958 426.342 316.883 425.741 317.705 425.014C320.518 422.388 322.561 419.046 323.619 415.348L323.271 415.611C324.846 415.67 326.394 415.194 327.664 414.261C328.328 413.796 328.937 413.257 329.48 412.657C330.085 412.049 330.569 411.333 330.906 410.546C331.253 409.694 331.359 408.763 331.212 407.855C331.065 407.021 330.917 406.209 330.779 405.407C330.494 403.824 330.209 402.241 329.945 400.816C329.406 397.925 328.889 395.286 328.488 393.028C328.12 392.038 327.575 391.123 326.882 390.326C326.323 389.619 325.826 389.028 325.393 388.553C324.986 388.043 324.522 387.579 324.01 387.171C324.353 387.727 324.742 388.252 325.172 388.743C325.562 389.239 326.027 389.851 326.545 390.58C327.153 391.342 327.635 392.197 327.97 393.112C328.34 395.381 328.783 398.019 329.269 400.911C329.512 402.388 329.776 403.94 330.051 405.533C330.188 406.335 330.336 407.137 330.473 407.961C330.597 408.741 330.506 409.539 330.209 410.272C328.826 412.931 325.985 415.073 323.302 414.904H323.028L322.954 415.179C321.942 418.762 320.039 422.029 317.42 424.677C316.338 425.656 315.135 426.493 313.84 427.167Z" fill="#EAB498"/>
<path d="M324.725 398.474C324.266 398.447 323.805 398.498 323.363 398.622C322.137 398.845 320.931 399.173 319.761 399.603C317.997 400.242 316.375 401.221 314.988 402.484C313.254 404.074 312.132 406.222 311.82 408.552C311.691 409.73 311.858 410.92 312.306 412.017C312.754 413.114 313.469 414.081 314.386 414.832C315.188 415.507 316.167 415.939 317.206 416.077C318.097 416.164 318.996 416.064 319.846 415.781C320.986 415.341 322.168 415.019 323.373 414.821C324.218 414.747 324.693 414.927 324.704 414.821C324.305 414.569 323.833 414.457 323.363 414.504C322.117 414.588 320.889 414.836 319.709 415.243C318.924 415.469 318.1 415.53 317.29 415.423C316.379 415.277 315.526 414.879 314.83 414.272C314.014 413.585 313.379 412.708 312.984 411.718C312.587 410.727 312.442 409.655 312.559 408.595C312.845 406.439 313.863 404.446 315.442 402.949C316.743 401.714 318.266 400.737 319.93 400.068C322.835 398.939 324.767 398.611 324.725 398.474Z" fill="#EAB498"/>
<path d="M312.042 398.4C311.831 398.485 312.254 399.698 313.035 400.975C313.817 402.252 314.44 403.276 314.63 403.192C314.82 403.107 314.45 401.904 313.679 400.595C312.908 399.287 312.275 398.337 312.042 398.4Z" fill="#EAB498"/>
<path d="M293.826 399.54C293.786 399.971 293.815 400.406 293.91 400.828C294.061 401.989 294.277 403.141 294.555 404.279C295.471 408.025 296.77 411.667 298.43 415.148C300.086 418.643 302.089 421.963 304.408 425.058C305.107 425.996 305.855 426.898 306.647 427.759C306.918 428.096 307.235 428.395 307.587 428.646C307.682 428.572 306.531 427.168 304.841 424.752C302.671 421.599 300.756 418.278 299.117 414.821C297.473 411.368 296.117 407.785 295.061 404.11C294.322 401.324 293.953 399.519 293.826 399.54Z" fill="#EAB498"/>
<path d="M282.397 400.099C282.331 400.537 282.331 400.981 282.397 401.419C282.397 402.273 282.534 403.529 282.693 405.017C283.148 408.966 283.854 412.882 284.805 416.742C285.739 420.602 286.942 424.393 288.406 428.086C288.966 429.5 289.462 430.629 289.842 431.389C289.996 431.81 290.218 432.202 290.497 432.55C290.048 430.972 289.516 429.418 288.903 427.896C287.846 425.047 286.632 421.047 285.534 416.562C284.435 412.077 283.728 407.94 283.263 404.954C283.066 403.321 282.776 401.7 282.397 400.099Z" fill="#EAB498"/>
<path d="M273.391 403.539C273.167 404.525 273.082 405.537 273.138 406.546C273.113 408.979 273.226 411.41 273.476 413.828C273.771 416.667 274.183 419.21 274.532 421.046C274.654 422.051 274.92 423.032 275.324 423.959C275.535 423.959 274.764 419.39 274.204 413.754C273.645 408.119 273.602 403.539 273.391 403.539Z" fill="#EAB498"/>
<path d="M314.387 416.003C314.079 415.254 313.682 414.546 313.204 413.892L310.163 408.816C308.99 406.843 307.945 405.049 307.206 403.74C306.859 403.002 306.449 402.297 305.98 401.629C306.057 402.459 306.313 403.262 306.73 403.983C307.564 405.791 308.495 407.552 309.518 409.259C311.821 413.174 314.144 416.203 314.387 416.003Z" fill="#EAB498"/>
<path d="M294.44 403.191C294.294 402.921 294.19 402.629 294.135 402.326C293.902 401.515 293.743 400.685 293.659 399.846C293.604 399.254 293.636 398.656 293.754 398.073C293.936 397.381 294.3 396.751 294.81 396.247C295.342 395.682 296.011 395.264 296.753 395.034C297.559 394.817 298.409 394.817 299.214 395.034C300.729 395.449 302.106 396.257 303.206 397.377C304.054 398.305 304.784 399.332 305.381 400.437C305.899 401.366 306.269 402.136 306.512 402.674C306.659 402.949 306.762 403.244 306.817 403.55C306.743 403.55 306.152 402.421 305.043 400.638C304.423 399.594 303.686 398.624 302.847 397.746C301.802 396.709 300.507 395.956 299.088 395.562C298.399 395.377 297.674 395.377 296.986 395.562C296.298 395.748 295.672 396.112 295.169 396.617C294.733 397.054 294.412 397.596 294.24 398.189C294.114 398.728 294.065 399.283 294.092 399.836C294.187 401.893 294.546 403.17 294.44 403.191Z" fill="#EAB498"/>
<path d="M293.49 399.877C293.264 399.047 292.933 398.25 292.508 397.503C292.006 396.733 291.329 396.093 290.533 395.635C289.553 395.089 288.427 394.86 287.312 394.98C286.195 395.075 285.137 395.523 284.291 396.257C283.597 396.86 283.057 397.62 282.718 398.473C282.442 399.289 282.275 400.137 282.222 400.996C282.222 400.996 282.105 400.753 282.074 400.289C282.051 399.627 282.144 398.966 282.348 398.336C282.624 397.518 283.079 396.772 283.679 396.151C284.279 395.53 285.01 395.051 285.82 394.747C286.629 394.445 287.495 394.325 288.356 394.398C289.217 394.471 290.05 394.735 290.797 395.17C291.649 395.688 292.354 396.415 292.846 397.281C293.176 397.858 293.399 398.491 293.5 399.149C293.56 399.388 293.557 399.64 293.49 399.877Z" fill="#EAB498"/>
<path d="M282.305 400.532C282.053 399.943 281.696 399.407 281.249 398.949C280.737 398.493 280.108 398.189 279.433 398.073C278.607 397.947 277.762 398.08 277.014 398.453C275.632 399.179 274.576 400.401 274.057 401.872C273.614 403.001 273.498 403.772 273.413 403.751C273.343 403.07 273.437 402.382 273.688 401.746C273.912 400.935 274.302 400.181 274.832 399.529C275.364 398.877 276.023 398.342 276.771 397.957C277.625 397.536 278.592 397.403 279.528 397.577C280.282 397.726 280.976 398.093 281.524 398.632C281.79 398.869 282 399.163 282.135 399.491C282.27 399.821 282.329 400.176 282.305 400.532Z" fill="#EAB498"/>
<path d="M266.115 329.425C261.954 332.866 258.659 337.572 257.846 342.88C257.033 348.189 260.085 355.27 264.552 358.277C271.522 357.57 277.584 349.719 279.887 343.123C281.724 337.847 281.333 331.726 280.731 325.932C280.677 325.436 280.506 324.96 280.232 324.542C279.958 324.124 279.589 323.778 279.156 323.53C278.722 323.282 278.237 323.14 277.738 323.115C277.239 323.091 276.741 323.184 276.285 323.389C272.633 324.922 269.21 326.953 266.115 329.425Z" fill="#79C384"/>
<path d="M264.067 378.212C263.925 377.718 263.823 377.213 263.761 376.702C263.592 375.732 263.423 374.307 263.286 372.481C262.592 363.224 263.906 353.926 267.14 345.223C267.763 343.566 268.323 342.247 268.756 341.35C268.947 340.872 269.188 340.416 269.474 339.988C269.34 340.483 269.167 340.966 268.957 341.434C268.587 342.352 268.08 343.692 267.51 345.36C266.023 349.704 264.945 354.176 264.289 358.72C263.654 363.264 263.448 367.857 263.676 372.439C263.761 374.201 263.877 375.605 263.983 376.607C264.07 377.138 264.099 377.676 264.067 378.212Z" fill="#467471"/>
<path d="M260.528 357.106C259.615 355.128 257.985 353.57 255.966 352.747C253.957 351.941 251.787 351.617 249.629 351.798C247.489 351.981 245.368 352.355 243.293 352.916C243.547 355.276 244.323 357.551 245.564 359.575C246.572 360.89 247.855 361.971 249.323 362.74C250.881 363.663 252.608 364.259 254.403 364.493C256.349 364.669 258.301 364.225 259.979 363.226C260.583 362.336 260.951 361.308 261.047 360.237C261.143 359.166 260.964 358.088 260.528 357.106Z" fill="#79C384"/>
<path d="M251.215 356.831C252.067 357.068 252.881 357.423 253.633 357.886C255.523 358.886 257.259 360.151 258.787 361.643C260.301 363.154 261.57 364.891 262.547 366.793C263.006 367.551 263.361 368.368 263.603 369.22C263.088 368.514 262.632 367.766 262.24 366.983C261.19 365.175 259.909 363.512 258.428 362.034C256.93 360.577 255.268 359.299 253.475 358.224C252.692 357.811 251.936 357.346 251.215 356.831Z" fill="#467471"/>
<path d="M183.317 266.623C183.304 266.904 183.265 267.183 183.201 267.457C183.095 268.058 182.947 268.85 182.768 269.852C182.356 271.963 181.86 274.939 181.31 278.675C179.908 288.402 179.323 298.23 179.557 308.054C179.716 313.806 180.159 319.283 180.719 324.232C181.279 329.182 182.007 333.625 182.705 337.339C183.011 339.197 183.391 340.864 183.676 342.341C183.961 343.819 184.236 345.075 184.468 346.098L184.975 348.483C185.045 348.757 185.09 349.036 185.112 349.317C185.001 349.056 184.916 348.783 184.859 348.504C184.711 347.914 184.51 347.133 184.257 346.151C184.003 345.17 183.687 343.872 183.37 342.405C183.053 340.938 182.662 339.239 182.314 337.413C181.564 333.698 180.835 329.256 180.202 324.296C179.568 319.336 179.146 313.838 178.987 308.065C178.746 298.21 179.385 288.353 180.899 278.611C181.501 274.886 182.06 271.868 182.536 269.81C182.768 268.818 182.937 268.027 183.074 267.436C183.127 267.157 183.209 266.885 183.317 266.623Z" fill="#FEF5D8"/>
<path d="M343.094 262.551C343.221 262.822 343.324 263.104 343.4 263.395L344.182 265.833C344.519 266.888 344.91 268.196 345.312 269.716C345.713 271.236 346.22 272.977 346.653 274.919L347.381 277.958C347.603 279.013 347.836 280.121 348.068 281.261C348.575 283.551 348.955 286.021 349.42 288.648C350.233 293.851 350.93 299.592 351.363 305.649C351.796 311.707 351.838 317.5 351.743 322.756C351.648 325.384 351.585 327.885 351.395 330.217C351.204 332.549 351.057 334.723 350.856 336.697C350.655 338.67 350.412 340.453 350.212 342.026C350.011 343.598 349.8 344.938 349.599 346.025C349.399 347.112 349.272 347.925 349.156 348.548C349.118 348.845 349.055 349.138 348.966 349.424C348.968 349.126 348.996 348.829 349.05 348.537C349.135 347.904 349.251 347.06 349.388 345.994C349.525 344.928 349.736 343.556 349.905 341.984C350.074 340.411 350.317 338.638 350.465 336.707C350.613 334.776 350.835 332.56 350.94 330.227C351.046 327.895 351.162 325.405 351.236 322.788C351.31 317.511 351.236 311.77 350.814 305.723C350.391 299.676 349.705 293.957 348.923 288.775C348.469 286.189 348.1 283.72 347.624 281.441C347.392 280.301 347.17 279.193 346.97 278.127L346.273 275.088C345.861 273.146 345.396 271.415 345.016 269.885C344.636 268.355 344.287 267.046 343.96 265.98L343.284 263.511C343.19 263.198 343.126 262.876 343.094 262.551Z" fill="#FEF5D8"/>
<path d="M305.001 74.7262C304.251 74.9794 303.09 73.5126 301.368 71.3386C300.534 70.2833 299.457 68.9958 298.316 67.6239C297.176 66.252 295.771 64.8274 294.292 63.4027C288.378 57.5457 282.433 53.7044 283.098 52.2692C283.404 51.6044 285.379 51.7204 288.241 52.8496C291.946 54.4032 295.314 56.6612 298.158 59.4981C299.742 61.0625 301.158 62.7886 302.382 64.648C303.372 66.1855 304.179 67.8321 304.79 69.5552C305.814 72.4784 305.688 74.494 305.001 74.7262Z" fill="#F89090"/>
<path d="M291.937 195.759C291.397 225.059 292.614 254.364 295.58 283.519C296.003 287.603 296.51 291.855 298.749 295.327C303.765 303.179 314.843 303.77 324.168 303.401C328.604 303.242 337.76 303.939 340.242 300.235C341.879 297.807 339.598 292.162 340.242 289.302C347.18 258.603 343.125 227.978 335.373 200.012" fill="#263238"/>
</g>
<defs>
<linearGradient id="paint0_linear_1795_1046" x1="339.884" y1="27.1906" x2="259.124" y2="244.754" gradientUnits="userSpaceOnUse">
<stop stop-color="#F78F8F"/>
<stop offset="1" stop-color="#F8F3E3"/>
</linearGradient>
<clipPath id="clip0_1795_1046">
<rect width="490" height="436" fill="white"/>
</clipPath>
</defs>
</svg>
