<svg width="1600" height="639" viewBox="0 0 1600 639" fill="none" xmlns="http://www.w3.org/2000/svg">
<path d="M1185.32 441.432H968.736C964.296 438.309 961.163 433.659 959.936 428.371C958.709 423.082 959.475 417.528 962.086 412.768C963.068 410.843 964.535 409.208 966.342 408.023C963.92 403.456 963.196 398.178 964.299 393.127C965.427 388.371 969.364 385.147 973.428 382.551C970.42 365.142 973.822 347.232 983.004 332.138C992.133 317.306 1007.19 307.666 1023.74 302.974C1022.99 296.624 1023.57 290.186 1025.47 284.078C1027.36 277.97 1030.51 272.328 1034.73 267.518C1038.94 262.708 1044.12 258.838 1049.93 256.158C1055.73 253.479 1062.04 252.051 1068.43 251.966C1068.91 247.459 1070.36 243.108 1072.68 239.217C1075.01 235.326 1078.15 231.986 1081.89 229.43C1085.58 226.925 1089.77 225.277 1094.18 224.609C1098.58 223.94 1103.08 224.268 1107.34 225.568C1108 222.376 1109.38 219.376 1111.37 216.795C1113.36 214.215 1115.91 212.121 1118.83 210.672C1121.76 209.294 1124.96 208.616 1128.19 208.691C1131.42 208.767 1134.59 209.595 1137.44 211.108C1146.15 208.64 1155.72 213.29 1159.67 221.568C1163.62 229.845 1160.98 240.826 1153.69 246.284C1161.92 258.542 1161.55 277.736 1152.82 289.621C1157.63 290.919 1159.71 297.814 1160.43 302.836C1162.49 317.433 1160 332.31 1153.32 345.449C1162.19 345.023 1170.78 351.642 1176.07 358.919C1178.69 362.614 1180.4 366.878 1181.05 371.362C1181.71 375.846 1181.28 380.421 1179.82 384.711C1184.97 384.391 1189.35 388.467 1191.88 393.031C1193.78 396.821 1195 400.916 1195.47 405.129C1195.68 405.549 1195.83 405.992 1195.93 406.448C1198.69 418.556 1194.44 432.952 1185.32 441.432Z" fill="#7C0EAE"/>
<g opacity="0.6">
<path d="M1185.32 441.432H968.736C964.296 438.309 961.163 433.659 959.936 428.371C958.709 423.082 959.475 417.528 962.086 412.768C963.068 410.843 964.535 409.208 966.342 408.023C963.92 403.456 963.196 398.178 964.299 393.127C965.427 388.371 969.364 385.147 973.428 382.551C970.42 365.142 973.822 347.232 983.004 332.138C992.133 317.306 1007.19 307.666 1023.74 302.974C1022.99 296.624 1023.57 290.186 1025.47 284.078C1027.36 277.97 1030.51 272.328 1034.73 267.518C1038.94 262.708 1044.12 258.838 1049.93 256.158C1055.73 253.479 1062.04 252.051 1068.43 251.966C1068.91 247.459 1070.36 243.108 1072.68 239.217C1075.01 235.326 1078.15 231.986 1081.89 229.43C1085.58 226.925 1089.77 225.277 1094.18 224.609C1098.58 223.94 1103.08 224.268 1107.34 225.568C1108 222.376 1109.38 219.376 1111.37 216.795C1113.36 214.215 1115.91 212.121 1118.83 210.672C1121.76 209.294 1124.96 208.616 1128.19 208.691C1131.42 208.767 1134.59 209.595 1137.44 211.108C1146.15 208.64 1155.72 213.29 1159.67 221.568C1163.62 229.845 1160.98 240.826 1153.69 246.284C1161.92 258.542 1161.55 277.736 1152.82 289.621C1157.63 290.919 1159.71 297.814 1160.43 302.836C1162.49 317.433 1160 332.31 1153.32 345.449C1162.19 345.023 1170.78 351.642 1176.07 358.919C1178.69 362.614 1180.4 366.878 1181.05 371.362C1181.71 375.846 1181.28 380.421 1179.82 384.711C1184.97 384.391 1189.35 388.467 1191.88 393.031C1193.78 396.821 1195 400.916 1195.47 405.129C1195.68 405.549 1195.83 405.992 1195.93 406.448C1198.69 418.556 1194.44 432.952 1185.32 441.432Z" fill="white"/>
</g>
<path d="M1133.36 193.244L1200.3 182.38C1200.53 182.345 1200.77 182.372 1200.99 182.459C1201.21 182.546 1201.4 182.689 1201.55 182.875C1201.7 183.06 1201.8 183.281 1201.83 183.515C1201.87 183.75 1201.84 183.989 1201.75 184.21L1176.29 247.061C1176.21 247.279 1176.06 247.471 1175.88 247.617C1175.7 247.762 1175.48 247.857 1175.24 247.89C1175.01 247.924 1174.77 247.895 1174.56 247.807C1174.34 247.72 1174.15 247.576 1174 247.39L1132.51 195.403C1132.36 195.219 1132.27 195 1132.23 194.767C1132.2 194.534 1132.22 194.297 1132.31 194.078C1132.4 193.859 1132.54 193.667 1132.72 193.52C1132.91 193.374 1133.13 193.278 1133.36 193.244Z" fill="#7C0EAE"/>
<path opacity="0.2" d="M1133.36 193.244L1200.3 182.38C1200.53 182.345 1200.77 182.372 1200.99 182.459C1201.21 182.546 1201.4 182.689 1201.55 182.875C1201.7 183.06 1201.8 183.281 1201.83 183.515C1201.87 183.75 1201.84 183.989 1201.75 184.21L1176.29 247.061C1176.21 247.279 1176.06 247.471 1175.88 247.617C1175.7 247.762 1175.48 247.857 1175.24 247.89C1175.01 247.924 1174.77 247.895 1174.56 247.807C1174.34 247.72 1174.15 247.576 1174 247.39L1132.51 195.403C1132.36 195.219 1132.27 195 1132.23 194.767C1132.2 194.534 1132.22 194.297 1132.31 194.078C1132.4 193.859 1132.54 193.667 1132.72 193.52C1132.91 193.374 1133.13 193.278 1133.36 193.244Z" fill="white"/>
<path d="M1138.14 218.599L1142.31 213.204L1138.68 208.65L1132.49 211.523C1132.92 213.017 1133.64 214.411 1134.6 215.625C1135.57 216.839 1136.77 217.85 1138.14 218.599Z" fill="#263238"/>
<path opacity="0.2" d="M1138.68 208.65L1137.22 209.321C1138.07 211.391 1139.5 213.177 1141.33 214.47L1142.31 213.204L1138.68 208.65Z" fill="white"/>
<path opacity="0.4" d="M1135.67 210.044L1134.51 210.587C1135.5 213.124 1137.24 215.302 1139.5 216.832L1140.27 215.821C1138.38 214.212 1136.82 212.25 1135.67 210.044Z" fill="white"/>
<path d="M1144.69 215.438C1142.84 214.427 1141.21 213.06 1139.9 211.417C1138.58 209.773 1137.6 207.885 1137.02 205.862L1175.5 175.155C1177.65 173.431 1180.13 172.151 1182.78 171.387C1185.43 170.624 1188.2 170.393 1190.94 170.708C1190.64 173.447 1189.8 176.1 1188.46 178.513C1187.13 180.925 1185.33 183.049 1183.17 184.763L1144.69 215.438Z" fill="#7C0EAE"/>
<path d="M1175.5 175.123L1139.23 204.075C1140.64 208.036 1143.34 211.409 1146.89 213.651L1183.18 184.699C1185.33 182.986 1187.13 180.861 1188.47 178.449C1189.8 176.036 1190.64 173.384 1190.94 170.644C1188.2 170.334 1185.43 170.57 1182.78 171.339C1180.13 172.108 1177.65 173.394 1175.5 175.123Z" fill="#7C0EAE"/>
<path opacity="0.5" d="M1175.5 175.123L1139.23 204.075C1140.64 208.036 1143.34 211.409 1146.89 213.651L1183.18 184.699C1185.33 182.986 1187.13 180.861 1188.47 178.449C1189.8 176.036 1190.64 173.384 1190.94 170.644C1188.2 170.334 1185.43 170.57 1182.78 171.339C1180.13 172.108 1177.65 173.394 1175.5 175.123Z" fill="white"/>
<path d="M1175.5 175.123L1173.84 176.453C1175.45 180.297 1178.11 183.614 1181.5 186.029L1183.18 184.699C1185.33 182.986 1187.13 180.861 1188.47 178.449C1189.8 176.036 1190.64 173.384 1190.94 170.644C1188.2 170.334 1185.42 170.57 1182.77 171.339C1180.12 172.108 1177.65 173.394 1175.5 175.123Z" fill="#7C0EAE"/>
<path opacity="0.2" d="M1175.5 175.123L1173.84 176.453C1175.45 180.297 1178.11 183.614 1181.5 186.029L1183.18 184.699C1185.33 182.986 1187.13 180.861 1188.47 178.449C1189.8 176.036 1190.64 173.384 1190.94 170.644C1188.2 170.334 1185.42 170.57 1182.77 171.339C1180.12 172.108 1177.65 173.394 1175.5 175.123Z" fill="white"/>
<path d="M1158.36 242.347L1162.53 236.942L1158.9 232.398L1152.72 235.271C1153.15 236.764 1153.87 238.158 1154.84 239.373C1155.8 240.587 1157 241.598 1158.36 242.347Z" fill="#263238"/>
<path opacity="0.2" d="M1158.9 232.398L1157.46 233.069C1158.31 235.139 1159.73 236.923 1161.56 238.208L1162.53 236.942L1158.9 232.398Z" fill="white"/>
<path opacity="0.4" d="M1155.9 233.793L1154.74 234.325C1155.73 236.867 1157.47 239.049 1159.72 240.581L1160.51 239.517C1158.62 237.926 1157.05 235.982 1155.9 233.793Z" fill="white"/>
<path d="M1164.93 239.188C1161.2 237.139 1158.44 233.694 1157.26 229.612L1195.74 198.904C1197.89 197.181 1200.37 195.901 1203.02 195.135C1205.66 194.37 1208.44 194.136 1211.18 194.446C1210.87 197.186 1210.03 199.838 1208.69 202.252C1207.36 204.665 1205.57 206.793 1203.41 208.512L1164.93 239.188Z" fill="#7C0EAE"/>
<path d="M1195.74 198.872L1159.46 227.813C1160.87 231.774 1163.57 235.146 1167.13 237.389L1203.41 208.448C1205.57 206.728 1207.36 204.601 1208.7 202.187C1210.03 199.774 1210.87 197.122 1211.18 194.382C1208.44 194.076 1205.66 194.315 1203.01 195.086C1200.36 195.857 1197.89 197.143 1195.74 198.872Z" fill="#7C0EAE"/>
<path opacity="0.5" d="M1195.74 198.872L1159.46 227.813C1160.87 231.774 1163.57 235.146 1167.13 237.389L1203.41 208.448C1205.57 206.728 1207.36 204.601 1208.7 202.187C1210.03 199.774 1210.87 197.122 1211.18 194.382C1208.44 194.076 1205.66 194.315 1203.01 195.086C1200.36 195.857 1197.89 197.143 1195.74 198.872Z" fill="white"/>
<path d="M1195.74 198.872L1194.08 200.192C1195.69 204.036 1198.34 207.353 1201.74 209.768L1203.41 208.438C1205.57 206.718 1207.36 204.591 1208.69 202.177C1210.03 199.764 1210.87 197.112 1211.18 194.372C1208.44 194.068 1205.66 194.309 1203.01 195.081C1200.36 195.853 1197.89 197.142 1195.74 198.872Z" fill="#7C0EAE"/>
<path opacity="0.2" d="M1195.74 198.872L1194.08 200.192C1195.69 204.036 1198.34 207.353 1201.74 209.768L1203.41 208.438C1205.57 206.718 1207.36 204.591 1208.69 202.177C1210.03 199.764 1210.87 197.112 1211.18 194.372C1208.44 194.068 1205.66 194.309 1203.01 195.081C1200.36 195.853 1197.89 197.142 1195.74 198.872Z" fill="white"/>
<path d="M1147.58 234.548L1154.33 225.844L1148.47 218.492L1138.48 223.131C1139.17 225.541 1140.33 227.791 1141.89 229.751C1143.45 231.71 1145.39 233.341 1147.58 234.548Z" fill="#263238"/>
<path opacity="0.2" d="M1148.47 218.492L1146.13 219.556C1147.5 222.896 1149.79 225.775 1152.75 227.855L1154.33 225.823L1148.47 218.492Z" fill="white"/>
<path opacity="0.4" d="M1143.62 220.748L1141.73 221.621C1143.34 225.719 1146.15 229.236 1149.79 231.707L1151.05 230.069C1147.99 227.475 1145.47 224.309 1143.62 220.748Z" fill="white"/>
<path d="M1158.13 229.451C1155.15 227.808 1152.52 225.592 1150.39 222.929C1148.27 220.267 1146.69 217.212 1145.75 213.938L1207.88 164.367C1211.36 161.588 1215.35 159.523 1219.62 158.291C1223.9 157.058 1228.38 156.682 1232.8 157.185C1232.31 161.607 1230.95 165.888 1228.8 169.783C1226.65 173.678 1223.75 177.109 1220.27 179.88L1158.13 229.451Z" fill="#7C0EAE"/>
<path d="M1207.92 164.367L1149.4 211.097C1151.65 217.513 1156 222.985 1161.74 226.632L1220.31 179.901C1223.79 177.131 1226.69 173.699 1228.84 169.804C1230.99 165.91 1232.35 161.628 1232.84 157.206C1228.42 156.701 1223.95 157.073 1219.67 158.302C1215.39 159.531 1211.4 161.592 1207.92 164.367Z" fill="#7C0EAE"/>
<path opacity="0.6" d="M1207.92 164.367L1149.4 211.097C1151.65 217.513 1156 222.985 1161.74 226.632L1220.31 179.901C1223.79 177.131 1226.69 173.699 1228.84 169.804C1230.99 165.91 1232.35 161.628 1232.84 157.206C1228.42 156.701 1223.95 157.073 1219.67 158.302C1215.39 159.531 1211.4 161.592 1207.92 164.367Z" fill="white"/>
<path d="M1207.92 164.367L1205.24 166.495C1207.84 172.721 1212.12 178.095 1217.62 182.008L1220.31 179.88C1223.79 177.109 1226.69 173.678 1228.84 169.783C1230.99 165.888 1232.35 161.607 1232.84 157.185C1228.42 156.682 1223.94 157.058 1219.67 158.291C1215.39 159.523 1211.4 161.588 1207.92 164.367Z" fill="#7C0EAE"/>
<path opacity="0.2" d="M1207.92 164.367L1205.24 166.495C1207.84 172.721 1212.12 178.095 1217.62 182.008L1220.31 179.88C1223.79 177.109 1226.69 173.678 1228.84 169.783C1230.99 165.888 1232.35 161.607 1232.84 157.185C1228.42 156.682 1223.94 157.058 1219.67 158.291C1215.39 159.523 1211.4 161.588 1207.92 164.367Z" fill="white"/>
<path d="M1205.29 186.562C1204.4 187.273 1203.32 187.704 1202.18 187.799C1201.04 187.894 1199.9 187.649 1198.9 187.096C1197.9 186.544 1197.09 185.707 1196.56 184.692C1196.04 183.677 1195.83 182.53 1195.96 181.395C1196.08 180.26 1196.55 179.188 1197.28 178.315C1198.02 177.443 1199 176.808 1200.09 176.491C1201.19 176.174 1202.36 176.189 1203.45 176.535C1204.53 176.881 1205.5 177.541 1206.21 178.433C1207.17 179.633 1207.61 181.163 1207.43 182.687C1207.26 184.211 1206.49 185.605 1205.29 186.562Z" fill="#7C0EAE"/>
<path d="M1197.17 185.646C1196.26 184.508 1195.81 183.068 1195.92 181.616C1196.03 180.164 1196.68 178.807 1197.75 177.815C1197.63 177.894 1197.51 177.979 1197.4 178.071C1196.81 178.544 1196.31 179.13 1195.95 179.795C1195.58 180.46 1195.35 181.19 1195.26 181.944C1195.18 182.699 1195.24 183.462 1195.45 184.191C1195.66 184.921 1196.02 185.601 1196.49 186.194C1196.96 186.788 1197.55 187.282 1198.21 187.648C1198.88 188.015 1199.61 188.247 1200.36 188.332C1201.12 188.416 1201.88 188.351 1202.61 188.141C1203.34 187.93 1204.02 187.578 1204.61 187.104L1204.93 186.817C1203.73 187.637 1202.26 187.972 1200.82 187.755C1199.38 187.538 1198.07 186.785 1197.17 185.646Z" fill="#7C0EAE"/>
<path opacity="0.3" d="M1197.17 185.646C1196.26 184.508 1195.81 183.068 1195.92 181.616C1196.03 180.164 1196.68 178.807 1197.75 177.815C1197.63 177.894 1197.51 177.979 1197.4 178.071C1196.81 178.544 1196.31 179.13 1195.95 179.795C1195.58 180.46 1195.35 181.19 1195.26 181.944C1195.18 182.699 1195.24 183.462 1195.45 184.191C1195.66 184.921 1196.02 185.601 1196.49 186.194C1196.96 186.788 1197.55 187.282 1198.21 187.648C1198.88 188.015 1199.61 188.247 1200.36 188.332C1201.12 188.416 1201.88 188.351 1202.61 188.141C1203.34 187.93 1204.02 187.578 1204.61 187.104L1204.93 186.817C1203.73 187.637 1202.26 187.972 1200.82 187.755C1199.38 187.538 1198.07 186.785 1197.17 185.646Z" fill="black"/>
<path d="M1204.23 185.232C1203.6 185.736 1202.83 186.042 1202.03 186.11C1201.22 186.178 1200.41 186.006 1199.71 185.615C1199 185.224 1198.42 184.632 1198.05 183.913C1197.68 183.195 1197.53 182.383 1197.62 181.579C1197.71 180.776 1198.04 180.018 1198.56 179.4C1199.08 178.783 1199.78 178.335 1200.55 178.112C1201.33 177.889 1202.16 177.901 1202.93 178.148C1203.7 178.394 1204.38 178.864 1204.88 179.497C1205.22 179.915 1205.47 180.396 1205.62 180.911C1205.76 181.426 1205.81 181.966 1205.75 182.499C1205.69 183.032 1205.52 183.548 1205.26 184.017C1205 184.486 1204.65 184.899 1204.23 185.232Z" fill="white"/>
<path d="M1198.38 184.413L1205.57 180.806C1205.43 180.365 1205.21 179.951 1204.93 179.582L1197.76 183.168C1197.9 183.614 1198.11 184.034 1198.38 184.413Z" fill="#7C0EAE"/>
<path d="M1199.5 185.466L1205.75 182.337C1205.78 182.083 1205.78 181.826 1205.75 181.571L1198.91 184.997C1199.09 185.17 1199.29 185.327 1199.5 185.466Z" fill="#7C0EAE"/>
<g opacity="0.7">
<path d="M1198.38 184.413L1205.57 180.806C1205.43 180.365 1205.21 179.951 1204.93 179.582L1197.76 183.168C1197.9 183.614 1198.11 184.034 1198.38 184.413Z" fill="white"/>
<path d="M1199.5 185.466L1205.75 182.337C1205.78 182.083 1205.78 181.826 1205.75 181.571L1198.91 184.997C1199.09 185.17 1199.29 185.327 1199.5 185.466Z" fill="white"/>
</g>
<path d="M1275.45 249.338H1218.27V441.283H1275.45V249.338Z" fill="#FF81AE"/>
<path opacity="0.2" d="M1234.28 249.316H1218.13V441.177H1234.28V249.316Z" fill="black"/>
<path d="M1016.22 387.902H959.043V441.294H1016.22V387.902Z" fill="#FF81AE"/>
<path opacity="0.2" d="M974.663 387.85H958.512V441.188H974.663V387.85Z" fill="black"/>
<path d="M1099.24 341.714H1042.06V441.283H1099.24V341.714Z" fill="#FF81AE"/>
<path opacity="0.2" d="M1057.82 341.672H1041.66V441.188H1057.82V341.672Z" fill="black"/>
<path d="M1188.17 295.526H1130.99V441.284H1188.17V295.526Z" fill="#FF81AE"/>
<path opacity="0.2" d="M1146.87 295.494H1130.72V441.188H1146.87V295.494Z" fill="black"/>
<path d="M1358.46 203.149H1301.28V441.283H1358.46V203.149Z" fill="#FF81AE"/>
<path opacity="0.2" d="M1317.43 203.149H1301.28V441.188H1317.43V203.149Z" fill="black"/>
<path d="M1072.92 310.518L1068.2 326.637L1075.16 328.265L1080.46 312.837L1072.92 310.518Z" fill="#FF8B7B"/>
<path d="M1076.72 326.403L1068.75 324.86C1068.6 324.837 1068.44 324.867 1068.31 324.944C1068.18 325.022 1068.07 325.142 1068.02 325.286L1065.16 331.989C1065.03 332.262 1065.01 332.575 1065.1 332.861C1065.2 333.147 1065.41 333.384 1065.68 333.521L1065.9 333.595C1068.79 334.095 1071.4 334.415 1075 335.106C1079.25 335.926 1078.05 336.266 1083.03 337.298C1086.02 337.915 1087.29 334.361 1086.08 333.936C1080.4 332.031 1080.18 330.031 1078.38 327.36C1077.98 326.835 1077.38 326.491 1076.72 326.403Z" fill="#263238"/>
<path d="M1035.29 205.299L1062.75 222.11L1033.98 227.153L1035.29 205.299Z" fill="#263238"/>
<path d="M1079.31 320.647L1069.39 318.87C1069.39 318.87 1073.08 305.123 1077.08 286.333C1077.7 283.439 1085.67 261.414 1085.67 261.414C1085.67 261.414 1046.3 242.964 1045.67 242.762C1045.17 242.603 1041.95 242.358 1036.92 238.421C1027.55 231.101 1030.53 216.779 1030.53 216.779L1055 217.364C1078.89 230.132 1099.63 248.784 1102.43 256.424C1106.36 267.181 1079.31 320.647 1079.31 320.647Z" fill="#263238"/>
<path d="M981.047 303.335L964.693 307.187L966.726 314.049L982.749 311.028L981.047 303.335Z" fill="#FF8B7B"/>
<path d="M969.108 314.475L966.491 306.751C966.434 306.607 966.331 306.487 966.198 306.408C966.065 306.329 965.91 306.296 965.757 306.314L958.511 307.144C958.21 307.166 957.929 307.306 957.73 307.533C957.531 307.76 957.429 308.056 957.447 308.357C957.437 308.431 957.437 308.507 957.447 308.581C958.447 311.347 959.447 313.773 960.639 317.242C962.033 321.338 961.15 320.434 962.767 325.307C963.703 328.222 967.438 327.584 967.193 326.296C966.044 320.423 967.672 319.242 969.108 316.359C969.353 315.755 969.353 315.079 969.108 314.475Z" fill="#263238"/>
<path d="M975.397 313.88L972.045 304.389L1024.06 275.395C1024.06 275.395 1020.67 232.079 1020.51 231.409C1020.35 230.739 1019.02 227.972 1019.96 221.642C1021.69 209.938 1035.59 205.373 1035.59 205.373L1047.47 230.452C1047.47 230.452 1041.95 281.289 1036.69 287.493C1029.3 296.228 975.397 313.88 975.397 313.88Z" fill="#263238"/>
<path opacity="0.2" d="M1045.67 242.762L1036.92 238.421L1043.66 259.19L1045.67 242.762Z" fill="black"/>
<path d="M1066.62 174.58C1062.11 175.549 1057.58 176.411 1053.05 177.251L1049.64 177.868L1046.61 178.39C1045.3 178.669 1044.09 179.311 1043.12 180.241L1038.34 185.135C1036.75 186.795 1035.15 188.455 1033.52 190.083C1030.33 193.36 1027.03 196.627 1023.71 199.84C1023.19 200.346 1022.5 200.638 1021.77 200.66C1021.04 200.682 1020.33 200.432 1019.78 199.959C1019.22 199.485 1018.87 198.823 1018.78 198.1C1018.69 197.378 1018.87 196.647 1019.29 196.052C1021.93 192.275 1024.61 188.604 1027.37 184.859C1028.72 182.986 1030.11 181.156 1031.49 179.326L1035.75 173.719C1037.84 171.188 1040.62 169.321 1043.76 168.345L1047.44 167.345L1050.76 166.473C1055.2 165.345 1059.62 164.217 1064.08 163.196C1065.53 163.009 1066.99 163.369 1068.19 164.207C1069.38 165.045 1070.22 166.298 1070.54 167.723C1070.86 169.147 1070.63 170.639 1069.91 171.905C1069.19 173.172 1068.01 174.122 1066.62 174.57V174.58Z" fill="#FD5A68"/>
<path opacity="0.1" d="M1066.62 174.58C1062.11 175.549 1057.58 176.411 1053.05 177.251L1049.64 177.868L1046.61 178.39C1045.3 178.669 1044.09 179.311 1043.12 180.241L1038.34 185.135C1036.75 186.795 1035.15 188.455 1033.52 190.083C1030.33 193.36 1027.03 196.627 1023.71 199.84C1023.19 200.346 1022.5 200.638 1021.77 200.66C1021.04 200.682 1020.33 200.432 1019.78 199.959C1019.22 199.485 1018.87 198.823 1018.78 198.1C1018.69 197.378 1018.87 196.647 1019.29 196.052C1021.93 192.275 1024.61 188.604 1027.37 184.859C1028.72 182.986 1030.11 181.156 1031.49 179.326L1035.75 173.719C1037.84 171.188 1040.62 169.321 1043.76 168.345L1047.44 167.345L1050.76 166.473C1055.2 165.345 1059.62 164.217 1064.08 163.196C1065.53 163.009 1066.99 163.369 1068.19 164.207C1069.38 165.045 1070.22 166.298 1070.54 167.723C1070.86 169.147 1070.63 170.639 1069.91 171.905C1069.19 173.172 1068.01 174.122 1066.62 174.57V174.58Z" fill="black"/>
<path d="M1018.38 195.988L1011.36 198.712L1017.74 204.862L1023.06 200.606C1023.21 200.489 1023.34 200.342 1023.43 200.175C1023.52 200.008 1023.57 199.824 1023.59 199.634C1023.61 199.445 1023.59 199.254 1023.53 199.074C1023.47 198.893 1023.37 198.727 1023.24 198.584C1022.65 197.851 1021.91 197.244 1021.07 196.798C1020.24 196.352 1019.32 196.077 1018.38 195.988Z" fill="#FF8B7B"/>
<path d="M1011.36 198.712L1010.3 200.755C1010.03 201.246 1009.95 201.815 1010.06 202.362C1010.17 202.909 1010.48 203.399 1010.91 203.745L1013.17 205.511C1013.51 205.777 1013.91 205.946 1014.33 206C1014.76 206.055 1015.19 205.992 1015.58 205.819L1017.71 204.862L1011.36 198.712Z" fill="#FF8B7B"/>
<path d="M1103.3 156.822C1103.61 156.971 1103.67 157.471 1103.44 157.886C1103.2 158.301 1102.78 158.61 1102.48 158.461C1102.18 158.312 1102.12 157.812 1102.34 157.343C1102.57 156.875 1103 156.662 1103.3 156.822Z" fill="#263238"/>
<path d="M1103.09 157.184C1103.48 157.26 1103.9 157.192 1104.25 156.993C1104.05 157.012 1103.85 156.992 1103.66 156.934C1103.46 156.876 1103.29 156.78 1103.13 156.652C1103.17 156.738 1103.18 156.831 1103.17 156.923C1103.17 157.016 1103.14 157.105 1103.09 157.184Z" fill="#263238"/>
<path d="M1100.44 161.621C1100.77 161.904 1101.16 162.112 1101.58 162.229C1101.99 162.347 1102.43 162.372 1102.86 162.302C1102.55 160.633 1102.46 158.93 1102.6 157.237L1100.44 161.621Z" fill="#FF5652"/>
<path d="M1101.62 154.439C1101.99 154.352 1102.38 154.356 1102.75 154.448C1103.12 154.541 1103.46 154.72 1103.75 154.971L1103.81 155.045C1103.84 155.07 1103.88 155.088 1103.92 155.098C1103.96 155.109 1104 155.111 1104.04 155.105C1104.08 155.099 1104.12 155.085 1104.16 155.064C1104.19 155.043 1104.22 155.015 1104.25 154.981C1104.27 154.95 1104.29 154.913 1104.3 154.874C1104.31 154.835 1104.31 154.795 1104.31 154.755C1104.3 154.715 1104.29 154.677 1104.27 154.643C1104.24 154.609 1104.22 154.579 1104.18 154.556C1103.84 154.227 1103.41 153.988 1102.95 153.858C1102.49 153.728 1102 153.712 1101.53 153.811C1101.46 153.822 1101.4 153.86 1101.35 153.917C1101.3 153.977 1101.27 154.055 1101.27 154.136C1101.27 154.217 1101.3 154.295 1101.35 154.354C1101.39 154.386 1101.43 154.41 1101.48 154.425C1101.52 154.439 1101.57 154.444 1101.62 154.439Z" fill="#263238"/>
<path d="M1080.38 176.187C1073.49 170.867 1075.38 166.313 1075.38 166.313C1078.99 165.93 1081.97 162.366 1084.09 158.78C1084.04 159.982 1084.21 161.183 1084.59 162.323C1085.37 164.685 1090.28 165.76 1090.28 165.76C1090.28 165.76 1089.8 166.367 1089.21 167.271C1087.64 169.495 1085.16 173.602 1086.64 175.709C1086.58 175.709 1087.97 182.05 1080.38 176.187Z" fill="#FF8B7B"/>
<path d="M1089.95 166.398C1089.63 166.654 1089.31 166.909 1089 167.207C1088.97 167.219 1088.93 167.219 1088.89 167.207C1087.88 166.743 1086.98 166.073 1086.25 165.239C1085.52 164.405 1084.97 163.426 1084.64 162.366C1084.25 161.223 1084.08 160.018 1084.14 158.812C1084.69 157.908 1085.2 156.982 1085.61 156.131L1089.86 166.069L1089.95 166.398Z" fill="#FF8B7B"/>
<path d="M1099.25 164.686C1098.3 165.847 1097.07 166.75 1095.68 167.308C1094.29 167.866 1092.78 168.062 1091.29 167.878C1090.51 167.791 1089.75 167.583 1089.04 167.26C1089.01 167.273 1088.97 167.273 1088.94 167.26C1087.93 166.797 1087.03 166.126 1086.29 165.292C1085.56 164.458 1085.01 163.479 1084.68 162.419C1084.29 161.276 1084.12 160.071 1084.18 158.865C1084.3 155.971 1085.67 153.088 1087.44 148.885C1087.99 147.512 1088.88 146.303 1090.04 145.373C1091.19 144.444 1092.56 143.825 1094.02 143.575C1095.48 143.326 1096.98 143.454 1098.37 143.947C1099.77 144.441 1101.01 145.284 1101.99 146.395C1106.38 151.322 1102.99 160.153 1099.25 164.686Z" fill="#FF8B7B"/>
<path opacity="0.2" d="M1090.81 167.686C1090.24 167.655 1089.68 167.514 1089.16 167.271C1089.8 166.367 1090.29 165.771 1090.22 165.761L1091.53 164.313C1091.53 164.313 1090.45 167.399 1090.81 167.686Z" fill="black"/>
<path d="M1104.8 153.95C1103.56 154.397 1101.21 153.759 1101.44 153.61C1102.31 153.11 1103.36 151.663 1102.2 151.269C1102.01 152.035 1099.43 156.844 1098.68 157.078C1098.28 157.217 1095.49 160.441 1091.65 162.281C1088.64 163.75 1088.05 164.484 1088.05 164.484L1082.73 161.707C1081.16 160.111 1077.36 145.821 1085.41 143.097C1088.05 142.204 1090.07 139.969 1094.27 141.172C1096.85 141.916 1099.88 141.459 1102.43 142.342C1103.73 142.721 1104.91 143.411 1105.88 144.351C1106.85 145.29 1107.58 146.452 1108 147.736C1108.29 149.013 1107.95 152.844 1104.8 153.95Z" fill="#263238"/>
<path d="M1099.95 155.099C1101.01 156.652 1100.13 159.355 1099.13 160.759C1098.13 162.164 1096.29 162.451 1095.78 160.429C1095.41 158.893 1095.56 157.279 1096.19 155.833C1096.99 154.109 1098.84 153.545 1099.95 155.099Z" fill="#FF8B7B"/>
<path d="M1071.47 167.229C1071.47 167.229 1075.12 164.793 1077.54 165.027C1079.95 165.261 1086.14 171.879 1086.9 173.177C1087.67 174.475 1086.76 177.89 1086.76 177.89L1071.47 167.229Z" fill="#FD5A68"/>
<path opacity="0.3" d="M1071.47 167.229C1071.47 167.229 1075.12 164.793 1077.54 165.027C1079.95 165.261 1086.14 171.879 1086.9 173.177C1087.67 174.475 1086.76 177.89 1086.76 177.89L1071.47 167.229Z" fill="white"/>
<path d="M1088.63 178.508C1087.91 177.621 1087.14 176.775 1086.33 175.975C1082.7 172.819 1078.89 169.874 1074.92 167.155C1073.48 166.205 1071.95 165.376 1070.37 164.676C1068.82 163.959 1067.07 163.817 1065.42 164.273C1063.78 164.729 1062.35 165.754 1061.39 167.165C1055.89 175.294 1054.59 181.604 1050.93 186.924C1046.15 193.747 1040.57 199.97 1034.31 205.459L1038.86 210.332C1045.95 215.823 1054.08 219.829 1062.75 222.11C1062.75 222.11 1071.04 208.874 1075.8 205.501C1088.79 196.276 1088.01 192.584 1090.03 188.594C1090.85 186.97 1091.16 185.134 1090.9 183.332C1090.65 181.529 1089.86 179.847 1088.63 178.508Z" fill="#FD5A68"/>
<path d="M1090.03 188.605C1089.31 190.02 1088.97 191.425 1088.17 193.052C1086.72 195.929 1084.68 198.466 1082.18 200.5C1080.15 202.292 1078.02 203.966 1075.79 205.512C1073.79 207.16 1072 209.055 1070.47 211.151C1069.61 212.254 1069.11 213.596 1069.03 214.994C1068.96 216.393 1069.31 217.781 1070.05 218.972C1073.42 224.472 1078.56 232.325 1078.56 232.325C1074.9 231.367 1073.41 230.973 1067.59 232.814C1058.48 235.687 1039.38 233.155 1034 225.462C1035.44 221.866 1037.71 218.658 1040.62 216.099C1037.28 218.309 1034.22 220.909 1031.5 223.845C1029.1 224.345 1026.66 223.025 1024.93 221.312C1023.19 219.599 1021.89 217.45 1020.22 215.673C1018.55 213.896 1016.72 212.215 1014.29 212.428C1017.48 208.172 1022.87 206.427 1027.95 204.98C1031.73 203.916 1036.57 202.32 1040.18 199.926C1044.15 195.931 1047.76 191.591 1050.96 186.956C1054.61 181.636 1055.9 175.326 1061.42 167.187C1062.38 165.773 1063.81 164.747 1065.45 164.291C1067.1 163.835 1068.85 163.979 1070.4 164.697C1071.98 165.401 1073.51 166.234 1074.95 167.187C1078.92 169.904 1082.72 172.841 1086.35 175.986C1087.16 176.792 1087.93 177.641 1088.65 178.529C1089.87 179.872 1090.66 181.553 1090.9 183.352C1091.15 185.151 1090.85 186.982 1090.03 188.605Z" fill="#FD5A68"/>
<path d="M1140.37 174.719L1145.85 172.346C1146.07 172.247 1146.29 172.123 1146.49 171.974L1148.95 170.048C1149.13 169.917 1149.25 169.737 1149.32 169.532C1149.39 169.326 1149.39 169.106 1149.33 168.899L1146.83 164.92C1146.75 164.626 1146.57 164.369 1146.32 164.2C1146.07 164.031 1145.76 163.961 1145.46 164.005L1141.76 165.388C1141.48 165.488 1141.23 165.656 1141.04 165.877L1137.33 169.921C1137.18 170.111 1137.08 170.337 1137.05 170.577C1137.02 170.816 1137.05 171.06 1137.14 171.282L1138.78 173.879C1138.89 174.194 1139.11 174.457 1139.41 174.613C1139.7 174.77 1140.05 174.807 1140.37 174.719Z" fill="#FF8B7B"/>
<path opacity="0.2" d="M1082.17 200.479L1084.53 187.604L1089.53 190.296C1087.76 194.967 1085.69 197.351 1082.17 200.479Z" fill="black"/>
<path d="M1118.31 191.584C1125.14 186.838 1133.72 180.135 1139.98 174.74C1140.56 172.676 1138.61 169.963 1136.63 170.793C1131.71 172.857 1116.99 181.018 1114.4 181.093C1112.61 181.146 1094.18 178.486 1088.16 177.613C1086.96 177.427 1085.74 177.688 1084.72 178.347C1081.39 180.603 1080.54 183.072 1080.73 185.242C1080.92 186.892 1081.69 188.422 1082.9 189.562C1084.11 190.703 1085.68 191.381 1087.34 191.477C1095.76 192.105 1108.38 192.807 1113.29 193.02C1115.08 193.108 1116.84 192.603 1118.31 191.584Z" fill="#FD5A68"/>
<path d="M1095.21 159.206C1093.28 164.771 1090.68 175.39 1086.41 179.422C1082.15 183.455 1076.16 183.678 1070.45 185.019C1069.08 185.359 1067.32 187.094 1067.35 186.817C1065.93 188.396 1065.04 190.372 1064.78 192.478L1058.58 187.636C1057.96 187.224 1057.44 186.665 1057.09 186.008C1056.9 185.407 1056.87 184.768 1056.99 184.15C1057.11 183.531 1057.38 182.953 1057.78 182.465C1058.57 181.164 1059.19 179.775 1059.65 178.326C1057.5 179.936 1055.89 182.163 1055.04 184.71C1052.01 183.646 1048.48 181.103 1048.42 177.89C1048.39 176.618 1048.64 175.355 1049.14 174.184C1049.63 173.013 1050.37 171.959 1051.3 171.091C1049.19 172.211 1047.48 173.963 1046.41 176.103C1045.76 174.198 1044.17 172.304 1042.15 172.368C1043.7 168.934 1045.68 165.716 1048.06 162.792C1050.55 159.994 1053.94 157.791 1057.63 157.536C1060.48 157.334 1063.28 158.259 1066.01 159.121C1068.73 159.983 1071.56 160.824 1074.39 160.462C1077.22 160.1 1080.14 155.759 1080.67 152.95C1084.71 150.63 1090.39 156.334 1095.21 159.206Z" fill="#263238"/>
<path opacity="0.2" d="M1114.07 154.141C1113.78 159.669 1111.32 164.858 1107.21 168.567C1103.1 172.276 1097.69 174.202 1092.16 173.921H1092.09C1091.22 173.869 1090.35 173.762 1089.5 173.602C1085.44 167.876 1079.98 163.295 1073.64 160.302C1073.34 159.502 1073.1 158.685 1072.91 157.855C1072.23 154.947 1072.18 151.928 1072.77 149C1073.36 146.073 1074.57 143.305 1076.31 140.885C1078.06 138.464 1080.31 136.447 1082.9 134.97C1085.5 133.492 1088.38 132.589 1091.35 132.321C1094.33 132.052 1097.32 132.425 1100.14 133.415C1102.96 134.404 1105.53 135.986 1107.68 138.055C1109.84 140.123 1111.52 142.63 1112.62 145.405C1113.72 148.18 1114.22 151.159 1114.07 154.141Z" fill="black"/>
<path d="M1100.3 172.729C1097.7 173.661 1094.93 174.066 1092.17 173.921H1092.1C1091.23 173.87 1090.36 173.763 1089.5 173.601C1085.45 167.874 1079.98 163.292 1073.64 160.301C1073.34 159.503 1073.1 158.686 1072.91 157.854C1072.28 155.168 1072.18 152.382 1072.64 149.659C1073.09 146.936 1074.07 144.33 1075.54 141.991C1077.01 139.653 1078.92 137.628 1081.17 136.035C1083.43 134.442 1085.98 133.313 1088.67 132.712C1089.89 133.324 1090.96 134.204 1091.8 135.287C1093.53 137.788 1094.58 140.701 1094.84 143.735C1095.46 148.305 1095.35 152.945 1094.52 157.482C1093.88 160.596 1094.19 163.83 1095.39 166.771C1097.48 171.495 1100.3 172.729 1100.3 172.729Z" fill="#FD5A68"/>
<path opacity="0.4" d="M1100.3 172.729C1097.7 173.661 1094.93 174.066 1092.17 173.921H1092.1C1091.23 173.87 1090.36 173.763 1089.5 173.601C1085.45 167.874 1079.98 163.292 1073.64 160.301C1073.34 159.503 1073.1 158.686 1072.91 157.854C1072.28 155.168 1072.18 152.382 1072.64 149.659C1073.09 146.936 1074.07 144.33 1075.54 141.991C1077.01 139.653 1078.92 137.628 1081.17 136.035C1083.43 134.442 1085.98 133.313 1088.67 132.712C1089.89 133.324 1090.96 134.204 1091.8 135.287C1093.53 137.788 1094.58 140.701 1094.84 143.735C1095.46 148.305 1095.35 152.945 1094.52 157.482C1093.88 160.596 1094.19 163.83 1095.39 166.771C1097.48 171.495 1100.3 172.729 1100.3 172.729Z" fill="white"/>
<path d="M1091.83 175.453C1091.73 175.539 1091.62 175.604 1091.5 175.646C1091.38 175.687 1091.26 175.704 1091.13 175.695C1091 175.686 1090.88 175.652 1090.76 175.594C1090.65 175.536 1090.55 175.455 1090.47 175.357C1090.13 174.804 1089.77 174.293 1089.4 173.719C1085.44 167.928 1080.05 163.264 1073.74 160.185C1073.09 159.855 1072.44 159.557 1071.79 159.27C1071.15 158.982 1071.32 158.206 1071.79 157.769C1071.98 157.639 1072.19 157.568 1072.42 157.568C1072.64 157.568 1072.86 157.639 1073.04 157.769C1073.19 157.853 1073.31 157.979 1073.39 158.131C1080.88 161.734 1087.3 167.237 1092 174.091C1092.14 174.302 1092.19 174.554 1092.16 174.803C1092.13 175.053 1092.01 175.283 1091.83 175.453Z" fill="#FD5A68"/>
<path d="M1096.2 154.833C1096.2 155.197 1096.09 155.553 1095.89 155.856C1095.69 156.158 1095.4 156.394 1095.07 156.534C1094.73 156.673 1094.36 156.709 1094 156.638C1093.65 156.567 1093.32 156.392 1093.06 156.135C1092.8 155.877 1092.63 155.549 1092.56 155.192C1092.49 154.835 1092.52 154.465 1092.66 154.128C1092.8 153.792 1093.04 153.505 1093.34 153.302C1093.64 153.1 1094 152.992 1094.36 152.992C1094.85 152.992 1095.32 153.186 1095.66 153.531C1096.01 153.877 1096.2 154.345 1096.2 154.833Z" fill="#263238"/>
<path d="M1096.82 155.344C1096.82 155.711 1096.71 156.07 1096.51 156.376C1096.31 156.682 1096.02 156.921 1095.68 157.063C1095.34 157.204 1094.97 157.242 1094.61 157.171C1094.25 157.099 1093.92 156.923 1093.66 156.663C1093.4 156.404 1093.22 156.073 1093.15 155.713C1093.08 155.353 1093.12 154.98 1093.26 154.641C1093.4 154.302 1093.64 154.013 1093.95 153.811C1094.25 153.608 1094.61 153.501 1094.98 153.503C1095.47 153.506 1095.93 153.701 1096.28 154.045C1096.62 154.39 1096.82 154.856 1096.82 155.344Z" fill="#FD5A68"/>
<path opacity="0.7" d="M1096.82 155.344C1096.82 155.711 1096.71 156.07 1096.51 156.376C1096.31 156.682 1096.02 156.921 1095.68 157.063C1095.34 157.204 1094.97 157.242 1094.61 157.171C1094.25 157.099 1093.92 156.923 1093.66 156.663C1093.4 156.404 1093.22 156.073 1093.15 155.713C1093.08 155.353 1093.12 154.98 1093.26 154.641C1093.4 154.302 1093.64 154.013 1093.95 153.811C1094.25 153.608 1094.61 153.501 1094.98 153.503C1095.47 153.506 1095.93 153.701 1096.28 154.045C1096.62 154.39 1096.82 154.856 1096.82 155.344Z" fill="white"/>
<path d="M1356.36 110.794C1356.36 117.722 1353.61 124.366 1348.71 129.265C1343.81 134.164 1337.17 136.916 1330.24 136.916C1329.66 136.916 1329.08 136.916 1328.5 136.852C1321.87 136.428 1315.65 133.498 1311.11 128.655C1306.57 123.813 1304.04 117.423 1304.04 110.784C1304.04 104.144 1306.57 97.7543 1311.11 92.9122C1315.65 88.07 1321.87 85.1393 1328.5 84.7158C1329.08 84.7158 1329.66 84.7158 1330.24 84.7158C1337.16 84.7158 1343.8 87.462 1348.7 92.3515C1353.59 97.241 1356.35 103.874 1356.36 110.794Z" fill="#FD5A68"/>
<path opacity="0.2" d="M1352.84 110.795C1352.53 115.558 1350.83 120.127 1347.96 123.938C1345.08 127.749 1341.15 130.636 1336.66 132.243C1332.16 133.849 1327.3 134.106 1322.66 132.982C1318.02 131.857 1313.81 129.4 1310.55 125.913C1307.29 122.426 1305.12 118.062 1304.31 113.357C1303.49 108.653 1304.08 103.813 1305.98 99.4359C1307.89 95.0582 1311.03 91.3332 1315.02 88.7197C1319.02 86.1061 1323.69 84.7181 1328.46 84.7266C1335.08 85.1668 1341.28 88.1051 1345.8 92.9458C1350.33 97.7865 1352.84 104.167 1352.84 110.795Z" fill="white"/>
<path opacity="0.4" d="M1346.51 118.27C1350.64 108.297 1345.9 96.8633 1335.93 92.7323C1325.96 88.6013 1314.52 93.3372 1310.39 103.31C1306.26 113.283 1311 124.717 1320.97 128.848C1330.94 132.979 1342.38 128.243 1346.51 118.27Z" fill="white"/>
<path opacity="0.4" d="M1331.82 124.718C1339.58 122.886 1344.39 115.11 1342.56 107.349C1340.72 99.5878 1332.95 94.7813 1325.19 96.613C1317.43 98.4448 1312.62 106.221 1314.45 113.982C1316.28 121.743 1324.06 126.55 1331.82 124.718Z" fill="white"/>
<path d="M1333.22 110.794C1333.22 111.91 1332.89 113 1332.27 113.927C1331.65 114.855 1330.77 115.578 1329.74 116.004C1328.71 116.431 1327.57 116.543 1326.48 116.325C1325.39 116.108 1324.38 115.571 1323.59 114.782C1322.8 113.993 1322.27 112.989 1322.05 111.895C1321.83 110.801 1321.94 109.667 1322.37 108.636C1322.8 107.606 1323.52 106.725 1324.45 106.106C1325.38 105.486 1326.47 105.155 1327.58 105.155C1328.32 105.154 1329.06 105.299 1329.74 105.582C1330.43 105.865 1331.05 106.28 1331.57 106.804C1332.1 107.328 1332.51 107.95 1332.79 108.635C1333.08 109.32 1333.22 110.054 1333.22 110.794Z" fill="#263238"/>
<path d="M1288.4 130.17L1293.63 131.021L1301.29 126.499V126.488L1297.38 124.765L1288.4 130.17Z" fill="#FD5A68"/>
<path d="M1324.55 112.244L1293.43 130.659L1293.83 131.328L1324.94 112.912L1324.55 112.244Z" fill="#263238"/>
<path d="M1292.96 135.692L1300.51 131.213L1301.29 126.499L1293.63 131.021L1292.96 135.692Z" fill="#FD5A68"/>
<path opacity="0.2" d="M1292.96 135.692L1300.51 131.213L1301.29 126.499L1293.63 131.021L1292.96 135.692Z" fill="black"/>
<path d="M1326.76 110.507L1321.57 111.837L1326.31 114.444L1328.44 111.049L1326.76 110.507Z" fill="white"/>
<path d="M1329.43 77.4381C1329.18 77.4452 1328.92 77.4016 1328.69 77.31C1328.45 77.2184 1328.23 77.0805 1328.05 76.9044C1327.86 76.7282 1327.72 76.5173 1327.61 76.2838C1327.51 76.0503 1327.46 75.7989 1327.45 75.5442V67.0322C1327.45 66.5186 1327.66 66.026 1328.02 65.6629C1328.38 65.2997 1328.88 65.0957 1329.39 65.0957C1329.9 65.0957 1330.4 65.2997 1330.76 65.6629C1331.12 66.026 1331.33 66.5186 1331.33 67.0322V75.5442C1331.32 76.0439 1331.12 76.5209 1330.76 76.8743C1330.41 77.2277 1329.93 77.4299 1329.43 77.4381Z" fill="#FD5A68"/>
<path d="M1329.43 156.589C1329.18 156.59 1328.93 156.541 1328.69 156.445C1328.45 156.348 1328.24 156.205 1328.06 156.025C1327.88 155.845 1327.74 155.631 1327.64 155.395C1327.54 155.16 1327.49 154.907 1327.5 154.653V146.141C1327.5 145.627 1327.7 145.134 1328.06 144.771C1328.43 144.408 1328.92 144.204 1329.43 144.204C1329.95 144.204 1330.44 144.408 1330.8 144.771C1331.17 145.134 1331.37 145.627 1331.37 146.141V154.653C1331.37 154.907 1331.32 155.16 1331.22 155.395C1331.13 155.631 1330.99 155.845 1330.81 156.025C1330.62 156.205 1330.41 156.348 1330.18 156.445C1329.94 156.541 1329.69 156.59 1329.43 156.589Z" fill="#FD5A68"/>
<path d="M1294.19 111.518H1285.63C1285.36 111.538 1285.09 111.502 1284.84 111.413C1284.59 111.325 1284.36 111.185 1284.16 111.003C1283.96 110.821 1283.81 110.6 1283.7 110.354C1283.59 110.109 1283.54 109.844 1283.54 109.576C1283.54 109.308 1283.59 109.043 1283.7 108.798C1283.81 108.552 1283.96 108.331 1284.16 108.149C1284.36 107.967 1284.59 107.827 1284.84 107.739C1285.09 107.65 1285.36 107.614 1285.63 107.634H1294.19C1294.46 107.614 1294.73 107.65 1294.98 107.739C1295.23 107.827 1295.47 107.967 1295.66 108.149C1295.86 108.331 1296.01 108.552 1296.12 108.798C1296.23 109.043 1296.28 109.308 1296.28 109.576C1296.28 109.844 1296.23 110.109 1296.12 110.354C1296.01 110.6 1295.86 110.821 1295.66 111.003C1295.47 111.185 1295.23 111.325 1294.98 111.413C1294.73 111.502 1294.46 111.538 1294.19 111.518Z" fill="#FD5A68"/>
<path d="M1374.27 111.518H1365.69C1365.2 111.482 1364.75 111.262 1364.41 110.902C1364.08 110.541 1363.89 110.068 1363.89 109.577C1363.89 109.085 1364.08 108.612 1364.41 108.252C1364.75 107.891 1365.2 107.671 1365.69 107.635H1374.27C1374.76 107.671 1375.22 107.891 1375.55 108.252C1375.89 108.612 1376.07 109.085 1376.07 109.577C1376.07 110.068 1375.89 110.541 1375.55 110.902C1375.22 111.262 1374.76 111.482 1374.27 111.518Z" fill="#FD5A68"/>
<path d="M0 487.882L29.7 479.682C59.3 471.582 118.7 455.182 178 453.682C237.3 452.182 296.7 465.582 355.8 473.082C415 480.582 474 482.182 533.2 473.382C592.3 464.582 651.7 445.182 711 442.682C770.3 440.182 829.7 454.582 889 447.382C948.3 440.182 1007.7 411.582 1066.8 394.182C1126 376.882 1185 370.882 1244.2 389.082C1303.3 407.182 1362.7 449.582 1422 453.582C1481.3 457.582 1540.7 423.182 1570.3 406.082L1600 388.882V631.882H1570.3C1540.7 631.882 1481.3 631.882 1422 631.882C1362.7 631.882 1303.3 631.882 1244.2 631.882C1185 631.882 1126 631.882 1066.8 631.882C1007.7 631.882 948.3 631.882 889 631.882C829.7 631.882 770.3 631.882 711 631.882C651.7 631.882 592.3 631.882 533.2 631.882C474 631.882 415 631.882 355.8 631.882C296.7 631.882 237.3 631.882 178 631.882C118.7 631.882 59.3 631.882 29.7 631.882H0V487.882Z" fill="#FA7268"/>
<path d="M0 474L29.7 476C59.3 478 118.7 482 178 478.8C237.3 475.7 296.7 465.3 355.8 461.8C415 458.3 474 461.7 533.2 463.5C592.3 465.3 651.7 465.7 711 474.7C770.3 483.7 829.7 501.3 889 511.2C948.3 521 1007.7 523 1066.8 520.8C1126 518.7 1185 512.3 1244.2 496.8C1303.3 481.3 1362.7 456.7 1422 443C1481.3 429.3 1540.7 426.7 1570.3 425.3L1600 424V639H1570.3C1540.7 639 1481.3 639 1422 639C1362.7 639 1303.3 639 1244.2 639C1185 639 1126 639 1066.8 639C1007.7 639 948.3 639 889 639C829.7 639 770.3 639 711 639C651.7 639 592.3 639 533.2 639C474 639 415 639 355.8 639C296.7 639 237.3 639 178 639C118.7 639 59.3 639 29.7 639H0V474Z" fill="#EF5F67"/>
<path d="M0 530L29.7 519.7C59.3 509.3 118.7 488.7 178 480.8C237.3 473 296.7 478 355.8 492.3C415 506.7 474 530.3 533.2 535.8C592.3 541.3 651.7 528.7 711 518C770.3 507.3 829.7 498.7 889 501.8C948.3 505 1007.7 520 1066.8 531C1126 542 1185 549 1244.2 544.3C1303.3 539.7 1362.7 523.3 1422 515.5C1481.3 507.7 1540.7 508.3 1570.3 508.7L1600 509V639H1570.3C1540.7 639 1481.3 639 1422 639C1362.7 639 1303.3 639 1244.2 639C1185 639 1126 639 1066.8 639C1007.7 639 948.3 639 889 639C829.7 639 770.3 639 711 639C651.7 639 592.3 639 533.2 639C474 639 415 639 355.8 639C296.7 639 237.3 639 178 639C118.7 639 59.3 639 29.7 639H0V530Z" fill="#E34C67"/>
<path d="M0 584L29.7 578.3C59.3 572.7 118.7 561.3 178 557.8C237.3 554.3 296.7 558.7 355.8 555.7C415 552.7 474 542.3 533.2 537.5C592.3 532.7 651.7 533.3 711 541.3C770.3 549.3 829.7 564.7 889 565.5C948.3 566.3 1007.7 552.7 1066.8 545.7C1126 538.7 1185 538.3 1244.2 547C1303.3 555.7 1362.7 573.3 1422 569.7C1481.3 566 1540.7 541 1570.3 528.5L1600 516V639H1570.3C1540.7 639 1481.3 639 1422 639C1362.7 639 1303.3 639 1244.2 639C1185 639 1126 639 1066.8 639C1007.7 639 948.3 639 889 639C829.7 639 770.3 639 711 639C651.7 639 592.3 639 533.2 639C474 639 415 639 355.8 639C296.7 639 237.3 639 178 639C118.7 639 59.3 639 29.7 639H0V584Z" fill="#D53867"/>
<path d="M0 566L29.7 574C59.3 582 118.7 598 178 599.8C237.3 601.7 296.7 589.3 355.8 584.8C415 580.3 474 583.7 533.2 584.5C592.3 585.3 651.7 583.7 711 579.7C770.3 575.7 829.7 569.3 889 569.8C948.3 570.3 1007.7 577.7 1066.8 579.5C1126 581.3 1185 577.7 1244.2 575.8C1303.3 574 1362.7 574 1422 580.7C1481.3 587.3 1540.7 600.7 1570.3 607.3L1600 614V639H1570.3C1540.7 639 1481.3 639 1422 639C1362.7 639 1303.3 639 1244.2 639C1185 639 1126 639 1066.8 639C1007.7 639 948.3 639 889 639C829.7 639 770.3 639 711 639C651.7 639 592.3 639 533.2 639C474 639 415 639 355.8 639C296.7 639 237.3 639 178 639C118.7 639 59.3 639 29.7 639H0V566Z" fill="#C62368"/>
</svg>
