<svg width="500" height="500" viewBox="0 0 500 500" fill="none" xmlns="http://www.w3.org/2000/svg">
<path d="M34.0703 349.569L102.68 388.679L216.02 323.629L147.42 285.449L34.0703 349.569Z" fill="black"/>
<path d="M103.46 385.709L37.2799 347.709C39.0066 342.809 38.8866 337.089 36.9199 330.549L102.68 368.129C102.68 368.129 103.94 372.279 103.46 385.709Z" fill="white"/>
<path d="M102.68 368.14L36.9199 330.56C37.4784 332.403 37.8831 334.289 38.1299 336.2L103.4 373.89C103.339 371.955 103.098 370.03 102.68 368.14Z" fill="#EBEBEB"/>
<path d="M99.3001 362.78C101.157 363.977 102.701 365.6 103.807 367.512C104.913 369.425 105.548 371.573 105.66 373.78V386.57C105.66 390.57 102.82 392.23 99.3001 390.22L34.0801 352.73V349.57L98.4401 386.26C100.54 387.47 102.25 386.49 102.25 384.07L102.19 372.22C102.117 370.901 101.733 369.618 101.069 368.476C100.405 367.334 99.4801 366.366 98.3701 365.65L34.0801 328.94V325.35L99.3001 362.78Z" fill="#263238"/>
<path d="M34.0801 325.349L147.42 261.239L212.64 297.739C214.488 298.932 216.028 300.545 217.133 302.446C218.238 304.347 218.878 306.483 219 308.679V321.479C219 323.479 218.3 324.899 217.14 325.559L103.79 390.609C104.95 389.949 105.66 388.529 105.66 386.519V373.719C105.543 371.514 104.905 369.368 103.8 367.456C102.695 365.544 101.153 363.921 99.3001 362.719L34.0801 325.349Z" fill="#455A64"/>
<path d="M103.811 367.489C104.952 369.373 105.592 371.518 105.671 373.719V386.519C105.671 388.519 104.961 389.949 103.801 390.609L217.151 325.559C218.311 324.899 219.011 323.479 219.011 321.479V308.679C218.932 306.478 218.292 304.333 217.151 302.449L103.811 367.489Z" fill="#37474F"/>
<path d="M33.8887 317.13L102.919 356.6L207.999 296.3L138.979 257.75L33.8887 317.13Z" fill="#FD5A68"/>
<path opacity="0.45" d="M33.8887 317.13L102.919 356.6L207.999 296.3L138.979 257.75L33.8887 317.13Z" fill="white"/>
<path opacity="0.35" d="M33.8887 317.13L102.919 356.6L207.999 296.3L138.979 257.75L33.8887 317.13Z" fill="black"/>
<path d="M103.639 353.84L36.8593 315.42C38.466 310.873 38.356 305.57 36.5293 299.51L102.919 337.56C102.919 337.56 104.079 341.4 103.639 353.84Z" fill="white"/>
<path d="M102.919 337.56L36.5293 299.51C37.0877 301.353 37.4925 303.24 37.7393 305.15L103.609 343.15C103.546 341.27 103.315 339.399 102.919 337.56Z" fill="#EBEBEB"/>
<path d="M99.7884 332.59C101.502 333.697 102.929 335.193 103.952 336.957C104.976 338.722 105.568 340.703 105.678 342.74V354.6C105.678 358.33 103.048 359.85 99.7884 357.98L33.8984 320.07V317.13L98.9984 354.36C100.998 355.48 102.538 354.57 102.538 352.36L102.478 341.36C102.411 340.137 102.056 338.948 101.44 337.889C100.825 336.831 99.9676 335.933 98.9384 335.27L33.8984 298V294.68L99.7884 332.59Z" fill="#FD5A68"/>
<path opacity="0.45" d="M99.7884 332.59C101.502 333.697 102.929 335.193 103.952 336.957C104.976 338.722 105.568 340.703 105.678 342.74V354.6C105.678 358.33 103.048 359.85 99.7884 357.98L33.8984 320.07V317.13L98.9984 354.36C100.998 355.48 102.538 354.57 102.538 352.36L102.478 341.36C102.411 340.137 102.056 338.948 101.44 337.889C100.825 336.831 99.9676 335.933 98.9384 335.27L33.8984 298V294.68L99.7884 332.59Z" fill="white"/>
<path opacity="0.15" d="M99.7884 332.59C101.502 333.697 102.929 335.193 103.952 336.957C104.976 338.722 105.568 340.703 105.678 342.74V354.6C105.678 358.33 103.048 359.85 99.7884 357.98L33.8984 320.07V317.13L98.9984 354.36C100.998 355.48 102.538 354.57 102.538 352.36L102.478 341.36C102.411 340.137 102.056 338.948 101.44 337.889C100.825 336.831 99.9676 335.933 98.9384 335.27L33.8984 298V294.68L99.7884 332.59Z" fill="black"/>
<path d="M33.8984 294.68L138.998 235.31L204.888 272.31C206.599 273.422 208.023 274.922 209.046 276.687C210.069 278.452 210.663 280.433 210.778 282.47V294.32C210.778 296.19 210.118 297.5 209.048 298.11L103.998 358.39C105.068 357.78 105.728 356.46 105.728 354.6V342.73C105.61 340.694 105.014 338.714 103.989 336.951C102.965 335.187 101.539 333.69 99.8284 332.58L33.8984 294.68Z" fill="#FD5A68"/>
<path opacity="0.65" d="M33.8984 294.68L138.998 235.31L204.888 272.31C206.599 273.422 208.023 274.922 209.046 276.687C210.069 278.452 210.663 280.433 210.778 282.47V294.32C210.778 296.19 210.118 297.5 209.048 298.11L103.998 358.39C105.068 357.78 105.728 356.46 105.728 354.6V342.73C105.61 340.694 105.014 338.714 103.989 336.951C102.965 335.187 101.539 333.69 99.8284 332.58L33.8984 294.68Z" fill="white"/>
<path d="M103.998 336.999C105.06 338.742 105.655 340.729 105.728 342.769V354.599C105.728 356.459 105.068 357.779 103.998 358.389L208.998 298.079C210.068 297.469 210.718 296.159 210.728 294.289V282.439C210.656 280.398 210.064 278.408 209.008 276.659L103.998 336.999Z" fill="#FD5A68"/>
<path opacity="0.45" d="M103.998 336.999C105.06 338.742 105.655 340.729 105.728 342.769V354.599C105.728 356.459 105.068 357.779 103.998 358.389L208.998 298.079C210.068 297.469 210.718 296.159 210.728 294.289V282.439C210.656 280.398 210.064 278.408 209.008 276.659L103.998 336.999Z" fill="white"/>
<path opacity="0.1" d="M96.7004 330.81V356.2L92.1604 358.68L34.0804 325.35L38.5804 322.77L33.9004 320.07V317.13L36.9004 315.42C38.6304 310.51 38.2604 305.07 36.5704 299.51L33.9004 298V294.68L96.7004 330.81Z" fill="black"/>
<path d="M21.9395 289.5L91.5994 329.54L196.689 269.23L127.029 230.13L21.9395 289.5Z" fill="#FD5A68"/>
<path opacity="0.5" d="M21.9395 289.5L91.5994 329.54L196.689 269.23L127.029 230.13L21.9395 289.5Z" fill="black"/>
<path d="M92.3301 326.779L24.9101 287.779C26.5201 283.229 26.4001 278.849 24.5801 272.779L91.5801 311.389C91.5801 311.389 92.7701 314.339 92.3301 326.779Z" fill="white"/>
<path d="M91.5996 311.429L24.5996 272.819C25.1581 274.663 25.5628 276.549 25.8096 278.459L92.2996 316.849C92.2475 315.024 92.013 313.208 91.5996 311.429Z" fill="#EBEBEB"/>
<path d="M88.47 306.46C90.1846 307.566 91.613 309.063 92.6384 310.827C93.6638 312.591 94.2572 314.573 94.37 316.61V327.53C94.37 331.27 91.73 332.78 88.47 330.92L22 292.44V289.5L87.72 327.3C89.72 328.42 91.25 327.51 91.25 325.3V315.24C91.1806 314.018 90.8238 312.83 90.2087 311.771C89.5936 310.713 88.7375 309.815 87.71 309.15L22 271.31V268L88.47 306.46Z" fill="#FD5A68"/>
<path opacity="0.4" d="M88.47 306.46C90.1846 307.566 91.613 309.063 92.6384 310.827C93.6638 312.591 94.2572 314.573 94.37 316.61V327.53C94.37 331.27 91.73 332.78 88.47 330.92L22 292.44V289.5L87.72 327.3C89.72 328.42 91.25 327.51 91.25 325.3V315.24C91.1806 314.018 90.8238 312.83 90.2087 311.771C89.5936 310.713 88.7375 309.815 87.71 309.15L22 271.31V268L88.47 306.46Z" fill="black"/>
<path d="M22 268L127 207.68L193.52 246.16C195.236 247.265 196.665 248.761 197.691 250.525C198.716 252.29 199.309 254.272 199.42 256.31V267.23C199.42 269.09 198.76 270.4 197.69 271.02L92.64 331.33C93.71 330.71 94.36 329.4 94.37 327.54V316.61C94.2564 314.572 93.6627 312.591 92.6373 310.827C91.612 309.063 90.184 307.567 88.47 306.46L22 268Z" fill="#FD5A68"/>
<path opacity="0.2" d="M22 268L127 207.68L193.52 246.16C195.236 247.265 196.665 248.761 197.691 250.525C198.716 252.29 199.309 254.272 199.42 256.31V267.23C199.42 269.09 198.76 270.4 197.69 271.02L92.64 331.33C93.71 330.71 94.36 329.4 94.37 327.54V316.61C94.2564 314.572 93.6627 312.591 92.6373 310.827C91.612 309.063 90.184 307.567 88.47 306.46L22 268Z" fill="black"/>
<path d="M92.6504 310.829C93.7099 312.577 94.3054 314.567 94.3804 316.609V327.539C94.3804 329.399 93.7204 330.709 92.6504 331.329L197.72 270.999C198.79 270.379 199.45 269.069 199.45 267.209V256.309C199.379 254.266 198.783 252.276 197.72 250.529L92.6504 310.829Z" fill="#FD5A68"/>
<path opacity="0.35" d="M92.6504 310.829C93.7099 312.577 94.3054 314.567 94.3804 316.609V327.539C94.3804 329.399 93.7204 330.709 92.6504 331.329L197.72 270.999C198.79 270.379 199.45 269.069 199.45 267.209V256.309C199.379 254.266 198.783 252.276 197.72 250.529L92.6504 310.829Z" fill="black"/>
<path opacity="0.1" d="M218.999 309.16V308.69C218.992 307.908 218.898 307.13 218.719 306.37C217.873 302.825 215.696 299.743 212.639 297.76L210.379 296.49C210.641 295.793 210.773 295.054 210.769 294.31V282.44C210.653 280.403 210.06 278.422 209.037 276.657C208.013 274.892 206.589 273.392 204.879 272.28L199.189 269.09C199.374 268.487 199.465 267.86 199.459 267.23V256.31C199.459 256.07 199.459 255.84 199.459 255.6C199.459 255.36 199.389 255 199.329 254.69C199.258 254.256 199.154 253.828 199.019 253.41C198.949 253.18 198.869 252.94 198.789 252.71C198.513 251.981 198.178 251.275 197.789 250.6L115.459 297.83V318.33L95.1289 329.9L96.6989 330.81L106.379 325.18L115.379 330.38V351.79L107.579 356.3L104.019 358.3L103.949 358.35C102.879 358.96 101.409 358.88 99.7789 357.94L96.6989 356.2L95.3189 356.95L100.319 359.87C100.991 360.258 101.753 360.462 102.529 360.462C103.305 360.462 104.067 360.258 104.739 359.87L109.269 357.26L115.409 360.8V384L217.159 325.61C217.451 325.443 217.714 325.23 217.939 324.98C218.703 323.997 219.087 322.772 219.019 321.53L218.999 309.16Z" fill="black"/>
<path opacity="0.1" d="M54.6714 280.901C63.8814 288.031 81.5414 289.651 94.1214 284.501C106.701 279.351 109.391 269.401 100.121 262.261C90.8514 255.121 73.1814 253.501 60.6614 258.651C48.1414 263.801 45.4614 273.761 54.6714 280.901Z" fill="black"/>
<path d="M67.0604 222.861C61.8304 223.161 52.7304 223.861 47.0604 235.521C40.6004 248.811 47.0604 265.351 56.9704 272.321C69.4204 281.081 88.9704 281.611 100.45 271.141C113.16 259.551 114.1 237.601 105.45 227.991C96.8004 218.381 83.4504 221.111 79.9404 222.591C74.6804 224.801 71.1404 222.621 67.0604 222.861Z" fill="#FD5A68"/>
<path opacity="0.3" d="M61.6298 227.511C58.2598 227.221 53.3598 230.211 50.7898 234.811C47.6098 240.521 47.1998 248.581 48.1998 254.441C50.1998 266.271 61.6298 272.441 62.7298 271.441C63.8298 270.441 55.5398 262.701 60.1098 250.941C64.7498 239.001 67.1598 228.001 61.6298 227.511Z" fill="white"/>
<path opacity="0.2" d="M59.0008 229.421C55.5708 230.581 51.5908 236.081 50.5508 239.971C49.5108 243.861 50.0208 246.501 50.5508 246.971C51.5508 247.791 58.4808 240.971 60.7508 237.901C64.0008 233.551 64.5708 227.541 59.0008 229.421Z" fill="white"/>
<path d="M72.5013 233C70.6713 231.54 68.9413 230.8 68.0313 233C67.1213 235.2 72.0313 238.67 77.4213 237.08C82.8113 235.49 84.7013 231.97 84.5913 230.19C84.5913 230.19 82.1413 234.06 78.5113 234.5C76.3943 234.717 74.2683 234.186 72.5013 233Z" fill="#FD5A68"/>
<path opacity="0.1" d="M72.5013 233C70.6713 231.54 68.9413 230.8 68.0313 233C67.1213 235.2 72.0313 238.67 77.4213 237.08C82.8113 235.49 84.7013 231.97 84.5913 230.19C84.5913 230.19 82.1413 234.06 78.5113 234.5C76.3943 234.717 74.2683 234.186 72.5013 233Z" fill="black"/>
<path d="M77.4201 235.67C77.3523 230.644 76.5367 225.656 75.0001 220.87C72.5501 213.93 68.2201 209.07 67.0001 208.54C65.1076 207.831 63.0873 207.528 61.0701 207.65C58.2901 207.65 54.9801 209.55 55.8901 210.65C56.8001 211.75 60.8001 212.52 65.6601 217.06C70.5201 221.6 75.1601 230.42 75.1701 235.7C75.5117 235.903 75.9024 236.007 76.2993 236.002C76.6962 235.996 77.084 235.882 77.4201 235.67Z" fill="#37474F"/>
<path d="M66.8107 208.46C66.7233 208.417 66.6331 208.381 66.5407 208.35C64.7879 207.807 62.9538 207.574 61.1207 207.66C59.0707 207.66 56.7307 208.66 56.0107 209.66C55.8207 210.06 56.4307 210.6 58.9207 210.95C61.3732 211.319 63.8787 211.086 66.2207 210.27C67.2707 209.88 67.6907 208.92 66.8107 208.46Z" fill="#455A64"/>
<path opacity="0.1" d="M73.7995 226.921C71.6095 220.661 64.9795 215.451 60.4395 213.141C62.3299 214.22 64.0884 215.515 65.6795 217.001C70.5395 221.541 75.1795 230.361 75.1895 235.641C75.526 235.843 75.9115 235.951 76.3045 235.951C76.6974 235.951 77.0829 235.843 77.4195 235.641C77.4195 235.641 77.4195 233.741 77.1295 231.001C76.9995 233.581 75.8195 232.691 73.7995 226.921Z" fill="black"/>
<path d="M76.1002 224.77C78.3594 225.101 80.6661 224.835 82.7906 223.999C84.9151 223.162 86.7836 221.783 88.2102 220C92.0302 215 89.5402 208.42 89.5402 208.42C87.6234 208.085 85.6541 208.214 83.7976 208.797C81.941 209.38 80.2513 210.4 78.8702 211.77C75.4702 215.22 75.0002 221.85 76.1002 224.77Z" fill="#FD5A68"/>
<path opacity="0.3" d="M76.1002 224.77C78.3594 225.101 80.6661 224.835 82.7906 223.999C84.9151 223.162 86.7836 221.783 88.2102 220C92.0302 215 89.5402 208.42 89.5402 208.42C87.6234 208.085 85.6541 208.214 83.7976 208.797C81.941 209.38 80.2513 210.4 78.8702 211.77C75.4702 215.22 75.0002 221.85 76.1002 224.77Z" fill="black"/>
<path opacity="0.1" d="M89.5397 208.441C87.6229 208.106 85.6536 208.235 83.7971 208.818C81.9405 209.401 80.2508 210.42 78.8697 211.791C75.4697 215.221 75.0097 221.851 76.0997 224.791C79.2097 215.081 89.5397 208.441 89.5397 208.441Z" fill="black"/>
<path d="M85.3412 209.351C82.9278 209.795 80.7358 211.043 79.1217 212.891C77.5076 214.739 76.5664 217.079 76.4512 219.531C77.2654 217.36 78.4235 215.334 79.8812 213.531C81.4241 211.808 83.2761 210.391 85.3412 209.351Z" fill="#FD5A68"/>
<path d="M359.031 40.8195L124.681 176.13V360.63L124.711 393.79L122.641 392.6L119.391 390.72V173.08L353.741 37.7695L357.771 40.0895L359.031 40.8195Z" fill="#E6E6E6"/>
<path d="M359.03 40.8193V225.329L132.6 356.049L127.32 359.109L126.01 359.859L124.71 360.599L124.68 360.629V176.129L359.03 40.8193Z" fill="#F0F0F0"/>
<path d="M353.741 37.7695L359.031 40.8195L124.681 176.13L119.391 173.07L353.741 37.7695Z" fill="#F0F0F0"/>
<path d="M360.931 39.7598L359.031 40.8598L124.681 176.16L123.941 176.58V393.35L122.641 392.6V175.84L123.411 175.4L357.771 40.0898L359.641 39.0098L360.931 39.7598Z" fill="#FD5A68"/>
<path opacity="0.1" d="M360.931 39.7598L359.031 40.8598L124.681 176.16L123.941 176.58V393.35L122.641 392.6V175.84L123.411 175.4L357.771 40.0898L359.641 39.0098L360.931 39.7598Z" fill="black"/>
<path d="M359.001 40.86L124.681 176.16L123.941 176.58V393.35L124.711 393.79L360.921 257.79V39.79L359.001 40.86Z" fill="#FD5A68"/>
<path opacity="0.05" d="M359.001 40.86L124.681 176.16L123.941 176.58V393.35L124.711 393.79L360.921 257.79V39.79L359.001 40.86Z" fill="black"/>
<path d="M359.631 39.0195L360.931 39.7595L123.941 176.59L122.641 175.84L359.631 39.0195Z" fill="#FD5A68"/>
<path opacity="0.4" d="M359.631 39.0195L360.931 39.7595L123.941 176.59L122.641 175.84L359.631 39.0195Z" fill="white"/>
<path d="M363.001 40.95L360.931 42.14L359.031 43.24L294.481 80.51L126.011 177.77V394.54L124.711 393.79V177.03L359.031 41.76L360.931 40.66L361.711 40.21L363.001 40.95Z" fill="#FD5A68"/>
<path opacity="0.1" d="M363.001 40.95L360.931 42.14L359.031 43.24L294.481 80.51L126.011 177.77V394.54L124.711 393.79V177.03L359.031 41.76L360.931 40.66L361.711 40.21L363.001 40.95Z" fill="black"/>
<path d="M360.93 42.14L359 43.25L294.48 80.51L126 177.79V394.54L127.31 395.3L132.46 392.18L363 259V41L360.93 42.14Z" fill="#FD5A68"/>
<path d="M361.711 40.21L363.001 40.95L126.011 177.78L124.711 177.04L361.711 40.21Z" fill="#FD5A68"/>
<path opacity="0.4" d="M361.711 40.21L363.001 40.95L126.011 177.78L124.711 177.04L361.711 40.21Z" fill="white"/>
<path d="M366.96 45.4094L363 47.6994L360.93 48.8994L359.03 49.9794L132.6 180.709V398.349L127.32 395.299V177.659L359.03 43.8794L360.93 42.7794L361.67 42.3594L363 43.1294L366.96 45.4094Z" fill="#E6E6E6"/>
<path d="M361.67 42.3496L366.96 45.3996L132.61 180.71L127.32 177.65L361.67 42.3496Z" fill="#F0F0F0"/>
<path d="M132.602 180.709V398.349L366.962 263.049V45.3994L132.602 180.709Z" fill="#FAFAFA"/>
<path d="M156.651 173.839C158.171 172.959 159.411 173.669 159.411 175.439C159.358 176.397 159.081 177.328 158.601 178.159C158.122 178.989 157.454 179.695 156.651 180.219C155.121 181.099 153.881 180.389 153.881 178.629C153.933 177.669 154.211 176.735 154.693 175.903C155.174 175.07 155.845 174.363 156.651 173.839Z" fill="#37474F"/>
<path d="M148.871 151.799C145.871 150.069 142.981 149.799 140.761 151.099C138.541 152.399 137.311 155.009 137.311 158.479C137.321 159.8 137.482 161.115 137.791 162.399L139.631 161.329C139.445 160.391 139.351 159.436 139.351 158.479C139.351 155.759 140.211 153.769 141.781 152.859C143.351 151.949 145.501 152.209 147.851 153.569C153.101 156.569 157.371 163.999 157.371 170.059C157.41 171.372 157.146 172.675 156.601 173.869C156.229 174.618 155.654 175.245 154.941 175.679C154.89 175.712 154.837 175.739 154.781 175.759C154.32 176.491 154.024 177.313 153.911 178.169C154.632 178.05 155.326 177.803 155.961 177.439C157.328 176.625 158.349 175.337 158.831 173.819C159.238 172.609 159.434 171.337 159.411 170.059C159.411 163.349 154.691 155.149 148.871 151.799Z" fill="#FD5A68"/>
<path d="M170.071 166.089C171.591 165.209 172.831 165.929 172.831 167.689C172.776 168.648 172.499 169.58 172.019 170.412C171.54 171.244 170.873 171.952 170.071 172.479C168.541 173.359 167.301 172.639 167.301 170.879C167.355 169.92 167.633 168.986 168.115 168.154C168.596 167.322 169.266 166.615 170.071 166.089Z" fill="#37474F"/>
<path d="M162.29 144.049C159.29 142.319 156.4 142.049 154.18 143.349C151.96 144.649 150.73 147.259 150.73 150.729C150.741 152.05 150.902 153.365 151.21 154.649L153.05 153.579C152.865 152.641 152.771 151.686 152.77 150.729C152.77 148.009 153.63 146.019 155.2 145.109C156.77 144.199 158.92 144.459 161.27 145.819C166.52 148.819 170.79 156.249 170.79 162.319C170.833 163.632 170.57 164.937 170.02 166.129C169.646 166.873 169.071 167.496 168.36 167.929L168.2 168.019C167.739 168.747 167.442 169.566 167.33 170.419C168.034 170.298 168.711 170.054 169.33 169.699C170.696 168.878 171.717 167.588 172.2 166.069C172.602 164.861 172.798 163.593 172.78 162.319C172.83 155.599 168.11 147.409 162.29 144.049Z" fill="#FD5A68"/>
<path d="M143.231 181.58C144.761 180.7 145.991 181.41 145.991 183.18C145.94 184.138 145.664 185.07 145.184 185.901C144.705 186.732 144.035 187.437 143.231 187.96C141.711 188.84 140.471 188.13 140.471 186.37C140.523 185.411 140.801 184.478 141.28 183.646C141.759 182.814 142.428 182.106 143.231 181.58Z" fill="#37474F"/>
<path d="M135.451 159.54C132.451 157.81 129.561 157.54 127.341 158.84C125.121 160.14 123.891 162.74 123.891 166.22C123.902 167.54 124.063 168.855 124.371 170.14L126.221 169.07C126.033 168.131 125.936 167.177 125.931 166.22C125.931 163.5 126.801 161.51 128.361 160.6C129.921 159.69 132.081 159.95 134.431 161.31C139.691 164.31 143.961 171.74 143.961 177.8C143.997 179.113 143.73 180.417 143.181 181.61C142.816 182.356 142.243 182.981 141.531 183.41L141.371 183.5C140.905 184.226 140.605 185.045 140.491 185.9C141.216 185.788 141.914 185.544 142.551 185.18C143.916 184.365 144.934 183.076 145.411 181.56C145.82 180.349 146.02 179.078 146.001 177.8C146.001 171.09 141.271 162.89 135.451 159.54Z" fill="#FD5A68"/>
<path d="M183.491 158.35C185.011 157.46 186.251 158.18 186.251 159.94C186.198 160.899 185.921 161.832 185.441 162.664C184.962 163.496 184.294 164.203 183.491 164.73C181.961 165.61 180.721 164.89 180.721 163.13C180.774 162.171 181.052 161.239 181.534 160.408C182.015 159.578 182.685 158.872 183.491 158.35Z" fill="#37474F"/>
<path d="M175.71 136.309C172.71 134.569 169.82 134.309 167.59 135.599C165.36 136.889 164.15 139.509 164.15 142.979C164.161 144.3 164.322 145.615 164.63 146.899L166.47 145.829C166.285 144.891 166.191 143.936 166.19 142.979C166.19 140.259 167.05 138.269 168.61 137.369C170.17 136.469 172.34 136.709 174.69 138.069C179.94 141.069 184.21 148.499 184.21 154.569C184.249 155.882 183.985 157.185 183.44 158.379C183.066 159.123 182.491 159.746 181.78 160.179L181.62 160.269C181.162 160.998 180.865 161.816 180.75 162.669C181.471 162.554 182.166 162.31 182.8 161.949C184.166 161.128 185.186 159.838 185.67 158.319C186.072 157.111 186.268 155.843 186.25 154.569C186.25 147.849 181.52 139.659 175.71 136.309Z" fill="#FD5A68"/>
<path d="M196.901 150.599C198.431 149.719 199.671 150.429 199.671 152.189C199.622 153.153 199.346 154.091 198.864 154.928C198.383 155.764 197.71 156.474 196.901 156.999C195.381 157.879 194.141 157.169 194.141 155.399C194.19 154.438 194.466 153.503 194.946 152.669C195.425 151.835 196.095 151.126 196.901 150.599Z" fill="#37474F"/>
<path d="M189.13 128.559C186.13 126.819 183.24 126.559 181.01 127.859C178.78 129.159 177.57 131.759 177.57 135.239C177.581 136.557 177.742 137.869 178.05 139.149L179.89 138.089C179.705 137.151 179.612 136.196 179.61 135.239C179.61 132.519 180.47 130.519 182.03 129.619C183.59 128.719 185.75 128.969 188.11 130.329C193.36 133.329 197.63 140.749 197.63 146.819C197.67 148.132 197.406 149.435 196.86 150.629C196.486 151.373 195.911 151.996 195.2 152.429L195.04 152.519C194.581 153.248 194.285 154.066 194.17 154.919C194.892 154.808 195.587 154.564 196.22 154.199C197.589 153.381 198.61 152.09 199.09 150.569C199.492 149.361 199.688 148.093 199.67 146.819C199.67 140.109 194.94 131.909 189.13 128.559Z" fill="#FD5A68"/>
<path d="M210.321 142.849C211.851 141.969 213.091 142.679 213.091 144.439C213.039 145.4 212.761 146.334 212.28 147.166C211.799 147.999 211.127 148.706 210.321 149.229C208.801 150.109 207.561 149.399 207.561 147.639C207.612 146.68 207.888 145.747 208.368 144.914C208.847 144.082 209.516 143.375 210.321 142.849Z" fill="#37474F"/>
<path d="M202.55 120.809C199.55 119.069 196.66 118.809 194.43 120.109C192.2 121.409 191 123.999 191 127.489C191.011 128.81 191.173 130.125 191.48 131.409L193.32 130.339C193.135 129.401 193.041 128.446 193.04 127.489C193.04 124.769 193.9 122.769 195.46 121.869C197.02 120.969 199.18 121.219 201.54 122.579C206.79 125.579 211.06 132.999 211.06 139.069C211.101 140.383 210.834 141.688 210.28 142.879C209.912 143.624 209.34 144.248 208.63 144.679C208.579 144.713 208.525 144.743 208.47 144.769C208.011 145.498 207.714 146.316 207.6 147.169C208.305 147.052 208.982 146.808 209.6 146.449C210.965 145.632 211.986 144.345 212.47 142.829C212.871 141.617 213.068 140.346 213.05 139.069C213.09 132.359 208.36 124.159 202.55 120.809Z" fill="#FD5A68"/>
<path d="M223.74 135.1C225.27 134.22 226.51 134.93 226.51 136.7C226.457 137.659 226.179 138.591 225.698 139.422C225.216 140.252 224.546 140.957 223.74 141.48C222.22 142.36 220.98 141.65 220.98 139.89C221.033 138.931 221.31 137.998 221.79 137.166C222.269 136.334 222.937 135.626 223.74 135.1Z" fill="#37474F"/>
<path d="M216 113.06C213 111.33 210.11 111.06 207.88 112.36C205.65 113.66 204.43 116.26 204.43 119.74C204.439 121.062 204.604 122.377 204.92 123.66L206.76 122.59C206.571 121.652 206.474 120.697 206.47 119.74C206.47 117.02 207.34 115.03 208.9 114.12C210.46 113.21 212.62 113.47 214.98 114.83C220.23 117.83 224.5 125.26 224.5 131.32C224.542 132.634 224.275 133.939 223.72 135.13C223.349 135.875 222.777 136.502 222.07 136.94L221.91 137.02C221.451 137.749 221.154 138.567 221.04 139.42C221.763 139.314 222.459 139.069 223.09 138.7C224.457 137.886 225.479 136.598 225.96 135.08C226.361 133.868 226.557 132.597 226.54 131.32C226.51 124.61 221.78 116.41 216 113.06Z" fill="#FD5A68"/>
<path d="M237.16 127.35C238.69 126.47 239.92 127.19 239.92 128.95C239.87 129.908 239.594 130.841 239.114 131.671C238.634 132.502 237.965 133.208 237.16 133.73C235.64 134.62 234.4 133.9 234.4 132.14C234.455 131.182 234.733 130.249 235.212 129.418C235.691 128.586 236.358 127.878 237.16 127.35Z" fill="#37474F"/>
<path d="M229.39 105.31C226.39 103.58 223.5 103.31 221.27 104.61C219.04 105.91 217.82 108.52 217.82 111.99C217.829 113.312 217.994 114.627 218.31 115.91L220.15 114.84C219.961 113.902 219.864 112.947 219.86 111.99C219.86 109.27 220.73 107.28 222.29 106.37C223.85 105.46 226.01 105.72 228.37 107.08C233.62 110.08 237.89 117.51 237.89 123.58C237.931 124.891 237.664 126.192 237.11 127.38C236.745 128.129 236.173 128.758 235.46 129.19L235.3 129.28C234.839 130.007 234.542 130.826 234.43 131.68C235.133 131.557 235.81 131.314 236.43 130.96C237.794 130.139 238.81 128.848 239.29 127.33C239.7 126.123 239.9 124.855 239.88 123.58C239.93 116.86 235.2 108.67 229.39 105.31Z" fill="#FD5A68"/>
<path d="M250.58 119.61C252.11 118.72 253.34 119.44 253.34 121.2C253.29 122.159 253.014 123.093 252.534 123.925C252.054 124.758 251.385 125.465 250.58 125.99C249.06 126.87 247.82 126.15 247.82 124.39C247.873 123.432 248.15 122.501 248.63 121.67C249.109 120.84 249.777 120.134 250.58 119.61Z" fill="#37474F"/>
<path d="M242.81 97.5602C239.81 95.8302 236.92 95.5602 234.69 96.8602C232.46 98.1602 231.24 100.77 231.24 104.24C231.249 105.562 231.414 106.877 231.73 108.16L233.57 107.09C233.381 106.152 233.284 105.197 233.28 104.24C233.28 101.52 234.15 99.5302 235.71 98.6302C237.27 97.7302 239.43 97.9702 241.79 99.3302C247.04 102.33 251.31 109.76 251.31 115.83C251.35 117.144 251.083 118.448 250.53 119.64C250.168 120.389 249.594 121.015 248.88 121.44L248.72 121.53C248.253 122.255 247.956 123.075 247.85 123.93C248.571 123.813 249.265 123.569 249.9 123.21C251.266 122.391 252.284 121.1 252.76 119.58C253.17 118.373 253.37 117.105 253.35 115.83C253.35 109.11 248.62 100.92 242.81 97.5602Z" fill="#FD5A68"/>
<path d="M264 111.86C265.53 110.98 266.76 111.69 266.76 113.45C266.71 114.409 266.434 115.343 265.954 116.176C265.474 117.008 264.805 117.715 264 118.24C262.48 119.12 261.24 118.4 261.24 116.64C261.293 115.683 261.57 114.751 262.05 113.921C262.529 113.09 263.197 112.384 264 111.86Z" fill="#37474F"/>
<path d="M256.23 89.8201C253.23 88.0801 250.34 87.8201 248.11 89.1201C245.88 90.4201 244.66 93.0201 244.66 96.5001C244.67 97.8182 244.834 99.1305 245.15 100.41L247 99.3501C246.812 98.4117 246.715 97.4572 246.71 96.5001C246.71 93.7801 247.58 91.7801 249.14 90.8801C250.7 89.9801 252.86 90.2201 255.22 91.5801C260.47 94.5801 264.74 102.01 264.74 108.08C264.781 109.394 264.514 110.699 263.96 111.89C263.592 112.635 263.02 113.259 262.31 113.69L262.15 113.78C261.683 114.505 261.386 115.325 261.28 116.18C262.001 116.063 262.695 115.819 263.33 115.46C264.695 114.641 265.713 113.349 266.19 111.83C266.6 110.623 266.799 109.355 266.78 108.08C266.77 101.37 262 93.1701 256.23 89.8201Z" fill="#FD5A68"/>
<path d="M277.42 104.11C278.95 103.23 280.18 103.94 280.18 105.7C280.131 106.66 279.855 107.594 279.375 108.426C278.895 109.259 278.225 109.966 277.42 110.49C275.9 111.37 274.66 110.66 274.66 108.9C274.711 107.941 274.988 107.007 275.467 106.175C275.947 105.343 276.616 104.635 277.42 104.11Z" fill="#37474F"/>
<path d="M269.65 82.0701C266.65 80.3301 263.76 80.0701 261.53 81.3701C259.3 82.6701 258.08 85.2701 258.08 88.7501C258.091 90.0714 258.255 91.387 258.57 92.6701L260.41 91.6001C260.222 90.6617 260.125 89.7072 260.12 88.7501C260.12 86.0301 260.99 84.0301 262.55 83.1301C264.11 82.2301 266.27 82.4801 268.62 83.8401C273.88 86.8401 278.15 94.2601 278.15 100.33C278.191 101.644 277.924 102.949 277.37 104.14C277.002 104.885 276.43 105.509 275.72 105.94L275.56 106.03C275.093 106.755 274.796 107.575 274.69 108.43C275.412 108.317 276.106 108.073 276.74 107.71C278.103 106.892 279.12 105.605 279.6 104.09C280.01 102.88 280.209 101.608 280.19 100.33C280.19 93.6201 275.46 85.4201 269.65 82.0701Z" fill="#FD5A68"/>
<path d="M290.84 96.3598C292.37 95.4798 293.6 96.1898 293.6 97.9598C293.55 98.9178 293.273 99.8503 292.794 100.681C292.314 101.512 291.645 102.217 290.84 102.74C289.32 103.62 288.08 102.91 288.08 101.15C288.133 100.191 288.41 99.258 288.889 98.426C289.369 97.594 290.037 96.8862 290.84 96.3598Z" fill="#37474F"/>
<path d="M283.06 74.32C280.06 72.59 277.17 72.32 274.95 73.62C272.73 74.92 271.5 77.52 271.5 81C271.511 82.3206 271.673 83.6356 271.98 84.92L273.83 83.85C273.642 82.9115 273.545 81.9571 273.54 81C273.54 78.28 274.41 76.29 275.97 75.38C277.53 74.47 279.69 74.73 282.04 76.09C287.3 79.09 291.57 86.52 291.57 92.58C291.606 93.893 291.339 95.1968 290.79 96.39C290.425 97.1365 289.852 97.7616 289.14 98.19L288.98 98.28C288.515 99.0059 288.214 99.8252 288.1 100.68C288.825 100.568 289.523 100.324 290.16 99.96C291.518 99.1414 292.528 97.8534 293 96.34C293.41 95.1295 293.609 93.8578 293.59 92.58C293.61 85.87 288.88 77.67 283.06 74.32Z" fill="#FD5A68"/>
<path d="M304.25 88.6193C305.77 87.7293 307.01 88.4493 307.01 90.2093C306.958 91.1681 306.68 92.1011 306.201 92.9331C305.722 93.7651 305.054 94.4729 304.25 94.9993C302.72 95.8793 301.48 95.1593 301.48 93.3993C301.533 92.4408 301.812 91.5083 302.293 90.6777C302.775 89.8472 303.445 89.1419 304.25 88.6193Z" fill="#37474F"/>
<path d="M296.47 66.5799C293.47 64.8399 290.58 64.5799 288.35 65.8799C286.12 67.1799 284.91 69.7799 284.91 73.2599C284.921 74.5772 285.082 75.889 285.39 77.1699L287.23 76.0999C287.045 75.1646 286.951 74.2134 286.95 73.2599C286.95 70.5299 287.81 68.5399 289.38 67.6399C290.95 66.7399 293.1 66.9799 295.45 68.3399C300.7 71.3399 304.97 78.7699 304.97 84.8399C305.009 86.1522 304.746 87.4559 304.2 88.6499C303.826 89.393 303.251 90.0165 302.54 90.4499L302.38 90.5399C301.921 91.2682 301.625 92.0868 301.51 92.9399C302.231 92.8243 302.925 92.5805 303.56 92.2199C304.926 91.3987 305.946 90.1084 306.43 88.5899C306.832 87.3811 307.028 86.1135 307.01 84.8399C307 78.1299 302.28 69.9299 296.47 66.5799Z" fill="#FD5A68"/>
<path d="M317.66 80.8698C319.19 79.9898 320.43 80.6998 320.43 82.4598C320.379 83.42 320.101 84.3545 319.62 85.1869C319.138 86.0194 318.467 86.7262 317.66 87.2498C316.14 88.1298 314.9 87.4198 314.9 85.6498C314.953 84.6924 315.23 83.7608 315.71 82.9304C316.189 82.1 316.858 81.3941 317.66 80.8698Z" fill="#37474F"/>
<path d="M309.89 58.8299C306.89 57.0899 304 56.8299 301.77 58.1299C299.54 59.4299 298.33 62.0299 298.33 65.5099C298.341 66.8272 298.502 68.139 298.81 69.4199L300.65 68.3599C300.465 67.4211 300.372 66.4667 300.37 65.5099C300.37 62.7899 301.23 60.7899 302.79 59.8899C304.35 58.9899 306.51 59.2399 308.87 60.5999C314.12 63.5999 318.39 71.0199 318.39 77.0899C318.429 78.4022 318.166 79.7059 317.62 80.8999C317.262 81.6418 316.7 82.2662 316 82.6999C315.949 82.7337 315.895 82.7637 315.84 82.7899C315.381 83.5182 315.085 84.3368 314.97 85.1899C315.692 85.0789 316.387 84.8347 317.02 84.4699C318.383 83.6505 319.403 82.3642 319.89 80.8499C320.292 79.6376 320.488 78.3668 320.47 77.0899C320.43 70.3799 315.7 62.1799 309.89 58.8299Z" fill="#FD5A68"/>
<path d="M331.08 73.1198C332.61 72.2398 333.85 72.9498 333.85 74.7098C333.799 75.67 333.521 76.6045 333.04 77.4369C332.558 78.2694 331.887 78.9762 331.08 79.4998C329.56 80.3798 328.32 79.6698 328.32 77.9098C328.373 76.951 328.65 76.018 329.13 75.186C329.609 74.354 330.277 73.6463 331.08 73.1198Z" fill="#37474F"/>
<path d="M323.31 51.0798C320.31 49.3498 317.42 49.0798 315.19 50.3798C312.96 51.6798 311.75 54.2798 311.75 57.7598C311.761 59.0804 311.923 60.3954 312.23 61.6798L314.07 60.6098C313.885 59.671 313.791 58.7166 313.79 57.7598C313.79 55.0398 314.65 53.0498 316.21 52.1398C317.77 51.2298 319.93 51.4898 322.29 52.8498C327.54 55.8498 331.81 63.2698 331.81 69.3398C331.851 70.6533 331.584 71.9581 331.03 73.1498C330.662 73.8944 330.09 74.5187 329.38 74.9498C329.331 74.9872 329.277 75.0175 329.22 75.0398C328.761 75.7681 328.464 76.5866 328.35 77.4398C329.055 77.3228 329.732 77.0789 330.35 76.7198C331.715 75.9024 332.736 74.6154 333.22 73.0998C333.621 71.8875 333.817 70.6166 333.8 69.3398C333.85 62.6298 329.12 54.4298 323.31 51.0798Z" fill="#FD5A68"/>
<path d="M344.5 65.3696C346.03 64.4896 347.27 65.1996 347.27 66.9696C347.217 67.9281 346.939 68.8605 346.457 69.6911C345.976 70.5217 345.306 71.227 344.5 71.7496C342.98 72.6296 341.74 71.9196 341.74 70.1596C341.793 69.2008 342.07 68.2678 342.55 67.4358C343.029 66.6038 343.697 65.896 344.5 65.3696Z" fill="#37474F"/>
<path d="M336.73 43.3298C333.73 41.5998 330.84 41.3298 328.61 42.6298C326.38 43.9298 325.16 46.5298 325.16 50.0098C325.169 51.3311 325.333 52.6469 325.65 53.9298L327.49 52.8598C327.305 51.9211 327.211 50.9666 327.21 50.0098C327.21 47.2898 328.07 45.2998 329.63 44.3898C331.19 43.4798 333.35 43.7398 335.71 45.0998C340.96 48.0998 345.23 55.5298 345.23 61.5898C345.273 62.9034 345.005 64.2085 344.45 65.3998C344.079 66.1449 343.508 66.7718 342.8 67.2098L342.64 67.2898C342.181 68.0181 341.885 68.8366 341.77 69.6898C342.493 69.5834 343.189 69.339 343.82 68.9698C345.188 68.1552 346.209 66.8671 346.69 65.3498C347.092 64.1377 347.288 62.8667 347.27 61.5898C347.27 54.8798 342.54 46.6798 336.73 43.3298Z" fill="#FD5A68"/>
<path d="M357.92 57.6197C359.45 56.7397 360.68 57.4597 360.68 59.2197C360.63 60.1777 360.354 61.1102 359.874 61.941C359.394 62.7717 358.725 63.4772 357.92 63.9997C356.4 64.8897 355.16 64.1697 355.16 62.4097C355.214 61.4513 355.492 60.5189 355.972 59.6871C356.451 58.8554 357.118 58.1473 357.92 57.6197Z" fill="#37474F"/>
<path d="M350.15 35.5798C347.15 33.8498 344.26 33.5798 342.03 34.8798C339.8 36.1798 338.58 38.7898 338.58 42.2598C338.589 43.5811 338.753 44.8969 339.07 46.1798L340.91 45.1098C340.721 44.1714 340.624 43.2169 340.62 42.2598C340.62 39.5398 341.49 37.5498 343.05 36.6398C344.61 35.7298 346.77 35.9898 349.13 37.3498C354.38 40.3498 358.65 47.7798 358.65 53.8498C358.691 55.16 358.424 56.4617 357.87 57.6498C357.508 58.4009 356.935 59.03 356.22 59.4598L356.06 59.5498C355.599 60.2768 355.302 61.0959 355.19 61.9498C355.911 61.8342 356.605 61.5903 357.24 61.2298C358.606 60.4109 359.624 59.1192 360.1 57.5998C360.51 56.3927 360.709 55.1243 360.69 53.8498C360.69 47.1298 356 38.9398 350.15 35.5798Z" fill="#FD5A68"/>
<path opacity="0.4" d="M350.15 35.5798C347.15 33.8498 344.26 33.5798 342.03 34.8798C339.8 36.1798 338.58 38.7898 338.58 42.2598C338.594 43.1043 338.671 43.9466 338.81 44.7798C338.157 44.2407 337.462 43.7558 336.73 43.3298C333.73 41.5998 330.84 41.3298 328.61 42.6298C326.38 43.9298 325.16 46.5298 325.16 50.0098C325.174 50.851 325.25 51.6901 325.39 52.5198C324.735 51.9872 324.039 51.5058 323.31 51.0798C320.31 49.3398 317.42 49.0798 315.19 50.3798C312.96 51.6798 311.75 54.2798 311.75 57.7598C311.76 58.6008 311.834 59.4398 311.97 60.2698C311.315 59.7372 310.619 59.2558 309.89 58.8298C306.89 57.0898 304 56.8298 301.77 58.1298C299.54 59.4298 298.33 62.0298 298.33 65.5098C298.341 66.3508 298.414 67.1898 298.55 68.0198C297.897 67.4839 297.202 67.0023 296.47 66.5798C293.47 64.8398 290.58 64.5798 288.35 65.8798C286.12 67.1798 284.91 69.7798 284.91 73.2598C284.921 74.0941 284.994 74.9265 285.13 75.7498C284.478 75.2204 283.786 74.7423 283.06 74.3198C280.06 72.5898 277.17 72.3198 274.95 73.6198C272.73 74.9198 271.5 77.5198 271.5 80.9998C271.514 81.841 271.59 82.6801 271.73 83.5098C271.075 82.9772 270.379 82.4958 269.65 82.0698C266.65 80.3298 263.75 80.0698 261.53 81.3698C259.31 82.6698 258.08 85.2698 258.08 88.7498C258.094 89.591 258.17 90.4301 258.31 91.2598C257.657 90.7239 256.962 90.2423 256.23 89.8198C253.23 88.0798 250.34 87.8198 248.11 89.1198C245.88 90.4198 244.66 93.0198 244.66 96.4998C244.674 97.341 244.751 98.18 244.89 99.0098C244.235 98.474 243.539 97.9893 242.81 97.5598C239.81 95.8298 236.92 95.5598 234.69 96.8598C232.46 98.1598 231.24 100.77 231.24 104.24C231.254 105.084 231.33 105.927 231.47 106.76C230.817 106.221 230.122 105.736 229.39 105.31C226.39 103.58 223.5 103.31 221.27 104.61C219.04 105.91 217.82 108.52 217.82 111.99C217.834 112.831 217.91 113.67 218.05 114.5C217.395 113.967 216.699 113.486 215.97 113.06C212.97 111.33 210.08 111.06 207.85 112.36C205.62 113.66 204.4 116.26 204.4 119.74C204.414 120.581 204.49 121.42 204.63 122.25C203.975 121.717 203.279 121.236 202.55 120.81C199.55 119.07 196.66 118.81 194.43 120.11C192.2 121.41 191 124 191 127.49C191.014 128.331 191.09 129.17 191.23 130C190.575 129.467 189.879 128.986 189.15 128.56C186.15 126.82 183.26 126.56 181.03 127.86C178.8 129.16 177.59 131.76 177.59 135.24C177.601 136.081 177.674 136.92 177.81 137.75C177.157 137.214 176.462 136.732 175.73 136.31C172.73 134.57 169.84 134.31 167.61 135.6C165.38 136.89 164.17 139.51 164.17 142.98C164.18 143.824 164.254 144.666 164.39 145.5C163.737 144.961 163.042 144.476 162.31 144.05C159.31 142.32 156.42 142.05 154.2 143.35C151.98 144.65 150.75 147.26 150.75 150.73C150.759 151.575 150.836 152.417 150.98 153.25C150.322 152.713 149.623 152.228 148.89 151.8C145.89 150.07 143 149.8 140.78 151.1C138.56 152.4 137.33 155.01 137.33 158.48C137.332 159.314 137.402 160.147 137.54 160.97C136.888 160.44 136.196 159.962 135.47 159.54C132.47 157.81 129.58 157.54 127.36 158.84C125.14 160.14 123.91 162.74 123.91 166.22C123.922 167.54 124.083 168.855 124.39 170.14L126.24 169.07C126.052 168.131 125.955 167.177 125.95 166.22C125.95 163.5 126.82 161.51 128.38 160.6C129.94 159.69 132.1 159.95 134.45 161.31C139.71 164.31 143.98 171.74 143.98 177.8C144.016 179.113 143.749 180.417 143.2 181.61C142.835 182.356 142.262 182.981 141.55 183.41L141.39 183.5C140.925 184.226 140.624 185.045 140.51 185.9C141.235 185.788 141.933 185.544 142.57 185.18C143.935 184.365 144.953 183.076 145.43 181.56C145.84 180.349 146.039 179.078 146.02 177.8C146.02 172.36 142.91 165.94 138.63 161.92L139.63 161.33C139.445 160.391 139.351 159.437 139.35 158.48C139.35 155.76 140.21 153.77 141.78 152.86C143.35 151.95 145.5 152.21 147.85 153.57C153.1 156.57 157.37 164 157.37 170.06C157.409 171.372 157.146 172.676 156.6 173.87C156.229 174.618 155.653 175.245 154.94 175.68C154.89 175.712 154.836 175.739 154.78 175.76C154.32 176.491 154.023 177.313 153.91 178.17C154.632 178.051 155.326 177.803 155.96 177.44C157.328 176.625 158.349 175.337 158.83 173.82C159.237 172.609 159.433 171.337 159.41 170.06C159.41 164.62 156.3 158.2 152.02 154.18L153.02 153.58C152.834 152.641 152.741 151.687 152.74 150.73C152.74 148.01 153.6 146.02 155.17 145.11C156.74 144.2 158.89 144.46 161.24 145.82C166.49 148.82 170.76 156.25 170.76 162.32C170.803 163.632 170.539 164.937 169.99 166.13C169.616 166.873 169.041 167.496 168.33 167.93L168.17 168.02C167.709 168.747 167.412 169.566 167.3 170.42C168.004 170.298 168.681 170.055 169.3 169.7C170.666 168.879 171.686 167.588 172.17 166.07C172.572 164.861 172.768 163.593 172.75 162.32C172.75 156.87 169.64 150.45 165.36 146.43L166.36 145.83C166.174 144.891 166.081 143.937 166.08 142.98C166.08 140.26 166.94 138.27 168.51 137.37C170.08 136.47 172.23 136.71 174.58 138.07C179.83 141.07 184.1 148.5 184.1 154.57C184.138 155.882 183.875 157.185 183.33 158.38C182.956 159.123 182.381 159.746 181.67 160.18L181.51 160.27C181.051 160.998 180.755 161.817 180.64 162.67C181.361 162.554 182.055 162.31 182.69 161.95C184.056 161.129 185.076 159.838 185.56 158.32C185.962 157.111 186.158 155.843 186.14 154.57C186.14 149.12 183.03 142.7 178.75 138.68L179.75 138.09C179.565 137.151 179.472 136.197 179.47 135.24C179.47 132.52 180.33 130.52 181.89 129.62C183.45 128.72 185.61 128.97 187.97 130.33C193.22 133.33 197.49 140.75 197.49 146.82C197.529 148.132 197.266 149.436 196.72 150.63C196.346 151.373 195.771 151.996 195.06 152.43L194.9 152.52C194.441 153.248 194.145 154.067 194.03 154.92C194.752 154.809 195.447 154.565 196.08 154.2C197.448 153.381 198.469 152.09 198.95 150.57C199.352 149.361 199.548 148.093 199.53 146.82C199.53 141.37 196.42 134.95 192.14 130.93L193.14 130.34C192.955 129.401 192.862 128.447 192.86 127.49C192.86 124.77 193.72 122.77 195.28 121.87C196.84 120.97 199 121.22 201.36 122.58C206.61 125.58 210.88 133 210.88 139.07C210.921 140.383 210.654 141.688 210.1 142.88C209.732 143.624 209.16 144.249 208.45 144.68C208.399 144.714 208.346 144.744 208.29 144.77C207.831 145.498 207.535 146.317 207.42 147.17C208.125 147.053 208.803 146.809 209.42 146.45C210.785 145.632 211.806 144.345 212.29 142.83C212.692 141.617 212.888 140.347 212.87 139.07C212.87 133.63 209.76 127.21 205.48 123.19L206.48 122.59C206.292 121.651 206.195 120.697 206.19 119.74C206.19 117.02 207.06 115.03 208.62 114.12C210.18 113.21 212.34 113.47 214.7 114.83C219.95 117.83 224.22 125.26 224.22 131.32C224.263 132.633 223.995 133.938 223.44 135.13C223.069 135.875 222.498 136.502 221.79 136.94L221.63 137.02C221.171 137.748 220.875 138.567 220.76 139.42C221.483 139.313 222.179 139.069 222.81 138.7C224.178 137.885 225.199 136.597 225.68 135.08C226.082 133.867 226.278 132.597 226.26 131.32C226.26 125.88 223.15 119.46 218.87 115.44L219.87 114.84C219.681 113.901 219.584 112.947 219.58 111.99C219.58 109.27 220.45 107.28 222.01 106.37C223.57 105.46 225.73 105.72 228.09 107.08C233.34 110.08 237.61 117.51 237.61 123.58C237.651 124.89 237.384 126.192 236.83 127.38C236.465 128.129 235.893 128.757 235.18 129.19L235.02 129.28C234.559 130.007 234.262 130.826 234.15 131.68C234.853 131.557 235.53 131.313 236.15 130.96C237.513 130.138 238.53 128.847 239.01 127.33C239.42 126.123 239.619 124.854 239.6 123.58C239.6 118.13 236.49 111.71 232.21 107.69L233.21 107.09C233.021 106.151 232.924 105.197 232.92 104.24C232.92 101.52 233.79 99.5298 235.35 98.6298C236.91 97.7298 239.07 97.9698 241.43 99.3298C246.68 102.33 250.95 109.76 250.95 115.83C250.99 117.143 250.723 118.448 250.17 119.64C249.808 120.388 249.234 121.014 248.52 121.44L248.36 121.53C247.893 122.254 247.596 123.075 247.49 123.93C248.211 123.813 248.905 123.569 249.54 123.21C250.906 122.391 251.924 121.099 252.4 119.58C252.81 118.373 253.009 117.104 252.99 115.83C252.99 110.38 249.88 103.96 245.6 99.9398L246.6 99.3498C246.412 98.4113 246.315 97.4569 246.31 96.4998C246.31 93.7798 247.18 91.7798 248.74 90.8798C250.3 89.9798 252.46 90.2198 254.82 91.5798C260.07 94.5798 264.34 102.01 264.34 108.08C264.381 109.393 264.114 110.698 263.56 111.89C263.192 112.634 262.62 113.259 261.91 113.69L261.75 113.78C261.283 114.504 260.986 115.325 260.88 116.18C261.601 116.063 262.295 115.819 262.93 115.46C264.295 114.64 265.313 113.349 265.79 111.83C266.2 110.623 266.399 109.354 266.38 108.08C266.38 102.63 263.27 96.2098 258.99 92.1898L259.99 91.5998C259.802 90.6613 259.705 89.7069 259.7 88.7498C259.7 86.0298 260.57 84.0298 262.13 83.1298C263.69 82.2298 265.85 82.4798 268.21 83.8398C273.46 86.8398 277.73 94.2598 277.73 100.33C277.771 101.643 277.504 102.948 276.95 104.14C276.582 104.884 276.01 105.509 275.3 105.94L275.14 106.03C274.673 106.754 274.376 107.575 274.27 108.43C274.992 108.317 275.686 108.073 276.32 107.71C277.683 106.892 278.7 105.605 279.18 104.09C279.59 102.879 279.789 101.608 279.77 100.33C279.77 94.8898 276.66 88.4698 272.38 84.4498L273.38 83.8498C273.192 82.9113 273.095 81.9569 273.09 80.9998C273.09 78.2798 273.96 76.2898 275.52 75.3798C277.08 74.4698 279.24 74.7298 281.59 76.0898C286.85 79.0898 291.12 86.5198 291.12 92.5798C291.156 93.8928 290.889 95.1965 290.34 96.3898C289.975 97.1363 289.402 97.7614 288.69 98.1898L288.53 98.2798C288.063 99.0042 287.766 99.8245 287.66 100.68C288.382 100.567 289.076 100.323 289.71 99.9598C291.238 99.2293 292.419 97.9299 293 96.3398C293.41 95.1293 293.609 93.8576 293.59 92.5798C293.59 87.1398 290.48 80.7098 286.2 76.6898L287.2 76.0998C287.015 75.1644 286.921 74.2133 286.92 73.2598C286.92 70.5298 287.78 68.5398 289.34 67.6398C290.9 66.7398 293.07 66.9798 295.42 68.3398C300.67 71.3398 304.94 78.7698 304.94 84.8398C304.979 86.152 304.716 87.4557 304.17 88.6498C303.796 89.3929 303.221 90.0164 302.51 90.4498L302.35 90.5398C301.891 91.2681 301.595 92.0866 301.48 92.9398C302.201 92.8242 302.895 92.5803 303.53 92.2198C304.896 91.3986 305.916 90.1082 306.4 88.5898C306.802 87.3809 306.998 86.1134 306.98 84.8398C307 79.3898 303.9 72.9998 299.62 68.9998L300.62 68.4098C300.435 67.471 300.342 66.5166 300.34 65.5598C300.34 62.8398 301.2 60.8398 302.76 59.9398C304.32 59.0398 306.48 59.2898 308.84 60.6498C314.09 63.6498 318.36 71.0698 318.36 77.1398C318.399 78.452 318.136 79.7557 317.59 80.9498C317.233 81.6693 316.682 82.2752 316 82.6998C315.949 82.7335 315.896 82.7636 315.84 82.7898C315.381 83.5181 315.085 84.3366 314.97 85.1898C315.692 85.0787 316.387 84.8346 317.02 84.4698C318.383 83.6503 319.403 82.3641 319.89 80.8498C320.292 79.6375 320.488 78.3666 320.47 77.0898C320.47 71.6498 317.36 65.2298 313.08 61.1998L314.08 60.6098C313.895 59.671 313.802 58.7166 313.8 57.7598C313.8 55.0398 314.66 53.0498 316.22 52.1398C317.78 51.2298 319.94 51.4898 322.3 52.8498C327.55 55.8498 331.82 63.2698 331.82 69.3398C331.861 70.6533 331.594 71.9581 331.04 73.1498C330.672 73.8944 330.1 74.5187 329.39 74.9498C329.339 74.9835 329.286 75.0136 329.23 75.0398C328.771 75.7681 328.475 76.5866 328.36 77.4398C329.065 77.3228 329.743 77.0789 330.36 76.7198C331.725 75.9024 332.746 74.6154 333.23 73.0998C333.632 71.8875 333.828 70.6166 333.81 69.3398C333.81 63.8998 330.7 57.4798 326.42 53.4598L327.42 52.8598C327.255 51.9158 327.181 50.958 327.2 49.9998C327.2 47.2798 328.07 45.2898 329.63 44.3798C331.19 43.4698 333.35 43.7298 335.71 45.0898C340.96 48.0898 345.23 55.5198 345.23 61.5798C345.273 62.8934 345.005 64.1985 344.45 65.3898C344.079 66.1349 343.508 66.7618 342.8 67.1998L342.64 67.2798C342.181 68.0081 341.885 68.8266 341.77 69.6798C342.493 69.5734 343.189 69.329 343.82 68.9598C345.188 68.1452 346.209 66.8571 346.69 65.3398C347.092 64.1277 347.288 62.8567 347.27 61.5798C347.27 56.1398 344.16 49.7198 339.88 45.6998L340.88 45.0998C340.691 44.1614 340.594 43.2069 340.59 42.2498C340.59 39.5298 341.46 37.5398 343.02 36.6298C344.58 35.7198 346.74 35.9798 349.1 37.3398C354.35 40.3398 358.62 47.7698 358.62 53.8398C358.661 55.15 358.394 56.4517 357.84 57.6398C357.478 58.3909 356.905 59.02 356.19 59.4498L356.03 59.5398C355.569 60.2668 355.272 61.0859 355.16 61.9398C355.881 61.8225 356.575 61.5787 357.21 61.2198C358.576 60.4009 359.594 59.1092 360.07 57.5898C360.48 56.3827 360.679 55.1143 360.66 53.8398C360.69 47.1298 356 38.9398 350.15 35.5798Z" fill="black"/>
<path d="M162.352 198.17L179.112 188.44C180.352 187.72 181.362 188.23 181.372 189.57C181.323 190.326 181.095 191.058 180.705 191.707C180.315 192.356 179.776 192.903 179.132 193.3L162.352 203C161.112 203.71 160.102 203.2 160.102 201.86C160.164 201.112 160.399 200.389 160.79 199.749C161.18 199.108 161.715 198.568 162.352 198.17Z" fill="#FD5A68"/>
<path d="M191 181.63L207.76 171.89C209 171.18 210.01 171.68 210.02 173.03C209.965 173.783 209.734 174.514 209.345 175.162C208.956 175.81 208.42 176.357 207.78 176.76L191 186.48C189.76 187.2 188.75 186.69 188.75 185.35C188.806 184.596 189.039 183.867 189.43 183.22C189.821 182.574 190.359 182.029 191 181.63Z" fill="#FD5A68"/>
<path d="M219.66 165.079L236.43 155.349C237.67 154.629 238.68 155.139 238.69 156.479C238.638 157.234 238.407 157.965 238.018 158.613C237.629 159.262 237.091 159.809 236.45 160.209L219.67 169.939C218.42 170.649 217.42 170.139 217.42 168.799C217.475 168.047 217.707 167.318 218.096 166.672C218.485 166.026 219.021 165.48 219.66 165.079Z" fill="#FD5A68"/>
<path d="M248.32 148.539L265.08 138.799C266.32 138.079 267.34 138.589 267.34 139.939C267.29 140.692 267.062 141.422 266.674 142.069C266.287 142.716 265.75 143.261 265.11 143.659L248.32 153.389C247.08 154.099 246.08 153.599 246.08 152.259C246.134 151.507 246.365 150.777 246.754 150.131C247.144 149.484 247.68 148.939 248.32 148.539Z" fill="#FD5A68"/>
<path d="M277 131.999L293.76 122.269C295 121.549 296.01 122.059 296.02 123.399C295.97 124.153 295.742 124.885 295.354 125.533C294.967 126.182 294.431 126.729 293.79 127.129L277 136.839C275.76 137.559 274.75 137.049 274.75 135.709C274.809 134.958 275.043 134.231 275.434 133.587C275.825 132.943 276.361 132.399 277 131.999Z" fill="#FD5A68"/>
<path d="M305.641 115.439L322.401 105.709C323.641 104.989 324.651 105.499 324.661 106.849C324.611 107.603 324.381 108.334 323.992 108.981C323.602 109.628 323.063 110.173 322.421 110.569L305.641 120.299C304.401 121.009 303.391 120.509 303.391 119.169C303.447 118.415 303.68 117.684 304.071 117.036C304.462 116.388 305 115.841 305.641 115.439Z" fill="#FD5A68"/>
<path d="M334.301 98.9001L351.061 89.1601C352.301 88.4501 353.311 88.9601 353.321 90.3001C353.263 91.0491 353.03 91.7741 352.641 92.4167C352.252 93.0593 351.718 93.6017 351.081 94.0001L334.301 103.72C333.061 104.44 332.051 103.93 332.051 102.59C332.113 101.842 332.348 101.119 332.739 100.479C333.13 99.8382 333.664 99.2976 334.301 98.9001Z" fill="#FD5A68"/>
<path d="M355.36 111.9L355.13 251.45L160.32 364.06V224.51L355.32 111.9M357.32 108.43L158.32 223.35V367.53L357.13 252.61L357.37 108.43H357.32Z" fill="#E0E0E0"/>
<path d="M186.721 351.149C186.455 351.149 186.201 351.044 186.014 350.857C185.826 350.669 185.721 350.415 185.721 350.149V207.899C185.721 207.634 185.826 207.38 186.014 207.192C186.201 207.005 186.455 206.899 186.721 206.899C186.986 206.899 187.24 207.005 187.428 207.192C187.615 207.38 187.721 207.634 187.721 207.899V350.149C187.721 350.415 187.615 350.669 187.428 350.857C187.24 351.044 186.986 351.149 186.721 351.149Z" fill="#E0E0E0"/>
<path d="M215.131 334.73C214.866 334.73 214.611 334.624 214.424 334.437C214.236 334.249 214.131 333.995 214.131 333.73L214.191 191.479C214.191 191.214 214.296 190.96 214.484 190.772C214.671 190.585 214.926 190.479 215.191 190.479C215.456 190.479 215.71 190.585 215.898 190.772C216.086 190.96 216.191 191.214 216.191 191.479L216.131 333.73C216.131 333.995 216.026 334.249 215.838 334.437C215.65 334.624 215.396 334.73 215.131 334.73Z" fill="#E0E0E0"/>
<path d="M243.531 318.32C243.266 318.32 243.012 318.214 242.824 318.027C242.637 317.839 242.531 317.585 242.531 317.32L242.631 175.06C242.631 174.794 242.737 174.54 242.924 174.352C243.112 174.165 243.366 174.06 243.631 174.06C243.896 174.06 244.151 174.165 244.338 174.352C244.526 174.54 244.631 174.794 244.631 175.06L244.531 317.32C244.531 317.585 244.426 317.839 244.238 318.027C244.051 318.214 243.796 318.32 243.531 318.32Z" fill="#E0E0E0"/>
<path d="M271.93 301.9C271.664 301.9 271.41 301.794 271.223 301.607C271.035 301.419 270.93 301.165 270.93 300.9L271.06 158.64C271.06 158.374 271.165 158.12 271.353 157.933C271.54 157.745 271.794 157.64 272.06 157.64C272.325 157.64 272.579 157.745 272.767 157.933C272.954 158.12 273.06 158.374 273.06 158.64L272.93 300.89C272.931 301.022 272.906 301.153 272.856 301.275C272.807 301.398 272.733 301.509 272.64 301.603C272.547 301.697 272.437 301.772 272.315 301.823C272.193 301.873 272.062 301.9 271.93 301.9Z" fill="#E0E0E0"/>
<path d="M300.33 285.48C300.065 285.48 299.811 285.374 299.623 285.187C299.435 284.999 299.33 284.745 299.33 284.48L299.5 142.229C299.5 141.964 299.605 141.71 299.793 141.522C299.981 141.335 300.235 141.229 300.5 141.229C300.765 141.229 301.02 141.335 301.207 141.522C301.395 141.71 301.5 141.964 301.5 142.229L301.33 284.48C301.33 284.745 301.225 284.999 301.037 285.187C300.85 285.374 300.595 285.48 300.33 285.48Z" fill="#E0E0E0"/>
<path d="M328.73 269.06C328.465 269.06 328.211 268.954 328.023 268.767C327.836 268.579 327.73 268.325 327.73 268.06L327.93 125.81C327.93 125.544 328.036 125.29 328.223 125.102C328.411 124.915 328.665 124.81 328.93 124.81C329.196 124.81 329.45 124.915 329.638 125.102C329.825 125.29 329.93 125.544 329.93 125.81L329.73 268.07C329.728 268.333 329.621 268.585 329.434 268.77C329.247 268.956 328.994 269.06 328.73 269.06Z" fill="#E0E0E0"/>
<path d="M159.491 259.69C159.314 259.691 159.141 259.645 158.988 259.557C158.836 259.469 158.709 259.343 158.621 259.19C158.49 258.96 158.456 258.689 158.525 258.434C158.595 258.179 158.762 257.962 158.991 257.83L355.861 144.17C356.089 144.039 356.36 144.003 356.615 144.07C356.869 144.138 357.087 144.303 357.221 144.53C357.287 144.644 357.331 144.769 357.349 144.899C357.366 145.03 357.358 145.162 357.325 145.29C357.292 145.417 357.233 145.536 357.154 145.641C357.074 145.746 356.974 145.834 356.861 145.9L160.001 259.56C159.845 259.648 159.669 259.693 159.491 259.69Z" fill="#E0E0E0"/>
<path d="M159.491 295.74C159.27 295.741 159.054 295.669 158.878 295.535C158.702 295.401 158.576 295.212 158.518 294.998C158.461 294.784 158.477 294.557 158.562 294.353C158.648 294.149 158.799 293.979 158.991 293.87L355.861 180.21C356.09 180.09 356.356 180.063 356.604 180.135C356.851 180.207 357.062 180.372 357.191 180.595C357.32 180.819 357.358 181.083 357.296 181.334C357.235 181.584 357.079 181.801 356.861 181.94L160.001 295.6C159.848 295.695 159.671 295.743 159.491 295.74Z" fill="#E0E0E0"/>
<path d="M159.491 331.78C159.314 331.78 159.141 331.734 158.988 331.647C158.836 331.559 158.709 331.432 158.621 331.28C158.49 331.05 158.456 330.778 158.525 330.523C158.595 330.269 158.762 330.052 158.991 329.92L355.861 216.25C355.975 216.184 356.101 216.141 356.232 216.125C356.362 216.108 356.495 216.117 356.622 216.151C356.75 216.185 356.869 216.244 356.973 216.325C357.077 216.405 357.165 216.505 357.231 216.62C357.296 216.734 357.339 216.86 357.356 216.991C357.373 217.121 357.364 217.254 357.329 217.381C357.295 217.508 357.236 217.628 357.156 217.732C357.075 217.836 356.975 217.924 356.861 217.99L160.001 331.65C159.845 331.738 159.669 331.783 159.491 331.78Z" fill="#E0E0E0"/>
<path opacity="0.1" d="M302.961 144.37V179.97L332.461 162.94V127.34L302.961 144.37Z" fill="black"/>
<path d="M339.831 161C339.831 161 338.391 163.44 333.241 166.41L307.241 181.41L304.121 150.47L333.611 133.47L335.261 151.38C335.561 154.22 336.001 158.47 339.831 161Z" fill="#FD5A68"/>
<path d="M333.64 133.39L304.15 150.42V144.96L333.64 127.93V133.39Z" fill="#FD5A68"/>
<path opacity="0.1" d="M333.64 133.39L304.15 150.42V144.96L333.64 127.93V133.39Z" fill="black"/>
<path d="M330.712 148.569C330.536 147.74 330.309 146.921 330.032 146.119C330.032 146.029 329.972 145.939 329.932 145.849C330.134 145.418 330.202 144.936 330.127 144.465C330.053 143.994 329.838 143.557 329.512 143.209C329.392 143.099 329.092 142.979 329.002 143.209C328.799 143.984 328.862 144.805 329.182 145.539C328.945 146.079 328.657 146.595 328.322 147.079C328.019 147.542 327.685 147.983 327.322 148.399C326.862 148.889 326.162 149.599 325.442 149.619C325.238 149.625 325.038 149.561 324.876 149.437C324.714 149.313 324.6 149.138 324.552 148.939C324.772 148.619 324.992 148.299 325.182 147.939C325.658 147.221 325.997 146.421 326.182 145.579C326.216 145.425 326.209 145.265 326.162 145.115C326.116 144.964 326.031 144.828 325.916 144.72C325.801 144.613 325.66 144.536 325.507 144.499C325.353 144.462 325.193 144.466 325.042 144.509C324.232 144.699 323.952 145.779 323.792 146.509C323.622 147.219 323.622 147.959 323.792 148.669C323.608 148.956 323.401 149.227 323.172 149.479C323.077 149.562 322.977 149.639 322.872 149.709C322.88 149.623 322.88 149.536 322.872 149.449C322.872 149.209 322.512 148.839 322.262 149.029C321.622 149.539 321.492 150.359 321.092 151.029C321.001 151.192 320.882 151.337 320.742 151.459C320.572 151.609 320.552 151.629 320.472 151.459C320.377 151.112 320.242 150.777 320.072 150.459C319.952 150.259 319.542 150.069 319.382 150.329C319.141 150.724 318.959 151.152 318.842 151.599C318.748 151.496 318.634 151.414 318.506 151.357C318.379 151.301 318.241 151.272 318.102 151.272C317.962 151.272 317.825 151.301 317.697 151.357C317.57 151.414 317.455 151.496 317.362 151.599C316.843 152.161 316.402 152.79 316.052 153.469C315.948 153.655 315.834 153.835 315.712 154.009L315.602 154.159C315.593 154.116 315.593 154.072 315.602 154.029C315.562 153.473 315.562 152.915 315.602 152.359C315.602 152.359 315.602 152.289 315.602 152.259C315.602 151.859 314.732 151.639 314.732 152.099C314.727 152.166 314.727 152.233 314.732 152.299C314.644 153.036 314.392 153.745 313.996 154.373C313.6 155 313.069 155.532 312.442 155.929C312.072 156.199 311.152 156.869 310.662 156.619C310.172 156.369 310.302 155.619 310.322 155.259C310.401 154.038 310.742 152.848 311.322 151.769C311.591 151.238 311.99 150.784 312.482 150.449C312.636 150.347 312.809 150.276 312.991 150.242C313.174 150.207 313.361 150.21 313.542 150.249C314.012 150.419 313.962 150.959 313.842 151.349C313.792 151.509 314.042 151.869 314.172 151.629C314.892 150.309 313.692 149.119 312.312 149.629C310.932 150.139 310.312 151.489 309.942 152.699C309.572 153.909 309.082 155.389 309.612 156.549C310.242 157.949 311.872 157.379 312.852 156.719C313.713 156.148 314.437 155.393 314.972 154.509C315.023 154.589 315.084 154.663 315.152 154.729C315.792 155.379 316.382 154.779 316.732 154.189C317.085 153.472 317.525 152.8 318.042 152.189C318.112 152.119 318.202 152.069 318.262 151.999C318.308 152.166 318.335 152.337 318.342 152.509C318.342 152.889 318.342 153.269 318.392 153.639C318.442 154.009 319.092 154.289 319.212 153.859C319.367 153.043 319.564 152.235 319.802 151.439C320.062 151.989 320.402 152.499 321.092 152.209C321.782 151.919 322.002 150.849 322.422 150.139C322.464 150.229 322.526 150.307 322.602 150.369C322.679 150.432 322.768 150.476 322.864 150.499C322.96 150.522 323.06 150.523 323.157 150.502C323.253 150.482 323.344 150.44 323.422 150.379C323.721 150.201 323.979 149.962 324.182 149.679L324.262 149.559C324.449 149.861 324.723 150.098 325.048 150.239C325.373 150.38 325.734 150.419 326.082 150.349C327.07 150.028 327.925 149.388 328.512 148.529C328.982 147.973 329.395 147.37 329.742 146.729C329.742 146.729 329.742 146.799 329.742 146.839C330.002 147.738 330.179 148.658 330.272 149.589C330.272 149.829 330.272 150.079 330.272 150.339C329.753 150.167 329.193 150.166 328.674 150.337C328.156 150.509 327.706 150.842 327.392 151.289C326.782 152.039 326.582 153.519 327.672 153.969C328.582 154.349 329.622 153.569 330.212 152.969C331.182 151.779 331.002 149.999 330.712 148.569ZM324.552 146.509C324.626 146.204 324.737 145.908 324.882 145.629C324.931 145.519 325.002 145.42 325.092 145.339C325.162 145.279 325.422 145.179 325.402 145.169C325.382 145.159 325.302 145.619 325.262 145.739C325.222 145.859 325.102 146.159 325.022 146.369C324.837 146.8 324.623 147.217 324.382 147.619C324.405 147.245 324.462 146.873 324.552 146.509ZM328.552 153.039C328.112 153.279 327.662 153.469 327.612 152.829C327.532 151.769 329.042 150.479 330.072 150.999C330.027 151.379 329.894 151.742 329.682 152.059C329.384 152.445 329.009 152.765 328.582 152.999L328.552 153.039Z" fill="#455A64"/>
<path d="M312.681 161.32C312.364 162.248 311.962 163.145 311.481 164C311.051 164.63 310.301 165.13 310.201 165.93C310.201 166.04 310.331 166.32 310.471 166.19C311.179 165.614 311.802 164.94 312.321 164.19V164.1C312.171 165 311.991 165.89 311.901 166.79C311.811 167.69 311.681 168.64 311.571 169.56C311.461 170.48 311.451 171.4 311.281 172.28C311.181 172.73 312.001 173.04 312.141 172.55C312.215 172.107 312.259 171.659 312.271 171.21C312.321 170.72 312.381 170.21 312.441 169.72C312.561 168.8 312.671 167.88 312.771 166.95C313.094 165.16 313.318 163.354 313.441 161.54C313.481 161.15 312.851 160.93 312.681 161.32Z" fill="#455A64"/>
<path d="M319.301 161.339C319.118 161.033 318.864 160.776 318.561 160.589C318.271 160.429 317.761 160.239 317.451 160.439C317.423 160.407 317.389 160.38 317.351 160.359C316.351 160.099 315.721 160.949 315.281 161.689C314.879 162.435 314.544 163.215 314.281 164.019C313.761 165.399 313.281 167.759 314.751 168.759C316.061 169.649 317.581 168.859 318.401 167.759C319.259 166.517 319.736 165.05 319.771 163.539C319.82 162.777 319.658 162.015 319.301 161.339ZM317.821 166.789C317.371 167.589 316.471 168.619 315.431 168.269C314.831 168.069 314.701 167.329 314.681 166.779C314.664 166.061 314.779 165.346 315.021 164.669C315.262 163.942 315.549 163.23 315.881 162.539C316.161 161.949 316.651 160.929 317.411 160.859C317.433 160.888 317.46 160.912 317.491 160.929C317.729 161.009 317.96 161.109 318.181 161.229C318.31 161.337 318.415 161.469 318.491 161.619C318.709 162.099 318.811 162.623 318.791 163.149C318.783 164.426 318.449 165.679 317.821 166.789Z" fill="#455A64"/>
<path d="M334.671 161.14C334.301 160.34 334.101 159.46 333.811 158.63C333.627 157.839 333.221 157.118 332.641 156.55C332.471 156.42 332.131 156.31 332.001 156.55C331.493 157.44 331.154 158.416 331.001 159.43C330.861 159.236 330.704 159.055 330.531 158.89C330.447 158.823 330.343 158.786 330.236 158.786C330.129 158.786 330.025 158.823 329.941 158.89C329.78 159.035 329.651 159.212 329.561 159.41C329.379 158.969 329.094 158.579 328.731 158.27C328.648 158.201 328.544 158.163 328.436 158.163C328.328 158.163 328.224 158.201 328.141 158.27C327.141 159.27 327.401 161.11 327.141 162.37C327.118 162.644 327.021 162.907 326.861 163.13C326.651 163.31 326.581 163.13 326.461 162.92C326.2 162.467 326.03 161.968 325.961 161.45C325.961 161.29 325.961 161.13 325.961 160.97C325.961 160.97 325.961 160.9 325.961 160.87C325.961 160.47 325.061 160.32 325.071 160.79C325.188 161.837 324.952 162.892 324.401 163.79C324.131 164.2 323.041 165.79 322.571 164.79C322.231 164.12 322.751 163.18 323.111 162.62C323.509 161.924 324.099 161.359 324.811 160.99C325.001 160.88 324.811 160.52 324.611 160.53C323.551 160.58 322.611 161.72 322.151 162.53C321.691 163.34 321.271 164.64 322.151 165.44C323.151 166.44 324.321 165.44 324.971 164.6C325.318 164.144 325.6 163.643 325.811 163.11V163.18C326.171 163.75 326.941 164.25 327.551 163.68C328.161 163.11 328.121 162.11 328.191 161.41C328.191 160.632 328.33 159.859 328.601 159.13C328.978 159.797 329.21 160.537 329.281 161.3C329.331 161.66 330.041 161.91 330.111 161.45C330.116 160.878 330.214 160.311 330.401 159.77C330.653 160.125 330.877 160.5 331.071 160.89C331.231 161.17 331.931 161.37 331.871 160.89C331.761 159.711 331.997 158.526 332.551 157.48C332.847 157.987 333.072 158.532 333.221 159.1C333.424 159.829 333.675 160.544 333.971 161.24C334.111 161.55 334.891 161.6 334.671 161.14Z" fill="#455A64"/>
<path d="M299.781 146.5C299.854 145.295 300.21 144.124 300.82 143.082C301.43 142.039 302.276 141.155 303.291 140.5C303.653 140.234 304.083 140.073 304.531 140.036C304.98 139.999 305.43 140.087 305.831 140.29L307.421 141.23L306.781 142.37C306.781 142.37 306.781 142.45 306.781 142.49C306.713 143.704 306.359 144.884 305.749 145.935C305.139 146.986 304.29 147.879 303.271 148.54L302.541 149.82L300.811 148.82H300.751C300.395 148.557 300.116 148.203 299.945 147.794C299.775 147.386 299.718 146.939 299.781 146.5Z" fill="#37474F"/>
<path d="M308.52 143.47C308.452 144.683 308.099 145.864 307.489 146.915C306.88 147.966 306.03 148.859 305.01 149.52C303.07 150.64 301.5 149.75 301.5 147.52C301.574 146.315 301.931 145.144 302.54 144.102C303.15 143.06 303.996 142.175 305.01 141.52C306.94 140.36 308.52 141.25 308.52 143.47Z" fill="#455A64"/>
<path opacity="0.1" d="M219.541 266.219V301.819L249.031 284.789V249.189L219.541 266.219Z" fill="black"/>
<path d="M256.401 282.81C256.401 282.81 254.961 285.25 249.821 288.22L223.821 303.22L220.701 272.22L250.201 255.22L251.851 273.13C252.131 276.07 252.551 280.33 256.401 282.81Z" fill="#FD5A68"/>
<path d="M250.221 255.239L220.721 272.269V266.809L250.221 249.779V255.239Z" fill="#FD5A68"/>
<path opacity="0.1" d="M250.221 255.239L220.721 272.269V266.809L250.221 249.779V255.239Z" fill="black"/>
<path d="M246.631 274.77L246.911 274.71C247.331 274.65 247.021 274.05 246.691 274.07H246.401C246.311 273.86 246.231 273.64 246.141 273.42C245.492 271.592 244.516 269.898 243.261 268.42C243.071 268.22 242.611 268.16 242.601 268.53C242.516 269.887 242.271 271.23 241.871 272.53C241.82 272.099 241.716 271.676 241.561 271.27C241.451 270.97 240.841 270.71 240.801 271.2C240.752 271.668 240.839 272.14 241.051 272.56C241.164 274.506 240.982 276.458 240.511 278.35C240.271 279.13 239.831 280.25 238.821 279.87C238.881 279.62 238.921 279.38 238.961 279.17C239.381 277.11 240.131 273.62 237.531 272.67C237.47 272.642 237.402 272.637 237.338 272.655C237.273 272.674 237.218 272.714 237.181 272.77C236.71 273.946 236.531 275.219 236.661 276.48C236.594 277.816 237.058 279.124 237.951 280.12C237.86 280.475 237.657 280.791 237.371 281.02C236.591 281.56 235.571 280.27 235.181 279.75C235.061 279.59 234.741 279.38 234.541 279.57C233.691 280.34 233.641 281.63 233.701 282.83C233.639 282.77 233.56 282.728 233.475 282.711C233.39 282.693 233.302 282.7 233.221 282.73C232.908 282.873 232.646 283.107 232.468 283.401C232.29 283.696 232.204 284.036 232.221 284.38C231.761 283.57 231.151 283.02 230.271 283.6C229.798 283.896 229.444 284.349 229.271 284.88C229.186 283.931 228.8 283.035 228.171 282.32C227.872 282.038 227.477 281.881 227.066 281.881C226.655 281.881 226.26 282.038 225.961 282.32C225.369 283.082 225.058 284.025 225.081 284.99C225.047 285.494 225.094 286.001 225.221 286.49C225.271 286.65 225.331 286.9 225.531 286.93C225.731 286.96 225.801 286.78 225.741 286.6C225.451 285.69 225.911 281.99 227.481 282.6C228.321 282.94 228.431 284.65 228.551 285.4C228.781 286.83 229.101 288.25 229.341 289.67C229.421 290.11 230.201 290.3 230.211 289.75C230.211 288.14 229.441 286.08 230.431 284.63C230.551 284.45 230.861 284.04 231.111 284.13C231.361 284.22 231.491 284.64 231.591 284.84C231.881 285.45 232.041 286.12 232.351 286.72C232.521 287.05 233.181 287.24 233.181 286.72C233.181 285.9 232.681 284.34 233.321 283.63C233.471 283.89 233.611 284.15 233.741 284.42C233.871 284.69 234.581 284.95 234.561 284.42C234.561 283.27 234.171 281.51 234.841 280.42C235.481 281.13 236.351 281.92 237.301 281.79C238.001 281.69 238.351 281.12 238.571 280.48C238.971 280.666 239.427 280.694 239.847 280.556C240.267 280.419 240.618 280.127 240.831 279.74C241.483 278.45 241.825 277.025 241.831 275.58C241.9 274.795 241.924 274.007 241.901 273.22C242.034 273.236 242.168 273.236 242.301 273.22C242.362 273.22 242.421 273.201 242.469 273.165C242.518 273.129 242.554 273.078 242.571 273.02C242.947 271.853 243.202 270.65 243.331 269.43C244.157 270.595 244.83 271.862 245.331 273.2C245.451 273.5 245.571 273.8 245.681 274.11C245.11 274.274 244.602 274.605 244.219 275.059C243.836 275.512 243.597 276.07 243.531 276.66C243.551 277.263 243.742 277.849 244.082 278.348C244.422 278.847 244.897 279.24 245.451 279.48C246.751 279.95 247.281 278.54 247.241 277.48C247.158 276.554 246.953 275.642 246.631 274.77ZM237.301 277C237.123 275.823 237.24 274.621 237.641 273.5C239.101 274.4 238.461 277.17 238.211 278.5C238.161 278.75 238.121 279.06 238.071 279.38C237.617 278.665 237.352 277.846 237.301 277ZM245.911 279C245.381 279.14 244.911 278.41 244.641 278C243.901 276.73 244.801 275.54 245.971 275C246.233 275.76 246.404 276.549 246.481 277.35C246.511 277.85 246.521 278.84 245.911 279Z" fill="#455A64"/>
<path d="M247.841 267.53C247.494 266.525 247.062 265.552 246.551 264.62C246.291 264.12 246.021 263.62 245.781 263.12C245.541 262.62 245.361 262.18 245.121 261.74C244.981 261.49 244.371 261.31 244.391 261.74C244.446 262.269 244.578 262.788 244.781 263.28C244.981 263.79 245.201 264.28 245.421 264.8C245.868 265.727 246.262 266.678 246.601 267.65C246.751 268.14 246.801 268.86 247.481 268.81C248.161 268.76 248.001 268 247.841 267.53Z" fill="#455A64"/>
<path d="M249.71 271.89C249.697 271.793 249.67 271.698 249.63 271.61C249.616 271.573 249.596 271.539 249.57 271.51C249.55 271.44 249.516 271.376 249.47 271.321C249.423 271.265 249.365 271.221 249.3 271.19L249.09 271.04L248.95 270.96C248.898 270.937 248.842 270.926 248.785 270.926C248.729 270.926 248.672 270.937 248.62 270.96C248.581 270.973 248.547 270.998 248.52 271.03C248.489 271.077 248.471 271.133 248.47 271.19C248.46 271.246 248.46 271.303 248.47 271.36C248.436 271.424 248.406 271.491 248.38 271.56C248.38 271.64 248.38 271.72 248.38 271.8C248.365 271.869 248.365 271.94 248.38 272.01C248.401 272.094 248.438 272.174 248.489 272.245C248.541 272.315 248.606 272.374 248.68 272.42C248.855 272.52 249.05 272.581 249.25 272.6C249.367 272.624 249.489 272.603 249.59 272.54L249.67 272.47C249.719 272.414 249.748 272.343 249.75 272.27C249.764 272.141 249.75 272.012 249.71 271.89Z" fill="#455A64"/>
<path d="M216.361 268.359C216.428 267.146 216.782 265.965 217.391 264.914C218.001 263.863 218.851 262.97 219.871 262.309C220.233 262.042 220.663 261.882 221.112 261.846C221.561 261.811 222.011 261.902 222.411 262.109L224.011 263.059L223.361 264.189C223.361 264.189 223.361 264.269 223.361 264.309C223.298 265.523 222.948 266.704 222.339 267.756C221.731 268.807 220.881 269.7 219.861 270.359L219.141 271.639L217.401 270.639H217.341C216.989 270.381 216.713 270.034 216.541 269.633C216.369 269.232 216.307 268.792 216.361 268.359Z" fill="#37474F"/>
<path d="M225.09 265.33C225.016 266.535 224.66 267.706 224.05 268.748C223.44 269.79 222.594 270.674 221.58 271.33C219.65 272.45 218.07 271.56 218.07 269.33C218.139 268.117 218.493 266.937 219.103 265.886C219.713 264.835 220.561 263.942 221.58 263.28C223.52 262.21 225.09 263.1 225.09 265.33Z" fill="#455A64"/>
<path d="M285.761 233.4L339.211 202.53C342.771 200.48 345.661 201.84 345.661 205.53C345.661 209.22 342.771 213.96 339.211 216.01L285.761 246.87C282.201 248.93 279.311 247.57 279.311 243.87C279.311 240.17 282.201 235.45 285.761 233.4Z" fill="#FD5A68"/>
<path d="M209.76 331.56C209.408 331.566 209.062 331.472 208.76 331.29L191.76 321.46C191.521 321.335 191.31 321.163 191.139 320.954C190.969 320.745 190.842 320.504 190.767 320.245C190.692 319.986 190.67 319.714 190.702 319.446C190.735 319.179 190.821 318.92 190.956 318.687C191.091 318.453 191.272 318.249 191.488 318.087C191.703 317.926 191.95 317.809 192.212 317.745C192.474 317.681 192.746 317.67 193.012 317.714C193.278 317.758 193.533 317.855 193.76 318L210.76 327.83C211.141 328.05 211.438 328.39 211.606 328.796C211.773 329.203 211.803 329.653 211.689 330.078C211.575 330.502 211.324 330.877 210.976 331.145C210.627 331.413 210.2 331.559 209.76 331.56Z" fill="#FD5A68"/>
<path d="M193.481 340.099C193.128 340.103 192.781 340.013 192.475 339.838C192.168 339.664 191.913 339.412 191.735 339.107C191.558 338.803 191.464 338.457 191.463 338.104C191.462 337.751 191.555 337.405 191.731 337.099L206.801 309.839C207.058 309.375 207.489 309.032 207.999 308.886C208.509 308.74 209.057 308.802 209.521 309.059C209.985 309.317 210.328 309.748 210.474 310.258C210.62 310.768 210.558 311.315 210.301 311.779L195.231 339.029C195.063 339.349 194.812 339.617 194.504 339.806C194.195 339.994 193.842 340.096 193.481 340.099Z" fill="#FD5A68"/>
<path d="M299.791 269.44C299.74 268.05 299.165 266.731 298.18 265.75C297.09 264.793 295.732 264.193 294.291 264.03C292.126 263.793 289.937 264.138 287.951 265.03C286.241 265.82 284.676 266.892 283.321 268.2C282.701 268.76 282.081 269.32 281.421 269.83C281.071 270.1 281.581 270.65 281.921 270.45C283.421 269.57 284.741 268.45 286.201 267.52C287.798 266.484 289.598 265.802 291.481 265.52C294.031 265.15 297.4 265.86 298.11 268.72C298.349 270.159 298.291 271.633 297.941 273.05C297.666 274.508 297.216 275.929 296.601 277.28C295.354 279.978 293.527 282.368 291.25 284.28C289.31 286.102 286.951 287.417 284.381 288.11C282.188 288.617 279.891 288.403 277.83 287.5C276.92 287.074 276.148 286.402 275.601 285.56C275.003 284.478 274.716 283.253 274.77 282.02C274.756 279.014 275.499 276.053 276.93 273.41C279.841 267.962 284.702 263.815 290.541 261.8C291.331 261.54 292.15 261.31 292.96 261.1C293.063 261.047 293.146 260.962 293.196 260.858C293.246 260.755 293.261 260.637 293.238 260.524C293.216 260.411 293.157 260.308 293.071 260.232C292.984 260.155 292.876 260.109 292.761 260.1C289.336 260.553 286.087 261.887 283.33 263.97C280.456 266.025 278.028 268.641 276.191 271.66C274.423 274.494 273.392 277.725 273.191 281.06C273.061 283.85 273.571 286.65 276.011 288.33C278.185 289.681 280.766 290.223 283.3 289.86C286.105 289.436 288.744 288.265 290.941 286.47C293.618 284.488 295.829 281.946 297.421 279.02C299.055 276.097 299.874 272.788 299.791 269.44Z" fill="#F28F8F"/>
<path d="M173.49 223L175.55 227.37C175.566 227.411 175.591 227.449 175.622 227.48C175.654 227.511 175.691 227.536 175.733 227.552C175.774 227.568 175.818 227.575 175.863 227.573C175.907 227.571 175.95 227.56 175.99 227.54L180.59 225.78C181.07 225.6 181.26 226.27 180.91 226.92L177.59 233.17C177.455 233.41 177.396 233.686 177.42 233.96L178.2 239.61C178.29 240.2 177.78 240.98 177.35 240.92L173.24 240.41C173.131 240.414 173.024 240.446 172.93 240.502C172.835 240.558 172.757 240.636 172.7 240.73L168.58 246C168.15 246.55 167.65 246.35 167.73 245.66L168.52 239.1C168.545 238.995 168.542 238.886 168.512 238.783C168.482 238.68 168.426 238.586 168.35 238.51L165.02 236.11C164.68 235.86 164.87 234.96 165.35 234.59L169.95 231.04C170.161 230.862 170.314 230.625 170.39 230.36L172.44 223.62C172.66 222.93 173.28 222.58 173.49 223Z" fill="#F28F8F"/>
<path d="M219.561 197L235.181 188C235.841 187.62 236.381 187.89 236.381 188.61C236.353 189.014 236.23 189.406 236.021 189.754C235.813 190.102 235.525 190.395 235.181 190.61L219.561 199.61C218.901 199.99 218.361 199.72 218.361 199C218.389 198.596 218.513 198.204 218.721 197.856C218.93 197.509 219.218 197.215 219.561 197Z" fill="#455A64"/>
<path d="M219.561 203.39L230.331 197.17C231.001 196.78 231.531 197.05 231.531 197.77C231.503 198.174 231.38 198.566 231.171 198.914C230.963 199.261 230.675 199.555 230.331 199.77L219.561 206C218.901 206.38 218.361 206.11 218.361 205.39C218.389 204.986 218.513 204.594 218.721 204.246C218.93 203.898 219.218 203.605 219.561 203.39Z" fill="#455A64"/>
<path d="M275.411 196.27L291.021 187.27C291.681 186.89 292.221 187.16 292.221 187.88C292.192 188.284 292.068 188.676 291.86 189.023C291.651 189.37 291.364 189.664 291.021 189.88L275.411 198.88C274.741 199.26 274.211 198.99 274.211 198.27C274.239 197.865 274.362 197.473 274.571 197.126C274.78 196.778 275.067 196.485 275.411 196.27Z" fill="#455A64"/>
<path d="M275.411 202.69L286.181 196.47C286.841 196.09 287.381 196.36 287.381 197.08C287.353 197.484 287.229 197.876 287.021 198.224C286.812 198.571 286.525 198.865 286.181 199.08L275.411 205.3C274.741 205.69 274.211 205.41 274.211 204.7C274.237 204.294 274.359 203.899 274.568 203.55C274.776 203.2 275.066 202.905 275.411 202.69Z" fill="#455A64"/>
<path d="M164.87 296.14L180.48 287.14C181.15 286.75 181.68 287.03 181.68 287.74C181.652 288.144 181.528 288.536 181.32 288.884C181.111 289.231 180.823 289.524 180.48 289.74L164.87 298.74C164.2 299.13 163.67 298.85 163.67 298.14C163.698 297.735 163.821 297.343 164.03 296.996C164.239 296.648 164.526 296.355 164.87 296.14Z" fill="#455A64"/>
<path d="M164.87 302.56L175.64 296.34C176.3 295.96 176.84 296.23 176.84 296.95C176.811 297.354 176.687 297.746 176.479 298.093C176.27 298.441 175.983 298.734 175.64 298.95L164.87 305.17C164.2 305.55 163.67 305.28 163.67 304.56C163.696 304.155 163.818 303.762 164.027 303.414C164.236 303.066 164.525 302.773 164.87 302.56Z" fill="#455A64"/>
<path d="M304.68 251.519L320.29 242.519C320.96 242.129 321.49 242.409 321.49 243.119C321.462 243.524 321.339 243.916 321.13 244.263C320.922 244.611 320.634 244.904 320.29 245.119L304.68 254.119C304.01 254.509 303.48 254.229 303.48 253.519C303.509 253.115 303.632 252.723 303.841 252.376C304.049 252.028 304.337 251.735 304.68 251.519Z" fill="#455A64"/>
<path d="M304.68 257.94L315.45 251.72C316.11 251.34 316.65 251.61 316.65 252.33C316.622 252.734 316.498 253.126 316.289 253.473C316.081 253.821 315.793 254.114 315.45 254.33L304.68 260.55C304.01 260.93 303.48 260.66 303.48 259.94C303.506 259.535 303.629 259.142 303.837 258.794C304.046 258.446 304.335 258.153 304.68 257.94Z" fill="#455A64"/>
<path d="M215.191 226.7L236.381 214.3L215.061 249.19L215.191 226.7Z" fill="#FD5A68"/>
<path opacity="0.3" d="M215.191 226.7L236.381 214.3L215.061 249.19L215.191 226.7Z" fill="black"/>
<path d="M139.151 239.059L152.291 231.449C152.981 231.049 153.551 231.329 153.551 232.089C153.525 232.512 153.397 232.923 153.18 233.287C152.962 233.65 152.661 233.956 152.301 234.179L139.151 241.789C138.451 242.189 137.891 241.899 137.891 241.149C137.921 240.726 138.051 240.317 138.27 239.953C138.489 239.59 138.791 239.284 139.151 239.059Z" fill="#FD5A68"/>
<path d="M139.151 244.85L148.841 239.24C149.531 238.84 150.101 239.12 150.111 239.88C150.08 240.303 149.95 240.712 149.731 241.076C149.512 241.439 149.211 241.745 148.851 241.97L139.151 247.57C138.451 247.98 137.891 247.69 137.891 246.94C137.921 246.517 138.051 246.107 138.27 245.743C138.489 245.38 138.791 245.074 139.151 244.85Z" fill="#FD5A68"/>
<path d="M139.151 275.05L152.291 267.44C152.981 267.04 153.551 267.32 153.551 268.08C153.525 268.503 153.397 268.913 153.18 269.277C152.962 269.64 152.661 269.947 152.301 270.17L139.151 277.78C138.451 278.18 137.891 277.9 137.891 277.14C137.923 276.717 138.053 276.308 138.272 275.945C138.491 275.582 138.792 275.275 139.151 275.05Z" fill="#FD5A68"/>
<path d="M139.151 280.84L148.841 275.23C149.531 274.83 150.101 275.11 150.111 275.87C150.08 276.293 149.95 276.703 149.731 277.066C149.512 277.429 149.211 277.735 148.851 277.96L139.151 283.57C138.451 283.97 137.891 283.68 137.891 282.93C137.921 282.507 138.051 282.097 138.27 281.734C138.489 281.37 138.791 281.064 139.151 280.84Z" fill="#FD5A68"/>
<path d="M139.151 311.109L152.291 303.499C152.981 303.099 153.551 303.379 153.551 304.139C153.525 304.562 153.397 304.973 153.18 305.336C152.962 305.7 152.661 306.006 152.301 306.229L139.151 313.839C138.451 314.239 137.891 313.949 137.891 313.199C137.921 312.776 138.051 312.366 138.27 312.003C138.489 311.64 138.791 311.334 139.151 311.109Z" fill="#FD5A68"/>
<path d="M139.151 316.899L148.841 311.289C149.531 310.889 150.101 311.169 150.111 311.929C150.08 312.352 149.95 312.762 149.731 313.125C149.512 313.489 149.211 313.795 148.851 314.019L139.151 319.619C138.451 320.019 137.891 319.739 137.891 318.989C137.921 318.566 138.051 318.156 138.27 317.793C138.489 317.43 138.791 317.124 139.151 316.899Z" fill="#FD5A68"/>
<path d="M139.151 347.08L152.291 339.47C152.981 339.06 153.551 339.35 153.551 340.1C153.526 340.525 153.4 340.937 153.182 341.303C152.965 341.668 152.662 341.976 152.301 342.2L139.151 349.81C138.451 350.21 137.891 349.92 137.891 349.17C137.921 348.747 138.051 348.337 138.27 347.974C138.489 347.61 138.791 347.304 139.151 347.08Z" fill="#FD5A68"/>
<path d="M139.151 352.87L148.841 347.26C149.531 346.85 150.101 347.14 150.111 347.9C150.08 348.323 149.95 348.732 149.731 349.096C149.512 349.459 149.211 349.765 148.851 349.99L139.151 355.59C138.451 355.99 137.891 355.71 137.891 354.96C137.921 354.537 138.051 354.127 138.27 353.763C138.489 353.4 138.791 353.094 139.151 352.87Z" fill="#FD5A68"/>
<g opacity="0.4">
<path d="M139.151 244.85L148.841 239.24C149.531 238.84 150.101 239.12 150.111 239.88C150.08 240.303 149.95 240.712 149.731 241.076C149.512 241.439 149.211 241.745 148.851 241.97L139.151 247.57C138.451 247.98 137.891 247.69 137.891 246.94C137.921 246.517 138.051 246.107 138.27 245.743C138.489 245.38 138.791 245.074 139.151 244.85Z" fill="black"/>
<path d="M139.151 280.84L148.841 275.23C149.531 274.83 150.101 275.11 150.111 275.87C150.08 276.293 149.95 276.703 149.731 277.066C149.512 277.429 149.211 277.735 148.851 277.96L139.151 283.57C138.451 283.97 137.891 283.68 137.891 282.93C137.921 282.507 138.051 282.097 138.27 281.734C138.489 281.37 138.791 281.064 139.151 280.84Z" fill="black"/>
<path d="M139.151 316.899L148.841 311.289C149.531 310.889 150.101 311.169 150.111 311.929C150.08 312.352 149.95 312.762 149.731 313.125C149.512 313.489 149.211 313.795 148.851 314.019L139.151 319.619C138.451 320.019 137.891 319.739 137.891 318.989C137.921 318.566 138.051 318.156 138.27 317.793C138.489 317.43 138.791 317.124 139.151 316.899Z" fill="black"/>
<path d="M139.151 352.87L148.841 347.26C149.531 346.85 150.101 347.14 150.111 347.9C150.08 348.323 149.95 348.732 149.731 349.096C149.512 349.459 149.211 349.765 148.851 349.99L139.151 355.59C138.451 355.99 137.891 355.71 137.891 354.96C137.921 354.537 138.051 354.127 138.27 353.763C138.489 353.4 138.791 353.094 139.151 352.87Z" fill="black"/>
</g>
<path opacity="0.1" d="M367 219.08C364.114 220.438 361.304 221.95 358.58 223.61C341.14 234.84 327.82 260.74 328.82 281.46C328.88 282.66 328.99 283.8 329.14 284.91L367 263.05V219.08Z" fill="black"/>
<path d="M389.521 230L380.871 225H380.801C375.291 222.15 368.001 223 360.161 228C344.411 238.15 332.381 261.54 333.291 280.25C333.741 289.58 337.291 295.98 342.761 298.8L351.411 303.8H351.471C356.921 306.57 364.211 305.8 372.061 300.71C387.811 290.57 399.841 267.17 398.931 248.46C398.541 239.22 395.001 232.82 389.521 230Z" fill="#37474F"/>
<path d="M351.071 303.649L342.811 298.839H342.761C337.331 296.009 333.761 289.609 333.301 280.299C332.891 271.949 335.071 262.679 338.991 254.069L347.641 259.069C343.721 267.679 341.551 276.949 341.961 285.289C342.391 294.409 345.831 300.729 351.071 303.649Z" fill="#263238"/>
<path d="M372.121 300.799C387.871 290.659 399.901 267.259 398.991 248.549C398.081 229.839 384.571 222.889 368.821 232.999C353.071 243.109 341.001 266.569 342.001 285.279C343.001 303.989 356.361 310.939 372.121 300.799Z" fill="#455A64"/>
<path d="M358.92 299.489C349.63 299.949 348.12 289.489 347.92 284.989C347.12 268.489 358.18 246.989 372.07 237.989C375.032 235.922 378.475 234.648 382.07 234.289C391.36 233.839 392.87 244.289 393.07 248.789C393.87 265.289 382.81 286.789 368.92 295.789C365.96 297.863 362.516 299.137 358.92 299.489Z" fill="#FAFAFA"/>
<path d="M372.29 269.999C372.193 270.01 372.096 270.01 372 269.999C371.793 269.93 371.614 269.794 371.491 269.614C371.369 269.433 371.308 269.217 371.32 268.999V245.119C371.32 244.854 371.425 244.6 371.613 244.412C371.8 244.224 372.055 244.119 372.32 244.119C372.585 244.119 372.839 244.224 373.027 244.412C373.214 244.6 373.32 244.854 373.32 245.119V266.059L384.46 251.749C384.541 251.643 384.642 251.555 384.758 251.489C384.874 251.423 385.002 251.381 385.134 251.365C385.266 251.349 385.4 251.36 385.528 251.397C385.656 251.434 385.776 251.496 385.88 251.579C385.982 251.664 386.066 251.768 386.127 251.886C386.188 252.003 386.226 252.132 386.237 252.264C386.248 252.396 386.233 252.529 386.192 252.655C386.151 252.782 386.086 252.898 386 252.999L373.06 269.629C372.967 269.744 372.849 269.837 372.716 269.901C372.583 269.964 372.437 269.998 372.29 269.999Z" fill="#37474F"/>
<path d="M366.591 287.65H366.451C366.343 287.618 366.252 287.544 366.197 287.444C366.143 287.345 366.13 287.229 366.161 287.12L371.761 268.23C371.796 268.124 371.87 268.035 371.969 267.982C372.068 267.93 372.184 267.919 372.291 267.95C372.345 267.965 372.396 267.991 372.44 268.026C372.485 268.06 372.521 268.104 372.549 268.153C372.576 268.203 372.592 268.257 372.598 268.313C372.604 268.369 372.598 268.426 372.581 268.48L367.001 287.34C366.973 287.427 366.918 287.504 366.845 287.559C366.771 287.615 366.683 287.646 366.591 287.65Z" fill="#FD5A68"/>
<path d="M372 264.22C373.85 263.03 375.44 263.85 375.55 266.05C375.542 267.251 375.252 268.433 374.703 269.502C374.154 270.57 373.362 271.494 372.39 272.2C370.54 273.39 368.95 272.57 368.84 270.37C368.848 269.169 369.138 267.986 369.686 266.918C370.235 265.85 371.028 264.925 372 264.22Z" fill="#FD5A68"/>
<path d="M159.681 426.05C153.751 429.05 168.681 439.62 176.131 435.55L305.921 359.55L321.501 343.11C321.726 342.969 321.887 342.745 321.947 342.486C322.007 342.227 321.961 341.955 321.821 341.73C321.68 341.504 321.456 341.344 321.197 341.284C320.938 341.224 320.666 341.269 320.441 341.41L290.391 350.58L159.681 426.05Z" fill="#E0E0E0"/>
<path d="M291.58 339L319.23 333.579C319.404 333.554 319.583 333.582 319.74 333.661C319.898 333.74 320.027 333.865 320.111 334.02C320.195 334.175 320.23 334.352 320.21 334.527C320.19 334.703 320.117 334.867 320 335L301.24 356.239L291.58 339Z" fill="#FFA8A7"/>
<path d="M320.001 335C320.119 334.865 320.191 334.696 320.209 334.518C320.226 334.34 320.188 334.161 320.099 334.006C320.01 333.851 319.874 333.727 319.711 333.652C319.549 333.578 319.367 333.556 319.191 333.59L313.791 334.65C314.533 335.108 315.134 335.762 315.528 336.54C315.921 337.318 316.092 338.19 316.021 339.06V339.55L320.001 335Z" fill="#263238"/>
<path d="M198.171 415.379L200.441 414.079L203.171 412.529L301.281 356.259C302.192 353.215 301.917 349.939 300.511 347.089C298.511 342.699 294.741 339.229 291.591 339.029L193.591 395.269L188.371 398.269C191.811 396.509 201.651 413.579 198.171 415.379Z" fill="#FD5A68"/>
<path d="M206.8 410.469L211.8 407.559C213.29 406.769 212.44 403.109 210.69 399.319C208.39 394.319 203.85 389.419 201.87 390.459L198.15 392.599L196.83 393.389C198.83 392.339 203.35 397.209 205.65 402.249C207.32 405.879 208.17 409.409 206.9 410.369C206.874 410.409 206.84 410.443 206.8 410.469Z" fill="#EBEBEB"/>
<path d="M208.06 409.729C211.52 407.899 201.6 390.809 198.13 392.649L193.07 395.539C196.54 393.699 206.46 410.789 202.99 412.629L208.06 409.729Z" fill="#FD5A68"/>
<path d="M198.17 415.379L203.17 412.529C206.59 410.749 197.17 394.179 193.54 395.269C193.467 395.287 193.396 395.314 193.33 395.349L188.33 398.259C191.81 396.509 201.65 413.579 198.17 415.379Z" fill="#EBEBEB"/>
<path opacity="0.15" d="M320.161 334.08L319.231 333.6L299.171 344.6L195.421 404.1C195.231 403.79 195.071 403.77 194.941 403.99C197.891 408.58 200.121 414.37 198.171 415.38L200.441 414.08L203.171 412.53L301.281 356.26L320.001 335C320.117 334.88 320.195 334.728 320.223 334.564C320.252 334.4 320.23 334.231 320.161 334.08Z" fill="black"/>
<path d="M177.001 427.51L198.191 415.38C199.681 414.61 198.861 410.99 197.191 407.22C194.901 402.17 190.381 397.22 188.391 398.22L167.001 410.45C162.781 412.88 166.661 422.06 171.371 426.15C173.161 427.7 175.121 428.38 177.001 427.51Z" fill="#F28F8F"/>
<path opacity="0.1" d="M178.241 420.939C177.031 416.159 173.161 411.479 169.601 410.469C169.077 410.281 168.515 410.222 167.964 410.297C167.412 410.372 166.886 410.578 166.431 410.899C163.241 413.899 166.951 422.279 171.431 426.149C173.141 427.669 175.061 428.349 176.891 427.549C178.461 426.619 179.071 424.179 178.241 420.939Z" fill="black"/>
</svg>
