<svg width="548" height="315" viewBox="0 0 548 315" fill="none" xmlns="http://www.w3.org/2000/svg">
<path opacity="0.4" d="M447.69 82.3286C350.998 40.5571 194.812 40.5571 98.7539 82.3286C2.69598 124.179 3.11868 191.9 99.8106 233.671C196.503 275.443 352.689 275.443 448.747 233.671C544.805 191.9 544.382 124.179 447.69 82.3286Z" fill="url(#paint0_linear_1040_1774)"/>
<path d="M136.532 246.498L190.127 277.046L278.646 226.263L225.05 196.418L136.532 246.498Z" fill="black"/>
<path d="M190.752 274.702L139.032 245.014C140.36 241.185 140.282 236.732 138.719 231.576L190.127 260.952C190.127 260.952 191.065 264.233 190.752 274.702Z" fill="white"/>
<path d="M190.127 260.952L138.719 231.576C139.188 232.982 139.5 234.466 139.657 235.951L190.674 265.405C190.596 263.999 190.44 262.436 190.127 260.952Z" fill="#EBEBEB"/>
<path d="M187.471 256.811C188.955 257.748 190.127 258.998 190.987 260.483C191.846 261.967 192.315 263.686 192.471 265.405V275.405C192.471 278.53 190.283 279.859 187.471 278.218L136.532 248.92V246.42L186.846 275.093C188.487 276.03 189.815 275.249 189.815 273.374L189.737 264.077C189.658 263.061 189.346 262.045 188.877 261.186C188.408 260.327 187.627 259.545 186.768 258.998L136.532 230.326V227.513L187.471 256.811Z" fill="#263238"/>
<path d="M136.532 227.513L225.05 177.433L275.99 205.95C277.396 206.887 278.646 208.137 279.505 209.622C280.365 211.106 280.834 212.747 280.99 214.466V224.466C280.99 226.029 280.443 227.122 279.505 227.669L190.987 278.53C191.924 277.984 192.471 276.89 192.471 275.327V265.327C192.393 263.608 191.846 261.889 190.987 260.405C190.127 258.92 188.955 257.67 187.471 256.733L136.532 227.513Z" fill="#455A64"/>
<path d="M190.987 260.483C191.846 261.967 192.393 263.608 192.471 265.327V275.327C192.471 276.89 191.924 277.983 190.987 278.53L279.505 227.669C280.443 227.122 280.99 226.028 280.99 224.466V214.466C280.912 212.747 280.443 211.106 279.505 209.622L190.987 260.483Z" fill="#37474F"/>
<path d="M136.375 221.107L190.283 251.967L272.396 204.856L218.488 174.777L136.375 221.107Z" fill="#C0A1E2"/>
<path opacity="0.45" d="M136.375 221.107L190.283 251.967L272.396 204.856L218.488 174.777L136.375 221.107Z" fill="white"/>
<path opacity="0.35" d="M136.375 221.107L190.283 251.967L272.396 204.856L218.488 174.777L136.375 221.107Z" fill="black"/>
<path d="M190.83 249.779L138.641 219.778C139.891 216.263 139.813 212.044 138.407 207.356L190.283 237.045C190.283 237.123 191.221 240.091 190.83 249.779Z" fill="white"/>
<path d="M190.283 237.123L138.407 207.434C138.875 208.84 139.188 210.325 139.344 211.809L190.83 241.498C190.752 240.013 190.596 238.529 190.283 237.123Z" fill="#EBEBEB"/>
<path d="M187.862 233.216C189.19 234.076 190.283 235.248 191.143 236.654C191.924 238.06 192.393 239.545 192.471 241.185V250.483C192.471 253.373 190.44 254.545 187.862 253.139L136.375 223.529V221.263L187.236 250.248C188.799 251.108 189.971 250.404 189.971 248.686L189.893 240.092C189.815 239.154 189.58 238.217 189.112 237.357C188.643 236.498 187.94 235.795 187.158 235.326L136.375 206.184V203.606L187.862 233.216Z" fill="#C0A1E2"/>
<path opacity="0.45" d="M187.862 233.216C189.19 234.076 190.283 235.248 191.143 236.654C191.924 238.06 192.393 239.545 192.471 241.185V250.483C192.471 253.373 190.44 254.545 187.862 253.139L136.375 223.529V221.263L187.236 250.248C188.799 251.108 189.971 250.404 189.971 248.686L189.893 240.092C189.815 239.154 189.58 238.217 189.112 237.357C188.643 236.498 187.94 235.795 187.158 235.326L136.375 206.184V203.606L187.862 233.216Z" fill="white"/>
<path opacity="0.15" d="M187.862 233.216C189.19 234.076 190.283 235.248 191.143 236.654C191.924 238.06 192.393 239.545 192.471 241.185V250.483C192.471 253.373 190.44 254.545 187.862 253.139L136.375 223.529V221.263L187.236 250.248C188.799 251.108 189.971 250.404 189.971 248.686L189.893 240.092C189.815 239.154 189.58 238.217 189.112 237.357C188.643 236.498 187.94 235.795 187.158 235.326L136.375 206.184V203.606L187.862 233.216Z" fill="black"/>
<path d="M136.375 203.606L218.488 157.198L269.974 186.105C271.302 186.965 272.396 188.137 273.255 189.543C274.036 190.949 274.505 192.434 274.583 194.074V203.372C274.583 204.856 274.036 205.872 273.255 206.34L191.143 253.373C192.002 252.905 192.471 251.889 192.471 250.404V241.107C192.393 239.545 191.924 237.982 191.143 236.576C190.362 235.17 189.268 233.998 187.862 233.138L136.375 203.606Z" fill="#C0A1E2"/>
<path opacity="0.65" d="M136.375 203.606L218.488 157.198L269.974 186.105C271.302 186.965 272.396 188.137 273.255 189.543C274.036 190.949 274.505 192.434 274.583 194.074V203.372C274.583 204.856 274.036 205.872 273.255 206.34L191.143 253.373C192.002 252.905 192.471 251.889 192.471 250.404V241.107C192.393 239.545 191.924 237.982 191.143 236.576C190.362 235.17 189.268 233.998 187.862 233.138L136.375 203.606Z" fill="white"/>
<path d="M191.143 236.654C192.002 237.982 192.471 239.545 192.471 241.185V250.405C192.471 251.889 191.924 252.905 191.143 253.373L273.177 206.262C274.036 205.794 274.505 204.778 274.505 203.293V193.996C274.427 192.434 273.958 190.871 273.177 189.465L191.143 236.654Z" fill="#C0A1E2"/>
<path opacity="0.45" d="M191.143 236.654C192.002 237.982 192.471 239.545 192.471 241.185V250.405C192.471 251.889 191.924 252.905 191.143 253.373L273.177 206.262C274.036 205.794 274.505 204.778 274.505 203.293V193.996C274.427 192.434 273.958 190.871 273.177 189.465L191.143 236.654Z" fill="white"/>
<path opacity="0.1" d="M185.44 231.81V251.655L181.924 253.608L136.532 227.591L140.047 225.56L136.375 223.45V221.185L138.719 219.857C140.047 216.028 139.813 211.731 138.485 207.434L136.375 206.262V203.684L185.44 231.81Z" fill="black"/>
<path d="M127 199.543L181.455 230.795L263.567 183.683L209.112 153.135L127 199.543Z" fill="#C0A1E2"/>
<path opacity="0.5" d="M127 199.543L181.455 230.795L263.567 183.683L209.112 153.135L127 199.543Z" fill="black"/>
<path d="M182.002 228.685L129.344 198.215C130.594 194.699 130.516 191.262 129.109 186.496L181.455 216.653C181.455 216.653 182.393 218.919 182.002 228.685Z" fill="white"/>
<path d="M181.455 216.653L129.109 186.496C129.578 187.902 129.891 189.387 130.047 190.871L182.002 220.872C181.924 219.466 181.768 218.059 181.455 216.653Z" fill="#EBEBEB"/>
<path d="M179.033 212.825C180.361 213.684 181.455 214.856 182.314 216.263C183.096 217.669 183.565 219.153 183.643 220.794V229.31C183.643 232.201 181.611 233.373 179.033 231.966L127.078 201.809V199.543L178.408 229.076C179.971 229.935 181.143 229.232 181.143 227.513V219.622C181.064 218.685 180.83 217.747 180.361 216.888C179.893 216.028 179.189 215.325 178.408 214.856L127.078 185.324V182.746L179.033 212.825Z" fill="#C0A1E2"/>
<path opacity="0.4" d="M179.033 212.825C180.361 213.684 181.455 214.856 182.314 216.263C183.096 217.669 183.565 219.153 183.643 220.794V229.31C183.643 232.201 181.611 233.373 179.033 231.966L127.078 201.809V199.543L178.408 229.076C179.971 229.935 181.143 229.232 181.143 227.513V219.622C181.064 218.685 180.83 217.747 180.361 216.888C179.893 216.028 179.189 215.325 178.408 214.856L127.078 185.324V182.746L179.033 212.825Z" fill="black"/>
<path d="M127.078 182.746L209.112 135.635L261.067 165.714C262.395 166.573 263.489 167.745 264.349 169.152C265.13 170.558 265.599 172.042 265.677 173.683V182.199C265.677 183.683 265.13 184.699 264.349 185.168L182.236 232.201C183.096 231.732 183.565 230.716 183.565 229.232V220.716C183.486 219.153 183.018 217.591 182.236 216.184C181.455 214.778 180.283 213.606 178.955 212.747L127.078 182.746Z" fill="#C0A1E2"/>
<path opacity="0.2" d="M127.078 182.746L209.112 135.635L261.067 165.714C262.395 166.573 263.489 167.745 264.349 169.152C265.13 170.558 265.599 172.042 265.677 173.683V182.199C265.677 183.683 265.13 184.699 264.349 185.168L182.236 232.201C183.096 231.732 183.565 230.716 183.565 229.232V220.716C183.486 219.153 183.018 217.591 182.236 216.184C181.455 214.778 180.283 213.606 178.955 212.747L127.078 182.746Z" fill="black"/>
<path d="M182.314 216.185C183.174 217.513 183.643 219.075 183.643 220.716V229.232C183.643 230.716 183.096 231.732 182.314 232.201L264.349 185.09C265.208 184.621 265.677 183.605 265.677 182.121V173.605C265.599 172.042 265.13 170.48 264.349 169.073L182.314 216.185Z" fill="#C0A1E2"/>
<path opacity="0.35" d="M182.314 216.185C183.174 217.513 183.643 219.075 183.643 220.716V229.232C183.643 230.716 183.096 231.732 182.314 232.201L264.349 185.09C265.208 184.621 265.677 183.605 265.677 182.121V173.605C265.599 172.042 265.13 170.48 264.349 169.073L182.314 216.185Z" fill="black"/>
<path opacity="0.1" d="M280.99 214.935V214.544C280.99 213.919 280.912 213.294 280.755 212.747C280.13 210.012 278.412 207.59 275.99 206.028L274.193 205.012C274.427 204.465 274.505 203.918 274.505 203.293V193.996C274.427 192.434 273.958 190.871 273.177 189.465C272.396 188.059 271.302 186.887 269.896 186.027L265.442 183.527C265.599 183.058 265.677 182.59 265.677 182.043V173.527C265.677 173.371 265.677 173.136 265.677 172.98C265.677 172.824 265.599 172.511 265.599 172.277C265.521 171.964 265.442 171.574 265.364 171.261C265.286 171.105 265.286 170.87 265.208 170.714C264.974 170.167 264.739 169.62 264.427 169.073L200.128 205.95V221.966L184.268 231.029L185.518 231.732L193.096 227.357L200.128 231.419V248.139L194.034 251.655L191.221 253.217L191.143 253.295C190.283 253.764 189.19 253.686 187.862 252.983L185.44 251.655L184.346 252.28L188.252 254.545C188.799 254.858 189.346 255.014 189.971 255.014C190.596 255.014 191.143 254.858 191.69 254.545L195.206 252.514L199.971 255.248V273.374L279.505 227.747C279.74 227.591 279.974 227.435 280.13 227.279C280.755 226.497 280.99 225.56 280.99 224.544V214.935Z" fill="black"/>
<path opacity="0.1" d="M152.626 192.824C159.814 198.371 173.642 199.699 183.486 195.637C193.33 191.652 195.44 183.84 188.174 178.292C180.908 172.745 167.158 171.417 157.314 175.48C147.469 179.543 145.438 187.277 152.626 192.824Z" fill="black"/>
<path d="M162.314 147.51C158.251 147.745 151.141 148.292 146.688 157.433C141.61 167.824 146.688 180.715 154.423 186.184C164.189 193.059 179.424 193.449 188.408 185.246C198.331 176.183 199.112 159.073 192.315 151.573C185.596 144.073 175.127 146.182 172.392 147.354C168.251 148.995 165.439 147.276 162.314 147.51Z" fill="#C0A1E2"/>
<path opacity="0.3" d="M158.017 151.104C155.36 150.87 151.532 153.213 149.579 156.807C147.079 161.261 146.766 167.589 147.548 172.12C149.11 181.339 158.017 186.183 158.876 185.402C159.736 184.621 153.251 178.605 156.845 169.386C160.439 160.089 162.392 151.495 158.017 151.104Z" fill="white"/>
<path opacity="0.2" d="M155.985 152.588C153.329 153.526 150.204 157.823 149.345 160.792C148.485 163.761 148.954 165.87 149.345 166.261C150.126 166.886 155.517 161.573 157.314 159.151C159.892 155.87 160.361 151.104 155.985 152.588Z" fill="white"/>
<path d="M166.533 155.401C165.126 154.229 163.72 153.682 163.017 155.401C162.314 157.12 166.142 159.854 170.361 158.604C174.58 157.354 176.064 154.62 175.986 153.213C175.986 153.213 174.033 156.26 171.22 156.573C169.58 156.729 167.939 156.338 166.533 155.401Z" fill="#C0A1E2"/>
<path opacity="0.1" d="M166.533 155.401C165.126 154.229 163.72 153.682 163.017 155.401C162.314 157.12 166.142 159.854 170.361 158.604C174.58 157.354 176.064 154.62 175.986 153.213C175.986 153.213 174.033 156.26 171.22 156.573C169.58 156.729 167.939 156.338 166.533 155.401Z" fill="black"/>
<path d="M170.361 157.51C170.283 153.604 169.658 149.698 168.486 145.947C166.611 140.557 163.173 136.728 162.236 136.338C160.751 135.791 159.189 135.556 157.626 135.635C155.438 135.635 152.86 137.119 153.563 137.978C154.267 138.838 157.392 139.463 161.22 142.979C165.048 146.494 168.642 153.448 168.642 157.51C168.876 157.667 169.189 157.745 169.501 157.745C169.814 157.745 170.127 157.667 170.361 157.51Z" fill="#37474F"/>
<path d="M162.079 136.26C162.001 136.26 161.923 136.182 161.845 136.182C160.439 135.791 159.032 135.557 157.626 135.635C156.064 135.635 154.188 136.416 153.642 137.197C153.485 137.51 153.954 137.901 155.907 138.213C157.86 138.526 159.814 138.291 161.611 137.666C162.47 137.354 162.783 136.572 162.079 136.26Z" fill="#455A64"/>
<path opacity="0.1" d="M167.548 150.635C165.83 145.713 160.673 141.651 157.079 139.854C158.564 140.713 159.892 141.729 161.142 142.901C164.97 146.416 168.564 153.37 168.564 157.433C168.798 157.589 169.111 157.667 169.423 157.667C169.736 157.667 170.048 157.589 170.283 157.433C170.283 157.433 170.283 155.948 170.048 153.839C170.048 155.87 169.111 155.167 167.548 150.635Z" fill="black"/>
<path d="M169.345 148.994C171.142 149.229 172.939 149.073 174.58 148.369C176.22 147.744 177.705 146.651 178.799 145.244C181.768 141.338 179.814 136.181 179.814 136.181C178.33 135.947 176.767 136.025 175.361 136.494C173.877 136.963 172.627 137.744 171.533 138.838C168.876 141.494 168.486 146.729 169.345 148.994Z" fill="#C0A1E2"/>
<path opacity="0.3" d="M169.345 148.994C171.142 149.229 172.939 149.073 174.58 148.369C176.22 147.744 177.705 146.651 178.799 145.244C181.768 141.338 179.814 136.181 179.814 136.181C178.33 135.947 176.767 136.025 175.361 136.494C173.877 136.963 172.627 137.744 171.533 138.838C168.876 141.494 168.486 146.729 169.345 148.994Z" fill="black"/>
<path opacity="0.1" d="M179.814 136.181C178.33 135.947 176.767 136.025 175.361 136.494C173.877 136.963 172.627 137.744 171.533 138.838C168.876 141.494 168.486 146.729 169.345 148.994C171.767 141.416 179.814 136.181 179.814 136.181Z" fill="black"/>
<path d="M176.533 136.963C174.658 137.275 172.939 138.291 171.689 139.697C170.439 141.104 169.658 142.979 169.58 144.854C170.205 143.135 171.142 141.572 172.236 140.166C173.486 138.838 174.97 137.744 176.533 136.963Z" fill="#C0A1E2"/>
<path d="M390.369 5.23959L207.315 110.946V255.092V281.031L205.675 280.093L203.175 278.609V108.603L386.228 2.89575L389.353 4.69269L390.369 5.23959Z" fill="#E6E6E6"/>
<path d="M390.369 5.2395V149.385L213.487 251.498L209.347 253.92L208.331 254.545L207.315 255.092V110.946L390.369 5.2395Z" fill="#F0F0F0"/>
<path d="M386.228 2.89575L390.369 5.23959L207.315 110.946L203.175 108.524L386.228 2.89575Z" fill="#F0F0F0"/>
<path d="M391.853 4.45827L390.369 5.31768L207.315 111.025L206.768 111.337V280.718L205.753 280.093V110.712L206.378 110.4L389.431 4.69266L390.916 3.83325L391.853 4.45827Z" fill="#C0A1E2"/>
<path opacity="0.1" d="M391.853 4.45827L390.369 5.31768L207.315 111.025L206.768 111.337V280.718L205.753 280.093V110.712L206.378 110.4L389.431 4.69266L390.916 3.83325L391.853 4.45827Z" fill="black"/>
<path d="M390.369 5.31766L207.315 111.025L206.768 111.337V280.718L207.393 281.031L391.931 174.777V4.45825L390.369 5.31766Z" fill="#C0A1E2"/>
<path opacity="0.05" d="M390.369 5.31766L207.315 111.025L206.768 111.337V280.718L207.393 281.031L391.931 174.777V4.45825L390.369 5.31766Z" fill="black"/>
<path d="M390.837 3.83325L391.853 4.38015L206.69 111.259L205.675 110.634L390.837 3.83325Z" fill="#C0A1E2"/>
<path opacity="0.4" d="M390.837 3.83325L391.853 4.38015L206.69 111.259L205.675 110.634L390.837 3.83325Z" fill="white"/>
<path d="M393.494 5.39577L391.853 6.33331L390.369 7.19271L339.898 36.3344L208.331 112.275V281.656L207.315 281.031V111.65L390.369 6.0208L391.853 5.16139L392.478 4.77075L393.494 5.39577Z" fill="#C0A1E2"/>
<path opacity="0.1" d="M393.494 5.39577L391.853 6.33331L390.369 7.19271L339.898 36.3344L208.331 112.275V281.656L207.315 281.031V111.65L390.369 6.0208L391.853 5.16139L392.478 4.77075L393.494 5.39577Z" fill="black"/>
<path d="M391.853 6.25516L390.369 7.11456L339.976 36.2562L208.331 112.275V281.656L209.347 282.281L213.409 279.859L393.494 175.714V5.39575L391.853 6.25516Z" fill="#C0A1E2"/>
<path d="M392.478 4.77075L393.494 5.39577L208.331 112.275L207.315 111.728L392.478 4.77075Z" fill="#C0A1E2"/>
<path opacity="0.4" d="M392.478 4.77075L393.494 5.39577L208.331 112.275L207.315 111.728L392.478 4.77075Z" fill="white"/>
<path d="M396.619 8.83334L393.494 10.6303L391.853 11.5678L390.369 12.4272L213.487 114.54V284.546L209.347 282.202V112.196L390.369 7.66142L391.853 6.80201L392.4 6.4895L393.416 7.11452L396.619 8.83334Z" fill="#E6E6E6"/>
<path d="M392.478 6.41138L396.619 8.75521L213.487 114.54L209.347 112.118L392.478 6.41138Z" fill="#F0F0F0"/>
<path d="M213.487 114.54V284.546L396.619 178.839V8.83325L213.487 114.54Z" fill="#FAFAFA"/>
<path d="M232.316 109.149C233.488 108.446 234.504 108.993 234.504 110.4C234.426 111.181 234.269 111.884 233.879 112.509C233.488 113.134 233.019 113.681 232.394 114.15C231.222 114.853 230.207 114.306 230.207 112.9C230.285 112.118 230.441 111.415 230.832 110.79C231.144 110.165 231.613 109.618 232.316 109.149Z" fill="#37474F"/>
<path d="M226.222 91.9614C223.878 90.6332 221.613 90.3988 219.894 91.4145C218.175 92.4301 217.238 94.4615 217.238 97.1959C217.238 98.2116 217.394 99.2273 217.628 100.243L219.034 99.3835C218.878 98.6804 218.8 97.8991 218.8 97.1959C218.8 95.0865 219.503 93.5239 220.675 92.8208C221.925 92.1176 223.566 92.352 225.441 93.3677C229.504 95.7115 232.863 101.493 232.863 106.259C232.863 107.274 232.707 108.29 232.238 109.228C231.926 109.775 231.535 110.321 230.91 110.634C230.832 110.634 230.832 110.712 230.754 110.712C230.363 111.259 230.129 111.962 230.051 112.587C230.597 112.509 231.144 112.275 231.691 112.04C232.785 111.415 233.566 110.4 233.957 109.228C234.269 108.29 234.426 107.274 234.426 106.259C234.426 100.946 230.754 94.5396 226.222 91.9614Z" fill="#C0A1E2"/>
<path d="M242.785 103.134C243.957 102.43 244.973 102.977 244.973 104.384C244.895 105.165 244.739 105.868 244.348 106.493C243.957 107.118 243.489 107.665 242.863 108.134C241.692 108.837 240.676 108.29 240.676 106.884C240.754 106.102 240.91 105.399 241.301 104.774C241.613 104.071 242.16 103.524 242.785 103.134Z" fill="#37474F"/>
<path d="M236.691 85.8674C234.348 84.5392 232.082 84.3048 230.363 85.3205C228.644 86.3362 227.707 88.3675 227.707 91.1019C227.707 92.1176 227.863 93.1333 228.097 94.1489L229.504 93.2895C229.347 92.5864 229.269 91.8051 229.269 91.1019C229.269 88.9925 229.972 87.4299 231.144 86.7268C232.394 86.0236 234.035 86.258 235.91 87.2737C239.973 89.6175 243.332 95.399 243.332 100.165C243.332 101.18 243.176 102.196 242.707 103.134C242.395 103.681 242.004 104.227 241.379 104.54L241.223 104.618C240.832 105.165 240.598 105.79 240.52 106.493C241.067 106.415 241.613 106.181 242.082 105.946C243.176 105.321 243.957 104.306 244.348 103.134C244.66 102.196 244.817 101.18 244.817 100.165C244.895 94.9302 241.223 88.5237 236.691 85.8674Z" fill="#C0A1E2"/>
<path d="M221.769 115.243C222.941 114.54 223.957 115.087 223.957 116.493C223.878 117.275 223.722 117.978 223.332 118.603C222.941 119.228 222.472 119.775 221.769 120.244C220.597 120.947 219.581 120.4 219.581 118.994C219.66 118.212 219.816 117.509 220.206 116.884C220.597 116.259 221.144 115.634 221.769 115.243Z" fill="#37474F"/>
<path d="M215.753 97.9772C213.409 96.6491 211.144 96.4147 209.425 97.4304C207.706 98.446 206.69 100.477 206.69 103.212C206.69 104.227 206.847 105.243 207.081 106.259L208.487 105.399C208.331 104.696 208.253 103.915 208.253 103.134C208.253 101.024 208.956 99.4617 210.128 98.7585C211.378 98.0554 213.019 98.2116 214.894 99.3054C219.034 101.649 222.316 107.431 222.316 112.196C222.316 113.212 222.16 114.228 221.691 115.165C221.378 115.712 220.988 116.259 220.441 116.572L220.285 116.65C219.894 117.197 219.66 117.822 219.581 118.525C220.128 118.447 220.675 118.212 221.222 117.978C222.316 117.353 223.097 116.337 223.488 115.165C223.8 114.228 223.957 113.212 223.957 112.196C223.957 107.04 220.285 100.634 215.753 97.9772Z" fill="#C0A1E2"/>
<path d="M253.254 97.1177C254.426 96.4146 255.442 96.9615 255.442 98.3678C255.364 99.1491 255.208 99.8522 254.817 100.477C254.426 101.102 253.958 101.649 253.333 102.118C252.161 102.821 251.145 102.274 251.145 100.868C251.223 100.087 251.379 99.3834 251.77 98.7584C252.083 98.0553 252.629 97.5084 253.254 97.1177Z" fill="#37474F"/>
<path d="M247.16 79.8515C244.817 78.5233 242.551 78.289 240.832 79.3046C239.113 80.3203 238.176 82.3516 238.176 85.0861C238.176 86.1017 238.332 87.1174 238.566 88.133L239.973 87.2737C239.816 86.5705 239.738 85.7892 239.738 85.0861C239.738 82.9766 240.441 81.4141 241.613 80.7109C242.863 80.0078 244.504 80.164 246.379 81.2578C250.442 83.6016 253.801 89.3831 253.801 94.1489C253.801 95.1646 253.645 96.1802 253.176 97.1177C252.864 97.6646 252.473 98.2115 251.848 98.524L251.692 98.6022C251.301 99.1491 251.067 99.7741 250.989 100.477C251.536 100.399 252.083 100.165 252.629 99.9303C253.723 99.3053 254.504 98.2897 254.895 97.1177C255.208 96.1802 255.364 95.1646 255.364 94.1489C255.364 88.8362 251.692 82.5079 247.16 79.8515Z" fill="#C0A1E2"/>
<path d="M263.724 91.0237C264.895 90.3206 265.911 90.8675 265.911 92.2738C265.911 93.0551 265.677 93.7582 265.286 94.3832C264.895 95.0082 264.349 95.5551 263.724 96.0239C262.552 96.7271 261.536 96.1802 261.536 94.7739C261.536 93.9926 261.77 93.2894 262.161 92.6644C262.552 91.9613 263.099 91.4144 263.724 91.0237Z" fill="#37474F"/>
<path d="M257.63 73.8356C255.286 72.5075 253.02 72.2731 251.301 73.2887C249.582 74.3044 248.645 76.3357 248.645 79.0702C248.645 80.0859 248.801 81.1015 249.036 82.1172L250.442 81.2578C250.286 80.5546 250.207 79.7734 250.207 78.9921C250.207 76.8826 250.911 75.3201 252.083 74.6169C253.333 73.9138 254.973 74.07 256.848 75.1638C260.911 77.5077 264.27 83.2891 264.27 88.0549C264.27 89.0706 264.114 90.0862 263.645 91.0238C263.333 91.5707 262.942 92.1175 262.317 92.43L262.161 92.5082C261.77 93.0551 261.536 93.6801 261.458 94.3832C262.005 94.3051 262.552 94.0707 263.099 93.8364C264.192 93.2113 264.974 92.1957 265.364 91.0238C265.677 90.0862 265.833 89.0706 265.833 88.0549C265.911 82.8203 262.161 76.4139 257.63 73.8356Z" fill="#C0A1E2"/>
<path d="M274.193 84.9297C275.365 84.2266 276.38 84.7735 276.38 86.1798C276.302 86.9611 276.146 87.6642 275.755 88.2892C275.365 88.9143 274.818 89.4611 274.193 89.9299C273.021 90.6331 272.005 90.0862 272.005 88.6799C272.083 87.8986 272.24 87.1954 272.63 86.5704C273.021 85.9454 273.568 85.3985 274.193 84.9297Z" fill="#37474F"/>
<path d="M268.177 67.7417C265.833 66.4135 263.567 66.1791 261.848 67.1948C260.13 68.2104 259.192 70.2417 259.192 72.9762C259.192 73.9919 259.348 75.0075 259.583 76.0232L260.989 75.1638C260.833 74.4606 260.755 73.6794 260.755 72.8981C260.755 70.7886 261.458 69.2261 262.63 68.5229C263.88 67.8198 265.52 67.976 267.396 69.0698C271.458 71.4137 274.818 77.1951 274.818 81.9609C274.818 82.9766 274.661 83.9922 274.193 84.9298C273.88 85.4767 273.49 86.0236 272.943 86.3361C272.864 86.3361 272.864 86.4142 272.786 86.4142C272.396 86.9611 272.161 87.5861 272.083 88.2893C272.63 88.2111 273.177 87.9767 273.646 87.7424C274.74 87.1173 275.521 86.1017 275.911 84.9298C276.224 83.9922 276.38 82.9766 276.38 81.9609C276.38 76.8045 272.708 70.398 268.177 67.7417Z" fill="#C0A1E2"/>
<path d="M284.662 78.9141C285.834 78.211 286.849 78.7579 286.849 80.1642C286.771 80.9454 286.615 81.6486 286.224 82.2736C285.834 82.8986 285.287 83.4455 284.662 83.9143C283.49 84.6174 282.474 84.0705 282.474 82.6642C282.552 81.883 282.709 81.1798 283.099 80.5548C283.568 79.8516 284.037 79.3048 284.662 78.9141Z" fill="#37474F"/>
<path d="M278.646 61.7258C276.302 60.3976 274.036 60.1632 272.318 61.1789C270.599 62.1945 269.583 64.2259 269.583 66.9603C269.583 67.976 269.739 68.9917 269.974 70.0073L271.38 69.1479C271.224 68.4448 271.146 67.6635 271.146 66.9603C271.146 64.8509 271.849 63.2883 273.021 62.5852C274.271 61.882 275.912 62.0383 277.787 63.1321C281.849 65.4759 285.209 71.2574 285.209 76.0232C285.209 77.0388 285.053 78.0545 284.584 78.992C284.271 79.5389 283.881 80.0858 283.334 80.3983L283.177 80.4765C282.787 81.0233 282.552 81.6484 282.474 82.3515C283.021 82.2734 283.568 82.039 284.115 81.8046C285.209 81.1796 285.99 80.1639 286.381 78.992C286.693 78.0545 286.849 77.0388 286.849 76.0232C286.849 70.7105 283.177 64.304 278.646 61.7258Z" fill="#C0A1E2"/>
<path d="M295.209 72.8201C296.381 72.117 297.397 72.6639 297.397 74.0702C297.319 74.8514 297.162 75.5546 296.772 76.1796C296.381 76.8046 295.912 77.3515 295.209 77.8203C294.037 78.5234 293.021 77.9766 293.021 76.5703C293.1 75.789 293.256 75.0858 293.647 74.4608C294.037 73.8358 294.584 73.2889 295.209 72.8201Z" fill="#37474F"/>
<path d="M289.115 55.632C286.771 54.3039 284.506 54.0695 282.787 55.0851C281.068 56.1008 280.13 58.1321 280.13 60.8666C280.13 61.8823 280.287 62.8979 280.521 63.9136L281.927 63.0542C281.771 62.351 281.693 61.5697 281.693 60.8666C281.693 58.7571 282.396 57.1946 283.568 56.4914C284.818 55.7883 286.459 55.9445 288.334 57.0383C292.396 59.3822 295.756 65.1636 295.756 69.9294C295.756 70.9451 295.6 71.9607 295.131 72.8983C294.818 73.4452 294.428 73.9921 293.881 74.3046L293.725 74.3827C293.334 74.9296 293.1 75.5546 293.022 76.2578C293.568 76.1796 294.115 75.9453 294.584 75.7109C295.678 75.0858 296.459 74.0702 296.85 72.8983C297.162 71.9607 297.319 70.9451 297.319 69.9294C297.319 64.6949 293.647 58.2884 289.115 55.632Z" fill="#C0A1E2"/>
<path d="M305.678 66.8043C306.85 66.1011 307.866 66.648 307.866 68.0543C307.788 68.8356 307.631 69.5387 307.241 70.1637C306.85 70.7888 306.381 71.3357 305.678 71.8044C304.506 72.5076 303.491 71.9607 303.491 70.5544C303.569 69.7731 303.725 69.07 304.116 68.4449C304.506 67.7418 305.053 67.1949 305.678 66.8043Z" fill="#37474F"/>
<path d="M299.584 49.6159C297.24 48.2877 294.975 48.0534 293.256 49.069C291.537 50.0847 290.599 52.116 290.599 54.8505C290.599 55.8661 290.756 56.8818 290.99 57.8975L292.396 57.0381C292.24 56.3349 292.162 55.5536 292.162 54.8505C292.162 52.741 292.865 51.1785 294.037 50.4753C295.287 49.7722 296.928 49.9284 298.803 51.0222C302.866 53.3661 306.225 59.1475 306.225 63.9133C306.225 64.929 306.069 65.9446 305.6 66.8822C305.288 67.429 304.897 67.9759 304.35 68.2885L304.194 68.3666C303.803 68.9135 303.569 69.5385 303.491 70.2417C304.037 70.1635 304.584 69.9291 305.053 69.6948C306.147 69.0697 306.928 68.0541 307.319 66.8822C307.631 65.9446 307.788 64.929 307.788 63.9133C307.866 58.6006 304.116 52.1941 299.584 49.6159Z" fill="#C0A1E2"/>
<path d="M316.147 60.7881C317.319 60.085 318.335 60.6319 318.335 62.0382C318.257 62.8195 318.1 63.5226 317.71 64.1476C317.319 64.7727 316.85 65.3196 316.147 65.7883C314.975 66.4915 313.96 65.9446 313.96 64.5383C314.038 63.757 314.194 63.0538 314.585 62.4288C314.975 61.7257 315.522 61.1788 316.147 60.7881Z" fill="#37474F"/>
<path d="M310.053 43.5222C307.71 42.194 305.444 41.9596 303.725 42.9753C302.006 43.9909 301.069 46.0223 301.069 48.7567C301.069 49.7724 301.225 50.7881 301.459 51.8037L302.944 50.9443C302.788 50.2412 302.709 49.4599 302.709 48.7567C302.709 46.6473 303.413 45.0847 304.584 44.3816C305.835 43.6784 307.475 43.8347 309.35 44.9285C313.413 47.2723 316.772 53.0538 316.772 57.8196C316.772 58.8352 316.616 59.8509 316.147 60.7884C315.835 61.3353 315.444 61.8822 314.897 62.1947L314.741 62.2728C314.35 62.8197 314.116 63.4447 314.038 64.1479C314.585 64.0698 315.132 63.8354 315.6 63.601C316.694 62.976 317.476 61.9603 317.866 60.7884C318.179 59.8509 318.335 58.8352 318.335 57.8196C318.335 52.585 314.585 46.1785 310.053 43.5222Z" fill="#C0A1E2"/>
<path d="M326.616 54.6944C327.788 53.9912 328.804 54.5381 328.804 55.9444C328.804 56.7257 328.57 57.4289 328.179 58.0539C327.788 58.6789 327.32 59.2258 326.616 59.6946C325.444 60.3977 324.429 59.8508 324.429 58.4445C324.507 57.6632 324.663 56.9601 325.054 56.3351C325.444 55.6319 325.991 55.085 326.616 54.6944Z" fill="#37474F"/>
<path d="M320.523 37.5061C318.179 36.1779 315.913 35.9435 314.194 36.9592C312.475 37.9748 311.46 40.0061 311.46 42.7406C311.46 43.7563 311.616 44.7719 311.85 45.7876L313.257 44.9282C313.1 44.225 313.022 43.4438 313.022 42.7406C313.022 40.6312 313.725 39.0686 314.897 38.3655C316.147 37.6623 317.788 37.8967 319.663 38.9124C323.804 41.2562 327.085 47.0376 327.085 51.8034C327.085 52.8191 326.929 53.8348 326.46 54.7723C326.148 55.3192 325.757 55.8661 325.21 56.1786L325.054 56.2567C324.663 56.8036 324.429 57.4286 324.351 58.1318C324.898 58.0537 325.445 57.8193 325.913 57.5849C327.007 56.9599 327.788 55.9442 328.179 54.7723C328.492 53.8348 328.648 52.8191 328.648 51.8034C328.804 46.4908 325.132 40.0843 320.523 37.5061Z" fill="#C0A1E2"/>
<path d="M337.086 48.6785C338.257 47.9754 339.273 48.5223 339.273 49.9286C339.195 50.7098 339.039 51.413 338.648 52.038C338.257 52.663 337.789 53.2099 337.086 53.6787C335.914 54.3818 334.898 53.8349 334.898 52.4286C334.976 51.6474 335.132 50.9442 335.523 50.3192C335.992 49.6161 336.46 49.0692 337.086 48.6785Z" fill="#37474F"/>
<path d="M331.07 31.4123C328.726 30.0841 326.46 29.8497 324.741 30.8654C323.023 31.8811 322.007 33.9124 322.007 36.6469C322.007 37.6625 322.163 38.6782 322.398 39.6939L323.804 38.8344C323.648 38.1313 323.57 37.35 323.57 36.6469C323.57 34.5374 324.273 32.9749 325.445 32.2717C326.695 31.5686 328.335 31.8029 330.21 32.8186C334.351 35.1624 337.633 40.9439 337.633 45.7097C337.633 46.7253 337.476 47.741 337.008 48.6785C336.695 49.2254 336.304 49.7723 335.757 50.0848L335.601 50.163C335.211 50.7099 334.976 51.3349 334.898 52.038C335.445 51.9599 335.992 51.7255 336.539 51.4911C337.633 50.8661 338.414 49.8505 338.726 48.6785C339.039 47.741 339.195 46.7253 339.195 45.7097C339.273 40.4751 335.601 34.0687 331.07 31.4123Z" fill="#C0A1E2"/>
<path d="M347.555 42.5845C348.727 41.8814 349.742 42.4283 349.742 43.8346C349.664 44.6158 349.508 45.319 349.117 45.944C348.727 46.569 348.258 47.1159 347.555 47.5847C346.383 48.2879 345.367 47.741 345.367 46.3347C345.445 45.5534 345.602 44.8502 345.992 44.2252C346.461 43.5221 346.93 42.9752 347.555 42.5845Z" fill="#37474F"/>
<path d="M341.539 25.3964C339.195 24.0683 336.929 23.8339 335.211 24.8495C333.492 25.8652 332.554 27.8965 332.554 30.631C332.554 31.6467 332.71 32.6623 332.945 33.678L334.351 32.8186C334.195 32.1154 334.117 31.3341 334.117 30.631C334.117 28.5215 334.82 26.959 335.992 26.2558C337.164 25.5527 338.883 25.7089 340.758 26.8027C344.82 29.1466 348.18 34.928 348.18 39.6938C348.18 40.7095 348.024 41.7251 347.555 42.6627C347.242 43.2096 346.852 43.7565 346.227 44.069L346.07 44.1471C345.68 44.694 345.445 45.319 345.367 46.0222C345.914 45.944 346.461 45.7097 346.93 45.4753C348.023 44.8503 348.805 43.8346 349.195 42.6627C349.508 41.7251 349.664 40.7095 349.664 39.6938C349.742 34.3811 346.07 27.9747 341.539 25.3964Z" fill="#C0A1E2"/>
<path d="M358.102 36.5687C359.274 35.8655 360.29 36.4124 360.29 37.8187C360.211 38.6 360.055 39.3031 359.665 39.9281C359.274 40.5532 358.727 41.1001 358.102 41.5688C356.93 42.272 355.914 41.7251 355.914 40.3188C355.993 39.5375 356.149 38.8344 356.539 38.2093C356.93 37.5062 357.477 36.9593 358.102 36.5687Z" fill="#37474F"/>
<path d="M352.008 19.3024C349.664 17.9743 347.398 17.7399 345.68 18.7555C343.961 19.7712 343.023 21.8025 343.023 24.537C343.023 25.5527 343.18 26.5683 343.414 27.584L344.82 26.7246C344.664 26.0214 344.586 25.2402 344.586 24.537C344.586 22.4276 345.289 20.865 346.461 20.1618C347.633 19.4587 349.352 19.615 351.227 20.7087C355.289 23.0526 358.649 28.834 358.649 33.5998C358.649 34.6155 358.493 35.6311 358.024 36.5687C357.711 37.1156 357.321 37.6625 356.774 37.975C356.696 37.975 356.696 38.0531 356.618 38.0531C356.227 38.6 355.993 39.225 355.914 39.9282C356.461 39.85 357.008 39.6157 357.477 39.3813C358.571 38.7563 359.352 37.7406 359.743 36.5687C360.055 35.6311 360.211 34.6155 360.211 33.5998C360.211 28.3653 356.539 21.9588 352.008 19.3024Z" fill="#C0A1E2"/>
<path d="M368.571 30.4749C369.743 29.7718 370.759 30.3186 370.759 31.7249C370.681 32.5062 370.524 33.2094 370.134 33.8344C369.743 34.4594 369.196 35.0063 368.571 35.4751C367.399 36.1782 366.384 35.6313 366.384 34.225C366.462 33.4438 366.618 32.7406 367.009 32.1156C367.399 31.4906 367.946 30.8655 368.571 30.4749Z" fill="#37474F"/>
<path d="M362.477 13.2866C360.133 11.9584 357.868 11.724 356.149 12.7397C354.43 13.7553 353.492 15.7867 353.492 18.5211C353.492 19.5368 353.649 20.5525 353.883 21.5681L355.289 20.7087C355.133 20.0056 355.055 19.2243 355.055 18.5211C355.055 16.4117 355.758 14.8491 356.93 14.146C358.102 13.4428 359.821 13.5991 361.696 14.6929C365.758 17.0367 369.118 22.8182 369.118 27.584C369.118 28.5996 368.962 29.6153 368.493 30.5528C368.18 31.0997 367.79 31.6466 367.243 31.9591C367.243 31.9591 367.165 32.0372 367.087 32.0372C366.696 32.5841 366.462 33.2092 366.384 33.9123C366.93 33.8342 367.477 33.5998 367.946 33.3654C369.04 32.7404 369.821 31.7247 370.212 30.5528C370.524 29.6153 370.681 28.5996 370.681 27.584C370.759 22.2713 367.009 15.8648 362.477 13.2866Z" fill="#C0A1E2"/>
<path d="M379.04 24.4588C380.212 23.7556 381.228 24.3025 381.228 25.7088C381.15 26.4901 380.993 27.1933 380.603 27.8183C380.212 28.4433 379.665 28.9902 379.04 29.459C377.868 30.1621 376.853 29.6152 376.853 28.2089C376.931 27.4276 377.087 26.7245 377.478 26.0995C377.868 25.3963 378.415 24.8494 379.04 24.4588Z" fill="#37474F"/>
<path d="M372.946 7.19282C370.602 5.86465 368.337 5.63027 366.618 6.64593C364.899 7.66159 363.961 9.69291 363.961 12.4274C363.961 13.443 364.118 14.4587 364.352 15.4744L365.758 14.615C365.602 13.9118 365.524 13.1305 365.524 12.4274C365.524 10.3179 366.227 8.75538 367.399 8.05223C368.571 7.34908 370.29 7.50533 372.165 8.59912C376.227 10.943 379.587 16.7244 379.587 21.4902C379.587 22.5059 379.431 23.5215 378.962 24.4591C378.649 25.006 378.259 25.5528 377.634 25.8654L377.478 25.9435C377.087 26.4904 376.853 27.1154 376.774 27.8186C377.321 27.7404 377.868 27.506 378.415 27.2717C379.509 26.6466 380.29 25.631 380.681 24.4591C380.993 23.5215 381.15 22.5059 381.15 21.4902C381.228 16.2556 377.478 9.84917 372.946 7.19282Z" fill="#C0A1E2"/>
<path d="M389.509 18.365C390.681 17.6619 391.697 18.2088 391.697 19.6151C391.697 20.3964 391.463 21.0995 391.072 21.7245C390.681 22.3496 390.212 22.8965 389.509 23.3652C388.337 24.0684 387.322 23.5215 387.322 22.1152C387.4 21.3339 387.556 20.6307 387.947 20.0057C388.416 19.3807 388.884 18.7557 389.509 18.365Z" fill="#37474F"/>
<path d="M383.415 1.17671C381.072 -0.151464 378.806 -0.385845 377.087 0.629816C375.368 1.64548 374.353 3.6768 374.353 6.41127C374.353 7.42693 374.509 8.44259 374.743 9.45825L376.149 8.59885C375.993 7.8957 375.915 7.11442 375.915 6.41127C375.915 4.30182 376.618 2.73927 377.79 2.03612C378.962 1.33297 380.681 1.48922 382.556 2.58301C386.619 4.92684 389.978 10.7083 389.978 15.4741C389.978 16.4898 389.822 17.5054 389.353 18.4429C389.041 19.068 388.65 19.5367 388.103 19.8492L387.947 19.9274C387.556 20.4743 387.322 21.0993 387.244 21.8024C387.791 21.7243 388.337 21.4899 388.806 21.2555C389.9 20.6305 390.681 19.6149 391.072 18.4429C391.384 17.5054 391.541 16.4898 391.541 15.4741C391.697 10.1614 388.025 3.75492 383.415 1.17671Z" fill="#C0A1E2"/>
<path opacity="0.4" d="M383.415 1.17671C381.072 -0.151464 378.806 -0.385845 377.087 0.629816C375.368 1.64548 374.353 3.6768 374.353 6.41127C374.353 7.03629 374.431 7.73944 374.509 8.36446C373.962 7.97383 373.493 7.58319 372.868 7.19255C370.524 5.86438 368.259 5.62999 366.54 6.64565C364.821 7.66131 363.883 9.69264 363.883 12.4271C363.883 13.0521 363.962 13.7553 364.04 14.3803C363.493 13.9897 362.946 13.599 362.399 13.2865C360.055 11.9583 357.789 11.724 356.071 12.7396C354.352 13.7553 353.414 15.7866 353.414 18.5211C353.414 19.1461 353.492 19.8492 353.571 20.4743C353.024 20.0836 352.477 19.693 351.93 19.3805C349.586 18.0523 347.32 17.8179 345.602 18.8336C343.883 19.8492 342.945 21.8806 342.945 24.615C342.945 25.2401 343.023 25.9432 343.101 26.5682C342.555 26.1776 342.086 25.787 341.461 25.4744C339.117 24.1463 336.851 23.9119 335.132 24.9276C333.414 25.9432 332.476 27.9745 332.476 30.709C332.476 31.334 332.554 32.0372 332.632 32.6622C332.085 32.2716 331.617 31.8809 330.992 31.5684C328.648 30.2402 326.382 30.0059 324.663 31.0215C322.944 32.0372 321.929 34.0685 321.929 36.803C321.929 37.428 322.007 38.1311 322.085 38.7562C321.538 38.3655 320.991 37.9749 320.444 37.6624C318.101 36.3342 315.835 36.0998 314.116 37.1155C312.397 38.1311 311.382 40.1625 311.382 42.8969C311.382 43.522 311.46 44.2251 311.538 44.8501C310.991 44.4595 310.522 44.0689 309.897 43.7563C307.553 42.4282 305.288 42.1938 303.569 43.2095C301.85 44.2251 300.912 46.2564 300.912 48.9909C300.912 49.6159 300.991 50.3191 301.069 50.9441C300.522 50.5535 299.975 50.1628 299.428 49.7722C297.084 48.444 294.818 48.2096 293.1 49.2253C291.381 50.241 290.443 52.2723 290.443 55.0067C290.443 55.6318 290.521 56.3349 290.6 56.9599C290.053 56.5693 289.584 56.1787 288.959 55.788C286.615 54.4599 284.349 54.2255 282.631 55.2411C280.912 56.2568 279.974 58.2881 279.974 61.0226C279.974 61.6476 280.052 62.3508 280.13 62.9758C279.584 62.5851 279.037 62.1945 278.49 61.882C276.146 60.5538 273.88 60.3194 272.161 61.3351C270.443 62.3508 269.427 64.3821 269.427 67.1166C269.427 67.7416 269.505 68.4447 269.583 69.0697C269.036 68.6791 268.489 68.2885 267.942 67.976C265.599 66.6478 263.333 66.4134 261.614 67.4291C259.895 68.4447 258.958 70.4761 258.958 73.2105C258.958 73.8355 259.036 74.5387 259.114 75.1637C258.567 74.7731 258.02 74.3824 257.473 74.0699C255.13 72.7418 252.864 72.5074 251.145 73.523C249.426 74.5387 248.489 76.57 248.489 79.3045C248.489 79.9295 248.567 80.6327 248.645 81.2577C248.098 80.8671 247.629 80.4764 247.004 80.1639C244.66 78.8357 242.395 78.6013 240.676 79.617C238.957 80.6327 238.02 82.664 238.02 85.3985C238.02 86.0235 238.098 86.7266 238.176 87.3516C237.629 86.961 237.16 86.5704 236.535 86.2579C234.191 84.9297 231.926 84.6953 230.207 85.711C228.488 86.7266 227.55 88.7579 227.55 91.4924C227.55 92.1174 227.629 92.8206 227.707 93.4456C227.16 93.055 226.613 92.6643 226.066 92.3518C223.722 91.0237 221.456 90.7893 219.738 91.8049C218.019 92.8206 217.081 94.8519 217.081 97.5864C217.081 98.2114 217.159 98.9146 217.238 99.5396C216.691 99.1489 216.222 98.7583 215.597 98.4458C213.253 97.1176 210.987 96.8832 209.269 97.8989C207.55 98.9146 206.612 100.946 206.612 103.68C206.612 104.696 206.768 105.712 207.003 106.727L208.409 105.868C208.253 105.165 208.175 104.383 208.175 103.602C208.175 101.493 208.878 99.9302 210.05 99.2271C211.3 98.5239 212.941 98.6802 214.816 99.774C218.956 102.118 222.238 107.899 222.238 112.665C222.238 113.681 222.081 114.696 221.613 115.634C221.3 116.181 220.91 116.728 220.363 117.04L220.206 117.118C219.816 117.665 219.581 118.29 219.503 118.993C220.05 118.915 220.597 118.681 221.144 118.446C222.238 117.821 223.019 116.806 223.41 115.634C223.722 114.696 223.878 113.681 223.878 112.665C223.878 108.446 221.456 103.368 218.097 100.243L218.878 99.774C218.722 99.0708 218.644 98.2895 218.644 97.5083C218.644 95.3988 219.347 93.8363 220.519 93.1331C221.769 92.43 223.41 92.6643 225.285 93.68C229.347 96.0238 232.707 101.805 232.707 106.571C232.707 107.587 232.551 108.602 232.082 109.54C231.769 110.087 231.379 110.634 230.754 110.946C230.676 110.946 230.676 111.024 230.597 111.024C230.207 111.571 229.972 112.274 229.894 112.899C230.441 112.821 230.988 112.587 231.535 112.353C232.629 111.728 233.41 110.712 233.801 109.54C234.113 108.602 234.269 107.587 234.269 106.571C234.269 102.352 231.847 97.2739 228.488 94.1488L229.269 93.68C229.113 92.9769 229.035 92.1956 229.035 91.4143C229.035 89.3048 229.738 87.7423 230.91 87.0391C232.16 86.336 233.801 86.5704 235.676 87.586C239.738 89.9299 243.098 95.7113 243.098 100.477C243.098 101.493 242.942 102.508 242.473 103.446C242.16 103.993 241.77 104.54 241.145 104.852L240.988 104.93C240.598 105.477 240.363 106.102 240.285 106.805C240.832 106.727 241.379 106.493 241.848 106.259C242.942 105.634 243.723 104.618 244.114 103.446C244.426 102.508 244.582 101.493 244.582 100.477C244.582 96.1801 242.16 91.1799 238.801 88.0548L239.582 87.586C239.426 86.8829 239.348 86.1016 239.348 85.3203C239.348 83.2109 240.051 81.6483 241.223 80.9452C242.473 80.242 244.114 80.3983 245.989 81.4921C250.051 83.8359 253.411 89.6173 253.411 94.3831C253.411 95.3988 253.254 96.4145 252.786 97.352C252.473 97.8989 252.083 98.4458 251.458 98.7583L251.301 98.8364C250.911 99.3833 250.676 100.008 250.598 100.711C251.145 100.633 251.692 100.399 252.239 100.165C253.333 99.5396 254.114 98.5239 254.505 97.352C254.817 96.4145 254.973 95.3988 254.973 94.3831C254.973 90.0861 252.551 85.0859 249.192 81.9608L249.973 81.4921C249.817 80.7889 249.739 80.0076 249.739 79.3045C249.739 77.195 250.442 75.6325 251.614 74.9293C252.864 74.2262 254.505 74.4606 256.38 75.4762C260.442 77.8201 263.802 83.6015 263.802 88.3673C263.802 89.383 263.645 90.3986 263.177 91.3362C262.864 91.8831 262.474 92.43 261.849 92.7425L261.692 92.8206C261.302 93.3675 261.067 93.9925 260.989 94.6957C261.536 94.6175 262.083 94.3832 262.63 94.1488C263.724 93.5238 264.505 92.5081 264.895 91.3362C265.208 90.3986 265.364 89.383 265.364 88.3673C265.364 84.0703 262.942 79.0701 259.583 75.945L260.364 75.4762C260.208 74.7731 260.13 73.9918 260.13 73.2887C260.13 71.1792 260.833 69.6166 262.005 68.9135C263.255 68.2103 264.896 68.3666 266.771 69.4604C270.833 71.8042 274.193 77.5857 274.193 82.3515C274.193 83.3671 274.036 84.3828 273.568 85.3203C273.255 85.8672 272.865 86.4141 272.24 86.7266C272.161 86.7266 272.161 86.8047 272.083 86.8047C271.693 87.3516 271.458 87.9767 271.38 88.6798C271.927 88.6017 272.474 88.3673 272.943 88.1329C274.036 87.5079 274.818 86.4922 275.208 85.3203C275.521 84.3828 275.677 83.3671 275.677 82.3515C275.677 78.1326 273.255 73.0543 269.896 69.9292L270.677 69.4604C270.521 68.7572 270.443 67.976 270.443 67.2728C270.443 65.1634 271.146 63.6008 272.318 62.8977C273.568 62.1945 275.208 62.3508 277.083 63.4445C281.146 65.7884 284.506 71.5698 284.506 76.3356C284.506 77.3513 284.349 78.367 283.881 79.3045C283.568 79.8514 283.177 80.3983 282.552 80.7108L282.396 80.7889C282.005 81.3358 281.771 81.9608 281.693 82.664C282.24 82.5858 282.787 82.3515 283.334 82.1171C284.427 81.4921 285.209 80.4764 285.599 79.3045C285.912 78.367 286.068 77.3513 286.068 76.3356C286.068 72.1167 283.646 67.0384 280.287 63.9133L281.068 63.4445C280.912 62.7414 280.834 61.9601 280.834 61.257C280.834 59.1475 281.537 57.585 282.709 56.8818C283.959 56.1787 285.599 56.3349 287.474 57.4287C291.537 59.7725 294.897 65.554 294.897 70.3198C294.897 71.3355 294.74 72.3511 294.272 73.2887C293.959 73.8355 293.568 74.3824 292.943 74.6949L292.787 74.7731C292.396 75.32 292.162 75.945 292.084 76.6481C292.631 76.57 293.178 76.3356 293.647 76.1012C294.74 75.4762 295.522 74.4606 295.912 73.2887C296.225 72.3511 296.381 71.3355 296.381 70.3198C296.381 66.0228 293.959 61.0226 290.6 57.8975L291.381 57.4287C291.225 56.7256 291.146 55.9443 291.146 55.2411C291.146 53.1317 291.85 51.5691 293.021 50.866C294.272 50.1628 295.912 50.3191 297.787 51.4129C301.85 53.7567 305.209 59.5382 305.209 64.304C305.209 65.3196 305.053 66.3353 304.584 67.2728C304.272 67.8197 303.881 68.3666 303.334 68.6791L303.178 68.7572C302.787 69.3041 302.553 69.9292 302.475 70.6323C303.022 70.5542 303.569 70.3198 304.038 70.0854C305.131 69.4604 305.913 68.4447 306.303 67.2728C306.616 66.3353 306.772 65.3196 306.772 64.304C306.772 60.0069 304.35 55.0067 300.991 51.8816L301.772 51.4129C301.616 50.7097 301.537 49.9284 301.537 49.2253C301.537 47.1158 302.241 45.5533 303.412 44.8501C304.663 44.147 306.303 44.3032 308.178 45.397C312.241 47.7409 315.6 53.5223 315.6 58.2881C315.6 59.3038 315.444 60.3194 314.975 61.257C314.663 61.8039 314.272 62.3508 313.725 62.6633L313.569 62.7414C313.178 63.2883 312.944 63.9133 312.866 64.6165C313.413 64.5383 313.96 64.304 314.428 64.0696C315.522 63.4445 316.304 62.4289 316.694 61.257C317.007 60.3194 317.163 59.3038 317.163 58.2881C317.163 53.9911 314.741 48.9909 311.382 45.8658L312.163 45.397C312.007 44.6939 311.928 43.9126 311.928 43.2095C311.928 41.1 312.632 39.5375 313.803 38.8343C314.975 38.1312 316.694 38.2874 318.569 39.3812C322.632 41.725 325.991 47.5065 325.991 52.2723C325.991 53.2879 325.835 54.3036 325.366 55.2411C325.054 55.788 324.663 56.3349 324.038 56.6474L323.882 56.7256C323.491 57.2725 323.257 57.8975 323.179 58.6006C323.726 58.5225 324.273 58.2881 324.82 58.0537C325.913 57.4287 326.695 56.4131 327.085 55.2411C327.398 54.3036 327.554 53.2879 327.554 52.2723C327.554 48.0534 325.132 42.9751 321.773 39.85L322.554 39.3812C322.398 38.678 322.319 37.8968 322.319 37.1936C322.319 35.0842 323.023 33.5216 324.194 32.8185C325.445 32.1153 327.085 32.2716 328.96 33.3654C333.101 35.7092 336.382 41.4906 336.382 46.2564C336.382 47.2721 336.226 48.2878 335.757 49.2253C335.445 49.7722 335.054 50.3191 334.507 50.6316L334.351 50.7097C333.96 51.2566 333.726 51.8816 333.648 52.5848C334.195 52.5067 334.742 52.2723 335.21 52.0379C336.382 51.491 337.32 50.4753 337.789 49.2253C338.101 48.2878 338.257 47.2721 338.257 46.2564C338.257 42.0375 335.836 36.9592 332.476 33.8341L333.257 33.3654C333.101 32.6622 333.023 31.8809 333.023 31.1778C333.023 29.0683 333.726 27.5058 334.898 26.8026C336.07 26.0995 337.789 26.2557 339.664 27.3495C343.726 29.6933 347.086 35.4748 347.086 40.2406C347.086 41.2563 346.93 42.2719 346.461 43.2095C346.148 43.7564 345.758 44.3032 345.133 44.6158L344.976 44.6939C344.586 45.2408 344.351 45.8658 344.273 46.5689C344.82 46.4908 345.367 46.2564 345.836 46.0221C346.93 45.397 347.711 44.3814 348.102 43.2095C348.414 42.2719 348.57 41.2563 348.57 40.2406C348.57 36.0217 346.148 31.0215 342.789 27.8964L343.57 27.4276C343.414 26.7245 343.336 25.9432 343.336 25.2401C343.336 23.1306 344.039 21.5681 345.211 20.8649C346.383 20.1618 348.102 20.318 349.977 21.4118C354.039 23.7556 357.399 29.5371 357.399 34.3029C357.399 35.3186 357.243 36.3342 356.774 37.2717C356.461 37.8186 356.071 38.2874 355.524 38.678C355.446 38.678 355.446 38.7562 355.367 38.7562C354.977 39.3031 354.742 39.9281 354.664 40.6312C355.211 40.5531 355.758 40.3187 356.227 40.0843C357.321 39.4593 358.102 38.4437 358.493 37.2717C358.805 36.3342 358.961 35.3186 358.961 34.3029C358.961 30.084 356.539 25.0057 353.18 21.8806L353.961 21.4118C353.805 20.7087 353.727 19.9274 353.727 19.2242C353.727 17.1148 354.43 15.5522 355.602 14.8491C356.774 14.1459 358.493 14.3022 360.368 15.396C364.43 17.7398 367.79 23.5213 367.79 28.2871C367.79 29.3027 367.634 30.3184 367.165 31.2559C366.852 31.8028 366.462 32.3497 365.915 32.6622C365.837 32.6622 365.837 32.7403 365.758 32.7403C365.368 33.2872 365.133 33.9123 365.055 34.6154C365.602 34.5373 366.149 34.3029 366.618 34.0685C367.712 33.4435 368.493 32.4278 368.884 31.2559C369.196 30.3184 369.352 29.3027 369.352 28.2871C369.352 24.0682 366.93 18.9898 363.571 15.8647L364.352 15.396C364.196 14.6928 364.196 13.9115 364.196 13.1303C364.196 11.0208 364.899 9.45825 366.071 8.7551C367.243 8.05195 368.962 8.28634 370.837 9.302C374.899 11.6458 378.259 17.4273 378.259 22.1931C378.259 23.2087 378.103 24.2244 377.634 25.1619C377.321 25.7088 376.931 26.2557 376.306 26.5682L376.149 26.6464C375.759 27.1933 375.524 27.8183 375.446 28.5214C375.993 28.4433 376.54 28.2089 377.087 27.9745C378.181 27.3495 378.962 26.3339 379.353 25.1619C379.665 24.2244 379.821 23.2087 379.821 22.1931C379.821 17.9742 377.399 12.8959 374.04 9.77076L374.821 9.302C374.665 8.59885 374.587 7.81757 374.587 7.11442C374.587 5.00497 375.29 3.44241 376.462 2.73926C377.634 2.03611 379.353 2.2705 381.228 3.28616C385.29 5.62999 388.65 11.4114 388.65 16.1772C388.65 17.1929 388.494 18.2086 388.025 19.1461C387.712 19.7711 387.322 20.2399 386.775 20.5524L386.619 20.6305C386.228 21.1774 385.994 21.8024 385.915 22.5056C386.462 22.4275 387.009 22.1931 387.478 21.9587C388.572 21.3337 389.353 20.318 389.744 19.1461C390.056 18.2086 390.212 17.1929 390.212 16.1772C391.697 10.1614 388.025 3.75493 383.415 1.17671Z" fill="black"/>
<path d="M236.77 128.213L249.895 120.634C250.833 120.087 251.614 120.478 251.692 121.494C251.692 122.119 251.458 122.665 251.145 123.134C250.833 123.603 250.442 124.072 249.895 124.384L236.77 131.963C235.832 132.51 235.051 132.119 235.051 131.103C235.129 130.556 235.285 129.931 235.598 129.463C235.832 128.916 236.223 128.525 236.77 128.213Z" fill="#C0A1E2"/>
<path d="M259.114 115.243L272.24 107.665C273.177 107.118 273.958 107.509 274.036 108.524C273.958 109.149 273.802 109.696 273.49 110.165C273.177 110.634 272.786 111.103 272.24 111.415L259.114 118.993C258.177 119.54 257.395 119.15 257.395 118.134C257.473 117.509 257.63 116.962 257.942 116.493C258.177 116.025 258.645 115.556 259.114 115.243Z" fill="#C0A1E2"/>
<path d="M281.537 102.352L294.662 94.7738C295.6 94.2269 296.381 94.6175 296.459 95.6332C296.381 96.2582 296.225 96.8051 295.912 97.2739C295.6 97.7426 295.209 98.2114 294.662 98.5239L281.537 106.102C280.599 106.649 279.818 106.259 279.818 105.243C279.896 104.618 280.052 104.071 280.365 103.602C280.599 103.055 280.99 102.665 281.537 102.352Z" fill="#C0A1E2"/>
<path d="M303.881 89.3829L317.007 81.8045C317.944 81.2576 318.804 81.6483 318.804 82.6639C318.804 83.289 318.569 83.8359 318.257 84.3046C317.944 84.7734 317.554 85.2422 317.007 85.5547L303.881 93.1331C302.944 93.68 302.162 93.2893 302.162 92.2737C302.241 91.6486 302.397 91.1017 302.709 90.633C302.944 90.1642 303.413 89.6954 303.881 89.3829Z" fill="#C0A1E2"/>
<path d="M326.304 76.4918L339.429 68.9134C340.367 68.3665 341.148 68.7572 341.226 69.7728C341.226 70.3978 340.992 70.9447 340.68 71.4135C340.367 71.8823 339.976 72.351 339.429 72.6635L326.304 80.2419C325.366 80.7888 324.585 80.3982 324.585 79.3825C324.663 78.7575 324.82 78.2106 325.132 77.7419C325.366 77.195 325.835 76.8043 326.304 76.4918Z" fill="#C0A1E2"/>
<path d="M348.649 63.5228L361.774 55.9444C362.711 55.3975 363.493 55.7882 363.571 56.8038C363.493 57.4289 363.337 57.9757 363.024 58.4445C362.712 58.9133 362.321 59.382 361.774 59.6946L348.649 67.273C347.711 67.8198 346.93 67.4292 346.93 66.4135C347.008 65.7885 347.164 65.2416 347.477 64.7729C347.789 64.3041 348.18 63.8353 348.649 63.5228Z" fill="#C0A1E2"/>
<path d="M371.071 50.6317L384.197 43.0533C385.134 42.5064 385.915 42.8971 385.994 43.9127C385.915 44.4596 385.759 45.0846 385.447 45.5534C385.134 46.0222 384.743 46.4909 384.197 46.8034L371.071 54.3818C370.134 54.9287 369.352 54.5381 369.352 53.5224C369.43 52.9755 369.587 52.3505 369.899 51.8818C370.134 51.3349 370.602 50.9442 371.071 50.6317Z" fill="#C0A1E2"/>
<path d="M387.556 60.7882L387.4 169.776L235.129 257.826V148.76L387.556 60.7882ZM389.041 58.0537L233.566 147.823V260.483L388.884 170.714L389.041 58.0537Z" fill="#E0E0E0"/>
<path d="M255.755 247.67C255.52 247.67 255.364 247.592 255.208 247.435C255.051 247.279 254.973 247.123 254.973 246.889V135.791C254.973 135.556 255.051 135.4 255.208 135.244C255.364 135.088 255.52 135.01 255.755 135.01C255.989 135.01 256.145 135.088 256.301 135.244C256.458 135.4 256.536 135.556 256.536 135.791V246.889C256.536 247.123 256.458 247.279 256.301 247.435C256.145 247.592 255.989 247.67 255.755 247.67Z" fill="#E0E0E0"/>
<path d="M277.943 234.857C277.708 234.857 277.552 234.779 277.396 234.622C277.24 234.466 277.162 234.31 277.162 234.076L277.24 122.9C277.24 122.665 277.318 122.509 277.474 122.353C277.63 122.197 277.787 122.118 278.021 122.118C278.255 122.118 278.412 122.197 278.568 122.353C278.724 122.509 278.802 122.665 278.802 122.9L278.724 234.076C278.724 234.31 278.646 234.466 278.49 234.622C278.333 234.779 278.177 234.857 277.943 234.857Z" fill="#E0E0E0"/>
<path d="M300.131 222.044C299.897 222.044 299.74 221.966 299.584 221.81C299.428 221.653 299.35 221.497 299.35 221.263L299.428 110.087C299.428 109.853 299.506 109.696 299.662 109.54C299.819 109.384 299.975 109.306 300.209 109.306C300.444 109.306 300.6 109.384 300.756 109.54C300.912 109.696 300.991 109.853 300.991 110.087L300.912 221.263C300.912 221.497 300.834 221.653 300.678 221.81C300.6 221.966 300.366 222.044 300.131 222.044Z" fill="#E0E0E0"/>
<path d="M322.319 209.231C322.085 209.231 321.929 209.153 321.773 208.997C321.616 208.84 321.538 208.684 321.538 208.45L321.616 97.274C321.616 97.0396 321.694 96.8833 321.851 96.727C322.007 96.5708 322.163 96.4927 322.398 96.4927C322.632 96.4927 322.788 96.5708 322.945 96.727C323.101 96.8833 323.179 97.0396 323.179 97.274L323.101 208.45C323.101 208.528 323.101 208.684 323.023 208.762C323.023 208.84 322.945 208.919 322.866 208.997C322.788 209.075 322.71 209.153 322.632 209.153C322.554 209.231 322.476 209.231 322.319 209.231Z" fill="#E0E0E0"/>
<path d="M344.508 196.418C344.273 196.418 344.117 196.34 343.961 196.184C343.805 196.027 343.726 195.871 343.726 195.637L343.883 84.461C343.883 84.2266 343.961 84.0703 344.117 83.9141C344.273 83.7578 344.43 83.6797 344.664 83.6797C344.898 83.6797 345.055 83.7578 345.211 83.9141C345.367 84.0703 345.445 84.2266 345.445 84.461L345.289 195.637C345.289 195.871 345.211 196.027 345.055 196.184C344.976 196.34 344.742 196.418 344.508 196.418Z" fill="#E0E0E0"/>
<path d="M366.696 183.605C366.462 183.605 366.305 183.527 366.149 183.371C365.993 183.214 365.915 183.058 365.915 182.824L366.071 71.7261C366.071 71.4917 366.149 71.3355 366.305 71.1792C366.462 71.0229 366.618 70.9448 366.852 70.9448C367.087 70.9448 367.243 71.0229 367.399 71.1792C367.555 71.3355 367.633 71.4917 367.633 71.7261L367.477 182.902C367.477 183.136 367.399 183.293 367.243 183.449C367.087 183.527 366.93 183.605 366.696 183.605Z" fill="#E0E0E0"/>
<path d="M234.504 176.261C234.348 176.261 234.269 176.261 234.113 176.183C233.957 176.105 233.879 176.027 233.801 175.871C233.722 175.714 233.644 175.48 233.722 175.245C233.801 175.011 233.879 174.855 234.113 174.777L387.947 85.9455C388.103 85.8673 388.337 85.7892 388.572 85.8673C388.806 85.9454 388.962 86.0236 389.04 86.258C389.119 86.3361 389.119 86.4142 389.119 86.5705C389.119 86.6486 389.119 86.8049 389.119 86.883C389.119 86.9611 389.041 87.0392 388.962 87.1955C388.884 87.2736 388.806 87.3517 388.728 87.4299L234.894 176.183C234.738 176.183 234.66 176.261 234.504 176.261Z" fill="#E0E0E0"/>
<path d="M234.504 204.387C234.348 204.387 234.191 204.309 234.035 204.231C233.879 204.153 233.801 203.997 233.723 203.84C233.644 203.684 233.723 203.528 233.723 203.372C233.801 203.215 233.879 203.059 234.035 202.981L387.869 114.15C388.025 114.072 388.259 114.072 388.416 114.072C388.572 114.15 388.806 114.228 388.884 114.462C388.962 114.618 389.041 114.853 388.962 115.009C388.884 115.165 388.806 115.4 388.65 115.478L234.894 204.309C234.738 204.387 234.66 204.387 234.504 204.387Z" fill="#E0E0E0"/>
<path d="M234.504 232.591C234.348 232.591 234.269 232.591 234.113 232.513C233.957 232.435 233.879 232.357 233.801 232.201C233.722 232.044 233.644 231.81 233.722 231.576C233.801 231.341 233.879 231.185 234.113 231.107L387.947 142.276C388.025 142.198 388.103 142.198 388.259 142.198C388.337 142.198 388.494 142.198 388.572 142.198C388.65 142.198 388.728 142.276 388.884 142.354C388.962 142.432 389.04 142.51 389.119 142.588C389.197 142.666 389.197 142.744 389.197 142.901C389.197 142.979 389.197 143.135 389.197 143.213C389.197 143.291 389.119 143.369 389.04 143.526C388.962 143.604 388.884 143.682 388.806 143.76L234.894 232.435C234.738 232.513 234.66 232.591 234.504 232.591Z" fill="#E0E0E0"/>
<path opacity="0.1" d="M346.617 86.1797V113.993L369.665 100.711V72.8979L346.617 86.1797Z" fill="black"/>
<path d="M375.368 99.149C375.368 99.149 374.274 101.024 370.212 103.368L349.899 115.087L347.477 90.9455L370.524 77.6638L371.774 91.6487C372.087 93.8363 372.399 97.1958 375.368 99.149Z" fill="#C0A1E2"/>
<path d="M370.524 77.5858L347.477 90.8676V86.6487L370.524 73.3669V77.5858Z" fill="#C0A1E2"/>
<path opacity="0.1" d="M370.524 77.5858L347.477 90.8676V86.6487L370.524 73.3669V77.5858Z" fill="black"/>
<path d="M368.259 89.4612C368.102 88.8362 367.946 88.2112 367.712 87.5861C367.712 87.508 367.634 87.4299 367.634 87.3518C367.79 87.0393 367.868 86.6486 367.79 86.258C367.712 85.8673 367.555 85.5548 367.321 85.2423C367.243 85.1642 367.009 85.0861 366.93 85.2423C366.774 85.8673 366.852 86.4924 367.087 87.0393C366.93 87.4299 366.696 87.8987 366.384 88.2112C366.149 88.6018 365.915 88.9143 365.602 89.2268C365.212 89.6175 364.665 90.1644 364.118 90.1644C363.962 90.1644 363.805 90.0862 363.649 90.0081C363.493 89.93 363.415 89.7737 363.415 89.6175C363.571 89.3831 363.727 89.1487 363.883 88.8362C364.274 88.2893 364.508 87.6643 364.665 86.9611C364.665 86.8049 364.665 86.7267 364.665 86.5705C364.665 86.4142 364.587 86.3361 364.508 86.258C364.43 86.1798 364.274 86.1017 364.196 86.1017C364.04 86.1017 363.962 86.1017 363.805 86.1017C363.18 86.258 362.946 87.1174 362.868 87.6643C362.712 88.2112 362.712 88.7581 362.868 89.3831C362.712 89.6175 362.555 89.8519 362.399 90.0081C362.321 90.0862 362.243 90.1644 362.165 90.1644C362.165 90.0862 362.165 90.0081 362.165 89.93C362.165 89.7737 361.852 89.4612 361.696 89.6175C361.227 90.0081 361.071 90.6331 360.758 91.18C360.68 91.3363 360.602 91.4144 360.446 91.4925C360.29 91.5707 360.29 91.6488 360.211 91.4925C360.133 91.2582 360.055 90.9456 359.899 90.7113C359.821 90.555 359.508 90.3988 359.352 90.6331C359.196 90.9456 359.04 91.2581 358.961 91.6488C358.883 91.5707 358.805 91.4925 358.727 91.4925C358.649 91.4144 358.493 91.4144 358.415 91.4144C358.336 91.4144 358.18 91.4144 358.102 91.4925C358.024 91.5707 357.946 91.5707 357.868 91.6488C357.477 92.1176 357.086 92.5863 356.852 93.1332C356.774 93.2895 356.696 93.4457 356.618 93.5239L356.539 93.602V93.5239C356.539 93.0551 356.539 92.6645 356.539 92.1957V92.1176C356.539 91.805 355.836 91.6488 355.836 91.9613C355.836 92.0394 355.836 92.0394 355.836 92.1176C355.758 92.6645 355.602 93.2114 355.289 93.7582C354.977 94.227 354.586 94.6958 354.039 95.0083C353.727 95.2427 353.024 95.7114 352.633 95.5552C352.242 95.3989 352.321 94.7739 352.399 94.4614C352.477 93.5239 352.711 92.5863 353.18 91.7269C353.414 91.3363 353.727 90.9456 354.117 90.7113C354.274 90.6331 354.352 90.555 354.508 90.555C354.664 90.555 354.821 90.555 354.977 90.555C355.368 90.7113 355.289 91.1019 355.211 91.4144C355.133 91.5707 355.368 91.805 355.446 91.6488C355.993 90.6331 355.055 89.6956 353.961 90.0862C352.867 90.4769 352.399 91.5707 352.086 92.5082C351.774 93.4457 351.383 94.6177 351.852 95.4771C352.321 96.5708 353.649 96.1021 354.352 95.6333C355.055 95.1645 355.602 94.6177 355.993 93.9145C356.071 93.9926 356.071 94.0708 356.149 94.0708C356.618 94.5395 357.086 94.1489 357.399 93.6801C357.711 93.1332 358.024 92.5863 358.415 92.1176C358.493 92.0394 358.571 92.0394 358.571 91.9613C358.571 92.1176 358.649 92.1957 358.649 92.3519C358.649 92.6645 358.649 92.977 358.649 93.2113C358.649 93.5239 359.196 93.6801 359.274 93.3676C359.43 92.7426 359.586 92.1176 359.743 91.4925C359.977 91.9613 360.211 92.3519 360.758 92.1176C361.305 91.8832 361.461 91.0238 361.774 90.4769C361.774 90.555 361.852 90.6331 361.93 90.6331C362.008 90.7113 362.087 90.7113 362.165 90.7113C362.243 90.7113 362.321 90.7113 362.399 90.7113C362.477 90.7113 362.555 90.6331 362.633 90.6331C362.868 90.4769 363.102 90.3206 363.258 90.0862L363.337 90.0081C363.493 90.2425 363.727 90.3987 363.962 90.555C364.196 90.6331 364.508 90.7113 364.743 90.6331C365.524 90.3988 366.149 89.8519 366.618 89.2268C367.009 88.7581 367.321 88.2893 367.555 87.8205V87.8987C367.79 88.6018 367.868 89.305 367.946 90.0862C367.946 90.2425 367.946 90.4769 367.946 90.7113C367.555 90.555 367.087 90.555 366.696 90.7113C366.305 90.8675 365.915 91.1019 365.68 91.4925C365.212 92.1176 365.055 93.2113 365.915 93.602C366.618 93.9145 367.477 93.2895 367.868 92.8207C368.649 91.9613 368.493 90.555 368.259 89.4612ZM363.493 87.8205C363.571 87.5861 363.649 87.3518 363.727 87.1174C363.727 87.0393 363.805 86.9611 363.883 86.883C363.962 86.8049 364.118 86.7267 364.118 86.7267C364.118 86.7267 364.04 87.0393 364.04 87.1955C364.04 87.3518 363.883 87.508 363.883 87.6643C363.727 87.9768 363.571 88.2893 363.415 88.6018C363.337 88.3674 363.415 88.133 363.493 87.8205ZM366.618 92.8988C366.305 93.0551 365.915 93.2114 365.915 92.7426C365.837 91.8832 367.009 90.9456 367.868 91.3363C367.868 91.6488 367.712 91.8832 367.555 92.1957C367.243 92.4301 366.93 92.7426 366.618 92.8988Z" fill="#455A64"/>
<path d="M354.196 99.3833C353.961 100.086 353.649 100.79 353.258 101.493C352.945 101.962 352.32 102.352 352.242 102.977C352.242 103.055 352.32 103.29 352.477 103.212C353.024 102.743 353.492 102.274 353.961 101.649V101.571C353.805 102.274 353.727 102.977 353.649 103.68C353.57 104.383 353.492 105.165 353.414 105.868C353.336 106.571 353.336 107.274 353.18 107.977C353.102 108.29 353.727 108.602 353.883 108.212C353.961 107.899 353.961 107.509 353.961 107.196C354.039 106.805 354.039 106.415 354.117 106.024C354.195 105.321 354.274 104.618 354.352 103.837C354.586 102.43 354.742 101.024 354.899 99.6177C354.821 99.227 354.352 99.0708 354.196 99.3833Z" fill="#455A64"/>
<path d="M359.352 99.3833C359.196 99.1489 359.04 98.9145 358.805 98.7583C358.571 98.602 358.18 98.4458 357.946 98.602L357.868 98.5239C357.086 98.2895 356.618 98.9927 356.227 99.5396C355.914 100.086 355.68 100.711 355.446 101.337C355.055 102.43 354.664 104.227 355.836 105.009C356.852 105.712 358.024 105.087 358.649 104.227C359.352 103.29 359.665 102.118 359.743 100.946C359.743 100.555 359.665 99.9302 359.352 99.3833ZM358.18 103.68C357.79 104.305 357.086 105.087 356.305 104.852C355.836 104.696 355.758 104.149 355.68 103.68C355.68 103.133 355.758 102.587 355.914 102.04C356.071 101.493 356.305 100.946 356.618 100.399C356.852 99.9302 357.243 99.1489 357.79 99.0708C357.79 99.0708 357.79 99.1489 357.868 99.1489C358.024 99.227 358.258 99.3052 358.415 99.3833C358.493 99.4614 358.571 99.5396 358.649 99.6958C358.805 100.086 358.883 100.477 358.883 100.868C358.961 101.805 358.649 102.821 358.18 103.68Z" fill="#455A64"/>
<path d="M371.384 99.2271C371.071 98.602 370.915 97.8989 370.681 97.2739C370.524 96.6488 370.212 96.1019 369.743 95.6332C369.587 95.5551 369.352 95.4769 369.274 95.6332C368.884 96.3363 368.649 97.1176 368.493 97.8989C368.415 97.7426 368.259 97.5864 368.102 97.5082C368.024 97.4301 367.946 97.4301 367.868 97.4301C367.79 97.4301 367.712 97.4301 367.634 97.5082C367.477 97.5864 367.399 97.7426 367.321 97.8989C367.165 97.5864 366.93 97.2739 366.696 97.0395C366.618 96.9614 366.54 96.9614 366.462 96.9614C366.383 96.9614 366.305 96.9614 366.227 97.0395C365.446 97.8208 365.68 99.2271 365.446 100.243C365.446 100.477 365.368 100.633 365.212 100.868C365.055 101.024 364.977 100.868 364.899 100.711C364.665 100.321 364.587 99.9302 364.508 99.5396C364.508 99.3833 364.508 99.3052 364.508 99.1489V99.0708C364.508 98.7583 363.805 98.6802 363.805 98.9927C363.883 99.774 363.727 100.633 363.258 101.337C363.024 101.649 362.165 102.899 361.852 102.118C361.618 101.571 362.008 100.868 362.243 100.399C362.555 99.8521 363.024 99.3833 363.571 99.1489C363.727 99.0708 363.571 98.7583 363.415 98.7583C362.555 98.8364 361.852 99.6958 361.461 100.321C361.071 100.946 360.758 101.962 361.461 102.587C362.243 103.368 363.18 102.587 363.649 101.962C363.883 101.571 364.118 101.18 364.274 100.79V100.868C364.587 101.337 365.133 101.727 365.602 101.258C366.071 100.79 366.071 100.008 366.071 99.4614C366.071 98.8364 366.149 98.2114 366.383 97.6645C366.696 98.2114 366.852 98.7583 366.93 99.3833C366.93 99.6958 367.555 99.8521 367.555 99.4614C367.555 98.9927 367.634 98.602 367.79 98.1333C368.024 98.4458 368.18 98.6802 368.337 98.9927C368.493 99.2271 369.04 99.3833 368.962 98.9927C368.884 98.0551 369.04 97.1176 369.509 96.3363C369.743 96.727 369.899 97.1957 370.055 97.5864C370.212 98.1333 370.446 98.6802 370.681 99.2271C370.915 99.6177 371.54 99.6177 371.384 99.2271Z" fill="#455A64"/>
<path d="M344.117 87.8205C344.195 86.883 344.43 85.9454 344.898 85.1642C345.367 84.3829 346.07 83.6797 346.852 83.1328C347.164 82.8984 347.477 82.8203 347.789 82.7422C348.102 82.7422 348.492 82.8203 348.805 82.9766L350.055 83.6797L349.586 84.5391V84.6172C349.508 85.5548 349.274 86.4923 348.805 87.2736C348.336 88.133 347.633 88.758 346.852 89.3049L346.305 90.3206L344.976 89.5393H344.898C344.586 89.3049 344.43 89.0705 344.273 88.758C344.117 88.5236 344.039 88.133 344.117 87.8205Z" fill="#37474F"/>
<path d="M350.914 85.4766C350.836 86.4142 350.602 87.3517 350.133 88.133C349.664 88.9924 348.961 89.6174 348.18 90.1643C346.695 91.0237 345.445 90.3205 345.445 88.6017C345.523 87.6642 345.758 86.7267 346.227 85.9454C346.695 85.1641 347.399 84.461 348.18 83.9141C349.664 83.0547 350.914 83.6797 350.914 85.4766Z" fill="#455A64"/>
<path opacity="0.1" d="M281.38 181.339V209.153L304.428 195.871V168.058L281.38 181.339Z" fill="black"/>
<path d="M310.21 194.309C310.21 194.309 309.116 196.184 305.053 198.528L284.74 210.247L282.318 186.027L305.366 172.745L306.616 186.73C306.85 189.074 307.241 192.355 310.21 194.309Z" fill="#C0A1E2"/>
<path d="M305.366 172.745L282.318 186.027V181.73L305.366 168.448V172.745Z" fill="#C0A1E2"/>
<path opacity="0.1" d="M305.366 172.745L282.318 186.027V181.73L305.366 168.448V172.745Z" fill="black"/>
<path d="M302.553 188.058L302.787 187.98C303.1 187.902 302.866 187.433 302.631 187.511H302.397C302.319 187.355 302.241 187.199 302.162 187.043C301.694 185.636 300.912 184.308 299.897 183.136C299.74 182.98 299.35 182.902 299.35 183.214C299.272 184.308 299.115 185.324 298.803 186.339C298.725 186.027 298.647 185.636 298.569 185.324C298.49 185.089 298.022 184.855 297.944 185.246C297.944 185.636 297.944 185.949 298.1 186.339C298.178 187.824 298.022 189.386 297.709 190.871C297.553 191.496 297.162 192.355 296.381 192.043C296.459 191.887 296.459 191.652 296.459 191.496C296.772 189.855 297.397 187.121 295.365 186.418C295.287 186.418 295.287 186.418 295.209 186.418C295.131 186.418 295.131 186.496 295.053 186.496C294.662 187.433 294.584 188.371 294.662 189.386C294.584 190.402 294.975 191.418 295.678 192.199C295.6 192.512 295.443 192.746 295.209 192.902C294.584 193.293 293.803 192.277 293.49 191.887C293.412 191.73 293.178 191.574 293.021 191.73C292.318 192.355 292.318 193.371 292.396 194.308C292.318 194.23 292.318 194.23 292.24 194.23C292.162 194.23 292.084 194.23 292.006 194.23C291.771 194.309 291.537 194.543 291.381 194.777C291.225 195.012 291.146 195.246 291.225 195.559C290.834 194.934 290.365 194.465 289.74 194.934C289.349 195.168 289.115 195.48 288.959 195.949C288.881 195.246 288.568 194.543 288.099 193.918C287.865 193.683 287.553 193.605 287.24 193.605C286.928 193.605 286.615 193.762 286.381 193.918C285.912 194.543 285.677 195.246 285.677 196.027C285.677 196.418 285.677 196.809 285.756 197.199C285.834 197.355 285.834 197.512 285.99 197.512C286.146 197.512 286.224 197.434 286.146 197.277C285.912 196.574 286.303 193.683 287.474 194.152C288.099 194.387 288.178 195.715 288.334 196.34C288.49 197.434 288.803 198.606 288.959 199.699C289.037 200.012 289.662 200.168 289.662 199.777C289.662 198.527 289.037 196.887 289.818 195.793C289.896 195.637 290.131 195.324 290.365 195.402C290.6 195.48 290.678 195.793 290.756 195.949C290.99 196.418 291.068 196.965 291.381 197.434C291.537 197.668 292.006 197.824 292.006 197.434C292.006 196.809 291.615 195.559 292.084 195.012C292.162 195.246 292.318 195.402 292.396 195.637C292.475 195.871 293.021 196.027 293.021 195.637C293.021 194.699 292.709 193.371 293.256 192.512C293.725 193.058 294.428 193.683 295.209 193.605C295.756 193.527 296.068 193.058 296.225 192.59C296.537 192.746 296.928 192.746 297.24 192.668C297.553 192.59 297.865 192.355 298.022 192.043C298.569 191.027 298.803 189.933 298.803 188.761C298.881 188.136 298.881 187.511 298.881 186.886C298.959 186.886 299.115 186.886 299.194 186.886C299.272 186.886 299.272 186.886 299.35 186.808L299.428 186.73C299.74 185.793 299.897 184.855 300.053 183.918C300.678 184.855 301.225 185.793 301.616 186.886C301.694 187.121 301.772 187.355 301.928 187.59C301.459 187.746 301.069 187.98 300.756 188.293C300.444 188.683 300.287 189.074 300.209 189.543C300.209 190.011 300.366 190.48 300.678 190.871C300.991 191.262 301.303 191.574 301.772 191.73C302.787 192.121 303.178 191.027 303.178 190.168C303.022 189.465 302.866 188.683 302.553 188.058ZM295.287 189.777C295.131 188.84 295.209 187.902 295.522 187.043C296.694 187.746 296.147 189.933 295.99 190.949C295.912 191.105 295.912 191.418 295.912 191.652C295.522 191.105 295.365 190.402 295.287 189.777ZM302.006 191.34C301.616 191.418 301.225 190.871 300.991 190.558C300.444 189.543 301.147 188.605 302.006 188.215C302.241 188.84 302.319 189.386 302.397 190.09C302.475 190.48 302.475 191.183 302.006 191.34Z" fill="#455A64"/>
<path d="M303.491 182.355C303.256 181.574 302.866 180.793 302.475 180.089C302.241 179.699 302.084 179.308 301.85 178.918C301.694 178.527 301.537 178.214 301.303 177.824C301.225 177.667 300.678 177.511 300.756 177.824C300.834 178.214 300.912 178.605 301.069 178.996C301.225 179.386 301.381 179.777 301.537 180.168C301.85 180.871 302.162 181.652 302.475 182.433C302.631 182.824 302.631 183.371 303.178 183.371C303.803 183.371 303.647 182.746 303.491 182.355Z" fill="#455A64"/>
<path d="M304.975 185.793C304.975 185.715 304.975 185.636 304.897 185.558C304.897 185.558 304.897 185.48 304.819 185.48C304.819 185.402 304.741 185.402 304.741 185.324C304.741 185.246 304.663 185.246 304.585 185.246L304.428 185.168L304.35 185.09C304.272 185.09 304.272 185.09 304.194 185.09C304.116 185.09 304.116 185.09 304.038 185.09C304.038 185.09 303.959 185.09 303.959 185.168C303.959 185.168 303.959 185.246 303.881 185.324C303.881 185.402 303.881 185.402 303.881 185.48C303.881 185.558 303.803 185.558 303.803 185.637C303.803 185.715 303.803 185.793 303.803 185.793C303.803 185.871 303.803 185.871 303.803 185.949C303.803 186.027 303.881 186.105 303.881 186.105C303.959 186.183 303.959 186.183 304.038 186.262C304.194 186.34 304.35 186.418 304.506 186.418C304.585 186.418 304.663 186.418 304.741 186.34L304.819 186.262C304.819 186.183 304.897 186.183 304.897 186.105C305.053 185.949 305.053 185.871 304.975 185.793Z" fill="#455A64"/>
<path d="M278.958 183.058C279.037 182.121 279.271 181.183 279.74 180.402C280.209 179.543 280.912 178.918 281.693 178.371C282.005 178.136 282.318 178.058 282.63 177.98C282.943 177.98 283.334 178.058 283.646 178.214L284.896 178.918L284.349 179.777V179.855C284.271 180.793 284.037 181.73 283.568 182.511C283.099 183.371 282.396 183.996 281.615 184.543L281.068 185.558L279.74 184.777H279.662C279.349 184.543 279.193 184.308 279.037 183.996C278.88 183.683 278.88 183.371 278.958 183.058Z" fill="#37474F"/>
<path d="M285.756 180.636C285.677 181.574 285.443 182.511 284.974 183.293C284.506 184.074 283.802 184.777 283.021 185.324C281.537 186.183 280.287 185.48 280.287 183.761C280.365 182.824 280.599 181.886 281.068 181.105C281.537 180.246 282.24 179.621 283.021 179.074C284.506 178.214 285.756 178.918 285.756 180.636Z" fill="#455A64"/>
<path d="M333.179 155.713L374.977 131.572C377.79 129.931 380.056 131.025 380.056 133.916C380.056 136.807 377.79 140.479 374.977 142.119L333.179 166.261C330.367 167.901 328.179 166.808 328.179 163.917C328.101 161.026 330.367 157.276 333.179 155.713Z" fill="#C0A1E2"/>
<path d="M273.802 232.435C273.49 232.435 273.255 232.357 273.021 232.201L259.739 224.544C259.583 224.466 259.427 224.31 259.27 224.154C259.114 223.997 259.036 223.763 258.958 223.607C258.88 223.451 258.88 223.216 258.88 222.982C258.88 222.747 258.958 222.591 259.114 222.357C259.192 222.2 259.348 222.044 259.505 221.888C259.661 221.732 259.895 221.654 260.052 221.654C260.286 221.575 260.442 221.575 260.677 221.654C260.911 221.654 261.067 221.732 261.224 221.888L274.505 229.544C274.818 229.701 275.052 230.013 275.13 230.326C275.287 230.638 275.287 231.029 275.208 231.341C275.13 231.654 274.896 231.966 274.662 232.201C274.427 232.279 274.115 232.435 273.802 232.435Z" fill="#C0A1E2"/>
<path d="M261.067 239.076C260.755 239.076 260.52 238.998 260.286 238.842C260.052 238.685 259.817 238.529 259.739 238.295C259.583 238.06 259.505 237.826 259.505 237.513C259.505 237.201 259.583 236.966 259.739 236.732L271.536 215.403C271.771 215.013 272.083 214.778 272.474 214.622C272.865 214.544 273.333 214.544 273.646 214.778C274.036 215.013 274.271 215.325 274.427 215.716C274.583 216.106 274.505 216.575 274.271 216.888L262.395 238.217C262.239 238.451 262.083 238.685 261.849 238.842C261.614 238.998 261.302 239.076 261.067 239.076Z" fill="#C0A1E2"/>
<path d="M344.117 183.84C344.039 182.746 343.648 181.73 342.867 180.949C342.008 180.168 340.992 179.699 339.82 179.621C338.101 179.464 336.383 179.699 334.898 180.402C333.57 181.027 332.32 181.886 331.304 182.902C330.835 183.371 330.367 183.761 329.82 184.152C329.585 184.386 329.976 184.777 330.21 184.621C331.382 183.918 332.398 183.058 333.57 182.355C334.82 181.574 336.226 181.027 337.711 180.793C339.742 180.48 342.32 181.027 342.867 183.293C343.023 184.387 343.023 185.558 342.711 186.652C342.476 187.824 342.164 188.918 341.695 189.934C340.758 192.043 339.273 193.918 337.476 195.403C335.992 196.809 334.117 197.824 332.085 198.371C330.367 198.762 328.57 198.606 326.929 197.903C326.226 197.59 325.601 197.043 325.21 196.418C324.741 195.559 324.507 194.621 324.585 193.684C324.585 191.34 325.132 188.996 326.304 186.965C328.57 182.746 332.398 179.464 336.929 177.902C337.554 177.667 338.179 177.511 338.804 177.355C338.883 177.277 338.961 177.277 338.961 177.199C338.961 177.121 339.039 177.042 338.961 176.964C338.961 176.886 338.883 176.808 338.804 176.73C338.726 176.652 338.648 176.652 338.57 176.652C335.914 177.042 333.336 178.058 331.226 179.699C328.96 181.34 327.085 183.371 325.679 185.715C324.273 187.902 323.491 190.48 323.335 193.059C323.257 195.246 323.648 197.434 325.523 198.762C327.242 199.856 329.273 200.246 331.226 199.934C333.414 199.621 335.445 198.684 337.164 197.278C339.273 195.715 340.992 193.762 342.242 191.418C343.57 189.074 344.195 186.496 344.117 183.84Z" fill="#DC7A9C"/>
<path d="M245.442 147.588L247.082 151.026C247.082 151.026 247.082 151.104 247.161 151.104L247.239 151.182H247.317H247.395L250.989 149.776C251.379 149.62 251.536 150.167 251.223 150.635L248.645 155.479C248.567 155.636 248.489 155.87 248.489 156.104L249.114 160.479C249.192 160.948 248.801 161.573 248.489 161.495L245.285 161.104C245.207 161.104 245.129 161.104 245.051 161.183C244.973 161.261 244.895 161.261 244.895 161.339L241.692 165.48C241.379 165.948 240.988 165.792 240.988 165.245L241.613 160.089C241.613 160.011 241.613 159.933 241.613 159.854C241.613 159.776 241.535 159.698 241.457 159.62L238.879 157.745C238.645 157.589 238.723 156.886 239.113 156.573L242.707 153.76C242.863 153.604 243.02 153.448 243.02 153.214L244.66 147.979C244.817 147.51 245.285 147.276 245.442 147.588Z" fill="#DC7A9C"/>
<path d="M281.459 127.275L293.647 120.243C294.193 119.931 294.584 120.165 294.584 120.712C294.584 121.025 294.428 121.337 294.272 121.572C294.115 121.806 293.881 122.04 293.647 122.275L281.459 129.306C280.912 129.619 280.521 129.384 280.521 128.838C280.521 128.525 280.677 128.213 280.834 127.978C280.912 127.666 281.146 127.431 281.459 127.275Z" fill="#455A64"/>
<path d="M281.459 132.275L289.896 127.431C290.443 127.119 290.834 127.353 290.834 127.9C290.834 128.213 290.678 128.525 290.521 128.759C290.365 128.994 290.131 129.228 289.896 129.463L281.459 134.306C280.912 134.619 280.521 134.385 280.521 133.838C280.521 133.525 280.677 133.213 280.834 132.978C280.912 132.666 281.146 132.431 281.459 132.275Z" fill="#455A64"/>
<path d="M325.054 126.728L337.242 119.697C337.789 119.384 338.179 119.618 338.179 120.165C338.179 120.478 338.023 120.79 337.867 121.025C337.711 121.259 337.476 121.494 337.242 121.728L325.054 128.759C324.507 129.072 324.116 128.838 324.116 128.291C324.116 127.978 324.273 127.666 324.429 127.431C324.585 127.119 324.819 126.884 325.054 126.728Z" fill="#455A64"/>
<path d="M325.054 131.728L333.492 126.884C334.039 126.572 334.429 126.806 334.429 127.353C334.429 127.666 334.273 127.978 334.117 128.213C333.96 128.447 333.726 128.681 333.492 128.916L325.054 133.76C324.507 134.072 324.116 133.838 324.116 133.291C324.116 132.978 324.194 132.666 324.429 132.431C324.585 132.119 324.819 131.885 325.054 131.728Z" fill="#455A64"/>
<path d="M238.723 204.7L250.911 197.668C251.458 197.356 251.848 197.59 251.848 198.137C251.848 198.45 251.692 198.762 251.536 198.996C251.379 199.231 251.145 199.465 250.911 199.7L238.723 206.731C238.176 207.044 237.785 206.809 237.785 206.262C237.785 205.95 237.941 205.637 238.098 205.403C238.176 205.09 238.41 204.934 238.723 204.7Z" fill="#455A64"/>
<path d="M238.723 209.778L247.16 204.934C247.707 204.621 248.098 204.856 248.098 205.403C248.098 205.715 247.942 206.028 247.786 206.262C247.629 206.496 247.395 206.731 247.16 206.965L238.723 211.809C238.176 212.122 237.785 211.887 237.785 211.34C237.785 211.028 237.863 210.715 238.098 210.481C238.332 210.247 238.41 209.934 238.723 209.778Z" fill="#455A64"/>
<path d="M347.945 169.855L360.133 162.823C360.68 162.511 361.071 162.745 361.071 163.292C361.071 163.604 360.915 163.917 360.758 164.151C360.602 164.386 360.368 164.62 360.133 164.854L347.945 171.886C347.398 172.198 347.008 171.964 347.008 171.417C347.008 171.105 347.164 170.792 347.32 170.558C347.398 170.245 347.633 170.011 347.945 169.855Z" fill="#455A64"/>
<path d="M347.945 174.855L356.383 170.011C356.93 169.698 357.321 169.933 357.321 170.48C357.321 170.792 357.164 171.105 357.008 171.339C356.852 171.573 356.618 171.808 356.383 172.042L347.945 176.886C347.398 177.199 347.008 176.964 347.008 176.417C347.008 176.105 347.086 175.792 347.32 175.558C347.398 175.245 347.633 175.089 347.945 174.855Z" fill="#455A64"/>
<path d="M278.021 150.479L294.584 140.791L277.943 168.058L278.021 150.479Z" fill="#C0A1E2"/>
<path opacity="0.3" d="M278.021 150.479L294.584 140.791L277.943 168.058L278.021 150.479Z" fill="black"/>
<path d="M218.644 160.167L228.879 154.229C229.426 153.917 229.894 154.151 229.894 154.698C229.894 155.01 229.738 155.323 229.582 155.635C229.426 155.948 229.191 156.182 228.879 156.339L218.644 162.276C218.097 162.589 217.628 162.354 217.628 161.807C217.628 161.495 217.784 161.182 217.941 160.87C218.097 160.557 218.331 160.323 218.644 160.167Z" fill="#C0A1E2"/>
<path d="M218.644 164.698L226.222 160.323C226.769 160.011 227.238 160.245 227.238 160.792C227.238 161.104 227.082 161.417 226.925 161.729C226.769 162.042 226.535 162.276 226.222 162.433L218.644 166.808C218.097 167.12 217.628 166.886 217.628 166.339C217.628 166.026 217.784 165.714 217.941 165.401C218.097 165.089 218.331 164.854 218.644 164.698Z" fill="#C0A1E2"/>
<path d="M218.644 188.215L228.879 182.277C229.426 181.964 229.894 182.199 229.894 182.746C229.894 183.058 229.738 183.371 229.582 183.683C229.426 183.996 229.191 184.23 228.879 184.386L218.644 190.324C218.097 190.637 217.628 190.402 217.628 189.855C217.628 189.543 217.784 189.23 217.941 188.918C218.097 188.683 218.331 188.449 218.644 188.215Z" fill="#C0A1E2"/>
<path d="M218.644 192.746L226.222 188.371C226.769 188.058 227.238 188.293 227.238 188.84C227.238 189.152 227.082 189.465 226.925 189.777C226.769 190.09 226.535 190.324 226.222 190.48L218.644 194.856C218.097 195.168 217.628 194.934 217.628 194.387C217.628 194.074 217.784 193.762 217.941 193.449C218.097 193.215 218.331 192.98 218.644 192.746Z" fill="#C0A1E2"/>
<path d="M218.644 216.419L228.879 210.481C229.426 210.169 229.894 210.403 229.894 210.95C229.894 211.262 229.738 211.575 229.582 211.887C229.426 212.2 229.191 212.434 228.879 212.59L218.644 218.528C218.097 218.841 217.628 218.606 217.628 218.059C217.628 217.747 217.784 217.434 217.941 217.122C218.097 216.809 218.331 216.575 218.644 216.419Z" fill="#C0A1E2"/>
<path d="M218.644 220.95L226.222 216.575C226.769 216.263 227.238 216.497 227.238 217.044C227.238 217.356 227.082 217.669 226.925 217.981C226.769 218.294 226.535 218.528 226.222 218.684L218.644 223.06C218.097 223.372 217.628 223.138 217.628 222.591C217.628 222.278 217.784 221.966 217.941 221.653C218.097 221.341 218.331 221.106 218.644 220.95Z" fill="#C0A1E2"/>
<path d="M218.644 244.545L228.879 238.607C229.426 238.295 229.894 238.529 229.894 239.076C229.894 239.388 229.738 239.701 229.582 240.013C229.426 240.326 229.191 240.56 228.879 240.716L218.644 246.654C218.097 246.967 217.628 246.732 217.628 246.185C217.628 245.873 217.784 245.56 217.941 245.248C218.097 244.935 218.331 244.701 218.644 244.545Z" fill="#C0A1E2"/>
<path d="M218.644 249.076L226.222 244.701C226.769 244.388 227.238 244.623 227.238 245.17C227.238 245.482 227.082 245.795 226.925 246.107C226.769 246.42 226.535 246.654 226.222 246.81L218.644 251.186C218.097 251.498 217.628 251.264 217.628 250.717C217.628 250.404 217.784 250.092 217.941 249.779C218.097 249.467 218.331 249.232 218.644 249.076Z" fill="#C0A1E2"/>
<g opacity="0.4">
<path d="M218.644 164.698L226.222 160.323C226.769 160.011 227.238 160.245 227.238 160.792C227.238 161.104 227.082 161.417 226.925 161.729C226.769 162.042 226.535 162.276 226.222 162.433L218.644 166.808C218.097 167.12 217.628 166.886 217.628 166.339C217.628 166.026 217.784 165.714 217.941 165.401C218.097 165.089 218.331 164.854 218.644 164.698Z" fill="black"/>
<path d="M218.644 192.746L226.222 188.371C226.769 188.058 227.238 188.293 227.238 188.84C227.238 189.152 227.082 189.465 226.925 189.777C226.769 190.09 226.535 190.324 226.222 190.48L218.644 194.856C218.097 195.168 217.628 194.934 217.628 194.387C217.628 194.074 217.784 193.762 217.941 193.449C218.097 193.215 218.331 192.98 218.644 192.746Z" fill="black"/>
<path d="M218.644 220.95L226.222 216.575C226.769 216.263 227.238 216.497 227.238 217.044C227.238 217.356 227.082 217.669 226.925 217.981C226.769 218.294 226.535 218.528 226.222 218.684L218.644 223.06C218.097 223.372 217.628 223.138 217.628 222.591C217.628 222.278 217.784 221.966 217.941 221.653C218.097 221.341 218.331 221.106 218.644 220.95Z" fill="black"/>
<path d="M218.644 249.076L226.222 244.701C226.769 244.388 227.238 244.623 227.238 245.17C227.238 245.482 227.082 245.795 226.925 246.107C226.769 246.42 226.535 246.654 226.222 246.81L218.644 251.186C218.097 251.498 217.628 251.264 217.628 250.717C217.628 250.404 217.784 250.092 217.941 249.779C218.097 249.467 218.331 249.232 218.644 249.076Z" fill="black"/>
</g>
<path opacity="0.1" d="M396.619 144.541C394.353 145.635 392.166 146.807 390.056 148.057C376.462 156.807 365.993 177.042 366.774 193.215C366.852 194.152 366.93 195.012 367.008 195.949L396.619 178.839V144.541Z" fill="black"/>
<path d="M414.198 153.057L407.479 149.151H407.4C403.103 146.885 397.4 147.588 391.306 151.495C378.962 159.386 369.587 177.667 370.29 192.277C370.68 199.543 373.415 204.543 377.712 206.731L384.509 210.637H384.587C388.806 212.825 394.509 212.2 400.682 208.215C413.026 200.324 422.401 182.043 421.698 167.433C421.229 160.245 418.495 155.245 414.198 153.057Z" fill="#37474F"/>
<path d="M384.197 210.559L377.712 206.809H377.634C373.415 204.622 370.602 199.621 370.212 192.355C369.899 185.793 371.618 178.605 374.665 171.886L381.384 175.792C378.337 182.511 376.618 189.777 376.931 196.262C377.4 203.371 380.056 208.294 384.197 210.559Z" fill="#263238"/>
<path d="M400.603 208.372C412.948 200.481 422.323 182.199 421.62 167.511C420.917 152.823 410.369 147.432 398.025 155.323C385.681 163.214 376.306 181.574 377.087 196.184C377.868 210.872 388.337 216.263 400.603 208.372Z" fill="#455A64"/>
<path d="M390.291 207.356C383.025 207.747 381.853 199.543 381.697 196.028C381.072 183.136 389.744 166.339 400.525 159.307C402.869 157.667 405.526 156.729 408.338 156.417C415.604 156.104 416.776 164.23 416.932 167.745C417.557 180.636 408.885 197.434 398.103 204.465C395.838 206.106 393.103 207.044 390.291 207.356Z" fill="#FAFAFA"/>
<path d="M400.76 184.308C400.682 184.308 400.604 184.308 400.525 184.308C400.369 184.23 400.213 184.152 400.135 183.996C400.057 183.84 399.979 183.683 399.979 183.527V164.855C399.979 164.62 400.057 164.464 400.213 164.308C400.369 164.151 400.525 164.073 400.76 164.073C400.994 164.073 401.15 164.151 401.307 164.308C401.463 164.464 401.541 164.62 401.541 164.855V181.183L410.213 170.011C410.291 169.933 410.37 169.855 410.448 169.777C410.526 169.698 410.604 169.698 410.76 169.698C410.838 169.698 410.995 169.698 411.073 169.698C411.151 169.698 411.229 169.777 411.385 169.855C411.463 169.933 411.541 170.011 411.541 170.089C411.62 170.167 411.62 170.245 411.62 170.402C411.62 170.48 411.62 170.636 411.62 170.714C411.62 170.792 411.541 170.87 411.463 170.948L401.385 183.918C401.307 183.996 401.229 184.074 401.15 184.152C400.994 184.308 400.838 184.308 400.76 184.308Z" fill="#37474F"/>
<path d="M396.306 198.059H396.228C396.15 198.059 396.072 197.981 395.994 197.903C395.916 197.825 395.916 197.746 395.994 197.668L400.369 182.902C400.369 182.824 400.447 182.746 400.525 182.746C400.603 182.668 400.682 182.668 400.76 182.746C400.838 182.746 400.838 182.746 400.838 182.824L400.916 182.902C400.916 182.902 400.916 182.98 400.916 183.058C400.916 183.136 400.916 183.136 400.916 183.215L396.541 197.981C396.541 198.059 396.463 198.137 396.385 198.137C396.463 198.059 396.385 198.059 396.306 198.059Z" fill="#C0A1E2"/>
<path d="M400.525 179.777C402.01 178.839 403.182 179.464 403.26 181.183C403.26 182.121 403.025 183.058 402.635 183.918C402.244 184.777 401.619 185.48 400.838 186.027C399.353 186.965 398.182 186.34 398.025 184.621C398.025 183.683 398.26 182.746 398.65 181.886C399.119 181.105 399.744 180.324 400.525 179.777Z" fill="#C0A1E2"/>
<path d="M234.66 306.188C230.051 308.531 241.692 316.813 247.473 313.61L348.883 254.233L361.071 241.42C361.227 241.342 361.383 241.107 361.383 240.951C361.383 240.795 361.383 240.56 361.305 240.326C361.227 240.17 360.993 240.013 360.836 240.013C360.68 240.013 360.446 240.013 360.211 240.092L336.695 247.279L234.66 306.188Z" fill="#E0E0E0"/>
<path d="M337.711 238.216L359.352 233.998C359.508 233.998 359.664 233.998 359.743 234.076C359.899 234.154 359.977 234.232 360.055 234.388C360.133 234.544 360.133 234.623 360.133 234.779C360.133 234.935 360.055 235.013 359.977 235.169L345.289 251.733L337.711 238.216Z" fill="#FFA8A7"/>
<path d="M359.899 235.091C359.977 235.013 360.055 234.857 360.055 234.701C360.055 234.544 360.055 234.388 359.977 234.31C359.899 234.232 359.821 234.076 359.665 233.998C359.508 233.919 359.43 233.919 359.274 233.919L355.055 234.779C355.602 235.169 356.071 235.638 356.383 236.263C356.696 236.888 356.852 237.513 356.774 238.216V238.607L359.899 235.091Z" fill="#263238"/>
<path d="M264.739 297.906L266.536 296.89L268.646 295.64L345.289 251.654C345.992 249.31 345.758 246.732 344.664 244.467C343.101 241.029 340.133 238.294 337.711 238.138L261.145 282.046L257.083 284.39C259.739 283.14 267.474 296.5 264.739 297.906Z" fill="#C0A1E2"/>
<path d="M271.458 294.078L275.365 291.812C276.537 291.187 275.833 288.375 274.505 285.406C272.708 281.499 269.193 277.671 267.63 278.452L264.739 280.093L263.724 280.718C265.286 279.859 268.802 283.687 270.599 287.671C271.927 290.484 272.552 293.297 271.536 294C271.536 294 271.458 294 271.458 294.078Z" fill="#EBEBEB"/>
<path d="M272.474 293.453C275.208 292.047 267.396 278.687 264.739 280.093L260.755 282.359C263.489 280.952 271.224 294.234 268.489 295.719L272.474 293.453Z" fill="#C0A1E2"/>
<path d="M264.739 297.906L268.646 295.64C271.302 294.234 263.958 281.265 261.145 282.124C261.067 282.124 261.067 282.124 260.989 282.202L257.083 284.468C259.739 283.14 267.396 296.5 264.739 297.906Z" fill="#EBEBEB"/>
<path opacity="0.15" d="M360.055 234.388L359.352 233.998L343.648 242.592L262.63 289.078C262.474 288.843 262.317 288.843 262.239 289C264.583 292.593 266.302 297.125 264.739 297.906L266.536 296.89L268.646 295.719L345.289 251.733L359.899 235.091C359.977 235.013 360.055 234.857 360.055 234.779C360.133 234.623 360.055 234.466 360.055 234.388Z" fill="black"/>
<path d="M248.176 307.36L264.739 297.906C265.911 297.281 265.286 294.469 263.958 291.5C262.161 287.593 258.645 283.687 257.083 284.468L240.363 294.078C237.082 295.953 240.129 303.141 243.801 306.344C245.207 307.516 246.692 308.063 248.176 307.36Z" fill="#DC7A9C"/>
<path opacity="0.1" d="M249.114 302.203C248.176 298.453 245.129 294.781 242.395 294C242.004 293.843 241.535 293.844 241.145 293.844C240.676 293.922 240.285 294.078 239.973 294.312C237.473 296.656 240.363 303.219 243.879 306.188C245.207 307.36 246.692 307.906 248.176 307.281C249.348 306.656 249.817 304.781 249.114 302.203Z" fill="black"/>
<defs>
<linearGradient id="paint0_linear_1040_1774" x1="183.5" y1="85.4378" x2="87.5418" y2="345.474" gradientUnits="userSpaceOnUse">
<stop stop-color="#371373" stop-opacity="0"/>
<stop offset="1" stop-color="#371373"/>
</linearGradient>
</defs>
</svg>
