<svg width="548" height="315" viewBox="0 0 548 315" fill="none" xmlns="http://www.w3.org/2000/svg">
<path opacity="0.4" d="M447.69 82.3286C350.998 40.5571 194.812 40.5571 98.7539 82.3286C2.69598 124.179 3.11868 191.9 99.8106 233.671C196.503 275.443 352.689 275.443 448.747 233.671C544.805 191.9 544.382 124.179 447.69 82.3286Z" fill="url(#paint0_linear_1795_577)"/>
<path d="M136.531 246.498L190.127 277.046L278.646 226.263L225.05 196.418L136.531 246.498Z" fill="black"/>
<path d="M190.752 274.702L139.031 245.014C140.359 241.185 140.281 236.732 138.719 231.576L190.127 260.952C190.127 260.952 191.064 264.233 190.752 274.702Z" fill="white"/>
<path d="M190.127 260.952L138.719 231.576C139.188 232.982 139.5 234.466 139.656 235.951L190.674 265.405C190.596 263.999 190.439 262.436 190.127 260.952Z" fill="#EBEBEB"/>
<path d="M187.471 256.811C188.955 257.748 190.127 258.998 190.986 260.483C191.846 261.967 192.314 263.686 192.471 265.405V275.405C192.471 278.53 190.283 279.859 187.471 278.218L136.531 248.92V246.42L186.846 275.093C188.486 276.03 189.814 275.249 189.814 273.374L189.736 264.077C189.658 263.061 189.346 262.045 188.877 261.186C188.408 260.327 187.627 259.545 186.767 258.998L136.531 230.326V227.513L187.471 256.811Z" fill="#263238"/>
<path d="M136.531 227.513L225.05 177.433L275.989 205.95C277.396 206.887 278.646 208.137 279.505 209.622C280.364 211.106 280.833 212.747 280.99 214.466V224.466C280.99 226.029 280.443 227.122 279.505 227.669L190.986 278.53C191.924 277.984 192.471 276.89 192.471 275.327V265.327C192.393 263.608 191.846 261.889 190.986 260.405C190.127 258.92 188.955 257.67 187.471 256.733L136.531 227.513Z" fill="#455A64"/>
<path d="M190.988 260.483C191.848 261.967 192.395 263.608 192.473 265.327V275.327C192.473 276.89 191.926 277.983 190.988 278.53L279.507 227.669C280.445 227.122 280.991 226.028 280.991 224.466V214.466C280.913 212.747 280.445 211.106 279.507 209.622L190.988 260.483Z" fill="#37474F"/>
<path d="M136.375 221.107L190.283 251.967L272.395 204.856L218.487 174.777L136.375 221.107Z" fill="#C0A1E2"/>
<path opacity="0.45" d="M136.375 221.107L190.283 251.967L272.395 204.856L218.487 174.777L136.375 221.107Z" fill="white"/>
<path opacity="0.35" d="M136.375 221.107L190.283 251.967L272.395 204.856L218.487 174.777L136.375 221.107Z" fill="black"/>
<path d="M190.83 249.779L138.641 219.778C139.891 216.263 139.813 212.044 138.406 207.356L190.283 237.045C190.283 237.123 191.221 240.091 190.83 249.779Z" fill="white"/>
<path d="M190.283 237.123L138.406 207.434C138.875 208.84 139.188 210.325 139.344 211.809L190.83 241.498C190.752 240.013 190.596 238.529 190.283 237.123Z" fill="#EBEBEB"/>
<path d="M187.861 233.216C189.189 234.076 190.283 235.248 191.143 236.654C191.924 238.06 192.393 239.545 192.471 241.185V250.483C192.471 253.373 190.439 254.545 187.861 253.139L136.375 223.529V221.263L187.236 250.248C188.799 251.108 189.971 250.404 189.971 248.686L189.893 240.092C189.814 239.154 189.58 238.217 189.111 237.357C188.642 236.498 187.939 235.795 187.158 235.326L136.375 206.184V203.606L187.861 233.216Z" fill="#C0A1E2"/>
<path opacity="0.45" d="M187.861 233.216C189.189 234.076 190.283 235.248 191.143 236.654C191.924 238.06 192.393 239.545 192.471 241.185V250.483C192.471 253.373 190.439 254.545 187.861 253.139L136.375 223.529V221.263L187.236 250.248C188.799 251.108 189.971 250.404 189.971 248.686L189.893 240.092C189.814 239.154 189.58 238.217 189.111 237.357C188.642 236.498 187.939 235.795 187.158 235.326L136.375 206.184V203.606L187.861 233.216Z" fill="white"/>
<path opacity="0.15" d="M187.861 233.216C189.189 234.076 190.283 235.248 191.143 236.654C191.924 238.06 192.393 239.545 192.471 241.185V250.483C192.471 253.373 190.439 254.545 187.861 253.139L136.375 223.529V221.263L187.236 250.248C188.799 251.108 189.971 250.404 189.971 248.686L189.893 240.092C189.814 239.154 189.58 238.217 189.111 237.357C188.642 236.498 187.939 235.795 187.158 235.326L136.375 206.184V203.606L187.861 233.216Z" fill="black"/>
<path d="M136.375 203.606L218.487 157.198L269.973 186.105C271.302 186.965 272.395 188.137 273.255 189.543C274.036 190.949 274.505 192.434 274.583 194.074V203.372C274.583 204.856 274.036 205.872 273.255 206.34L191.143 253.373C192.002 252.905 192.471 251.889 192.471 250.404V241.107C192.393 239.545 191.924 237.982 191.143 236.576C190.361 235.17 189.268 233.998 187.861 233.138L136.375 203.606Z" fill="#C0A1E2"/>
<path opacity="0.65" d="M136.375 203.606L218.487 157.198L269.973 186.105C271.302 186.965 272.395 188.137 273.255 189.543C274.036 190.949 274.505 192.434 274.583 194.074V203.372C274.583 204.856 274.036 205.872 273.255 206.34L191.143 253.373C192.002 252.905 192.471 251.889 192.471 250.404V241.107C192.393 239.545 191.924 237.982 191.143 236.576C190.361 235.17 189.268 233.998 187.861 233.138L136.375 203.606Z" fill="white"/>
<path d="M191.145 236.654C192.004 237.982 192.473 239.545 192.473 241.185V250.405C192.473 251.889 191.926 252.905 191.145 253.373L273.179 206.262C274.038 205.794 274.507 204.778 274.507 203.293V193.996C274.429 192.434 273.96 190.871 273.179 189.465L191.145 236.654Z" fill="#C0A1E2"/>
<path opacity="0.45" d="M191.145 236.654C192.004 237.982 192.473 239.545 192.473 241.185V250.405C192.473 251.889 191.926 252.905 191.145 253.373L273.179 206.262C274.038 205.794 274.507 204.778 274.507 203.293V193.996C274.429 192.434 273.96 190.871 273.179 189.465L191.145 236.654Z" fill="white"/>
<path opacity="0.1" d="M185.439 231.81V251.655L181.923 253.608L136.531 227.591L140.047 225.56L136.375 223.45V221.185L138.719 219.857C140.047 216.028 139.813 211.731 138.484 207.434L136.375 206.262V203.684L185.439 231.81Z" fill="black"/>
<path d="M127 199.543L181.455 230.795L263.567 183.683L209.112 153.135L127 199.543Z" fill="#C0A1E2"/>
<path opacity="0.5" d="M127 199.543L181.455 230.795L263.567 183.683L209.112 153.135L127 199.543Z" fill="black"/>
<path d="M182.002 228.685L129.344 198.215C130.594 194.699 130.516 191.262 129.109 186.496L181.455 216.653C181.455 216.653 182.393 218.919 182.002 228.685Z" fill="white"/>
<path d="M181.455 216.653L129.109 186.496C129.578 187.902 129.891 189.387 130.047 190.871L182.002 220.872C181.924 219.466 181.767 218.059 181.455 216.653Z" fill="#EBEBEB"/>
<path d="M179.033 212.825C180.361 213.684 181.455 214.856 182.314 216.263C183.096 217.669 183.565 219.153 183.643 220.794V229.31C183.643 232.201 181.611 233.373 179.033 231.966L127.078 201.809V199.543L178.408 229.076C179.971 229.935 181.143 229.232 181.143 227.513V219.622C181.064 218.685 180.83 217.747 180.361 216.888C179.893 216.028 179.189 215.325 178.408 214.856L127.078 185.324V182.746L179.033 212.825Z" fill="#C0A1E2"/>
<path opacity="0.4" d="M179.033 212.825C180.361 213.684 181.455 214.856 182.314 216.263C183.096 217.669 183.565 219.153 183.643 220.794V229.31C183.643 232.201 181.611 233.373 179.033 231.966L127.078 201.809V199.543L178.408 229.076C179.971 229.935 181.143 229.232 181.143 227.513V219.622C181.064 218.685 180.83 217.747 180.361 216.888C179.893 216.028 179.189 215.325 178.408 214.856L127.078 185.324V182.746L179.033 212.825Z" fill="black"/>
<path d="M127.078 182.746L209.112 135.635L261.067 165.714C262.395 166.573 263.489 167.745 264.349 169.152C265.13 170.558 265.599 172.042 265.677 173.683V182.199C265.677 183.683 265.13 184.699 264.349 185.168L182.236 232.201C183.096 231.732 183.565 230.716 183.565 229.232V220.716C183.486 219.153 183.018 217.591 182.236 216.184C181.455 214.778 180.283 213.606 178.955 212.747L127.078 182.746Z" fill="#C0A1E2"/>
<path opacity="0.2" d="M127.078 182.746L209.112 135.635L261.067 165.714C262.395 166.573 263.489 167.745 264.349 169.152C265.13 170.558 265.599 172.042 265.677 173.683V182.199C265.677 183.683 265.13 184.699 264.349 185.168L182.236 232.201C183.096 231.732 183.565 230.716 183.565 229.232V220.716C183.486 219.153 183.018 217.591 182.236 216.184C181.455 214.778 180.283 213.606 178.955 212.747L127.078 182.746Z" fill="black"/>
<path d="M182.316 216.185C183.176 217.513 183.645 219.075 183.645 220.716V229.232C183.645 230.716 183.098 231.732 182.316 232.201L264.351 185.09C265.21 184.621 265.679 183.605 265.679 182.121V173.605C265.601 172.042 265.132 170.48 264.351 169.073L182.316 216.185Z" fill="#C0A1E2"/>
<path opacity="0.35" d="M182.316 216.185C183.176 217.513 183.645 219.075 183.645 220.716V229.232C183.645 230.716 183.098 231.732 182.316 232.201L264.351 185.09C265.21 184.621 265.679 183.605 265.679 182.121V173.605C265.601 172.042 265.132 170.48 264.351 169.073L182.316 216.185Z" fill="black"/>
<path opacity="0.1" d="M280.992 214.935V214.544C280.992 213.919 280.914 213.294 280.757 212.747C280.132 210.012 278.414 207.59 275.992 206.028L274.195 205.012C274.429 204.465 274.507 203.918 274.507 203.293V193.996C274.429 192.434 273.96 190.871 273.179 189.465C272.398 188.059 271.304 186.887 269.898 186.027L265.444 183.527C265.601 183.058 265.679 182.59 265.679 182.043V173.527C265.679 173.371 265.679 173.136 265.679 172.98C265.679 172.824 265.601 172.511 265.601 172.277C265.522 171.964 265.444 171.574 265.366 171.261C265.288 171.105 265.288 170.87 265.21 170.714C264.976 170.167 264.741 169.62 264.429 169.073L200.129 205.95V221.966L184.27 231.029L185.52 231.732L193.098 227.357L200.129 231.419V248.139L194.036 251.655L191.223 253.217L191.145 253.295C190.285 253.764 189.192 253.686 187.863 252.983L185.441 251.655L184.348 252.28L188.254 254.545C188.801 254.858 189.348 255.014 189.973 255.014C190.598 255.014 191.145 254.858 191.692 254.545L195.207 252.514L199.973 255.248V273.374L279.507 227.747C279.742 227.591 279.976 227.435 280.132 227.279C280.757 226.497 280.992 225.56 280.992 224.544V214.935Z" fill="black"/>
<path opacity="0.1" d="M152.626 192.824C159.814 198.371 173.643 199.699 183.487 195.637C193.331 191.652 195.44 183.84 188.174 178.292C180.908 172.745 167.158 171.417 157.314 175.48C147.47 179.543 145.438 187.277 152.626 192.824Z" fill="black"/>
<path d="M162.316 147.51C158.253 147.745 151.143 148.292 146.69 157.433C141.612 167.824 146.69 180.715 154.425 186.184C164.191 193.059 179.426 193.449 188.41 185.246C198.333 176.183 199.114 159.073 192.317 151.573C185.598 144.073 175.129 146.182 172.394 147.354C168.253 148.995 165.441 147.276 162.316 147.51Z" fill="#F78F8F"/>
<path opacity="0.3" d="M158.016 151.104C155.359 150.87 151.531 153.213 149.578 156.807C147.078 161.261 146.765 167.589 147.547 172.12C149.109 181.339 158.016 186.183 158.875 185.402C159.735 184.621 153.25 178.605 156.844 169.386C160.438 160.089 162.391 151.495 158.016 151.104Z" fill="white"/>
<path opacity="0.2" d="M155.984 152.588C153.328 153.526 150.203 157.823 149.344 160.792C148.484 163.761 148.953 165.87 149.344 166.261C150.125 166.886 155.516 161.573 157.313 159.151C159.891 155.87 160.36 151.104 155.984 152.588Z" fill="white"/>
<path d="M166.533 155.401C165.127 154.229 163.721 153.682 163.017 155.401C162.314 157.12 166.143 159.854 170.361 158.604C174.58 157.354 176.065 154.62 175.987 153.213C175.987 153.213 174.033 156.26 171.221 156.573C169.58 156.729 167.94 156.338 166.533 155.401Z" fill="#F78F8F"/>
<path opacity="0.1" d="M166.533 155.401C165.127 154.229 163.721 153.682 163.017 155.401C162.314 157.12 166.143 159.854 170.361 158.604C174.58 157.354 176.065 154.62 175.987 153.213C175.987 153.213 174.033 156.26 171.221 156.573C169.58 156.729 167.94 156.338 166.533 155.401Z" fill="black"/>
<path d="M170.361 157.51C170.283 153.604 169.658 149.698 168.486 145.947C166.611 140.557 163.173 136.728 162.235 136.338C160.751 135.791 159.188 135.556 157.626 135.635C155.438 135.635 152.86 137.119 153.563 137.978C154.266 138.838 157.392 139.463 161.22 142.979C165.048 146.494 168.642 153.448 168.642 157.51C168.876 157.667 169.189 157.745 169.501 157.745C169.814 157.745 170.126 157.667 170.361 157.51Z" fill="#37474F"/>
<path d="M162.079 136.26C162.001 136.26 161.923 136.182 161.845 136.182C160.438 135.791 159.032 135.557 157.626 135.635C156.063 135.635 154.188 136.416 153.641 137.197C153.485 137.51 153.954 137.901 155.907 138.213C157.86 138.526 159.813 138.291 161.61 137.666C162.47 137.354 162.782 136.572 162.079 136.26Z" fill="#455A64"/>
<path opacity="0.1" d="M167.547 150.635C165.828 145.713 160.672 141.651 157.078 139.854C158.563 140.713 159.891 141.729 161.141 142.901C164.969 146.416 168.563 153.37 168.563 157.433C168.797 157.589 169.11 157.667 169.422 157.667C169.735 157.667 170.047 157.589 170.282 157.433C170.282 157.433 170.282 155.948 170.047 153.839C170.047 155.87 169.11 155.167 167.547 150.635Z" fill="black"/>
<path d="M169.346 148.994C171.143 149.229 172.94 149.073 174.581 148.369C176.221 147.744 177.706 146.651 178.8 145.244C181.769 141.338 179.815 136.181 179.815 136.181C178.331 135.947 176.768 136.025 175.362 136.494C173.878 136.963 172.628 137.744 171.534 138.838C168.877 141.494 168.487 146.729 169.346 148.994Z" fill="#79C384"/>
<path opacity="0.1" d="M179.815 136.181C178.331 135.947 176.768 136.025 175.362 136.494C173.878 136.963 172.628 137.744 171.534 138.838C168.877 141.494 168.487 146.729 169.346 148.994C171.768 141.416 179.815 136.181 179.815 136.181Z" fill="black"/>
<path d="M176.531 136.963C174.656 137.275 172.938 138.291 171.688 139.697C170.438 141.104 169.656 142.979 169.578 144.854C170.203 143.135 171.141 141.572 172.234 140.166C173.485 138.838 174.969 137.744 176.531 136.963Z" fill="#79C384"/>
<path d="M390.37 5.23959L207.317 110.946V255.092V281.031L205.676 280.093L203.176 278.609V108.603L386.229 2.89575L389.354 4.69269L390.37 5.23959Z" fill="#E6E6E6"/>
<path d="M390.37 5.2395V149.385L213.489 251.498L209.348 253.92L208.332 254.545L207.316 255.092V110.946L390.37 5.2395Z" fill="#F0F0F0"/>
<path d="M386.229 2.89575L390.37 5.23959L207.317 110.946L203.176 108.524L386.229 2.89575Z" fill="#F0F0F0"/>
<path d="M391.854 4.45827L390.37 5.31768L207.316 111.025L206.77 111.337V280.718L205.754 280.093V110.712L206.379 110.4L389.432 4.69266L390.917 3.83325L391.854 4.45827Z" fill="#C0A1E2"/>
<path opacity="0.1" d="M391.854 4.45827L390.37 5.31768L207.316 111.025L206.77 111.337V280.718L205.754 280.093V110.712L206.379 110.4L389.432 4.69266L390.917 3.83325L391.854 4.45827Z" fill="black"/>
<path d="M390.37 5.31766L207.316 111.025L206.77 111.337V280.718L207.395 281.031L391.932 174.777V4.45825L390.37 5.31766Z" fill="#C0A1E2"/>
<path opacity="0.05" d="M390.37 5.31766L207.316 111.025L206.77 111.337V280.718L207.395 281.031L391.932 174.777V4.45825L390.37 5.31766Z" fill="black"/>
<path d="M390.839 3.83325L391.854 4.38015L206.691 111.259L205.676 110.634L390.839 3.83325Z" fill="#C0A1E2"/>
<path opacity="0.4" d="M390.839 3.83325L391.854 4.38015L206.691 111.259L205.676 110.634L390.839 3.83325Z" fill="white"/>
<path d="M393.495 5.39577L391.854 6.33331L390.37 7.19271L339.899 36.3344L208.332 112.275V281.656L207.316 281.031V111.65L390.37 6.0208L391.854 5.16139L392.479 4.77075L393.495 5.39577Z" fill="#C0A1E2"/>
<path opacity="0.1" d="M393.495 5.39577L391.854 6.33331L390.37 7.19271L339.899 36.3344L208.332 112.275V281.656L207.316 281.031V111.65L390.37 6.0208L391.854 5.16139L392.479 4.77075L393.495 5.39577Z" fill="black"/>
<path d="M391.854 6.25516L390.37 7.11456L339.977 36.2562L208.332 112.275V281.656L209.348 282.281L213.41 279.859L393.495 175.714V5.39575L391.854 6.25516Z" fill="#C0A1E2"/>
<path d="M392.479 4.77075L393.495 5.39577L208.332 112.275L207.316 111.728L392.479 4.77075Z" fill="#C0A1E2"/>
<path opacity="0.4" d="M392.479 4.77075L393.495 5.39577L208.332 112.275L207.316 111.728L392.479 4.77075Z" fill="white"/>
<path d="M396.62 8.83334L393.495 10.6303L391.854 11.5678L390.37 12.4272L213.488 114.54V284.546L209.348 282.202V112.196L390.37 7.66142L391.854 6.80201L392.401 6.4895L393.417 7.11452L396.62 8.83334Z" fill="#E6E6E6"/>
<path d="M392.479 6.41138L396.62 8.75521L213.488 114.54L209.348 112.118L392.479 6.41138Z" fill="#F0F0F0"/>
<path d="M213.488 114.54V284.546L396.62 178.839V8.83325L213.488 114.54Z" fill="#FAFAFA"/>
<path d="M232.316 109.149C233.488 108.446 234.504 108.993 234.504 110.4C234.426 111.181 234.27 111.884 233.879 112.509C233.488 113.134 233.02 113.681 232.395 114.15C231.223 114.853 230.207 114.306 230.207 112.9C230.285 112.118 230.441 111.415 230.832 110.79C231.145 110.165 231.613 109.618 232.316 109.149Z" fill="#37474F"/>
<path d="M226.223 91.9614C223.879 90.6332 221.613 90.3988 219.895 91.4145C218.176 92.4301 217.238 94.4615 217.238 97.1959C217.238 98.2116 217.395 99.2273 217.629 100.243L219.035 99.3835C218.879 98.6804 218.801 97.8991 218.801 97.1959C218.801 95.0865 219.504 93.5239 220.676 92.8208C221.926 92.1176 223.567 92.352 225.442 93.3677C229.504 95.7115 232.864 101.493 232.864 106.259C232.864 107.274 232.708 108.29 232.239 109.228C231.926 109.775 231.536 110.321 230.911 110.634C230.833 110.634 230.833 110.712 230.754 110.712C230.364 111.259 230.129 111.962 230.051 112.587C230.598 112.509 231.145 112.275 231.692 112.04C232.786 111.415 233.567 110.4 233.958 109.228C234.27 108.29 234.426 107.274 234.426 106.259C234.426 100.946 230.754 94.5396 226.223 91.9614Z" fill="#C0A1E2"/>
<path d="M242.785 103.134C243.957 102.43 244.973 102.977 244.973 104.384C244.895 105.165 244.738 105.868 244.348 106.493C243.957 107.118 243.488 107.665 242.863 108.134C241.691 108.837 240.676 108.29 240.676 106.884C240.754 106.102 240.91 105.399 241.301 104.774C241.613 104.071 242.16 103.524 242.785 103.134Z" fill="#37474F"/>
<path d="M236.692 85.8674C234.348 84.5392 232.082 84.3048 230.363 85.3205C228.645 86.3362 227.707 88.3675 227.707 91.1019C227.707 92.1176 227.863 93.1333 228.098 94.1489L229.504 93.2895C229.348 92.5864 229.27 91.8051 229.27 91.1019C229.27 88.9925 229.973 87.4299 231.145 86.7268C232.395 86.0236 234.035 86.258 235.91 87.2737C239.973 89.6175 243.333 95.399 243.333 100.165C243.333 101.18 243.176 102.196 242.708 103.134C242.395 103.681 242.004 104.227 241.379 104.54L241.223 104.618C240.833 105.165 240.598 105.79 240.52 106.493C241.067 106.415 241.614 106.181 242.083 105.946C243.176 105.321 243.958 104.306 244.348 103.134C244.661 102.196 244.817 101.18 244.817 100.165C244.895 94.9302 241.223 88.5237 236.692 85.8674Z" fill="#C0A1E2"/>
<path d="M221.77 115.243C222.942 114.54 223.957 115.087 223.957 116.493C223.879 117.275 223.723 117.978 223.332 118.603C222.942 119.228 222.473 119.775 221.77 120.244C220.598 120.947 219.582 120.4 219.582 118.994C219.66 118.212 219.816 117.509 220.207 116.884C220.598 116.259 221.145 115.634 221.77 115.243Z" fill="#37474F"/>
<path d="M215.754 97.9772C213.41 96.6491 211.145 96.4147 209.426 97.4304C207.707 98.446 206.691 100.477 206.691 103.212C206.691 104.227 206.848 105.243 207.082 106.259L208.488 105.399C208.332 104.696 208.254 103.915 208.254 103.134C208.254 101.024 208.957 99.4617 210.129 98.7585C211.379 98.0554 213.02 98.2116 214.895 99.3054C219.036 101.649 222.317 107.431 222.317 112.196C222.317 113.212 222.161 114.228 221.692 115.165C221.379 115.712 220.989 116.259 220.442 116.572L220.286 116.65C219.895 117.197 219.661 117.822 219.582 118.525C220.129 118.447 220.676 118.212 221.223 117.978C222.317 117.353 223.098 116.337 223.489 115.165C223.801 114.228 223.958 113.212 223.958 112.196C223.958 107.04 220.286 100.634 215.754 97.9772Z" fill="#C0A1E2"/>
<path d="M253.254 97.1177C254.426 96.4146 255.442 96.9615 255.442 98.3678C255.363 99.1491 255.207 99.8522 254.817 100.477C254.426 101.102 253.957 101.649 253.332 102.118C252.16 102.821 251.145 102.274 251.145 100.868C251.223 100.087 251.379 99.3834 251.77 98.7584C252.082 98.0553 252.629 97.5084 253.254 97.1177Z" fill="#37474F"/>
<path d="M247.16 79.8515C244.817 78.5233 242.551 78.289 240.832 79.3046C239.113 80.3203 238.176 82.3516 238.176 85.0861C238.176 86.1017 238.332 87.1174 238.566 88.133L239.973 87.2737C239.816 86.5705 239.738 85.7892 239.738 85.0861C239.738 82.9766 240.441 81.4141 241.613 80.7109C242.863 80.0078 244.504 80.164 246.379 81.2578C250.442 83.6016 253.801 89.3831 253.801 94.1489C253.801 95.1646 253.645 96.1802 253.176 97.1177C252.864 97.6646 252.473 98.2115 251.848 98.524L251.692 98.6022C251.301 99.1491 251.067 99.7741 250.989 100.477C251.536 100.399 252.083 100.165 252.629 99.9303C253.723 99.3053 254.504 98.2897 254.895 97.1177C255.208 96.1802 255.364 95.1646 255.364 94.1489C255.364 88.8362 251.692 82.5079 247.16 79.8515Z" fill="#C0A1E2"/>
<path d="M263.723 91.0237C264.895 90.3206 265.91 90.8675 265.91 92.2738C265.91 93.0551 265.676 93.7582 265.285 94.3832C264.895 95.0082 264.348 95.5551 263.723 96.0239C262.551 96.7271 261.535 96.1802 261.535 94.7739C261.535 93.9926 261.77 93.2894 262.16 92.6644C262.551 91.9613 263.098 91.4144 263.723 91.0237Z" fill="#37474F"/>
<path d="M257.629 73.8356C255.285 72.5075 253.02 72.2731 251.301 73.2887C249.582 74.3044 248.645 76.3357 248.645 79.0702C248.645 80.0859 248.801 81.1015 249.035 82.1172L250.441 81.2578C250.285 80.5546 250.207 79.7734 250.207 78.9921C250.207 76.8826 250.91 75.3201 252.082 74.6169C253.332 73.9138 254.973 74.07 256.848 75.1638C260.911 77.5077 264.27 83.2891 264.27 88.0549C264.27 89.0706 264.114 90.0862 263.645 91.0238C263.333 91.5707 262.942 92.1175 262.317 92.43L262.161 92.5082C261.77 93.0551 261.536 93.6801 261.457 94.3832C262.004 94.3051 262.551 94.0707 263.098 93.8364C264.192 93.2113 264.973 92.1957 265.364 91.0238C265.676 90.0862 265.833 89.0706 265.833 88.0549C265.911 82.8203 262.161 76.4139 257.629 73.8356Z" fill="#C0A1E2"/>
<path d="M274.191 84.9297C275.363 84.2266 276.379 84.7735 276.379 86.1798C276.301 86.9611 276.145 87.6642 275.754 88.2892C275.363 88.9143 274.817 89.4611 274.191 89.9299C273.02 90.6331 272.004 90.0862 272.004 88.6799C272.082 87.8986 272.238 87.1954 272.629 86.5704C273.02 85.9454 273.566 85.3985 274.191 84.9297Z" fill="#37474F"/>
<path d="M268.176 67.7417C265.832 66.4135 263.567 66.1791 261.848 67.1948C260.129 68.2104 259.191 70.2417 259.191 72.9762C259.191 73.9919 259.348 75.0075 259.582 76.0232L260.988 75.1638C260.832 74.4606 260.754 73.6794 260.754 72.8981C260.754 70.7886 261.457 69.2261 262.629 68.5229C263.879 67.8198 265.52 67.976 267.395 69.0698C271.457 71.4137 274.817 77.1951 274.817 81.9609C274.817 82.9766 274.661 83.9922 274.192 84.9298C273.879 85.4767 273.489 86.0236 272.942 86.3361C272.864 86.3361 272.864 86.4142 272.786 86.4142C272.395 86.9611 272.161 87.5861 272.082 88.2893C272.629 88.2111 273.176 87.9767 273.645 87.7424C274.739 87.1173 275.52 86.1017 275.911 84.9298C276.223 83.9922 276.38 82.9766 276.38 81.9609C276.38 76.8045 272.708 70.398 268.176 67.7417Z" fill="#C0A1E2"/>
<path d="M284.66 78.9141C285.832 78.211 286.848 78.7579 286.848 80.1642C286.77 80.9454 286.613 81.6486 286.223 82.2736C285.832 82.8986 285.285 83.4455 284.66 83.9143C283.488 84.6174 282.473 84.0705 282.473 82.6642C282.551 81.883 282.707 81.1798 283.098 80.5548C283.566 79.8516 284.035 79.3048 284.66 78.9141Z" fill="#37474F"/>
<path d="M278.645 61.7258C276.301 60.3976 274.035 60.1632 272.317 61.1789C270.598 62.1945 269.582 64.2259 269.582 66.9603C269.582 67.976 269.738 68.9917 269.973 70.0073L271.379 69.1479C271.223 68.4448 271.145 67.6635 271.145 66.9603C271.145 64.8509 271.848 63.2883 273.02 62.5852C274.27 61.882 275.91 62.0383 277.785 63.1321C281.848 65.4759 285.208 71.2574 285.208 76.0232C285.208 77.0388 285.051 78.0545 284.583 78.992C284.27 79.5389 283.879 80.0858 283.333 80.3983L283.176 80.4765C282.786 81.0233 282.551 81.6484 282.473 82.3515C283.02 82.2734 283.567 82.039 284.114 81.8046C285.208 81.1796 285.989 80.1639 286.38 78.992C286.692 78.0545 286.848 77.0388 286.848 76.0232C286.848 70.7105 283.176 64.304 278.645 61.7258Z" fill="#C0A1E2"/>
<path d="M295.211 72.8201C296.383 72.117 297.399 72.6639 297.399 74.0702C297.32 74.8514 297.164 75.5546 296.774 76.1796C296.383 76.8046 295.914 77.3515 295.211 77.8203C294.039 78.5234 293.023 77.9766 293.023 76.5703C293.102 75.789 293.258 75.0858 293.648 74.4608C294.039 73.8358 294.586 73.2889 295.211 72.8201Z" fill="#37474F"/>
<path d="M289.114 55.632C286.77 54.3039 284.504 54.0695 282.785 55.0851C281.066 56.1008 280.129 58.1321 280.129 60.8666C280.129 61.8823 280.285 62.8979 280.52 63.9136L281.926 63.0542C281.77 62.351 281.691 61.5697 281.691 60.8666C281.691 58.7571 282.395 57.1946 283.567 56.4914C284.817 55.7883 286.457 55.9445 288.332 57.0383C292.395 59.3822 295.754 65.1636 295.754 69.9294C295.754 70.9451 295.598 71.9607 295.129 72.8983C294.817 73.4452 294.426 73.9921 293.879 74.3046L293.723 74.3827C293.333 74.9296 293.098 75.5546 293.02 76.2578C293.567 76.1796 294.114 75.9453 294.583 75.7109C295.676 75.0858 296.458 74.0702 296.848 72.8983C297.161 71.9607 297.317 70.9451 297.317 69.9294C297.317 64.6949 293.645 58.2884 289.114 55.632Z" fill="#C0A1E2"/>
<path d="M305.68 66.8043C306.852 66.1011 307.867 66.648 307.867 68.0543C307.789 68.8356 307.633 69.5387 307.242 70.1637C306.852 70.7888 306.383 71.3357 305.68 71.8044C304.508 72.5076 303.492 71.9607 303.492 70.5544C303.57 69.7731 303.727 69.07 304.117 68.4449C304.508 67.7418 305.055 67.1949 305.68 66.8043Z" fill="#37474F"/>
<path d="M299.582 49.6159C297.239 48.2877 294.973 48.0534 293.254 49.069C291.535 50.0847 290.598 52.116 290.598 54.8505C290.598 55.8661 290.754 56.8818 290.988 57.8975L292.395 57.0381C292.238 56.3349 292.16 55.5536 292.16 54.8505C292.16 52.741 292.863 51.1785 294.035 50.4753C295.285 49.7722 296.926 49.9284 298.801 51.0222C302.864 53.3661 306.223 59.1475 306.223 63.9133C306.223 64.929 306.067 65.9446 305.598 66.8822C305.286 67.429 304.895 67.9759 304.348 68.2885L304.192 68.3666C303.801 68.9135 303.567 69.5385 303.489 70.2417C304.036 70.1635 304.583 69.9291 305.051 69.6948C306.145 69.0697 306.926 68.0541 307.317 66.8822C307.63 65.9446 307.786 64.929 307.786 63.9133C307.864 58.6006 304.114 52.1941 299.582 49.6159Z" fill="#C0A1E2"/>
<path d="M316.149 60.7881C317.32 60.085 318.336 60.6319 318.336 62.0382C318.258 62.8195 318.102 63.5226 317.711 64.1476C317.32 64.7727 316.852 65.3196 316.149 65.7883C314.977 66.4915 313.961 65.9446 313.961 64.5383C314.039 63.757 314.195 63.0538 314.586 62.4288C314.977 61.7257 315.523 61.1788 316.149 60.7881Z" fill="#37474F"/>
<path d="M310.055 43.5222C307.711 42.194 305.445 41.9596 303.727 42.9753C302.008 43.9909 301.07 46.0223 301.07 48.7567C301.07 49.7724 301.227 50.7881 301.461 51.8037L302.945 50.9443C302.789 50.2412 302.711 49.4599 302.711 48.7567C302.711 46.6473 303.414 45.0847 304.586 44.3816C305.836 43.6784 307.477 43.8347 309.352 44.9285C313.415 47.2723 316.774 53.0538 316.774 57.8196C316.774 58.8352 316.618 59.8509 316.149 60.7884C315.836 61.3353 315.446 61.8822 314.899 62.1947L314.743 62.2728C314.352 62.8197 314.118 63.4447 314.04 64.1479C314.586 64.0698 315.133 63.8354 315.602 63.601C316.696 62.976 317.477 61.9603 317.868 60.7884C318.18 59.8509 318.337 58.8352 318.337 57.8196C318.337 52.585 314.586 46.1785 310.055 43.5222Z" fill="#C0A1E2"/>
<path d="M326.617 54.6944C327.789 53.9912 328.805 54.5381 328.805 55.9444C328.805 56.7257 328.57 57.4289 328.18 58.0539C327.789 58.6789 327.32 59.2258 326.617 59.6946C325.445 60.3977 324.43 59.8508 324.43 58.4445C324.508 57.6632 324.664 56.9601 325.055 56.3351C325.445 55.6319 325.992 55.085 326.617 54.6944Z" fill="#37474F"/>
<path d="M320.524 37.5061C318.18 36.1779 315.914 35.9435 314.195 36.9592C312.477 37.9748 311.461 40.0061 311.461 42.7406C311.461 43.7563 311.617 44.7719 311.852 45.7876L313.258 44.9282C313.102 44.225 313.023 43.4438 313.023 42.7406C313.023 40.6312 313.727 39.0686 314.899 38.3655C316.149 37.6623 317.789 37.8967 319.664 38.9124C323.805 41.2562 327.086 47.0376 327.086 51.8034C327.086 52.8191 326.93 53.8348 326.461 54.7723C326.149 55.3192 325.758 55.8661 325.211 56.1786L325.055 56.2567C324.665 56.8036 324.43 57.4286 324.352 58.1318C324.899 58.0537 325.446 57.8193 325.915 57.5849C327.008 56.9599 327.79 55.9442 328.18 54.7723C328.493 53.8348 328.649 52.8191 328.649 51.8034C328.805 46.4908 325.133 40.0843 320.524 37.5061Z" fill="#C0A1E2"/>
<path d="M337.086 48.6785C338.258 47.9754 339.274 48.5223 339.274 49.9286C339.195 50.7098 339.039 51.413 338.649 52.038C338.258 52.663 337.789 53.2099 337.086 53.6787C335.914 54.3818 334.898 53.8349 334.898 52.4286C334.977 51.6474 335.133 50.9442 335.523 50.3192C335.992 49.6161 336.461 49.0692 337.086 48.6785Z" fill="#37474F"/>
<path d="M331.071 31.4123C328.727 30.0841 326.461 29.8497 324.742 30.8654C323.023 31.8811 322.008 33.9124 322.008 36.6469C322.008 37.6625 322.164 38.6782 322.398 39.6939L323.805 38.8344C323.648 38.1313 323.57 37.35 323.57 36.6469C323.57 34.5374 324.274 32.9749 325.445 32.2717C326.695 31.5686 328.336 31.8029 330.211 32.8186C334.352 35.1624 337.633 40.9439 337.633 45.7097C337.633 46.7253 337.477 47.741 337.008 48.6785C336.696 49.2254 336.305 49.7723 335.758 50.0848L335.602 50.163C335.211 50.7099 334.977 51.3349 334.899 52.038C335.446 51.9599 335.993 51.7255 336.54 51.4911C337.633 50.8661 338.415 49.8505 338.727 48.6785C339.04 47.741 339.196 46.7253 339.196 45.7097C339.274 40.4751 335.602 34.0687 331.071 31.4123Z" fill="#C0A1E2"/>
<path d="M347.555 42.5845C348.727 41.8814 349.742 42.4283 349.742 43.8346C349.664 44.6158 349.508 45.319 349.117 45.944C348.727 46.569 348.258 47.1159 347.555 47.5847C346.383 48.2879 345.367 47.741 345.367 46.3347C345.445 45.5534 345.602 44.8502 345.992 44.2252C346.461 43.5221 346.93 42.9752 347.555 42.5845Z" fill="#37474F"/>
<path d="M341.539 25.3964C339.196 24.0683 336.93 23.8339 335.211 24.8495C333.492 25.8652 332.555 27.8965 332.555 30.631C332.555 31.6467 332.711 32.6623 332.945 33.678L334.352 32.8186C334.195 32.1154 334.117 31.3341 334.117 30.631C334.117 28.5215 334.82 26.959 335.992 26.2558C337.164 25.5527 338.883 25.7089 340.758 26.8027C344.821 29.1466 348.18 34.928 348.18 39.6938C348.18 40.7095 348.024 41.7251 347.555 42.6627C347.243 43.2096 346.852 43.7565 346.227 44.069L346.071 44.1471C345.68 44.694 345.446 45.319 345.368 46.0222C345.915 45.944 346.461 45.7097 346.93 45.4753C348.024 44.8503 348.805 43.8346 349.196 42.6627C349.508 41.7251 349.665 40.7095 349.665 39.6938C349.743 34.3811 346.071 27.9747 341.539 25.3964Z" fill="#C0A1E2"/>
<path d="M358.102 36.5687C359.274 35.8655 360.289 36.4124 360.289 37.8187C360.211 38.6 360.055 39.3031 359.664 39.9281C359.274 40.5532 358.727 41.1001 358.102 41.5688C356.93 42.272 355.914 41.7251 355.914 40.3188C355.992 39.5375 356.148 38.8344 356.539 38.2093C356.93 37.5062 357.477 36.9593 358.102 36.5687Z" fill="#37474F"/>
<path d="M352.008 19.3024C349.664 17.9743 347.399 17.7399 345.68 18.7555C343.961 19.7712 343.023 21.8025 343.023 24.537C343.023 25.5527 343.18 26.5683 343.414 27.584L344.82 26.7246C344.664 26.0214 344.586 25.2402 344.586 24.537C344.586 22.4276 345.289 20.865 346.461 20.1618C347.633 19.4587 349.352 19.615 351.227 20.7087C355.289 23.0526 358.649 28.834 358.649 33.5998C358.649 34.6155 358.493 35.6311 358.024 36.5687C357.711 37.1156 357.321 37.6625 356.774 37.975C356.696 37.975 356.696 38.0531 356.618 38.0531C356.227 38.6 355.993 39.225 355.915 39.9282C356.461 39.85 357.008 39.6157 357.477 39.3813C358.571 38.7563 359.352 37.7406 359.743 36.5687C360.055 35.6311 360.212 34.6155 360.212 33.5998C360.212 28.3653 356.54 21.9588 352.008 19.3024Z" fill="#C0A1E2"/>
<path d="M368.57 30.4749C369.742 29.7718 370.758 30.3186 370.758 31.7249C370.68 32.5062 370.524 33.2094 370.133 33.8344C369.742 34.4594 369.195 35.0063 368.57 35.4751C367.398 36.1782 366.383 35.6313 366.383 34.225C366.461 33.4438 366.617 32.7406 367.008 32.1156C367.398 31.4906 367.945 30.8655 368.57 30.4749Z" fill="#37474F"/>
<path d="M362.477 13.2866C360.133 11.9584 357.867 11.724 356.149 12.7397C354.43 13.7553 353.492 15.7867 353.492 18.5211C353.492 19.5368 353.648 20.5525 353.883 21.5681L355.289 20.7087C355.133 20.0056 355.055 19.2243 355.055 18.5211C355.055 16.4117 355.758 14.8491 356.93 14.146C358.102 13.4428 359.821 13.5991 361.696 14.6929C365.758 17.0367 369.118 22.8182 369.118 27.584C369.118 28.5996 368.961 29.6153 368.493 30.5528C368.18 31.0997 367.79 31.6466 367.243 31.9591C367.243 31.9591 367.165 32.0372 367.086 32.0372C366.696 32.5841 366.461 33.2092 366.383 33.9123C366.93 33.8342 367.477 33.5998 367.946 33.3654C369.04 32.7404 369.821 31.7247 370.212 30.5528C370.524 29.6153 370.68 28.5996 370.68 27.584C370.758 22.2713 367.008 15.8648 362.477 13.2866Z" fill="#C0A1E2"/>
<path d="M379.039 24.4588C380.211 23.7556 381.227 24.3025 381.227 25.7088C381.149 26.4901 380.992 27.1933 380.602 27.8183C380.211 28.4433 379.664 28.9902 379.039 29.459C377.867 30.1621 376.852 29.6152 376.852 28.2089C376.93 27.4276 377.086 26.7245 377.477 26.0995C377.867 25.3963 378.414 24.8494 379.039 24.4588Z" fill="#37474F"/>
<path d="M372.946 7.19282C370.602 5.86465 368.336 5.63027 366.617 6.64593C364.898 7.66159 363.961 9.69291 363.961 12.4274C363.961 13.443 364.117 14.4587 364.352 15.4744L365.758 14.615C365.602 13.9118 365.523 13.1305 365.523 12.4274C365.523 10.3179 366.227 8.75538 367.399 8.05223C368.57 7.34908 370.289 7.50533 372.164 8.59912C376.227 10.943 379.586 16.7244 379.586 21.4902C379.586 22.5059 379.43 23.5215 378.961 24.4591C378.649 25.006 378.258 25.5528 377.633 25.8654L377.477 25.9435C377.086 26.4904 376.852 27.1154 376.774 27.8186C377.321 27.7404 377.868 27.506 378.415 27.2717C379.508 26.6466 380.29 25.631 380.68 24.4591C380.993 23.5215 381.149 22.5059 381.149 21.4902C381.227 16.2556 377.477 9.84917 372.946 7.19282Z" fill="#C0A1E2"/>
<path d="M389.508 18.365C390.68 17.6619 391.695 18.2088 391.695 19.6151C391.695 20.3964 391.461 21.0995 391.07 21.7245C390.68 22.3496 390.211 22.8965 389.508 23.3652C388.336 24.0684 387.32 23.5215 387.32 22.1152C387.398 21.3339 387.555 20.6307 387.945 20.0057C388.414 19.3807 388.883 18.7557 389.508 18.365Z" fill="#37474F"/>
<path d="M383.414 1.17671C381.071 -0.151464 378.805 -0.385845 377.086 0.629816C375.367 1.64548 374.352 3.6768 374.352 6.41127C374.352 7.42693 374.508 8.44259 374.742 9.45825L376.148 8.59885C375.992 7.8957 375.914 7.11442 375.914 6.41127C375.914 4.30182 376.617 2.73927 377.789 2.03612C378.961 1.33297 380.68 1.48922 382.555 2.58301C386.618 4.92684 389.977 10.7083 389.977 15.4741C389.977 16.4898 389.821 17.5054 389.352 18.4429C389.04 19.068 388.649 19.5367 388.102 19.8492L387.946 19.9274C387.555 20.4743 387.321 21.0993 387.243 21.8024C387.79 21.7243 388.336 21.4899 388.805 21.2555C389.899 20.6305 390.68 19.6149 391.071 18.4429C391.383 17.5054 391.54 16.4898 391.54 15.4741C391.696 10.1614 388.024 3.75492 383.414 1.17671Z" fill="#C0A1E2"/>
<path opacity="0.4" d="M383.416 1.17671C381.073 -0.151464 378.807 -0.385845 377.088 0.629816C375.369 1.64548 374.354 3.6768 374.354 6.41127C374.354 7.03629 374.432 7.73944 374.51 8.36446C373.963 7.97383 373.494 7.58319 372.869 7.19255C370.525 5.86438 368.26 5.62999 366.541 6.64565C364.822 7.66131 363.884 9.69264 363.884 12.4271C363.884 13.0521 363.963 13.7553 364.041 14.3803C363.494 13.9897 362.947 13.599 362.4 13.2865C360.056 11.9583 357.791 11.724 356.072 12.7396C354.353 13.7553 353.415 15.7866 353.415 18.5211C353.415 19.1461 353.493 19.8492 353.572 20.4743C353.025 20.0836 352.478 19.693 351.931 19.3805C349.587 18.0523 347.321 17.8179 345.603 18.8336C343.884 19.8492 342.946 21.8806 342.946 24.615C342.946 25.2401 343.024 25.9432 343.102 26.5682C342.556 26.1776 342.087 25.787 341.462 25.4744C339.118 24.1463 336.852 23.9119 335.133 24.9276C333.415 25.9432 332.477 27.9745 332.477 30.709C332.477 31.334 332.555 32.0372 332.633 32.6622C332.086 32.2716 331.618 31.8809 330.993 31.5684C328.649 30.2402 326.383 30.0059 324.664 31.0215C322.946 32.0372 321.93 34.0685 321.93 36.803C321.93 37.428 322.008 38.1311 322.086 38.7562C321.539 38.3655 320.992 37.9749 320.445 37.6624C318.102 36.3342 315.836 36.0998 314.117 37.1155C312.398 38.1311 311.383 40.1625 311.383 42.8969C311.383 43.522 311.461 44.2251 311.539 44.8501C310.992 44.4595 310.523 44.0689 309.898 43.7563C307.554 42.4282 305.289 42.1938 303.57 43.2095C301.851 44.2251 300.913 46.2564 300.913 48.9909C300.913 49.6159 300.992 50.3191 301.07 50.9441C300.523 50.5535 299.976 50.1628 299.429 49.7722C297.085 48.444 294.82 48.2096 293.101 49.2253C291.382 50.241 290.444 52.2723 290.444 55.0067C290.444 55.6318 290.523 56.3349 290.601 56.9599C290.054 56.5693 289.585 56.1787 288.96 55.788C286.616 54.4599 284.35 54.2255 282.632 55.2411C280.913 56.2568 279.975 58.2881 279.975 61.0226C279.975 61.6476 280.053 62.3508 280.132 62.9758C279.585 62.5851 279.038 62.1945 278.491 61.882C276.147 60.5538 273.881 60.3194 272.162 61.3351C270.444 62.3508 269.428 64.3821 269.428 67.1166C269.428 67.7416 269.506 68.4447 269.584 69.0697C269.037 68.6791 268.49 68.2885 267.944 67.976C265.6 66.6478 263.334 66.4134 261.615 67.4291C259.896 68.4447 258.959 70.4761 258.959 73.2105C258.959 73.8355 259.037 74.5387 259.115 75.1637C258.568 74.7731 258.021 74.3824 257.474 74.0699C255.131 72.7418 252.865 72.5074 251.146 73.523C249.427 74.5387 248.49 76.57 248.49 79.3045C248.49 79.9295 248.568 80.6327 248.646 81.2577C248.099 80.8671 247.63 80.4764 247.005 80.1639C244.662 78.8357 242.396 78.6013 240.677 79.617C238.958 80.6327 238.021 82.664 238.021 85.3985C238.021 86.0235 238.099 86.7266 238.177 87.3516C237.63 86.961 237.161 86.5704 236.536 86.2579C234.192 84.9297 231.927 84.6953 230.208 85.711C228.489 86.7266 227.552 88.7579 227.552 91.4924C227.552 92.1174 227.63 92.8206 227.708 93.4456C227.161 93.055 226.614 92.6643 226.067 92.3518C223.723 91.0237 221.458 90.7893 219.739 91.8049C218.02 92.8206 217.082 94.8519 217.082 97.5864C217.082 98.2114 217.161 98.9146 217.239 99.5396C216.692 99.1489 216.223 98.7583 215.598 98.4458C213.254 97.1176 210.988 96.8832 209.27 97.8989C207.551 98.9146 206.613 100.946 206.613 103.68C206.613 104.696 206.77 105.712 207.004 106.727L208.41 105.868C208.254 105.165 208.176 104.383 208.176 103.602C208.176 101.493 208.879 99.9302 210.051 99.2271C211.301 98.5239 212.942 98.6802 214.817 99.774C218.957 102.118 222.239 107.899 222.239 112.665C222.239 113.681 222.083 114.696 221.614 115.634C221.301 116.181 220.911 116.728 220.364 117.04L220.208 117.118C219.817 117.665 219.582 118.29 219.504 118.993C220.051 118.915 220.598 118.681 221.145 118.446C222.239 117.821 223.02 116.806 223.411 115.634C223.723 114.696 223.88 113.681 223.88 112.665C223.88 108.446 221.458 103.368 218.098 100.243L218.879 99.774C218.723 99.0708 218.645 98.2895 218.645 97.5083C218.645 95.3988 219.348 93.8363 220.52 93.1331C221.77 92.43 223.411 92.6643 225.286 93.68C229.348 96.0238 232.708 101.805 232.708 106.571C232.708 107.587 232.552 108.602 232.083 109.54C231.77 110.087 231.38 110.634 230.755 110.946C230.677 110.946 230.677 111.024 230.599 111.024C230.208 111.571 229.973 112.274 229.895 112.899C230.442 112.821 230.989 112.587 231.536 112.353C232.63 111.728 233.411 110.712 233.802 109.54C234.114 108.602 234.271 107.587 234.271 106.571C234.271 102.352 231.849 97.2739 228.489 94.1488L229.27 93.68C229.114 92.9769 229.036 92.1956 229.036 91.4143C229.036 89.3048 229.739 87.7423 230.911 87.0391C232.161 86.336 233.802 86.5704 235.677 87.586C239.739 89.9299 243.099 95.7113 243.099 100.477C243.099 101.493 242.943 102.508 242.474 103.446C242.161 103.993 241.771 104.54 241.146 104.852L240.99 104.93C240.599 105.477 240.364 106.102 240.286 106.805C240.833 106.727 241.38 106.493 241.849 106.259C242.943 105.634 243.724 104.618 244.115 103.446C244.427 102.508 244.583 101.493 244.583 100.477C244.583 96.1801 242.161 91.1799 238.802 88.0548L239.583 87.586C239.427 86.8829 239.349 86.1016 239.349 85.3203C239.349 83.2109 240.052 81.6483 241.224 80.9452C242.474 80.242 244.115 80.3983 245.99 81.4921C250.052 83.8359 253.412 89.6173 253.412 94.3831C253.412 95.3988 253.256 96.4145 252.787 97.352C252.474 97.8989 252.084 98.4458 251.459 98.7583L251.302 98.8364C250.912 99.3833 250.677 100.008 250.599 100.711C251.146 100.633 251.693 100.399 252.24 100.165C253.334 99.5396 254.115 98.5239 254.506 97.352C254.818 96.4145 254.974 95.3988 254.974 94.3831C254.974 90.0861 252.552 85.0859 249.193 81.9608L249.974 81.4921C249.818 80.7889 249.74 80.0076 249.74 79.3045C249.74 77.195 250.443 75.6325 251.615 74.9293C252.865 74.2262 254.506 74.4606 256.381 75.4762C260.443 77.8201 263.803 83.6015 263.803 88.3673C263.803 89.383 263.647 90.3986 263.178 91.3362C262.865 91.8831 262.475 92.43 261.85 92.7425L261.693 92.8206C261.303 93.3675 261.068 93.9925 260.99 94.6957C261.537 94.6175 262.084 94.3832 262.631 94.1488C263.725 93.5238 264.506 92.5081 264.897 91.3362C265.209 90.3986 265.365 89.383 265.365 88.3673C265.365 84.0703 262.943 79.0701 259.584 75.945L260.365 75.4762C260.209 74.7731 260.131 73.9918 260.131 73.2887C260.131 71.1792 260.834 69.6166 262.006 68.9135C263.256 68.2103 264.897 68.3666 266.772 69.4604C270.834 71.8042 274.194 77.5857 274.194 82.3515C274.194 83.3671 274.038 84.3828 273.569 85.3203C273.256 85.8672 272.866 86.4141 272.241 86.7266C272.162 86.7266 272.162 86.8047 272.084 86.8047C271.694 87.3516 271.459 87.9767 271.381 88.6798C271.928 88.6017 272.475 88.3673 272.944 88.1329C274.038 87.5079 274.819 86.4922 275.209 85.3203C275.522 84.3828 275.678 83.3671 275.678 82.3515C275.678 78.1326 273.256 73.0543 269.897 69.9292L270.678 69.4604C270.522 68.7572 270.444 67.976 270.444 67.2728C270.444 65.1634 271.147 63.6008 272.319 62.8977C273.569 62.1945 275.209 62.3508 277.085 63.4445C281.147 65.7884 284.507 71.5698 284.507 76.3356C284.507 77.3513 284.35 78.367 283.882 79.3045C283.569 79.8514 283.178 80.3983 282.553 80.7108L282.397 80.7889C282.007 81.3358 281.772 81.9608 281.694 82.664C282.241 82.5858 282.788 82.3515 283.335 82.1171C284.429 81.4921 285.21 80.4764 285.6 79.3045C285.913 78.367 286.069 77.3513 286.069 76.3356C286.069 72.1167 283.647 67.0384 280.288 63.9133L281.069 63.4445C280.913 62.7414 280.835 61.9601 280.835 61.257C280.835 59.1475 281.538 57.585 282.71 56.8818C283.96 56.1787 285.6 56.3349 287.476 57.4287C291.538 59.7725 294.898 65.554 294.898 70.3198C294.898 71.3355 294.741 72.3511 294.273 73.2887C293.96 73.8355 293.569 74.3824 292.944 74.6949L292.788 74.7731C292.398 75.32 292.163 75.945 292.085 76.6481C292.632 76.57 293.179 76.3356 293.648 76.1012C294.741 75.4762 295.523 74.4606 295.913 73.2887C296.226 72.3511 296.382 71.3355 296.382 70.3198C296.382 66.0228 293.96 61.0226 290.601 57.8975L291.382 57.4287C291.226 56.7256 291.148 55.9443 291.148 55.2411C291.148 53.1317 291.851 51.5691 293.023 50.866C294.273 50.1628 295.913 50.3191 297.788 51.4129C301.851 53.7567 305.211 59.5382 305.211 64.304C305.211 65.3196 305.054 66.3353 304.586 67.2728C304.273 67.8197 303.882 68.3666 303.335 68.6791L303.179 68.7572C302.789 69.3041 302.554 69.9292 302.476 70.6323C303.023 70.5542 303.57 70.3198 304.039 70.0854C305.132 69.4604 305.914 68.4447 306.304 67.2728C306.617 66.3353 306.773 65.3196 306.773 64.304C306.773 60.0069 304.351 55.0067 300.992 51.8816L301.773 51.4129C301.617 50.7097 301.539 49.9284 301.539 49.2253C301.539 47.1158 302.242 45.5533 303.414 44.8501C304.664 44.147 306.304 44.3032 308.179 45.397C312.242 47.7409 315.602 53.5223 315.602 58.2881C315.602 59.3038 315.445 60.3194 314.977 61.257C314.664 61.8039 314.273 62.3508 313.726 62.6633L313.57 62.7414C313.18 63.2883 312.945 63.9133 312.867 64.6165C313.414 64.5383 313.961 64.304 314.43 64.0696C315.523 63.4445 316.305 62.4289 316.695 61.257C317.008 60.3194 317.164 59.3038 317.164 58.2881C317.164 53.9911 314.742 48.9909 311.383 45.8658L312.164 45.397C312.008 44.6939 311.93 43.9126 311.93 43.2095C311.93 41.1 312.633 39.5375 313.805 38.8343C314.977 38.1312 316.695 38.2874 318.57 39.3812C322.633 41.725 325.993 47.5065 325.993 52.2723C325.993 53.2879 325.836 54.3036 325.367 55.2411C325.055 55.788 324.664 56.3349 324.039 56.6474L323.883 56.7256C323.492 57.2725 323.258 57.8975 323.18 58.6006C323.727 58.5225 324.274 58.2881 324.821 58.0537C325.914 57.4287 326.696 56.4131 327.086 55.2411C327.399 54.3036 327.555 53.2879 327.555 52.2723C327.555 48.0534 325.133 42.9751 321.774 39.85L322.555 39.3812C322.399 38.678 322.321 37.8968 322.321 37.1936C322.321 35.0842 323.024 33.5216 324.196 32.8185C325.446 32.1153 327.086 32.2716 328.961 33.3654C333.102 35.7092 336.383 41.4906 336.383 46.2564C336.383 47.2721 336.227 48.2878 335.758 49.2253C335.446 49.7722 335.055 50.3191 334.508 50.6316L334.352 50.7097C333.962 51.2566 333.727 51.8816 333.649 52.5848C334.196 52.5067 334.743 52.2723 335.212 52.0379C336.383 51.491 337.321 50.4753 337.79 49.2253C338.102 48.2878 338.259 47.2721 338.259 46.2564C338.259 42.0375 335.837 36.9592 332.477 33.8341L333.258 33.3654C333.102 32.6622 333.024 31.8809 333.024 31.1778C333.024 29.0683 333.727 27.5058 334.899 26.8026C336.071 26.0995 337.79 26.2557 339.665 27.3495C343.728 29.6933 347.087 35.4748 347.087 40.2406C347.087 41.2563 346.931 42.2719 346.462 43.2095C346.149 43.7564 345.759 44.3032 345.134 44.6158L344.978 44.6939C344.587 45.2408 344.353 45.8658 344.274 46.5689C344.821 46.4908 345.368 46.2564 345.837 46.0221C346.931 45.397 347.712 44.3814 348.103 43.2095C348.415 42.2719 348.571 41.2563 348.571 40.2406C348.571 36.0217 346.149 31.0215 342.79 27.8964L343.571 27.4276C343.415 26.7245 343.337 25.9432 343.337 25.2401C343.337 23.1306 344.04 21.5681 345.212 20.8649C346.384 20.1618 348.103 20.318 349.978 21.4118C354.04 23.7556 357.4 29.5371 357.4 34.3029C357.4 35.3186 357.244 36.3342 356.775 37.2717C356.462 37.8186 356.072 38.2874 355.525 38.678C355.447 38.678 355.447 38.7562 355.369 38.7562C354.978 39.3031 354.744 39.9281 354.665 40.6312C355.212 40.5531 355.759 40.3187 356.228 40.0843C357.322 39.4593 358.103 38.4437 358.494 37.2717C358.806 36.3342 358.962 35.3186 358.962 34.3029C358.962 30.084 356.54 25.0057 353.181 21.8806L353.962 21.4118C353.806 20.7087 353.728 19.9274 353.728 19.2242C353.728 17.1148 354.431 15.5522 355.603 14.8491C356.775 14.1459 358.494 14.3022 360.369 15.396C364.431 17.7398 367.791 23.5213 367.791 28.2871C367.791 29.3027 367.635 30.3184 367.166 31.2559C366.853 31.8028 366.463 32.3497 365.916 32.6622C365.838 32.6622 365.838 32.7403 365.76 32.7403C365.369 33.2872 365.135 33.9123 365.056 34.6154C365.603 34.5373 366.15 34.3029 366.619 34.0685C367.713 33.4435 368.494 32.4278 368.885 31.2559C369.197 30.3184 369.353 29.3027 369.353 28.2871C369.353 24.0682 366.931 18.9898 363.572 15.8647L364.353 15.396C364.197 14.6928 364.197 13.9115 364.197 13.1303C364.197 11.0208 364.9 9.45825 366.072 8.7551C367.244 8.05195 368.963 8.28634 370.838 9.302C374.9 11.6458 378.26 17.4273 378.26 22.1931C378.26 23.2087 378.104 24.2244 377.635 25.1619C377.322 25.7088 376.932 26.2557 376.307 26.5682L376.151 26.6464C375.76 27.1933 375.526 27.8183 375.447 28.5214C375.994 28.4433 376.541 28.2089 377.088 27.9745C378.182 27.3495 378.963 26.3339 379.354 25.1619C379.666 24.2244 379.823 23.2087 379.823 22.1931C379.823 17.9742 377.401 12.8959 374.041 9.77076L374.822 9.302C374.666 8.59885 374.588 7.81757 374.588 7.11442C374.588 5.00497 375.291 3.44241 376.463 2.73926C377.635 2.03611 379.354 2.2705 381.229 3.28616C385.291 5.62999 388.651 11.4114 388.651 16.1772C388.651 17.1929 388.495 18.2086 388.026 19.1461C387.713 19.7711 387.323 20.2399 386.776 20.5524L386.62 20.6305C386.229 21.1774 385.995 21.8024 385.917 22.5056C386.463 22.4275 387.01 22.1931 387.479 21.9587C388.573 21.3337 389.354 20.318 389.745 19.1461C390.057 18.2086 390.214 17.1929 390.214 16.1772C391.698 10.1614 388.026 3.75493 383.416 1.17671Z" fill="black"/>
<path d="M236.77 128.213L249.895 120.634C250.833 120.087 251.614 120.478 251.692 121.494C251.692 122.119 251.458 122.665 251.145 123.134C250.833 123.603 250.442 124.072 249.895 124.384L236.77 131.963C235.832 132.51 235.051 132.119 235.051 131.103C235.129 130.556 235.285 129.931 235.598 129.463C235.832 128.916 236.223 128.525 236.77 128.213Z" fill="#C0A1E2"/>
<path d="M259.113 115.243L272.239 107.665C273.176 107.118 273.958 107.509 274.036 108.524C273.958 109.149 273.801 109.696 273.489 110.165C273.176 110.634 272.786 111.103 272.239 111.415L259.113 118.993C258.176 119.54 257.395 119.15 257.395 118.134C257.473 117.509 257.629 116.962 257.941 116.493C258.176 116.025 258.645 115.556 259.113 115.243Z" fill="#C0A1E2"/>
<path d="M281.535 102.352L294.661 94.7738C295.598 94.2269 296.379 94.6175 296.458 95.6332C296.379 96.2582 296.223 96.8051 295.911 97.2739C295.598 97.7426 295.208 98.2114 294.661 98.5239L281.535 106.102C280.598 106.649 279.816 106.259 279.816 105.243C279.895 104.618 280.051 104.071 280.363 103.602C280.598 103.055 280.988 102.665 281.535 102.352Z" fill="#C0A1E2"/>
<path d="M303.883 89.3829L317.008 81.8045C317.946 81.2576 318.805 81.6483 318.805 82.6639C318.805 83.289 318.571 83.8359 318.258 84.3046C317.946 84.7734 317.555 85.2422 317.008 85.5547L303.883 93.1331C302.945 93.68 302.164 93.2893 302.164 92.2737C302.242 91.6486 302.398 91.1017 302.711 90.633C302.945 90.1642 303.414 89.6954 303.883 89.3829Z" fill="#C0A1E2"/>
<path d="M326.305 76.4918L339.43 68.9134C340.368 68.3665 341.149 68.7572 341.227 69.7728C341.227 70.3978 340.993 70.9447 340.68 71.4135C340.368 71.8823 339.977 72.351 339.43 72.6635L326.305 80.2419C325.367 80.7888 324.586 80.3982 324.586 79.3825C324.664 78.7575 324.82 78.2106 325.133 77.7419C325.367 77.195 325.836 76.8043 326.305 76.4918Z" fill="#C0A1E2"/>
<path d="M348.649 63.5228L361.774 55.9444C362.711 55.3975 363.493 55.7882 363.571 56.8038C363.493 57.4289 363.337 57.9757 363.024 58.4445C362.712 58.9133 362.321 59.382 361.774 59.6946L348.649 67.273C347.711 67.8198 346.93 67.4292 346.93 66.4135C347.008 65.7885 347.164 65.2416 347.477 64.7729C347.789 64.3041 348.18 63.8353 348.649 63.5228Z" fill="#C0A1E2"/>
<path d="M371.07 50.6317L384.196 43.0533C385.133 42.5064 385.915 42.8971 385.993 43.9127C385.915 44.4596 385.758 45.0846 385.446 45.5534C385.133 46.0222 384.743 46.4909 384.196 46.8034L371.07 54.3818C370.133 54.9287 369.352 54.5381 369.352 53.5224C369.43 52.9755 369.586 52.3505 369.898 51.8818C370.133 51.3349 370.602 50.9442 371.07 50.6317Z" fill="#C0A1E2"/>
<path d="M387.556 60.7882L387.4 169.776L235.129 257.826V148.76L387.556 60.7882ZM389.041 58.0537L233.566 147.823V260.483L388.884 170.714L389.041 58.0537Z" fill="#E0E0E0"/>
<path d="M255.754 247.67C255.52 247.67 255.363 247.592 255.207 247.435C255.051 247.279 254.973 247.123 254.973 246.889V135.791C254.973 135.556 255.051 135.4 255.207 135.244C255.363 135.088 255.52 135.01 255.754 135.01C255.988 135.01 256.145 135.088 256.301 135.244C256.457 135.4 256.535 135.556 256.535 135.791V246.889C256.535 247.123 256.457 247.279 256.301 247.435C256.145 247.592 255.988 247.67 255.754 247.67Z" fill="#E0E0E0"/>
<path d="M277.941 234.857C277.707 234.857 277.551 234.779 277.395 234.622C277.238 234.466 277.16 234.31 277.16 234.076L277.238 122.9C277.238 122.665 277.316 122.509 277.473 122.353C277.629 122.197 277.785 122.118 278.02 122.118C278.254 122.118 278.41 122.197 278.566 122.353C278.723 122.509 278.801 122.665 278.801 122.9L278.723 234.076C278.723 234.31 278.645 234.466 278.488 234.622C278.332 234.779 278.176 234.857 277.941 234.857Z" fill="#E0E0E0"/>
<path d="M300.133 222.044C299.898 222.044 299.742 221.966 299.586 221.81C299.43 221.653 299.352 221.497 299.352 221.263L299.43 110.087C299.43 109.853 299.508 109.696 299.664 109.54C299.82 109.384 299.977 109.306 300.211 109.306C300.445 109.306 300.602 109.384 300.758 109.54C300.914 109.696 300.992 109.853 300.992 110.087L300.914 221.263C300.914 221.497 300.836 221.653 300.68 221.81C300.602 221.966 300.367 222.044 300.133 222.044Z" fill="#E0E0E0"/>
<path d="M322.32 209.231C322.086 209.231 321.93 209.153 321.773 208.997C321.617 208.84 321.539 208.684 321.539 208.45L321.617 97.274C321.617 97.0396 321.695 96.8833 321.852 96.727C322.008 96.5708 322.164 96.4927 322.398 96.4927C322.633 96.4927 322.789 96.5708 322.945 96.727C323.102 96.8833 323.18 97.0396 323.18 97.274L323.102 208.45C323.102 208.528 323.102 208.684 323.023 208.762C323.023 208.84 322.945 208.919 322.867 208.997C322.789 209.075 322.711 209.153 322.633 209.153C322.555 209.231 322.477 209.231 322.32 209.231Z" fill="#E0E0E0"/>
<path d="M344.508 196.418C344.273 196.418 344.117 196.34 343.961 196.184C343.805 196.027 343.727 195.871 343.727 195.637L343.883 84.461C343.883 84.2266 343.961 84.0703 344.117 83.9141C344.273 83.7578 344.43 83.6797 344.664 83.6797C344.898 83.6797 345.055 83.7578 345.211 83.9141C345.367 84.0703 345.445 84.2266 345.445 84.461L345.289 195.637C345.289 195.871 345.211 196.027 345.055 196.184C344.977 196.34 344.742 196.418 344.508 196.418Z" fill="#E0E0E0"/>
<path d="M366.695 183.605C366.461 183.605 366.305 183.527 366.148 183.371C365.992 183.214 365.914 183.058 365.914 182.824L366.07 71.7261C366.07 71.4917 366.148 71.3355 366.305 71.1792C366.461 71.0229 366.617 70.9448 366.852 70.9448C367.086 70.9448 367.242 71.0229 367.398 71.1792C367.555 71.3355 367.633 71.4917 367.633 71.7261L367.477 182.902C367.477 183.136 367.398 183.293 367.242 183.449C367.086 183.527 366.93 183.605 366.695 183.605Z" fill="#E0E0E0"/>
<path d="M234.505 176.261C234.349 176.261 234.271 176.261 234.114 176.183C233.958 176.105 233.88 176.027 233.802 175.871C233.724 175.714 233.646 175.48 233.724 175.245C233.802 175.011 233.88 174.855 234.114 174.777L387.948 85.9455C388.104 85.8673 388.339 85.7892 388.573 85.8673C388.807 85.9454 388.964 86.0236 389.042 86.258C389.12 86.3361 389.12 86.4142 389.12 86.5705C389.12 86.6486 389.12 86.8049 389.12 86.883C389.12 86.9611 389.042 87.0392 388.964 87.1955C388.886 87.2736 388.807 87.3517 388.729 87.4299L234.896 176.183C234.739 176.183 234.661 176.261 234.505 176.261Z" fill="#E0E0E0"/>
<path d="M234.504 204.387C234.347 204.387 234.191 204.309 234.035 204.231C233.878 204.153 233.8 203.997 233.722 203.84C233.644 203.684 233.722 203.528 233.722 203.372C233.8 203.215 233.878 203.059 234.035 202.981L387.868 114.15C388.025 114.072 388.259 114.072 388.415 114.072C388.571 114.15 388.806 114.228 388.884 114.462C388.962 114.618 389.04 114.853 388.962 115.009C388.884 115.165 388.806 115.4 388.65 115.478L234.894 204.309C234.738 204.387 234.66 204.387 234.504 204.387Z" fill="#E0E0E0"/>
<path d="M234.505 232.591C234.349 232.591 234.271 232.591 234.114 232.513C233.958 232.435 233.88 232.357 233.802 232.201C233.724 232.044 233.646 231.81 233.724 231.576C233.802 231.341 233.88 231.185 234.114 231.107L387.948 142.276C388.026 142.198 388.104 142.198 388.26 142.198C388.339 142.198 388.495 142.198 388.573 142.198C388.651 142.198 388.729 142.276 388.886 142.354C388.964 142.432 389.042 142.51 389.12 142.588C389.198 142.666 389.198 142.744 389.198 142.901C389.198 142.979 389.198 143.135 389.198 143.213C389.198 143.291 389.12 143.369 389.042 143.526C388.964 143.604 388.886 143.682 388.807 143.76L234.896 232.435C234.739 232.513 234.661 232.591 234.505 232.591Z" fill="#E0E0E0"/>
<path opacity="0.1" d="M346.617 86.1797V113.993L369.665 100.711V72.8979L346.617 86.1797Z" fill="black"/>
<path d="M375.368 99.149C375.368 99.149 374.274 101.024 370.212 103.368L349.899 115.087L347.477 90.9455L370.524 77.6638L371.774 91.6487C372.087 93.8363 372.399 97.1958 375.368 99.149Z" fill="#C0A1E2"/>
<path d="M370.524 77.5858L347.477 90.8676V86.6487L370.524 73.3669V77.5858Z" fill="#C0A1E2"/>
<path opacity="0.1" d="M370.524 77.5858L347.477 90.8676V86.6487L370.524 73.3669V77.5858Z" fill="black"/>
<path d="M368.257 89.4612C368.1 88.8362 367.944 88.2112 367.71 87.5861C367.71 87.508 367.632 87.4299 367.632 87.3518C367.788 87.0393 367.866 86.6486 367.788 86.258C367.71 85.8673 367.554 85.5548 367.319 85.2423C367.241 85.1642 367.007 85.0861 366.928 85.2423C366.772 85.8673 366.85 86.4924 367.085 87.0393C366.928 87.4299 366.694 87.8987 366.382 88.2112C366.147 88.6018 365.913 88.9143 365.6 89.2268C365.21 89.6175 364.663 90.1644 364.116 90.1644C363.96 90.1644 363.803 90.0862 363.647 90.0081C363.491 89.93 363.413 89.7737 363.413 89.6175C363.569 89.3831 363.725 89.1487 363.882 88.8362C364.272 88.2893 364.507 87.6643 364.663 86.9611C364.663 86.8049 364.663 86.7267 364.663 86.5705C364.663 86.4142 364.585 86.3361 364.507 86.258C364.428 86.1798 364.272 86.1017 364.194 86.1017C364.038 86.1017 363.96 86.1017 363.803 86.1017C363.178 86.258 362.944 87.1174 362.866 87.6643C362.71 88.2112 362.71 88.7581 362.866 89.3831C362.71 89.6175 362.553 89.8519 362.397 90.0081C362.319 90.0862 362.241 90.1644 362.163 90.1644C362.163 90.0862 362.163 90.0081 362.163 89.93C362.163 89.7737 361.85 89.4612 361.694 89.6175C361.225 90.0081 361.069 90.6331 360.756 91.18C360.678 91.3363 360.6 91.4144 360.444 91.4925C360.288 91.5707 360.288 91.6488 360.209 91.4925C360.131 91.2582 360.053 90.9456 359.897 90.7113C359.819 90.555 359.506 90.3988 359.35 90.6331C359.194 90.9456 359.038 91.2581 358.959 91.6488C358.881 91.5707 358.803 91.4925 358.725 91.4925C358.647 91.4144 358.491 91.4144 358.413 91.4144C358.334 91.4144 358.178 91.4144 358.1 91.4925C358.022 91.5707 357.944 91.5707 357.866 91.6488C357.475 92.1176 357.084 92.5863 356.85 93.1332C356.772 93.2895 356.694 93.4457 356.616 93.5239L356.538 93.602V93.5239C356.538 93.0551 356.538 92.6645 356.538 92.1957V92.1176C356.538 91.805 355.834 91.6488 355.834 91.9613C355.834 92.0394 355.834 92.0394 355.834 92.1176C355.756 92.6645 355.6 93.2114 355.287 93.7582C354.975 94.227 354.584 94.6958 354.037 95.0083C353.725 95.2427 353.022 95.7114 352.631 95.5552C352.24 95.3989 352.319 94.7739 352.397 94.4614C352.475 93.5239 352.709 92.5863 353.178 91.7269C353.412 91.3363 353.725 90.9456 354.116 90.7113C354.272 90.6331 354.35 90.555 354.506 90.555C354.662 90.555 354.819 90.555 354.975 90.555C355.366 90.7113 355.287 91.1019 355.209 91.4144C355.131 91.5707 355.366 91.805 355.444 91.6488C355.991 90.6331 355.053 89.6956 353.959 90.0862C352.865 90.4769 352.397 91.5707 352.084 92.5082C351.772 93.4457 351.381 94.6177 351.85 95.4771C352.319 96.5708 353.647 96.1021 354.35 95.6333C355.053 95.1645 355.6 94.6177 355.991 93.9145C356.069 93.9926 356.069 94.0708 356.147 94.0708C356.616 94.5395 357.084 94.1489 357.397 93.6801C357.709 93.1332 358.022 92.5863 358.413 92.1176C358.491 92.0394 358.569 92.0394 358.569 91.9613C358.569 92.1176 358.647 92.1957 358.647 92.3519C358.647 92.6645 358.647 92.977 358.647 93.2113C358.647 93.5239 359.194 93.6801 359.272 93.3676C359.428 92.7426 359.584 92.1176 359.741 91.4925C359.975 91.9613 360.21 92.3519 360.756 92.1176C361.303 91.8832 361.46 91.0238 361.772 90.4769C361.772 90.555 361.85 90.6331 361.928 90.6331C362.006 90.7113 362.085 90.7113 362.163 90.7113C362.241 90.7113 362.319 90.7113 362.397 90.7113C362.475 90.7113 362.553 90.6331 362.631 90.6331C362.866 90.4769 363.1 90.3206 363.256 90.0862L363.335 90.0081C363.491 90.2425 363.725 90.3987 363.96 90.555C364.194 90.6331 364.507 90.7113 364.741 90.6331C365.522 90.3988 366.147 89.8519 366.616 89.2268C367.007 88.7581 367.319 88.2893 367.553 87.8205V87.8987C367.788 88.6018 367.866 89.305 367.944 90.0862C367.944 90.2425 367.944 90.4769 367.944 90.7113C367.553 90.555 367.085 90.555 366.694 90.7113C366.303 90.8675 365.913 91.1019 365.678 91.4925C365.21 92.1176 365.053 93.2113 365.913 93.602C366.616 93.9145 367.475 93.2895 367.866 92.8207C368.647 91.9613 368.491 90.555 368.257 89.4612ZM363.491 87.8205C363.569 87.5861 363.647 87.3518 363.725 87.1174C363.725 87.0393 363.803 86.9611 363.882 86.883C363.96 86.8049 364.116 86.7267 364.116 86.7267C364.116 86.7267 364.038 87.0393 364.038 87.1955C364.038 87.3518 363.882 87.508 363.882 87.6643C363.725 87.9768 363.569 88.2893 363.413 88.6018C363.335 88.3674 363.413 88.133 363.491 87.8205ZM366.616 92.8988C366.303 93.0551 365.913 93.2114 365.913 92.7426C365.835 91.8832 367.007 90.9456 367.866 91.3363C367.866 91.6488 367.71 91.8832 367.553 92.1957C367.241 92.4301 366.928 92.7426 366.616 92.8988Z" fill="#455A64"/>
<path d="M354.195 99.3833C353.961 100.086 353.648 100.79 353.258 101.493C352.945 101.962 352.32 102.352 352.242 102.977C352.242 103.055 352.32 103.29 352.477 103.212C353.023 102.743 353.492 102.274 353.961 101.649V101.571C353.805 102.274 353.727 102.977 353.648 103.68C353.57 104.383 353.492 105.165 353.414 105.868C353.336 106.571 353.336 107.274 353.18 107.977C353.102 108.29 353.727 108.602 353.883 108.212C353.961 107.899 353.961 107.509 353.961 107.196C354.039 106.805 354.039 106.415 354.117 106.024C354.195 105.321 354.273 104.618 354.352 103.837C354.586 102.43 354.742 101.024 354.899 99.6177C354.82 99.227 354.352 99.0708 354.195 99.3833Z" fill="#455A64"/>
<path d="M359.352 99.3833C359.195 99.1489 359.039 98.9145 358.805 98.7583C358.57 98.602 358.18 98.4458 357.945 98.602L357.867 98.5239C357.086 98.2895 356.617 98.9927 356.227 99.5396C355.914 100.086 355.68 100.711 355.445 101.337C355.055 102.43 354.664 104.227 355.836 105.009C356.852 105.712 358.024 105.087 358.649 104.227C359.352 103.29 359.664 102.118 359.742 100.946C359.742 100.555 359.664 99.9302 359.352 99.3833ZM358.18 103.68C357.789 104.305 357.086 105.087 356.305 104.852C355.836 104.696 355.758 104.149 355.68 103.68C355.68 103.133 355.758 102.587 355.914 102.04C356.07 101.493 356.305 100.946 356.617 100.399C356.852 99.9302 357.242 99.1489 357.789 99.0708C357.789 99.0708 357.789 99.1489 357.867 99.1489C358.024 99.227 358.258 99.3052 358.414 99.3833C358.492 99.4614 358.57 99.5396 358.649 99.6958C358.805 100.086 358.883 100.477 358.883 100.868C358.961 101.805 358.649 102.821 358.18 103.68Z" fill="#455A64"/>
<path d="M371.383 99.2271C371.071 98.602 370.915 97.8989 370.68 97.2739C370.524 96.6488 370.212 96.1019 369.743 95.6332C369.586 95.5551 369.352 95.4769 369.274 95.6332C368.883 96.3363 368.649 97.1176 368.493 97.8989C368.415 97.7426 368.258 97.5864 368.102 97.5082C368.024 97.4301 367.946 97.4301 367.868 97.4301C367.79 97.4301 367.711 97.4301 367.633 97.5082C367.477 97.5864 367.399 97.7426 367.321 97.8989C367.165 97.5864 366.93 97.2739 366.696 97.0395C366.618 96.9614 366.539 96.9614 366.461 96.9614C366.383 96.9614 366.305 96.9614 366.227 97.0395C365.446 97.8208 365.68 99.2271 365.446 100.243C365.446 100.477 365.368 100.633 365.211 100.868C365.055 101.024 364.977 100.868 364.899 100.711C364.664 100.321 364.586 99.9302 364.508 99.5396C364.508 99.3833 364.508 99.3052 364.508 99.1489V99.0708C364.508 98.7583 363.805 98.6802 363.805 98.9927C363.883 99.774 363.727 100.633 363.258 101.337C363.024 101.649 362.164 102.899 361.852 102.118C361.617 101.571 362.008 100.868 362.242 100.399C362.555 99.8521 363.024 99.3833 363.571 99.1489C363.727 99.0708 363.571 98.7583 363.414 98.7583C362.555 98.8364 361.852 99.6958 361.461 100.321C361.071 100.946 360.758 101.962 361.461 102.587C362.242 103.368 363.18 102.587 363.649 101.962C363.883 101.571 364.118 101.18 364.274 100.79V100.868C364.586 101.337 365.133 101.727 365.602 101.258C366.071 100.79 366.071 100.008 366.071 99.4614C366.071 98.8364 366.149 98.2114 366.383 97.6645C366.696 98.2114 366.852 98.7583 366.93 99.3833C366.93 99.6958 367.555 99.8521 367.555 99.4614C367.555 98.9927 367.633 98.602 367.79 98.1333C368.024 98.4458 368.18 98.6802 368.336 98.9927C368.493 99.2271 369.04 99.3833 368.961 98.9927C368.883 98.0551 369.04 97.1176 369.508 96.3363C369.743 96.727 369.899 97.1957 370.055 97.5864C370.212 98.1333 370.446 98.6802 370.68 99.2271C370.915 99.6177 371.54 99.6177 371.383 99.2271Z" fill="#455A64"/>
<path d="M344.117 87.8205C344.195 86.883 344.429 85.9454 344.898 85.1642C345.367 84.3829 346.07 83.6797 346.851 83.1328C347.164 82.8984 347.476 82.8203 347.789 82.7422C348.101 82.7422 348.492 82.8203 348.804 82.9766L350.054 83.6797L349.586 84.5391V84.6172C349.507 85.5548 349.273 86.4923 348.804 87.2736C348.335 88.133 347.632 88.758 346.851 89.3049L346.304 90.3206L344.976 89.5393H344.898C344.585 89.3049 344.429 89.0705 344.273 88.758C344.117 88.5236 344.038 88.133 344.117 87.8205Z" fill="#37474F"/>
<path d="M350.914 85.4766C350.836 86.4142 350.602 87.3517 350.133 88.133C349.664 88.9924 348.961 89.6174 348.18 90.1643C346.695 91.0237 345.445 90.3205 345.445 88.6017C345.523 87.6642 345.758 86.7267 346.227 85.9454C346.695 85.1641 347.399 84.461 348.18 83.9141C349.664 83.0547 350.914 83.6797 350.914 85.4766Z" fill="#455A64"/>
<path opacity="0.1" d="M281.379 181.339V209.153L304.427 195.871V168.058L281.379 181.339Z" fill="black"/>
<path d="M310.208 194.309C310.208 194.309 309.114 196.184 305.052 198.528L284.738 210.247L282.316 186.027L305.364 172.745L306.614 186.73C306.849 189.074 307.239 192.355 310.208 194.309Z" fill="#C0A1E2"/>
<path d="M305.364 172.745L282.316 186.027V181.73L305.364 168.448V172.745Z" fill="#C0A1E2"/>
<path opacity="0.1" d="M305.364 172.745L282.316 186.027V181.73L305.364 168.448V172.745Z" fill="black"/>
<path d="M302.551 188.058L302.786 187.98C303.098 187.902 302.864 187.433 302.63 187.511H302.395C302.317 187.355 302.239 187.199 302.161 187.043C301.692 185.636 300.911 184.308 299.895 183.136C299.739 182.98 299.348 182.902 299.348 183.214C299.27 184.308 299.114 185.324 298.801 186.339C298.723 186.027 298.645 185.636 298.567 185.324C298.489 185.089 298.02 184.855 297.942 185.246C297.942 185.636 297.942 185.949 298.098 186.339C298.176 187.824 298.02 189.386 297.707 190.871C297.551 191.496 297.161 192.355 296.379 192.043C296.457 191.887 296.457 191.652 296.457 191.496C296.77 189.855 297.395 187.121 295.364 186.418C295.285 186.418 295.285 186.418 295.207 186.418C295.129 186.418 295.129 186.496 295.051 186.496C294.66 187.433 294.582 188.371 294.66 189.386C294.582 190.402 294.973 191.418 295.676 192.199C295.598 192.512 295.442 192.746 295.207 192.902C294.582 193.293 293.801 192.277 293.489 191.887C293.41 191.73 293.176 191.574 293.02 191.73C292.317 192.355 292.317 193.371 292.395 194.308C292.317 194.23 292.317 194.23 292.239 194.23C292.16 194.23 292.082 194.23 292.004 194.23C291.77 194.309 291.535 194.543 291.379 194.777C291.223 195.012 291.145 195.246 291.223 195.559C290.832 194.934 290.363 194.465 289.738 194.934C289.348 195.168 289.113 195.48 288.957 195.949C288.879 195.246 288.567 194.543 288.098 193.918C287.863 193.683 287.551 193.605 287.238 193.605C286.926 193.605 286.613 193.762 286.379 193.918C285.91 194.543 285.676 195.246 285.676 196.027C285.676 196.418 285.676 196.809 285.754 197.199C285.832 197.355 285.832 197.512 285.988 197.512C286.145 197.512 286.223 197.434 286.145 197.277C285.91 196.574 286.301 193.683 287.473 194.152C288.098 194.387 288.176 195.715 288.332 196.34C288.488 197.434 288.801 198.606 288.957 199.699C289.035 200.012 289.66 200.168 289.66 199.777C289.66 198.527 289.035 196.887 289.817 195.793C289.895 195.637 290.129 195.324 290.363 195.402C290.598 195.48 290.676 195.793 290.754 195.949C290.988 196.418 291.067 196.965 291.379 197.434C291.535 197.668 292.004 197.824 292.004 197.434C292.004 196.809 291.613 195.559 292.082 195.012C292.16 195.246 292.317 195.402 292.395 195.637C292.473 195.871 293.02 196.027 293.02 195.637C293.02 194.699 292.707 193.371 293.254 192.512C293.723 193.058 294.426 193.683 295.207 193.605C295.754 193.527 296.067 193.058 296.223 192.59C296.536 192.746 296.926 192.746 297.239 192.668C297.551 192.59 297.864 192.355 298.02 192.043C298.567 191.027 298.801 189.933 298.801 188.761C298.879 188.136 298.879 187.511 298.879 186.886C298.957 186.886 299.114 186.886 299.192 186.886C299.27 186.886 299.27 186.886 299.348 186.808L299.426 186.73C299.739 185.793 299.895 184.855 300.051 183.918C300.676 184.855 301.223 185.793 301.614 186.886C301.692 187.121 301.77 187.355 301.926 187.59C301.458 187.746 301.067 187.98 300.754 188.293C300.442 188.683 300.286 189.074 300.208 189.543C300.208 190.011 300.364 190.48 300.676 190.871C300.989 191.262 301.301 191.574 301.77 191.73C302.786 192.121 303.176 191.027 303.176 190.168C303.02 189.465 302.864 188.683 302.551 188.058ZM295.285 189.777C295.129 188.84 295.207 187.902 295.52 187.043C296.692 187.746 296.145 189.933 295.989 190.949C295.911 191.105 295.911 191.418 295.911 191.652C295.52 191.105 295.364 190.402 295.285 189.777ZM302.004 191.34C301.614 191.418 301.223 190.871 300.989 190.558C300.442 189.543 301.145 188.605 302.004 188.215C302.239 188.84 302.317 189.386 302.395 190.09C302.473 190.48 302.473 191.183 302.004 191.34Z" fill="#455A64"/>
<path d="M303.492 182.355C303.258 181.574 302.867 180.793 302.476 180.089C302.242 179.699 302.086 179.308 301.851 178.918C301.695 178.527 301.539 178.214 301.305 177.824C301.226 177.667 300.679 177.511 300.758 177.824C300.836 178.214 300.914 178.605 301.07 178.996C301.226 179.386 301.383 179.777 301.539 180.168C301.851 180.871 302.164 181.652 302.476 182.433C302.633 182.824 302.633 183.371 303.18 183.371C303.805 183.371 303.648 182.746 303.492 182.355Z" fill="#455A64"/>
<path d="M304.977 185.793C304.977 185.715 304.977 185.636 304.898 185.558C304.898 185.558 304.898 185.48 304.82 185.48C304.82 185.402 304.742 185.402 304.742 185.324C304.742 185.246 304.664 185.246 304.586 185.246L304.43 185.168L304.352 185.09C304.273 185.09 304.273 185.09 304.195 185.09C304.117 185.09 304.117 185.09 304.039 185.09C304.039 185.09 303.961 185.09 303.961 185.168C303.961 185.168 303.961 185.246 303.883 185.324C303.883 185.402 303.883 185.402 303.883 185.48C303.883 185.558 303.805 185.558 303.805 185.637C303.805 185.715 303.805 185.793 303.805 185.793C303.805 185.871 303.805 185.871 303.805 185.949C303.805 186.027 303.883 186.105 303.883 186.105C303.961 186.183 303.961 186.183 304.039 186.262C304.195 186.34 304.352 186.418 304.508 186.418C304.586 186.418 304.664 186.418 304.742 186.34L304.82 186.262C304.82 186.183 304.898 186.183 304.898 186.105C305.055 185.949 305.055 185.871 304.977 185.793Z" fill="#455A64"/>
<path d="M278.958 183.058C279.036 182.121 279.27 181.183 279.739 180.402C280.208 179.543 280.911 178.918 281.692 178.371C282.005 178.136 282.317 178.058 282.63 177.98C282.942 177.98 283.333 178.058 283.645 178.214L284.895 178.918L284.348 179.777V179.855C284.27 180.793 284.036 181.73 283.567 182.511C283.098 183.371 282.395 183.996 281.614 184.543L281.067 185.558L279.739 184.777H279.661C279.348 184.543 279.192 184.308 279.036 183.996C278.879 183.683 278.879 183.371 278.958 183.058Z" fill="#37474F"/>
<path d="M285.754 180.636C285.676 181.574 285.442 182.511 284.973 183.293C284.504 184.074 283.801 184.777 283.02 185.324C281.535 186.183 280.285 185.48 280.285 183.761C280.363 182.824 280.598 181.886 281.066 181.105C281.535 180.246 282.238 179.621 283.02 179.074C284.504 178.214 285.754 178.918 285.754 180.636Z" fill="#455A64"/>
<path d="M333.178 155.713L374.976 131.572C377.789 129.931 380.055 131.025 380.055 133.916C380.055 136.807 377.789 140.479 374.976 142.119L333.178 166.261C330.365 167.901 328.178 166.808 328.178 163.917C328.1 161.026 330.365 157.276 333.178 155.713Z" fill="#C0A1E2"/>
<path d="M273.801 232.435C273.489 232.435 273.254 232.357 273.02 232.201L259.738 224.544C259.582 224.466 259.426 224.31 259.27 224.154C259.113 223.997 259.035 223.763 258.957 223.607C258.879 223.451 258.879 223.216 258.879 222.982C258.879 222.747 258.957 222.591 259.113 222.357C259.191 222.2 259.348 222.044 259.504 221.888C259.66 221.732 259.895 221.654 260.051 221.654C260.285 221.575 260.441 221.575 260.676 221.654C260.91 221.654 261.066 221.732 261.223 221.888L274.504 229.544C274.817 229.701 275.051 230.013 275.129 230.326C275.286 230.638 275.286 231.029 275.208 231.341C275.129 231.654 274.895 231.966 274.661 232.201C274.426 232.279 274.114 232.435 273.801 232.435Z" fill="#C0A1E2"/>
<path d="M261.066 239.076C260.754 239.076 260.52 238.998 260.285 238.842C260.051 238.685 259.816 238.529 259.738 238.295C259.582 238.06 259.504 237.826 259.504 237.513C259.504 237.201 259.582 236.966 259.738 236.732L271.536 215.403C271.77 215.013 272.082 214.778 272.473 214.622C272.864 214.544 273.333 214.544 273.645 214.778C274.036 215.013 274.27 215.325 274.426 215.716C274.583 216.106 274.504 216.575 274.27 216.888L262.395 238.217C262.238 238.451 262.082 238.685 261.848 238.842C261.613 238.998 261.301 239.076 261.066 239.076Z" fill="#C0A1E2"/>
<path d="M344.115 183.84C344.037 182.746 343.647 181.73 342.865 180.949C342.006 180.168 340.99 179.699 339.818 179.621C338.1 179.464 336.381 179.699 334.896 180.402C333.568 181.027 332.318 181.886 331.302 182.902C330.834 183.371 330.365 183.761 329.818 184.152C329.584 184.386 329.974 184.777 330.209 184.621C331.381 183.918 332.396 183.058 333.568 182.355C334.818 181.574 336.225 181.027 337.709 180.793C339.74 180.48 342.319 181.027 342.865 183.293C343.022 184.387 343.022 185.558 342.709 186.652C342.475 187.824 342.162 188.918 341.693 189.934C340.756 192.043 339.272 193.918 337.475 195.403C335.99 196.809 334.115 197.824 332.084 198.371C330.365 198.762 328.568 198.606 326.927 197.903C326.224 197.59 325.599 197.043 325.209 196.418C324.74 195.559 324.505 194.621 324.583 193.684C324.583 191.34 325.13 188.996 326.302 186.965C328.568 182.746 332.396 179.464 336.928 177.902C337.553 177.667 338.178 177.511 338.803 177.355C338.881 177.277 338.959 177.277 338.959 177.199C338.959 177.121 339.037 177.042 338.959 176.964C338.959 176.886 338.881 176.808 338.803 176.73C338.725 176.652 338.647 176.652 338.568 176.652C335.912 177.042 333.334 178.058 331.224 179.699C328.959 181.34 327.084 183.371 325.677 185.715C324.271 187.902 323.49 190.48 323.333 193.059C323.255 195.246 323.646 197.434 325.521 198.762C327.24 199.856 329.271 200.246 331.224 199.934C333.412 199.621 335.443 198.684 337.162 197.278C339.272 195.715 340.99 193.762 342.24 191.418C343.569 189.074 344.194 186.496 344.115 183.84Z" fill="#F78F8F"/>
<path d="M245.441 147.588L247.081 151.026C247.081 151.026 247.081 151.104 247.159 151.104L247.238 151.182H247.316H247.394L250.988 149.776C251.378 149.62 251.535 150.167 251.222 150.635L248.644 155.479C248.566 155.636 248.488 155.87 248.488 156.104L249.113 160.479C249.191 160.948 248.8 161.573 248.488 161.495L245.284 161.104C245.206 161.104 245.128 161.104 245.05 161.183C244.972 161.261 244.894 161.261 244.894 161.339L241.691 165.48C241.378 165.948 240.987 165.792 240.987 165.245L241.612 160.089C241.612 160.011 241.612 159.933 241.612 159.854C241.612 159.776 241.534 159.698 241.456 159.62L238.878 157.745C238.644 157.589 238.722 156.886 239.112 156.573L242.706 153.76C242.862 153.604 243.019 153.448 243.019 153.214L244.659 147.979C244.816 147.51 245.284 147.276 245.441 147.588Z" fill="#F78F8F"/>
<path d="M281.457 127.275L293.645 120.243C294.192 119.931 294.583 120.165 294.583 120.712C294.583 121.025 294.426 121.337 294.27 121.572C294.114 121.806 293.879 122.04 293.645 122.275L281.457 129.306C280.91 129.619 280.52 129.384 280.52 128.838C280.52 128.525 280.676 128.213 280.832 127.978C280.91 127.666 281.145 127.431 281.457 127.275Z" fill="#455A64"/>
<path d="M281.457 132.275L289.895 127.431C290.442 127.119 290.832 127.353 290.832 127.9C290.832 128.213 290.676 128.525 290.52 128.759C290.364 128.994 290.129 129.228 289.895 129.463L281.457 134.306C280.91 134.619 280.52 134.385 280.52 133.838C280.52 133.525 280.676 133.213 280.832 132.978C280.91 132.666 281.145 132.431 281.457 132.275Z" fill="#455A64"/>
<path d="M325.055 126.728L337.243 119.697C337.79 119.384 338.18 119.618 338.18 120.165C338.18 120.478 338.024 120.79 337.868 121.025C337.711 121.259 337.477 121.494 337.243 121.728L325.055 128.759C324.508 129.072 324.117 128.838 324.117 128.291C324.117 127.978 324.273 127.666 324.43 127.431C324.586 127.119 324.82 126.884 325.055 126.728Z" fill="#455A64"/>
<path d="M325.055 131.728L333.493 126.884C334.039 126.572 334.43 126.806 334.43 127.353C334.43 127.666 334.274 127.978 334.118 128.213C333.961 128.447 333.727 128.681 333.493 128.916L325.055 133.76C324.508 134.072 324.117 133.838 324.117 133.291C324.117 132.978 324.195 132.666 324.43 132.431C324.586 132.119 324.82 131.885 325.055 131.728Z" fill="#455A64"/>
<path d="M238.723 204.7L250.911 197.668C251.458 197.356 251.848 197.59 251.848 198.137C251.848 198.45 251.692 198.762 251.536 198.996C251.379 199.231 251.145 199.465 250.911 199.7L238.723 206.731C238.176 207.044 237.785 206.809 237.785 206.262C237.785 205.95 237.941 205.637 238.098 205.403C238.176 205.09 238.41 204.934 238.723 204.7Z" fill="#455A64"/>
<path d="M238.723 209.778L247.16 204.934C247.707 204.621 248.098 204.856 248.098 205.403C248.098 205.715 247.942 206.028 247.786 206.262C247.629 206.496 247.395 206.731 247.16 206.965L238.723 211.809C238.176 212.122 237.785 211.887 237.785 211.34C237.785 211.028 237.863 210.715 238.098 210.481C238.332 210.247 238.41 209.934 238.723 209.778Z" fill="#455A64"/>
<path d="M347.945 169.855L360.133 162.823C360.68 162.511 361.071 162.745 361.071 163.292C361.071 163.604 360.915 163.917 360.758 164.151C360.602 164.386 360.368 164.62 360.133 164.854L347.945 171.886C347.398 172.198 347.008 171.964 347.008 171.417C347.008 171.105 347.164 170.792 347.32 170.558C347.398 170.245 347.633 170.011 347.945 169.855Z" fill="#455A64"/>
<path d="M347.945 174.855L356.383 170.011C356.93 169.698 357.321 169.933 357.321 170.48C357.321 170.792 357.164 171.105 357.008 171.339C356.852 171.573 356.618 171.808 356.383 172.042L347.945 176.886C347.398 177.199 347.008 176.964 347.008 176.417C347.008 176.105 347.086 175.792 347.32 175.558C347.398 175.245 347.633 175.089 347.945 174.855Z" fill="#455A64"/>
<path d="M278.02 150.479L294.583 140.791L277.941 168.058L278.02 150.479Z" fill="#C0A1E2"/>
<path opacity="0.3" d="M278.02 150.479L294.583 140.791L277.941 168.058L278.02 150.479Z" fill="black"/>
<path d="M218.645 160.167L228.879 154.229C229.426 153.917 229.895 154.151 229.895 154.698C229.895 155.01 229.739 155.323 229.582 155.635C229.426 155.948 229.192 156.182 228.879 156.339L218.645 162.276C218.098 162.589 217.629 162.354 217.629 161.807C217.629 161.495 217.785 161.182 217.941 160.87C218.098 160.557 218.332 160.323 218.645 160.167Z" fill="#C0A1E2"/>
<path d="M218.645 164.698L226.223 160.323C226.77 160.011 227.239 160.245 227.239 160.792C227.239 161.104 227.082 161.417 226.926 161.729C226.77 162.042 226.535 162.276 226.223 162.433L218.645 166.808C218.098 167.12 217.629 166.886 217.629 166.339C217.629 166.026 217.785 165.714 217.941 165.401C218.098 165.089 218.332 164.854 218.645 164.698Z" fill="#C0A1E2"/>
<path d="M218.645 188.215L228.879 182.277C229.426 181.964 229.895 182.199 229.895 182.746C229.895 183.058 229.739 183.371 229.582 183.683C229.426 183.996 229.192 184.23 228.879 184.386L218.645 190.324C218.098 190.637 217.629 190.402 217.629 189.855C217.629 189.543 217.785 189.23 217.941 188.918C218.098 188.683 218.332 188.449 218.645 188.215Z" fill="#C0A1E2"/>
<path d="M218.645 192.746L226.223 188.371C226.77 188.058 227.239 188.293 227.239 188.84C227.239 189.152 227.082 189.465 226.926 189.777C226.77 190.09 226.535 190.324 226.223 190.48L218.645 194.856C218.098 195.168 217.629 194.934 217.629 194.387C217.629 194.074 217.785 193.762 217.941 193.449C218.098 193.215 218.332 192.98 218.645 192.746Z" fill="#C0A1E2"/>
<path d="M218.645 216.419L228.879 210.481C229.426 210.169 229.895 210.403 229.895 210.95C229.895 211.262 229.739 211.575 229.582 211.887C229.426 212.2 229.192 212.434 228.879 212.59L218.645 218.528C218.098 218.841 217.629 218.606 217.629 218.059C217.629 217.747 217.785 217.434 217.941 217.122C218.098 216.809 218.332 216.575 218.645 216.419Z" fill="#C0A1E2"/>
<path d="M218.645 220.95L226.223 216.575C226.77 216.263 227.239 216.497 227.239 217.044C227.239 217.356 227.082 217.669 226.926 217.981C226.77 218.294 226.535 218.528 226.223 218.684L218.645 223.06C218.098 223.372 217.629 223.138 217.629 222.591C217.629 222.278 217.785 221.966 217.941 221.653C218.098 221.341 218.332 221.106 218.645 220.95Z" fill="#C0A1E2"/>
<path d="M218.645 244.545L228.879 238.607C229.426 238.295 229.895 238.529 229.895 239.076C229.895 239.388 229.739 239.701 229.582 240.013C229.426 240.326 229.192 240.56 228.879 240.716L218.645 246.654C218.098 246.967 217.629 246.732 217.629 246.185C217.629 245.873 217.785 245.56 217.941 245.248C218.098 244.935 218.332 244.701 218.645 244.545Z" fill="#C0A1E2"/>
<path d="M218.645 249.076L226.223 244.701C226.77 244.388 227.239 244.623 227.239 245.17C227.239 245.482 227.082 245.795 226.926 246.107C226.77 246.42 226.535 246.654 226.223 246.81L218.645 251.186C218.098 251.498 217.629 251.264 217.629 250.717C217.629 250.404 217.785 250.092 217.941 249.779C218.098 249.467 218.332 249.232 218.645 249.076Z" fill="#C0A1E2"/>
<g opacity="0.4">
<path d="M218.645 164.698L226.223 160.323C226.77 160.011 227.239 160.245 227.239 160.792C227.239 161.104 227.082 161.417 226.926 161.729C226.77 162.042 226.535 162.276 226.223 162.433L218.645 166.808C218.098 167.12 217.629 166.886 217.629 166.339C217.629 166.026 217.785 165.714 217.941 165.401C218.098 165.089 218.332 164.854 218.645 164.698Z" fill="black"/>
<path d="M218.645 192.746L226.223 188.371C226.77 188.058 227.239 188.293 227.239 188.84C227.239 189.152 227.082 189.465 226.926 189.777C226.77 190.09 226.535 190.324 226.223 190.48L218.645 194.856C218.098 195.168 217.629 194.934 217.629 194.387C217.629 194.074 217.785 193.762 217.941 193.449C218.098 193.215 218.332 192.98 218.645 192.746Z" fill="black"/>
<path d="M218.645 220.95L226.223 216.575C226.77 216.263 227.239 216.497 227.239 217.044C227.239 217.356 227.082 217.669 226.926 217.981C226.77 218.294 226.535 218.528 226.223 218.684L218.645 223.06C218.098 223.372 217.629 223.138 217.629 222.591C217.629 222.278 217.785 221.966 217.941 221.653C218.098 221.341 218.332 221.106 218.645 220.95Z" fill="black"/>
<path d="M218.645 249.076L226.223 244.701C226.77 244.388 227.239 244.623 227.239 245.17C227.239 245.482 227.082 245.795 226.926 246.107C226.77 246.42 226.535 246.654 226.223 246.81L218.645 251.186C218.098 251.498 217.629 251.264 217.629 250.717C217.629 250.404 217.785 250.092 217.941 249.779C218.098 249.467 218.332 249.232 218.645 249.076Z" fill="black"/>
</g>
<path opacity="0.1" d="M396.62 144.541C394.355 145.635 392.167 146.807 390.058 148.057C376.463 156.807 365.994 177.042 366.775 193.215C366.854 194.152 366.932 195.012 367.01 195.949L396.62 178.839V144.541Z" fill="black"/>
<path d="M414.199 153.057L407.48 149.151H407.402C403.105 146.885 397.401 147.588 391.307 151.495C378.963 159.386 369.588 177.667 370.291 192.277C370.682 199.543 373.416 204.543 377.713 206.731L384.51 210.637H384.588C388.807 212.825 394.511 212.2 400.683 208.215C413.027 200.324 422.402 182.043 421.699 167.433C421.23 160.245 418.496 155.245 414.199 153.057Z" fill="#37474F"/>
<path d="M384.197 210.559L377.712 206.809H377.634C373.415 204.622 370.603 199.621 370.212 192.355C369.9 185.793 371.618 178.605 374.665 171.886L381.384 175.792C378.337 182.511 376.619 189.777 376.931 196.262C377.4 203.371 380.056 208.294 384.197 210.559Z" fill="#263238"/>
<path d="M400.605 208.372C412.949 200.481 422.324 182.199 421.621 167.511C420.918 152.823 410.371 147.432 398.027 155.323C385.683 163.214 376.307 181.574 377.088 196.184C377.87 210.872 388.339 216.263 400.605 208.372Z" fill="#455A64"/>
<path d="M390.29 207.356C383.024 207.747 381.852 199.543 381.696 196.028C381.071 183.136 389.743 166.339 400.525 159.307C402.868 157.667 405.525 156.729 408.337 156.417C415.603 156.104 416.775 164.23 416.931 167.745C417.557 180.636 408.884 197.434 398.103 204.465C395.837 206.106 393.103 207.044 390.29 207.356Z" fill="#FAFAFA"/>
<path d="M400.758 184.308C400.68 184.308 400.602 184.308 400.523 184.308C400.367 184.23 400.211 184.152 400.133 183.996C400.055 183.84 399.977 183.683 399.977 183.527V164.855C399.977 164.62 400.055 164.464 400.211 164.308C400.367 164.151 400.523 164.073 400.758 164.073C400.992 164.073 401.148 164.151 401.305 164.308C401.461 164.464 401.539 164.62 401.539 164.855V181.183L410.211 170.011C410.289 169.933 410.368 169.855 410.446 169.777C410.524 169.698 410.602 169.698 410.758 169.698C410.836 169.698 410.993 169.698 411.071 169.698C411.149 169.698 411.227 169.777 411.383 169.855C411.461 169.933 411.539 170.011 411.539 170.089C411.618 170.167 411.618 170.245 411.618 170.402C411.618 170.48 411.618 170.636 411.618 170.714C411.618 170.792 411.539 170.87 411.461 170.948L401.383 183.918C401.305 183.996 401.227 184.074 401.148 184.152C400.992 184.308 400.836 184.308 400.758 184.308Z" fill="#37474F"/>
<path d="M396.305 198.059H396.227C396.148 198.059 396.07 197.981 395.992 197.903C395.914 197.825 395.914 197.746 395.992 197.668L400.367 182.902C400.367 182.824 400.445 182.746 400.524 182.746C400.602 182.668 400.68 182.668 400.758 182.746C400.836 182.746 400.836 182.746 400.836 182.824L400.914 182.902C400.914 182.902 400.914 182.98 400.914 183.058C400.914 183.136 400.914 183.136 400.914 183.215L396.539 197.981C396.539 198.059 396.461 198.137 396.383 198.137C396.461 198.059 396.383 198.059 396.305 198.059Z" fill="#C0A1E2"/>
<path d="M400.524 179.777C402.008 178.839 403.18 179.464 403.258 181.183C403.258 182.121 403.024 183.058 402.633 183.918C402.242 184.777 401.617 185.48 400.836 186.027C399.352 186.965 398.18 186.34 398.023 184.621C398.023 183.683 398.258 182.746 398.648 181.886C399.117 181.105 399.742 180.324 400.524 179.777Z" fill="#C0A1E2"/>
<path d="M234.661 306.188C230.051 308.531 241.692 316.813 247.474 313.61L348.883 254.233L361.071 241.42C361.228 241.342 361.384 241.107 361.384 240.951C361.384 240.795 361.384 240.56 361.306 240.326C361.228 240.17 360.993 240.013 360.837 240.013C360.681 240.013 360.446 240.013 360.212 240.092L336.695 247.279L234.661 306.188Z" fill="#E0E0E0"/>
<path d="M337.711 238.216L359.352 233.998C359.509 233.998 359.665 233.998 359.743 234.076C359.899 234.154 359.977 234.232 360.055 234.388C360.134 234.544 360.134 234.623 360.134 234.779C360.134 234.935 360.055 235.013 359.977 235.169L345.289 251.733L337.711 238.216Z" fill="#F78F8F"/>
<path d="M359.899 235.091C359.977 235.013 360.055 234.857 360.055 234.701C360.055 234.544 360.055 234.388 359.977 234.31C359.899 234.232 359.821 234.076 359.664 233.998C359.508 233.919 359.43 233.919 359.274 233.919L355.055 234.779C355.602 235.169 356.07 235.638 356.383 236.263C356.695 236.888 356.852 237.513 356.774 238.216V238.607L359.899 235.091Z" fill="#263238"/>
<path d="M264.739 297.906L266.535 296.89L268.645 295.64L345.288 251.654C345.991 249.31 345.757 246.732 344.663 244.467C343.101 241.029 340.132 238.294 337.71 238.138L261.145 282.046L257.082 284.39C259.738 283.14 267.473 296.5 264.739 297.906Z" fill="#C0A1E2"/>
<path d="M271.457 294.078L275.364 291.812C276.536 291.187 275.832 288.375 274.504 285.406C272.707 281.499 269.192 277.671 267.629 278.452L264.738 280.093L263.723 280.718C265.285 279.859 268.801 283.687 270.598 287.671C271.926 290.484 272.551 293.297 271.535 294C271.535 294 271.457 294 271.457 294.078Z" fill="#EBEBEB"/>
<path d="M272.473 293.453C275.208 292.047 267.395 278.687 264.738 280.093L260.754 282.359C263.488 280.952 271.223 294.234 268.489 295.719L272.473 293.453Z" fill="#C0A1E2"/>
<path d="M264.739 297.906L268.645 295.64C271.301 294.234 263.957 281.265 261.145 282.124C261.067 282.124 261.067 282.124 260.988 282.202L257.082 284.468C259.738 283.14 267.395 296.5 264.739 297.906Z" fill="#EBEBEB"/>
<path opacity="0.15" d="M360.054 234.388L359.351 233.998L343.647 242.592L262.629 289.078C262.473 288.843 262.316 288.843 262.238 289C264.582 292.593 266.301 297.125 264.738 297.906L266.535 296.89L268.645 295.719L345.288 251.733L359.898 235.091C359.976 235.013 360.054 234.857 360.054 234.779C360.132 234.623 360.054 234.466 360.054 234.388Z" fill="black"/>
<path d="M248.176 307.36L264.739 297.906C265.911 297.281 265.286 294.469 263.958 291.5C262.161 287.593 258.645 283.687 257.083 284.468L240.363 294.078C237.082 295.953 240.129 303.141 243.801 306.344C245.207 307.516 246.692 308.063 248.176 307.36Z" fill="#F78F8F"/>
<path opacity="0.1" d="M249.113 302.203C248.175 298.453 245.128 294.781 242.394 294C242.003 293.843 241.534 293.844 241.144 293.844C240.675 293.922 240.284 294.078 239.972 294.312C237.472 296.656 240.363 303.219 243.878 306.188C245.206 307.36 246.691 307.906 248.175 307.281C249.347 306.656 249.816 304.781 249.113 302.203Z" fill="black"/>
<defs>
<linearGradient id="paint0_linear_1795_577" x1="183.5" y1="85.4378" x2="87.5418" y2="345.474" gradientUnits="userSpaceOnUse">
<stop stop-color="#371373" stop-opacity="0"/>
<stop offset="1" stop-color="#371373"/>
</linearGradient>
</defs>
</svg>
