<svg width="308.7270468663906" height="304.915625" viewBox="0 0 382.8515334245464 378.125"  xmlns="http://www.w3.org/2000/svg"><defs id="SvgjsDefs4117"></defs><g id="SvgjsG4118" featurekey="rootContainer" transform="matrix(3.6295027155947284,0,0,3.6295027155947284,-0.13616480831545666,0.10405868083706588)" fill="#393e46"><path xmlns="http://www.w3.org/2000/svg" d="M104.6 41.3a52.2 52.2 0 0 0-3.5-11.2A51.1 51.1 0 0 0 44.3 1a49.6 49.6 0 0 0-5.7 1.5 49.1 49.1 0 0 0-7.9 2.7A51.6 51.6 0 0 0 6.3 77a53.7 53.7 0 0 0 4.1 6.4 57 57 0 0 0 5 5.7 51.7 51.7 0 0 0 55.3 11.5l3.3-1.4 3-1.5a50.9 50.9 0 0 0 5.8-3.8l2.7-2.1 1.2-1.1 1.1-.9 2-1.8.7-.6.6-.7 1.8-2a48.5 48.5 0 0 0 5.9-8.3 50.4 50.4 0 0 0 5.6-14.7 51.6 51.6 0 0 0 .2-20.4zM87.1 88.6l-1.2 1.1-1.2 1.1-2.6 2.1a49.5 49.5 0 0 1-5.7 3.6l-3 1.5-3.2 1.3-4.9 1.6h-.5a50.9 50.9 0 0 1-20.3.1 51.8 51.8 0 0 1-11.1-3.6A50.5 50.5 0 0 1 22.9 91a52 52 0 0 1-9.1-9.4 50.3 50.3 0 0 1-3.7-5.7c-.6-1-1.1-2-1.6-3.1s-1-2.1-1.3-3.2a50.6 50.6 0 0 1 8.6-50.8l.8-.8.5-.6.6-.6 1.2-1.1 2.4-2.1A50.5 50.5 0 0 1 62.4 3.2a48.5 48.5 0 0 1 14.7 5.2 47 47 0 0 1 8.3 5.8l2 1.8.7.6.6.7 1.8 2a49.7 49.7 0 0 1 11.3 22.9 50.8 50.8 0 0 1-.1 20.2 51.6 51.6 0 0 1-3.6 11 50.2 50.2 0 0 1-6.6 10.5l-2.1 2.4zm-44.9 13a50.1 50.1 0 0 1-13.7-5 51.8 51.8 0 0 1-6.2-4 55.2 55.2 0 0 1-5.5-4.8 49.9 49.9 0 0 1-11-53.2c.4-1.1.9-2.1 1.3-3.1l.6-1.3a50.2 50.2 0 0 0-3.4 11 51.3 51.3 0 0 0 2.4 28.5c.4 1.1.9 2.2 1.4 3.2s1 2.1 1.6 3.1a50.6 50.6 0 0 0 3.7 5.8 51.5 51.5 0 0 0 9.2 9.5 50.9 50.9 0 0 0 10.7 6.5 51 51 0 0 0 28.7 3.9 50.3 50.3 0 0 1-19.8-.1zm61.9-39.9a50.2 50.2 0 0 1-5.5 14.7 48.4 48.4 0 0 1-5.8 8.3l-1.8 2-.6.7-.7.6-1.9 1.7h.2l2.3-2.4 2.1-2.5A51.3 51.3 0 0 0 98.9 74a51.4 51.4 0 0 0 3.2-31.6 49.6 49.6 0 0 0-2.5-8.2 49.4 49.4 0 0 0-3.1-6.5 48.7 48.7 0 0 0-5.9-8.3l-1.8-2-.6-.7-.7-.6-2-1.8A49.9 49.9 0 0 0 77.3 8a49.3 49.3 0 0 0-6.5-3.2 49.8 49.8 0 0 0-8.2-2.6A52.2 52.2 0 0 0 49.9 1a50.8 50.8 0 0 1 22.7 3.2l3.2 1.3 3.1 1.6a50.1 50.1 0 0 1 5.7 3.7l2.6 2.1 1.2 1.1 1.2 1.1 2.3 2.3 2.1 2.4a50.4 50.4 0 0 1 6.5 10.5 51.6 51.6 0 0 1 3.6 11 51.1 51.1 0 0 1 0 20.3z"></path></g><g id="SvgjsG4119" featurekey="symbolFeature-0" transform="matrix(1.8844147640429043,0,0,1.8844147640429043,101.48936061238592,31.796623754484933)" fill="#4ecca3"><g xmlns="http://www.w3.org/2000/svg"><path d="M61.623,47.5c0-15.598-12.688-28.288-28.287-28.288c-15.598,0-28.289,12.69-28.289,28.288   c0,15.599,12.691,28.288,28.289,28.288C48.934,75.788,61.623,63.099,61.623,47.5z M33.335,72.186   c-13.611,0-24.687-11.073-24.687-24.686c0-13.612,11.075-24.687,24.687-24.687c13.612,0,24.687,11.075,24.687,24.687   C58.022,61.112,46.948,72.186,33.335,72.186z"></path><path d="M38.9,48.012l-7.41-4.788c-0.883-0.604-1.294-1.301-1.294-2.185c-0.06-0.882,0.353-1.626,1.234-2.23   c0.883-0.604,1.882-0.79,2.999-0.65c1.118,0.139,2,0.604,2.53,1.394c0.883,1.07,2.529,1.441,3.88,0.837   c1.354-0.697,1.883-1.999,1.002-3.067c-1.119-1.627-3.001-2.789-5.176-3.3v-1.859c0-1.255-1.236-2.231-2.823-2.231   c-1.589,0-2.823,0.976-2.823,2.231v1.813c-1.177,0.325-2.294,0.744-3.235,1.441c-2.116,1.441-3.292,3.486-3.233,5.67   c0,2.184,1.235,4.23,3.41,5.578l7.352,4.787c0.94,0.559,1.412,1.442,1.472,2.325c0,0.976-0.472,1.766-1.413,2.37   c-0.883,0.604-1.94,0.836-3.177,0.697c-1.175-0.14-2.058-0.651-2.704-1.487c-0.765-1.069-2.47-1.441-3.822-0.837   c-1.353,0.697-1.824,1.998-1.059,3.067c1.235,1.72,3.057,2.836,5.469,3.439v1.813c0,1.255,1.235,2.231,2.823,2.231   c1.587,0,2.823-0.976,2.823-2.231v-1.813c1.176-0.325,2.352-0.79,3.353-1.487c2.116-1.441,3.352-3.532,3.352-5.81   C42.37,51.498,41.075,49.452,38.9,48.012z"></path><path d="M79.598,68.245H53.844c-3.634,3.594-8.205,6.243-13.31,7.543h39.063c0.746,0,1.351-0.605,1.351-1.351v-4.842   C80.949,68.85,80.344,68.245,79.598,68.245z"></path><path d="M88.603,59.689H59.845c-1.279,2.776-2.98,5.319-5.026,7.543h33.784c0.746,0,1.351-0.604,1.351-1.351v-4.842   C89.954,60.294,89.349,59.689,88.603,59.689z"></path><path d="M84.101,58.679c0.745,0,1.351-0.605,1.351-1.351v-4.842c0-0.746-0.605-1.35-1.351-1.35H62.29   c-0.329,2.639-1.007,5.17-1.995,7.543H84.101z"></path><path d="M88.603,42.58H62.101c0.272,1.601,0.422,3.243,0.422,4.92c0,0.885-0.045,1.759-0.123,2.624h26.203   c0.746,0,1.351-0.604,1.351-1.351v-4.842C89.954,43.185,89.349,42.58,88.603,42.58z"></path><path d="M75.095,41.568c0.746,0,1.352-0.604,1.352-1.351v-4.842c0-0.746-0.605-1.351-1.352-1.351H59.214   c1.229,2.347,2.15,4.877,2.702,7.543H75.095z"></path></g></g><g id="SvgjsG4120" featurekey="nameFeature-0" transform="matrix(2.944900840565722,0,0,2.944900840565722,84.28562616776445,149.29513760635137)" fill="#393e46"><path d="M2.28 15.52 l18.2 0 l0 5.56 l-12.2 0 l0 3.92 l9.8 0 l0 5.56 l-9.8 0 l0 3.88 l12.2 0 l0 5.56 l-18.2 0 l0 -24.48 z M42.877 34.44 l0 5.56 l-18.2 0 l0 -24.48 l6 0 l0 18.92 l12.2 0 z M61.87400000000001 35.04 l-9 0 l-1.76 4.96 l-6.52 0 l9.8 -24.48 l6 0 l9.8 24.48 l-6.56 0 z M54.834 29.48 l5.08 0 l-2.52 -7.12 z"></path></g><g id="SvgjsG4121" featurekey="nameFeature-1" transform="matrix(1.3253635441907,0,0,1.3253635441907,88.03118596436447,256.6954258516066)" fill="#393e46"><path d="M2.24 15.52 l6 0 l0 24.48 l-6 0 l0 -24.48 z M29.157 15.52 l6 0 l0 24.48 l-6 0 l-9.6 -14.32 l0 14.32 l-6 0 l0 -24.48 l6 0 l9.6 14.32 l0 -14.32 z M57.474000000000004 15.52 l6.56 0 l-9.8 24.48 l-6 0 l-9.8 -24.48 l6.52 0 l6.28 17.64 z M67.391 15.52 l18.2 0 l0 5.56 l-12.2 0 l0 3.92 l9.8 0 l0 5.56 l-9.8 0 l0 3.88 l12.2 0 l0 5.56 l-18.2 0 l0 -24.48 z M88.58800000000001 39.4 l0 -5.64 c0.48 0.12 1.08 0.24 1.76 0.32 c0.68 0.12 1.4 0.2 2.16 0.24 s1.52 0.08 2.32 0.12 s1.56 0.08 2.24 0.08 c1.88 0 3.2 -0.12 4 -0.32 c0.76 -0.2 1.16 -0.56 1.16 -1.12 c0 -0.48 -0.36 -0.84 -0.72 -1.12 c-1.32 -0.88 -2.88 -1.24 -4.44 -1.6 c-4.4 -0.88 -8.44 -2.64 -8.44 -7.68 c0 -5.96 5.64 -7.36 10.48 -7.36 c2.68 0 5.4 0.28 8 0.92 l0 5.64 c-0.4 -0.12 -0.92 -0.2 -1.56 -0.32 c-0.68 -0.08 -1.36 -0.16 -2.12 -0.24 c-1.56 -0.16 -3.04 -0.24 -4.6 -0.24 c-0.88 0 -2.72 0 -3.56 0.32 c-0.56 0.2 -0.92 0.44 -0.92 1.08 c0 0.32 0.08 0.6 0.24 0.84 c0.16 0.28 0.44 0.48 0.8 0.68 c1.08 0.6 2.48 0.96 3.68 1.24 c1 0.24 2 0.52 3.04 0.8 c3.52 0.96 5.84 2.92 5.84 6.68 c0 6.2 -6.16 7.52 -11.12 7.52 c-2.72 0 -5.56 -0.2 -8.24 -0.84 z M110.62500000000001 15.52 l20.4 0 l0 5.56 l-7.2 0 l0 18.92 l-6 0 l0 -18.92 l-7.2 0 l0 -5.56 z M134.942 15.52 l18.2 0 l0 5.56 l-12.2 0 l0 3.92 l9.8 0 l0 5.56 l-9.8 0 l0 3.88 l12.2 0 l0 5.56 l-18.2 0 l0 -24.48 z"></path></g></svg>