<svg width="613" height="536" viewBox="0 0 613 536" fill="none" xmlns="http://www.w3.org/2000/svg">
<g clip-path="url(#clip0_1776_166)">
<path d="M578 258C578 115.511 462.489 0 320 0C177.511 0 62 115.511 62 258C62 400.489 177.511 516 320 516C462.489 516 578 400.489 578 258Z" fill="url(#paint0_linear_1776_166)"/>
</g>
<path d="M612.355 496.979C612.355 497.174 475.361 497.317 306.413 497.317C137.465 497.317 0.445312 497.2 0.445312 496.979C0.445312 496.758 137.4 496.641 306.4 496.641C475.4 496.641 612.355 496.797 612.355 496.979Z" fill="#263238"/>
<path d="M519.301 436.88C519.119 436.88 517.611 430.666 515.934 422.918C514.257 415.17 513.1 408.8 513.217 408.8C513.334 408.8 514.907 415.014 516.597 422.775C518.287 430.536 519.496 436.841 519.301 436.88Z" fill="#263238"/>
<path d="M531.722 409.641L494.789 417.209L497.85 432.148L534.783 424.58L531.722 409.641Z" fill="white"/>
<path d="M534.771 424.595C534.655 424.247 534.563 423.89 534.498 423.529L533.822 420.552C533.263 417.952 532.457 414.247 531.469 409.71L531.755 409.892L494.9 417.562L495.16 417.159V417.25V417.38V417.614L495.264 418.108L495.459 419.083L495.849 421.02C496.122 422.32 496.369 423.62 496.629 424.816C497.136 427.312 497.63 429.743 498.111 432.07L497.721 431.823L524.137 426.558L531.937 425.076L534.03 424.686C534.278 424.626 534.53 424.587 534.784 424.569C534.571 424.653 534.348 424.714 534.121 424.751L532.106 425.206L524.488 426.857L497.916 432.46H497.604L497.5 432.2C497.019 429.873 496.512 427.442 496.005 424.946L495.225 421.15C495.082 420.513 494.952 419.85 494.822 419.213L494.627 418.238L494.523 417.757V417.51V417.393V417.289C494.523 417.38 495.03 416.535 494.796 416.899L531.742 409.424H531.976V409.645C532.873 414.26 533.588 418.017 534.108 420.682C534.342 421.917 534.511 422.905 534.654 423.633C534.797 424.361 534.784 424.608 534.771 424.595Z" fill="#263238"/>
<path d="M530.222 419.2C530.222 419.2 530.079 419.356 529.741 419.564C529.244 419.864 528.717 420.108 528.168 420.292C526.11 421.014 523.856 420.94 521.85 420.084C521.497 419.922 521.188 419.679 520.949 419.373C520.709 419.068 520.546 418.71 520.472 418.329C520.39 417.884 520.468 417.423 520.693 417.029C520.809 416.822 520.976 416.648 521.179 416.523C521.381 416.397 521.612 416.326 521.85 416.314C522.329 416.312 522.792 416.481 523.157 416.791C523.522 417.101 523.764 417.531 523.839 418.004C523.921 418.927 523.672 419.849 523.137 420.604C522.608 421.425 521.893 422.111 521.051 422.605C520.209 423.1 519.262 423.389 518.288 423.451C517.235 423.508 516.186 423.292 515.241 422.826C514.296 422.359 513.487 421.657 512.893 420.786C512.567 420.287 512.442 419.684 512.542 419.097C512.599 418.801 512.732 418.526 512.928 418.298C513.124 418.07 513.376 417.897 513.66 417.797C513.959 417.711 514.276 417.716 514.572 417.811C514.869 417.906 515.13 418.086 515.324 418.329C515.517 418.543 515.664 418.794 515.756 419.067C515.847 419.34 515.882 419.629 515.857 419.915C515.669 420.907 515.178 421.815 514.453 422.515C513.834 423.22 513.111 423.826 512.308 424.309C511.518 424.786 510.627 425.071 509.708 425.141C508.839 425.205 507.97 425.025 507.199 424.622C506.469 424.255 505.874 423.668 505.496 422.944C505.297 422.603 505.187 422.217 505.175 421.822C505.164 421.427 505.252 421.035 505.431 420.683C505.542 420.517 505.691 420.379 505.864 420.279C506.038 420.18 506.232 420.122 506.432 420.111C506.631 420.107 506.827 420.162 506.995 420.268C507.163 420.375 507.297 420.528 507.381 420.708C507.581 421.299 507.554 421.944 507.303 422.515C506.991 423.393 506.505 424.198 505.873 424.881C505.485 425.297 505.049 425.663 504.573 425.973C504.402 426.087 504.213 426.171 504.014 426.22C504.634 425.776 505.205 425.266 505.717 424.7C506.298 424.026 506.74 423.244 507.017 422.398C507.198 421.917 507.198 421.385 507.017 420.903C506.835 420.435 506.146 420.487 505.86 420.903C505.735 421.182 505.681 421.487 505.704 421.791C505.727 422.095 505.825 422.389 505.99 422.645C506.324 423.265 506.848 423.762 507.485 424.062C508.196 424.403 508.985 424.552 509.772 424.492C510.559 424.433 511.317 424.168 511.97 423.725C512.707 423.261 513.373 422.691 513.946 422.034C514.572 421.427 514.999 420.642 515.168 419.786C515.285 419.019 514.518 418.108 513.868 418.355C513.693 418.429 513.54 418.547 513.424 418.698C513.308 418.848 513.232 419.026 513.205 419.214C513.143 419.636 513.24 420.067 513.478 420.422C514.006 421.206 514.727 421.84 515.572 422.264C516.417 422.687 517.357 422.886 518.301 422.84C519.172 422.787 520.02 422.531 520.776 422.093C521.532 421.656 522.175 421.048 522.656 420.318C523.126 419.682 523.348 418.897 523.28 418.108C523.251 417.762 523.096 417.438 522.845 417.199C522.593 416.959 522.262 416.82 521.915 416.808C521.291 416.808 520.927 417.51 521.031 418.108C521.084 418.415 521.212 418.705 521.402 418.952C521.592 419.198 521.839 419.395 522.123 419.525C523.176 420.021 524.326 420.274 525.49 420.266C526.369 420.261 527.243 420.138 528.09 419.902C528.814 419.711 529.526 419.477 530.222 419.2Z" fill="#263238"/>
<path d="M558.042 368.786C552.452 371.776 547.538 376.443 545.341 382.397C543.144 388.351 544.99 397.269 549.436 401.806C557.626 402.638 565.699 394.006 569.911 386.947C574.123 379.888 575.371 371.438 576.177 363.248C569.871 364.096 563.745 365.966 558.042 368.786Z" fill="#455A64"/>
<path d="M548.707 429.015C548.534 428.442 548.417 427.855 548.356 427.26C548.148 426.129 547.953 424.465 547.784 422.411C546.981 411.638 548.511 400.819 552.269 390.691C552.997 388.767 553.647 387.22 554.154 386.193C554.38 385.632 554.663 385.096 554.999 384.594C554.849 385.178 554.649 385.747 554.401 386.297C553.972 387.35 553.387 388.897 552.724 390.847C550.993 395.919 549.74 401.142 548.98 406.447C548.252 411.739 548.013 417.087 548.265 422.424C548.369 424.465 548.499 426.129 548.616 427.273C548.707 427.849 548.737 428.432 548.707 429.015Z" fill="#263238"/>
<path d="M542.662 395.475C541.172 392.282 538.536 389.767 535.278 388.429C532.035 387.122 528.53 386.597 525.047 386.895C521.57 387.182 518.128 387.791 514.764 388.715C515.466 392.472 516.22 396.359 518.443 399.479C520.07 401.632 522.146 403.407 524.527 404.679C527.042 406.179 529.838 407.148 532.743 407.526C535.875 407.776 539.007 407.04 541.7 405.42C542.699 403.983 543.313 402.314 543.481 400.573C543.649 398.831 543.367 397.076 542.662 395.475Z" fill="#455A64"/>
<path d="M523.67 391.771C524.121 391.889 524.558 392.059 524.97 392.278C525.802 392.629 526.972 393.187 528.389 393.954C532.102 395.916 535.56 398.326 538.685 401.131C541.855 403.916 544.444 407.3 546.303 411.089C546.667 411.817 546.901 412.506 547.148 413.104C547.395 413.702 547.512 414.235 547.629 414.664C547.776 415.109 547.86 415.573 547.876 416.042C547.746 416.042 547.356 414.118 545.874 411.297C543.918 407.642 541.325 404.367 538.217 401.625C535.127 398.86 531.754 396.428 528.155 394.371C526.777 393.552 525.646 392.941 524.853 392.512C524.424 392.325 524.025 392.075 523.67 391.771Z" fill="#263238"/>
<path d="M547.733 425.7C532.471 424.907 516.182 433.24 505.08 444.147H593.701C580.597 436.009 562.982 426.441 547.733 425.7Z" fill="#AA6755"/>
<path d="M510.254 444.095C510.254 444.095 523.462 437.595 529.351 435.892C535.24 434.189 553.778 434.852 553.778 434.852L585.784 444.095H510.254Z" fill="#99584B"/>
<path d="M542.103 430.016C541.886 430.414 541.828 430.88 541.941 431.319C542.054 431.758 542.328 432.138 542.709 432.383C543.091 432.628 543.551 432.719 543.997 432.639C544.443 432.558 544.842 432.312 545.114 431.949C545.386 431.587 545.511 431.135 545.463 430.684C545.415 430.233 545.198 429.817 544.857 429.52C544.515 429.222 544.073 429.065 543.62 429.08C543.167 429.095 542.736 429.281 542.415 429.6" fill="#99584B"/>
<path d="M594.923 440.026H503.182V454.053H594.923V440.026Z" fill="#C0A1E2"/>
<path d="M578.998 497.59H517.924L508.746 449.802H589.359L578.998 497.59Z" fill="#C0A1E2"/>
<path d="M593.701 454.105C593.701 454.287 573.512 454.443 548.604 454.443C523.696 454.443 503.52 454.287 503.52 454.105C503.52 453.923 523.696 453.754 548.604 453.754C573.512 453.754 593.701 453.91 593.701 454.105Z" fill="#263238"/>
<g opacity="0.3">
<path d="M509.578 454.105C509.578 454.105 532.731 457.771 549.059 457.862C566.96 457.966 588.423 454.105 588.423 454.105H509.578Z" fill="black"/>
</g>
<path d="M581.442 486.358C581.442 486.54 566.739 486.696 548.604 486.696C530.469 486.696 515.766 486.54 515.766 486.358C515.766 486.176 530.469 486.007 548.604 486.007C566.739 486.007 581.442 486.163 581.442 486.358Z" fill="white"/>
<path d="M581.442 483.043C581.442 483.238 566.739 483.381 548.604 483.381C530.469 483.381 515.766 483.238 515.766 483.043C515.766 482.848 530.469 482.705 548.604 482.705C566.739 482.705 581.442 482.9 581.442 483.043Z" fill="white"/>
<path d="M47.0113 437.4C46.8293 437.4 45.3863 431.485 43.7743 424.101C42.1623 416.717 41.0313 410.711 41.1743 410.672C41.3173 410.633 42.7993 416.574 44.3983 423.958C45.9973 431.342 47.1933 437.309 47.0113 437.4Z" fill="#263238"/>
<path d="M58.8362 411.42L23.6738 418.625L26.5887 432.85L61.7511 425.645L58.8362 411.42Z" fill="white"/>
<path d="M61.7265 425.699C61.7265 425.699 61.6225 425.335 61.4665 424.685C61.3105 424.035 61.0895 423.034 60.8295 421.851C60.2835 419.342 59.5295 415.845 58.5805 411.529L58.8665 411.711L23.7665 419.017L24.0265 418.614V418.705V418.822V419.056L24.1305 419.524L24.3125 420.447C24.4425 421.071 24.5725 421.682 24.6895 422.293C24.9365 423.515 25.1835 424.711 25.4305 425.907C25.9115 428.286 26.3795 430.6 26.8345 432.823L26.4575 432.563L51.5995 427.545L58.9575 426.128L60.9595 425.764C61.4145 425.673 61.6615 425.647 61.6745 425.647C61.4743 425.73 61.2647 425.786 61.0505 425.816L59.1395 426.258L51.8855 427.831L26.6395 433.174L26.3145 433.239V432.927C25.8595 430.704 25.3785 428.39 24.8975 426.011C24.6505 424.828 24.4035 423.619 24.1435 422.397C24.0265 421.786 23.8965 421.175 23.7665 420.564L23.5845 419.628L23.4805 419.173V418.939V418.822V418.731L23.7535 418.328L58.9185 411.23H59.1525V411.464C59.9975 415.858 60.6865 419.42 61.1675 421.968C61.3885 423.138 61.5575 424.074 61.6875 424.776C61.7287 425.082 61.7417 425.391 61.7265 425.699Z" fill="#263238"/>
<path d="M57.3984 420.5C57.2664 420.636 57.1127 420.751 56.9434 420.838C56.4741 421.129 55.9724 421.365 55.4484 421.54C53.4889 422.234 51.3399 422.164 49.4294 421.345C49.0953 421.188 48.8032 420.954 48.5772 420.663C48.3511 420.371 48.1977 420.03 48.1294 419.668C48.064 419.253 48.1371 418.828 48.3374 418.459C48.4543 418.262 48.6171 418.097 48.8118 417.977C49.0065 417.857 49.2273 417.786 49.4554 417.77C49.9161 417.768 50.3618 417.933 50.7106 418.234C51.0593 418.535 51.2876 418.952 51.3534 419.408C51.4605 420.302 51.2235 421.203 50.6904 421.93C50.1731 422.75 49.46 423.428 48.6154 423.904C47.7707 424.381 46.821 424.639 45.8515 424.657C44.8821 424.675 43.9233 424.452 43.0615 424.008C42.1997 423.563 41.4619 422.912 40.9144 422.112C40.5999 421.637 40.4704 421.063 40.5504 420.5C40.6016 420.208 40.7281 419.934 40.9174 419.706C41.1066 419.478 41.352 419.304 41.6294 419.2C41.9176 419.119 42.2229 419.126 42.5073 419.219C42.7917 419.311 43.0425 419.485 43.2284 419.72C43.4159 419.923 43.5581 420.163 43.6455 420.426C43.7329 420.688 43.7635 420.966 43.7354 421.241C43.5776 422.193 43.1226 423.071 42.4354 423.75C41.8489 424.421 41.1601 424.996 40.3944 425.453C39.6533 425.907 38.8166 426.183 37.9504 426.259C37.1262 426.308 36.3039 426.133 35.5714 425.752C34.8684 425.401 34.2948 424.837 33.9334 424.14C33.7513 423.811 33.6557 423.442 33.6557 423.067C33.6557 422.692 33.7513 422.323 33.9334 421.995C34.0424 421.836 34.1852 421.704 34.3516 421.607C34.518 421.51 34.7037 421.452 34.8954 421.436C35.0872 421.436 35.2749 421.491 35.4363 421.595C35.5976 421.698 35.7257 421.846 35.8054 422.021C35.9987 422.586 35.9709 423.204 35.7274 423.75C35.4512 424.576 35.0088 425.337 34.4274 425.986C34.0479 426.395 33.6098 426.745 33.1274 427.026C32.8024 427.221 32.6204 427.286 32.6074 427.26C33.1991 426.838 33.7439 426.354 34.2324 425.817C34.7729 425.171 35.1795 424.424 35.4284 423.62C35.6036 423.163 35.6036 422.659 35.4284 422.203C35.3745 422.105 35.2954 422.024 35.1993 421.967C35.1033 421.911 34.9939 421.881 34.8824 421.881C34.771 421.881 34.6615 421.911 34.5655 421.967C34.4695 422.024 34.3904 422.105 34.3364 422.203C34.2217 422.467 34.1735 422.756 34.1962 423.044C34.2188 423.332 34.3116 423.61 34.4664 423.854C34.7915 424.424 35.287 424.879 35.8834 425.154C36.5582 425.477 37.3063 425.618 38.0525 425.56C38.7987 425.503 39.5167 425.251 40.1344 424.829C40.8408 424.395 41.4765 423.856 42.0194 423.23C42.617 422.656 43.0213 421.911 43.1764 421.098C43.2934 420.37 42.5654 419.525 41.9414 419.798C41.777 419.867 41.6332 419.978 41.5239 420.119C41.4146 420.26 41.3435 420.427 41.3174 420.604C41.2586 421.004 41.3513 421.412 41.5774 421.748C42.0824 422.473 42.7639 423.058 43.5578 423.447C44.3517 423.836 45.2316 424.016 46.1144 423.971C46.9423 423.922 47.7473 423.68 48.4651 423.265C49.1829 422.85 49.7936 422.272 50.2484 421.579C50.6936 420.976 50.906 420.233 50.8464 419.486C50.8111 419.166 50.6587 418.871 50.4186 418.657C50.1785 418.444 49.8678 418.327 49.5464 418.329C48.9614 418.329 48.6234 418.992 48.7144 419.629C48.7734 419.91 48.8969 420.174 49.0751 420.399C49.2533 420.625 49.4814 420.806 49.7414 420.929C50.7461 421.399 51.8432 421.639 52.9524 421.631C53.8 421.629 54.6437 421.516 55.4614 421.293C56.7094 420.877 57.3724 420.409 57.3984 420.5Z" fill="#263238"/>
<path d="M67.3425 428.365C48.2585 427.416 36.8965 436.568 36.8965 436.568H100.596C90.1426 431.72 78.8516 428.935 67.3425 428.365Z" fill="#AA6755"/>
<path d="M85.9721 337.859C80.2001 340.992 75.0001 345.88 72.6991 352.094C70.3981 358.308 72.4001 367.629 76.9761 372.4C85.5431 373.271 93.9801 364.275 98.3741 356.878C102.768 349.481 104.081 340.667 104.874 332.1C98.4001 333.192 91.8221 334.7 85.9721 337.859Z" fill="#455A64"/>
<path d="M66.9653 429.6C66.8798 429.338 66.8231 429.068 66.7963 428.794C66.7183 428.261 66.5623 427.494 66.4713 426.467C66.16 423.596 66.0254 420.709 66.0683 417.822C66.23 408.287 67.5616 398.809 70.0333 389.599C72.4707 380.387 75.8331 371.445 80.0693 362.91C80.9013 361.285 81.6293 359.803 82.3053 358.529L84.0993 355.253L85.2953 353.225C85.421 352.986 85.569 352.76 85.7373 352.549C85.6616 352.813 85.5523 353.066 85.4123 353.303C85.1263 353.836 84.7753 354.525 84.3333 355.383L82.5913 358.659L80.4463 363.092C76.357 371.648 73.0712 380.565 70.6313 389.729C68.1807 398.89 66.7936 408.304 66.4973 417.783C66.3673 421.423 66.4973 424.374 66.6793 426.402C66.6793 427.416 66.8483 428.196 66.8743 428.742C66.9332 429.024 66.9637 429.311 66.9653 429.6Z" fill="#263238"/>
<path d="M61.5965 399.856C60.293 397.031 57.9717 394.803 55.0965 393.616C52.2109 392.458 49.0947 391.99 45.9965 392.251C42.9211 392.516 39.8757 393.055 36.8965 393.863C37.5205 397.191 38.1965 400.636 40.1595 403.392C41.6014 405.288 43.4376 406.85 45.5415 407.968C47.7712 409.293 50.2489 410.147 52.8215 410.477C55.6078 410.731 58.4027 410.093 60.8035 408.657C61.6724 407.378 62.2012 405.899 62.34 404.359C62.4787 402.819 62.2228 401.269 61.5965 399.856Z" fill="#455A64"/>
<path d="M84.3994 401.689C88.0061 402.333 91.7228 401.585 94.7994 399.596C97.847 397.613 100.385 394.941 102.209 391.796C104.03 388.663 105.558 385.369 106.772 381.955C103.158 380.317 99.3884 378.64 95.4234 378.692C92.6228 378.803 89.8805 379.526 87.3894 380.811C84.6169 382.06 82.1303 383.865 80.0834 386.115C77.9764 388.63 76.7163 391.746 76.4824 395.02C77.1204 396.716 78.1835 398.22 79.5698 399.388C80.9561 400.556 82.6191 401.348 84.3994 401.689Z" fill="#455A64"/>
<path d="M44.7871 396.58C45.1894 396.673 45.5782 396.818 45.9441 397.009C46.6721 397.321 47.7251 397.802 48.9731 398.478C52.2707 400.23 55.3365 402.388 58.0991 404.9C60.9098 407.372 63.203 410.377 64.8461 413.74C65.3301 414.76 65.7217 415.822 66.0161 416.912C66.1421 417.308 66.2122 417.719 66.2241 418.134C66.0941 418.134 65.7431 416.431 64.4171 413.948C62.6896 410.714 60.3955 407.817 57.6441 405.394C54.9043 402.949 51.9203 400.793 48.7391 398.959C46.3081 397.451 44.7221 396.697 44.7871 396.58Z" fill="#263238"/>
<path d="M87.2323 388.156C87.2323 388.273 85.9323 388.585 83.8133 389.456C81.1164 390.657 78.5899 392.209 76.2993 394.071C73.9936 395.905 71.8771 397.965 69.9813 400.22C68.5253 401.962 67.7453 403.132 67.6543 403.08C68.1488 401.943 68.8057 400.883 69.6043 399.934C71.4148 397.546 73.5202 395.397 75.8703 393.538C78.2248 391.648 80.8554 390.131 83.6703 389.04C84.1548 388.852 84.6496 388.691 85.1523 388.559C85.5214 388.435 85.8995 388.339 86.2833 388.273C86.8813 388.156 87.2323 388.104 87.2323 388.156Z" fill="#263238"/>
<path d="M100.557 436.567H34.7773V521.899H100.557V436.567Z" fill="#E0E0E0"/>
<path d="M100.311 442.6C100.311 442.782 85.6987 442.938 67.6677 442.938C49.6367 442.938 35.0117 442.782 35.0117 442.6C35.0117 442.418 49.6237 442.262 67.6677 442.262C85.7117 442.262 100.311 442.366 100.311 442.6Z" fill="#263238"/>
<path d="M100.311 449.905C100.311 450.087 85.6987 450.243 67.6677 450.243C49.6367 450.243 35.0117 450.087 35.0117 449.905C35.0117 449.723 49.6237 449.567 67.6677 449.567C85.7117 449.567 100.311 449.71 100.311 449.905Z" fill="#263238"/>
<path d="M100.311 457.25C100.311 457.432 85.6987 457.588 67.6677 457.588C49.6367 457.588 35.0117 457.432 35.0117 457.25C35.0117 457.068 49.6237 456.899 67.6677 456.899C85.7117 456.899 100.311 457.055 100.311 457.25Z" fill="#263238"/>
<path d="M100.311 464.596C100.311 464.778 85.6987 464.934 67.6677 464.934C49.6367 464.934 35.0117 464.778 35.0117 464.596C35.0117 464.414 49.6237 464.258 67.6677 464.258C85.7117 464.258 100.311 464.401 100.311 464.596Z" fill="#263238"/>
<path d="M100.311 471.941C100.311 472.123 85.6987 472.279 67.6677 472.279C49.6367 472.279 35.0117 472.123 35.0117 471.941C35.0117 471.759 49.6237 471.603 67.6677 471.603C85.7117 471.603 100.311 471.759 100.311 471.941Z" fill="#263238"/>
<path d="M100.311 479.286C100.311 479.468 85.6987 479.624 67.6677 479.624C49.6367 479.624 35.0117 479.468 35.0117 479.286C35.0117 479.104 49.6237 479 67.6677 479C85.7117 479 100.311 479.104 100.311 479.286Z" fill="#263238"/>
<path d="M100.311 486.631C100.311 486.813 85.6987 486.969 67.6677 486.969C49.6367 486.969 35.0117 486.813 35.0117 486.631C35.0117 486.449 49.6237 486.293 67.6677 486.293C85.7117 486.293 100.311 486.449 100.311 486.631Z" fill="#263238"/>
<path d="M100.311 493.976C100.311 494.171 85.6987 494.314 67.6677 494.314C49.6367 494.314 35.0117 494.171 35.0117 493.976C35.0117 493.781 49.6237 493.638 67.6677 493.638C85.7117 493.638 100.311 493.794 100.311 493.976Z" fill="#263238"/>
<path d="M100.311 501.32C100.311 501.515 85.6987 501.658 67.6677 501.658C49.6367 501.658 35.0117 501.515 35.0117 501.32C35.0117 501.125 49.6237 500.982 67.6677 500.982C85.7117 500.982 100.311 501.099 100.311 501.32Z" fill="#263238"/>
<path d="M100.311 508.665C100.311 508.86 85.6987 509.003 67.6677 509.003C49.6367 509.003 35.0117 508.86 35.0117 508.665C35.0117 508.47 49.6237 508.327 67.6677 508.327C85.7117 508.327 100.311 508.483 100.311 508.665Z" fill="#263238"/>
<path d="M100.311 516.011C100.311 516.206 85.6987 516.349 67.6677 516.349C49.6367 516.349 35.0117 516.206 35.0117 516.011C35.0117 515.816 49.6237 515.673 67.6677 515.673C85.7117 515.673 100.311 515.829 100.311 516.011Z" fill="#263238"/>
<path d="M399.247 93.5367C401.959 93.8074 404.676 93.0782 406.888 91.4862C409.1 89.8942 410.654 87.5491 411.259 84.8917C404.95 87.7739 397.802 88.2365 391.174 86.1917C395.348 83.0761 398.425 78.7152 399.96 73.7379C401.496 68.7607 401.41 63.4244 399.717 58.4986C398.023 53.5729 394.809 49.3124 390.538 46.3316C386.266 43.3508 381.158 41.8038 375.951 41.9137C365.551 42.1477 353.786 53.1717 350.887 63.1167L364.771 86.2047C366.927 90.6868 370.179 94.5521 374.227 97.4425C378.275 100.333 382.986 102.155 387.925 102.74C392.865 103.324 397.872 102.653 402.482 100.787C407.093 98.9216 411.158 95.9225 414.301 92.0677C409.573 94.17 404.292 94.6854 399.247 93.5367Z" fill="#263238"/>
<path d="M392.265 149.333C385.336 101.233 373.064 48.5048 304.398 53.4188C304.398 53.4188 257.494 63.0388 237.396 94.2778C225.566 112.647 219.911 190.361 217.896 252.878C217.805 255.478 218.871 273.184 218.793 275.667L400.572 290.799L422.347 284.299C422.347 284.299 396.581 179.22 392.265 149.333Z" fill="#263238"/>
<path d="M295.258 71.3196L299.561 67.2246L345.984 85.9316C349.22 86.1211 352.269 87.5127 354.532 89.8335C356.795 92.1543 358.109 95.2368 358.217 98.4766L357.814 249.745C357.814 260.002 355.812 268.894 349.624 277.045L343.124 285.651C328.265 305.281 297.624 303.669 285.924 282.037C285.204 280.815 284.649 279.504 284.273 278.137C283.983 277.023 283.753 275.895 283.584 274.757C282.206 262.589 282.128 252.033 282.128 252.033C281.296 238.669 281.023 233.183 281.023 233.313C281.023 233.443 252.592 230.037 244.896 193.546C241.074 175.346 241.802 150.412 242.868 125.829C244.324 91.8336 267.919 71.2806 295.258 71.3196Z" fill="#FFBF9D"/>
<path d="M304.775 150.75C304.826 151.98 305.354 153.142 306.247 153.989C307.14 154.836 308.328 155.301 309.559 155.287C310.162 155.304 310.762 155.201 311.325 154.983C311.887 154.765 312.4 154.437 312.833 154.018C313.267 153.599 313.612 153.097 313.849 152.543C314.086 151.988 314.21 151.392 314.213 150.789C314.166 149.558 313.639 148.394 312.745 147.546C311.851 146.699 310.661 146.234 309.429 146.252C308.827 146.235 308.226 146.338 307.664 146.556C307.102 146.774 306.589 147.102 306.155 147.521C305.722 147.94 305.376 148.442 305.139 148.996C304.902 149.551 304.779 150.147 304.775 150.75Z" fill="#263238"/>
<path d="M256.779 150.749C256.83 151.982 257.36 153.145 258.256 153.993C259.152 154.84 260.343 155.304 261.576 155.286C262.179 155.302 262.778 155.197 263.339 154.979C263.901 154.76 264.413 154.432 264.846 154.013C265.28 153.594 265.625 153.094 265.863 152.54C266.1 151.986 266.225 151.391 266.23 150.788C266.183 149.557 265.656 148.393 264.762 147.546C263.868 146.698 262.678 146.233 261.446 146.251C260.842 146.232 260.241 146.334 259.677 146.551C259.113 146.769 258.599 147.096 258.164 147.516C257.729 147.935 257.382 148.437 257.144 148.992C256.907 149.548 256.782 150.145 256.779 150.749Z" fill="#263238"/>
<path d="M247.692 135.565C248.303 136.15 251.748 133.329 256.792 133.082C261.836 132.835 265.71 135.201 266.23 134.551C266.49 134.265 265.84 133.251 264.163 132.081C261.888 130.668 259.232 129.991 256.558 130.144C253.92 130.274 251.39 131.234 249.33 132.887C247.9 134.174 247.393 135.305 247.692 135.565Z" fill="#263238"/>
<path d="M299.225 136.099C299.901 136.619 303.034 133.499 308.052 132.693C313.07 131.887 317.152 133.876 317.607 133.174C317.828 132.862 317.074 131.874 315.28 130.925C312.86 129.749 310.134 129.354 307.48 129.794C304.862 130.18 302.438 131.397 300.564 133.265C299.251 134.682 298.9 135.865 299.225 136.099Z" fill="#263238"/>
<path d="M281.48 173.058C281.48 172.772 278.308 172.382 273.16 171.979C271.86 171.914 270.56 171.719 270.352 170.848C270.144 169.977 270.469 168.495 271.028 166.948C272.094 163.75 273.199 160.448 274.369 156.886C278.984 142.586 282.26 130.808 281.688 130.626C281.116 130.444 276.891 141.91 272.276 156.236C271.158 159.759 270.105 163.126 269.091 166.35C268.675 167.845 267.921 169.561 268.675 171.472C268.889 171.919 269.201 172.311 269.588 172.619C269.976 172.928 270.428 173.145 270.911 173.253C271.635 173.42 272.379 173.485 273.121 173.448C278.282 173.5 281.48 173.344 281.48 173.058Z" fill="#263238"/>
<path d="M280.984 233.299C298.322 232.696 315.152 227.295 329.604 217.699C329.604 217.699 318.489 243.79 281.504 242.191L280.984 233.299Z" fill="#FF9A6C"/>
<path d="M284.301 185.2C285.202 183.933 286.411 182.918 287.816 182.251C289.22 181.584 290.771 181.288 292.322 181.391C293.448 181.436 294.554 181.708 295.573 182.19C296.591 182.673 297.502 183.356 298.25 184.199C298.971 185.012 299.424 186.026 299.55 187.105C299.675 188.183 299.467 189.275 298.952 190.231C297.652 192.22 294.844 192.831 292.452 192.246C290.011 191.518 287.74 190.312 285.77 188.697C285.176 188.318 284.656 187.834 284.236 187.267C284.037 186.996 283.924 186.672 283.91 186.336C283.896 186.001 283.982 185.668 284.158 185.382" fill="#FF9A6C"/>
<path d="M296.598 175.827C295.779 175.827 296.039 181.326 291.515 185.473C286.991 189.62 281.115 189.308 281.115 190.088C281.115 190.439 282.48 191.089 285.015 191.037C288.248 190.919 291.336 189.668 293.738 187.501C296.041 185.416 297.44 182.515 297.638 179.415C297.664 177.101 296.975 175.775 296.598 175.827Z" fill="#263238"/>
<path d="M294.362 116.3C295.064 117.6 299.978 116.17 305.984 115.975C311.99 115.78 317.008 116.664 317.606 115.325C317.866 114.675 316.839 113.518 314.707 112.491C311.892 111.265 308.835 110.696 305.767 110.827C302.7 110.958 299.702 111.784 297.001 113.245C294.973 114.441 294.05 115.689 294.362 116.3Z" fill="#263238"/>
<path d="M248.421 113.7C249.37 114.805 252.815 113.44 257.014 113.167C261.213 112.894 264.814 113.557 265.581 112.309C265.906 111.698 265.295 110.58 263.683 109.566C261.541 108.324 259.063 107.783 256.598 108.019C254.129 108.192 251.773 109.123 249.851 110.684C248.434 111.997 248.005 113.206 248.421 113.7Z" fill="#263238"/>
<path d="M357.294 163.1C357.294 163.1 331.294 171.199 316.565 107.005C311.534 85.0607 291.189 67.2896 291.189 67.2896L299.444 64.8066C299.444 64.8066 350.729 79.1846 351.587 79.8996C352.445 80.6146 364.522 106.42 364.522 106.42L357.294 163.1Z" fill="#263238"/>
<path d="M350.887 160.642C350.757 157.899 353.604 151.282 356.282 150.723C363.458 149.241 376.51 149.163 377.55 167.506C378.967 192.596 353.5 188.839 353.409 188.124C353.318 187.409 351.342 170.106 350.887 160.642Z" fill="#FFBF9D"/>
<path d="M360.532 178.193C360.636 178.102 360.987 178.479 361.741 178.765C362.805 179.16 363.983 179.118 365.017 178.648C367.617 177.53 369.606 173.201 369.463 168.677C369.406 166.523 368.868 164.408 367.89 162.489C367.611 161.719 367.15 161.027 366.545 160.475C365.94 159.922 365.211 159.525 364.419 159.317C363.913 159.211 363.386 159.282 362.927 159.519C362.467 159.756 362.104 160.143 361.897 160.617C361.611 161.345 361.793 161.839 361.663 161.917C361.533 161.995 361.104 161.54 361.247 160.487C361.351 159.858 361.667 159.285 362.144 158.862C362.803 158.3 363.658 158.019 364.523 158.082C366.46 158.082 368.306 159.785 369.307 161.709C370.492 163.822 371.148 166.19 371.218 168.612C371.348 173.682 369.021 178.557 365.459 179.805C364.797 180.039 364.092 180.122 363.395 180.048C362.697 179.974 362.025 179.744 361.429 179.376C360.61 178.804 360.454 178.245 360.532 178.193Z" fill="#FF9A6C"/>
<path d="M313.121 113.79C311.353 107.29 309.442 101.076 307.349 95.5903C305.539 90.7156 303.367 85.9834 300.849 81.4333C299.148 78.3611 297.228 75.4155 295.103 72.6193C294.362 71.6183 293.725 70.9033 293.309 70.3963C293.112 70.1293 292.89 69.8813 292.646 69.6553C292.801 69.9489 292.988 70.2237 293.205 70.4743C293.582 71.0073 294.193 71.7743 294.895 72.7753C296.928 75.6145 298.778 78.5802 300.433 81.6543C302.897 86.2144 305.031 90.9455 306.816 95.8113C308.87 101.297 310.716 107.511 312.51 114.011C314.304 120.511 315.708 126.855 317.983 132.302C319.04 134.893 320.347 137.374 321.883 139.712C323.269 141.725 324.883 143.57 326.693 145.211C329.306 147.61 332.452 149.353 335.872 150.294C337.116 150.639 338.402 150.81 339.693 150.801C339.693 150.71 338.315 150.71 335.936 150.034C332.596 149.018 329.538 147.238 327.005 144.834C325.249 143.199 323.688 141.367 322.351 139.374C320.844 137.063 319.573 134.607 318.555 132.042" fill="#263238"/>
<path d="M155.197 401.247C155.197 401.247 182.588 314.381 188.997 301.55C198.877 281.946 209.069 274.575 219.456 269.856C227.399 266.242 225.384 420.357 225.384 420.357C225.384 420.357 165.48 417.068 155.197 401.247Z" fill="#C0A1E2"/>
<path d="M399.558 257.48L358.218 249.68C358.218 249.68 353.655 277.825 317.71 274.796C281.765 271.767 281.921 252.072 281.921 252.072L218.65 270.168L219.833 298.638L224.695 420.305C224.695 420.305 232.352 474.905 231.299 481.405C230.246 487.905 244.156 514.659 244.156 514.659L422.334 509.394L427.69 443.9L431.2 421.8L487.334 398.816C489.167 395.8 472.826 339.016 454.236 299.561C449.093 288.727 441.457 279.266 431.953 271.951C422.449 264.637 411.348 259.678 399.558 257.48Z" fill="#C0A1E2"/>
<path d="M478.39 402.3C478.39 402.3 489.466 473.163 488.569 484.746C487.672 496.329 476.934 515.946 454.236 520.028C431.538 524.11 378.225 508.12 378.225 508.12L374 474.151L383.776 473.254C383.776 473.254 412.376 473.319 417.576 472.305C422.776 471.291 433.475 466.611 433.475 466.611L431.837 421.436L478.39 402.3Z" fill="#FFBF9D"/>
<path d="M433.449 467.3C433.797 466.789 434.238 466.348 434.749 466C436.07 465.021 437.553 464.281 439.13 463.816C444.363 462.292 449.932 462.369 455.12 464.037C457.983 464.985 460.572 466.619 462.66 468.795C464.36 470.55 465.722 472.604 466.677 474.853C467.333 476.36 467.771 477.954 467.977 479.585C468.079 480.178 468.079 480.785 467.977 481.379C467.568 479.235 466.936 477.139 466.092 475.126C465.088 472.994 463.725 471.05 462.062 469.38C460.043 467.341 457.571 465.809 454.847 464.908C449.819 463.326 444.452 463.164 439.338 464.44C437.224 465.043 435.231 466.011 433.449 467.3Z" fill="#FF9A6C"/>
<path d="M169.9 410.45C169.9 410.45 162.854 480.65 163.855 492.207C164.856 503.764 175.035 527.203 197.772 531.116C220.509 535.029 273.666 518.428 273.666 518.428L275.499 472.798C275.499 472.798 264.501 469.899 257.377 477.595C249.681 485.902 237.032 483.562 233.977 482.99C229.264 481.909 224.612 480.577 220.041 478.999L224.695 420.317L169.9 410.45Z" fill="#FFBF9D"/>
<path d="M220.041 479C218.167 477.707 216.095 476.728 213.905 476.101C208.594 474.652 203.006 474.545 197.642 475.789C194.746 476.555 192.099 478.06 189.959 480.157C188.19 481.866 186.742 483.878 185.682 486.098C184.793 488.186 184.139 490.366 183.732 492.598C183.639 491.982 183.639 491.355 183.732 490.739C183.908 489.035 184.346 487.369 185.032 485.799C186.042 483.458 187.489 481.331 189.296 479.533C191.511 477.282 194.29 475.67 197.343 474.866C202.856 473.571 208.614 473.773 214.022 475.451C215.664 475.946 217.214 476.706 218.611 477.7C218.991 477.964 219.344 478.265 219.664 478.597C219.963 478.831 220.067 479 220.041 479Z" fill="#FF9A6C"/>
<path d="M270.508 475.945L275.513 472.799L295.169 481.691C295.169 481.691 310.6 480.703 313.577 484.473C316.554 488.243 324.549 494.236 320.246 508.926C315.943 523.616 300.746 529.83 300.746 529.83L276.813 519.677L267.297 504.896L269.494 488.438L270.508 475.945Z" fill="#FFBF9D"/>
<path d="M389.601 474.931L387.001 474.06C383.766 472.962 380.319 472.632 376.935 473.097C373.55 473.562 370.32 474.808 367.501 476.738L361.651 480.729C361.651 480.729 346.233 479.741 343.256 483.498C340.279 487.255 332.271 493.274 336.574 507.964C340.877 522.654 356.074 528.868 356.074 528.868L380.007 518.715L389.601 503.921L398.818 476.621L389.601 474.931Z" fill="#FFBF9D"/>
<path d="M379.811 482.081C377.211 476.504 371.465 473.072 365.654 471.083C359.843 469.094 353.668 468.21 347.974 465.883C338.874 462.191 330.632 454.807 320.856 455.483C315.071 455.899 309.923 459.149 305.061 462.295L285.366 475.1C282.433 476.833 279.719 478.91 277.28 481.288C274.825 483.687 273.3 486.879 272.977 490.297L377.12 493.404C381.046 491.61 381.618 485.994 379.811 482.081Z" fill="#AA6755"/>
<path d="M278.346 497.2C276.606 495.635 275.196 493.739 274.199 491.623C273.729 490.555 273.576 489.374 273.758 488.222C273.94 487.069 274.45 485.993 275.226 485.123C276.877 483.576 279.36 483.602 281.518 482.978C285.834 481.743 288.863 477.908 292.191 474.84C295.519 471.772 300.277 469.198 304.359 471.135C307.644 466.434 312.61 463.176 318.23 462.035C323.838 460.964 329.643 462.105 334.428 465.22C337.366 467.157 340.07 469.887 343.528 470.251C345.855 470.498 348.182 469.614 350.509 469.887C354.279 470.316 357.087 473.566 360.597 475.087C365.147 476.998 370.802 475.867 374.741 478.87C377.588 481.054 378.745 484.928 378.641 488.555C378.303 497.655 370.841 505.208 362.339 508.198C353.837 511.188 344.646 510.538 335.754 509.498C316.696 507.327 297.716 503.674 279.646 497.122" fill="#AA6755"/>
<path d="M379.2 491.778C379.037 489.501 378.157 487.335 376.685 485.59C375.214 483.845 373.226 482.612 371.01 482.067C368.914 481.788 366.805 481.618 364.692 481.56C360.597 481.092 356.346 479.103 352.576 480.741C350.418 481.69 348.871 483.679 346.752 484.706C344.334 485.876 341.552 485.629 338.809 485.603C336.066 485.577 333.154 485.915 331.295 487.865C329.696 489.568 328.695 492.506 326.381 492.493C323.781 492.493 322.923 488.788 320.583 487.644C318.698 486.721 316.358 487.722 314.356 487.098C312.354 486.474 311.353 484.758 309.715 483.744C307.466 482.327 304.593 482.444 301.915 482.717L292.815 483.458C286.016 484.017 278.515 484.875 273.848 489.815C273.848 489.815 303.098 511.72 328.266 508.444C353.434 505.168 379.2 491.778 379.2 491.778Z" fill="#99584B"/>
<path d="M252.346 483.459C254.384 481.366 256.555 479.408 258.846 477.596C264.944 484.439 272.195 490.159 280.27 494.496C281.57 491.831 285.795 485.799 290.67 486.696C291.945 486.805 293.127 487.412 293.958 488.385C294.79 489.358 295.206 490.619 295.116 491.896C296.156 489.296 299.016 484.811 303.67 485.76C308.324 486.709 309.195 492.572 309.195 492.572C310.495 490.375 313.849 489.27 313.849 489.27C320.609 489.4 320.271 496.771 320.271 496.771H320.388C321.132 496.46 321.941 496.337 322.744 496.412C323.546 496.486 324.318 496.757 324.992 497.2C325.666 497.643 326.221 498.244 326.608 498.951C326.995 499.658 327.203 500.45 327.213 501.256C327.369 506.001 327.512 514.074 326.875 516.856C325.939 520.938 318.399 520.379 318.399 520.379C318.399 520.379 316.28 529.479 315.721 532.378C315.162 535.277 311.886 534.705 307.921 534.978C303.956 535.251 299.276 532.547 299.276 532.547C299.276 532.547 293.595 537.032 287.225 535.459C285.255 534.882 283.423 533.912 281.839 532.607C280.255 531.302 278.952 529.689 278.008 527.867C278.008 527.867 270.494 526.567 265.892 523.031C261.29 519.495 258.3 510.616 258.3 510.616C253.1 510.161 250.123 505.338 250.123 505.338L252.346 483.459Z" fill="#FFBF9D"/>
<path d="M270.508 525.982C270.059 525.879 269.623 525.727 269.208 525.527C267.98 524.963 266.842 524.223 265.828 523.33C262.368 520.09 259.848 515.976 258.535 511.422L258.977 511.734C257.033 511.812 255.121 511.225 253.556 510.07C252.743 509.496 251.998 508.833 251.333 508.094C250.584 507.347 249.983 506.465 249.565 505.494C249.151 504.436 249.021 503.289 249.188 502.166C249.37 501.152 249.552 500.151 249.721 499.163C250.085 497.2 250.423 495.263 250.748 493.495C251.411 489.933 252.048 486.696 252.542 483.901C253.001 482.684 253.669 481.557 254.518 480.573C255.207 479.702 255.818 478.974 256.351 478.402C256.854 477.765 257.43 477.189 258.067 476.686C257.639 477.373 257.157 478.026 256.624 478.636C256.156 479.247 255.571 479.936 254.934 480.885C254.19 481.824 253.602 482.878 253.192 484.005C252.724 486.813 252.178 490.05 251.593 493.625L250.618 499.306C250.449 500.294 250.28 501.295 250.098 502.309C249.952 503.265 250.064 504.244 250.423 505.143C252.126 508.419 255.623 511.071 258.925 510.85H259.263L259.367 511.175C260.604 515.591 262.949 519.618 266.179 522.875C267.493 524.079 268.946 525.122 270.508 525.982Z" fill="#FF9A6C"/>
<path d="M257.104 490.7C257.669 490.667 258.236 490.729 258.781 490.882C260.292 491.149 261.776 491.554 263.214 492.091C265.392 492.866 267.391 494.073 269.09 495.64C271.235 497.591 272.617 500.24 272.99 503.115C273.149 504.567 272.942 506.035 272.388 507.386C271.834 508.737 270.95 509.928 269.818 510.85C268.83 511.67 267.632 512.197 266.36 512.371C265.264 512.485 264.156 512.365 263.11 512.02C261.703 511.477 260.243 511.081 258.755 510.837C257.715 510.746 257.143 510.954 257.117 510.837C257.615 510.542 258.191 510.406 258.768 510.447C260.304 510.558 261.82 510.864 263.279 511.357C264.241 511.633 265.249 511.713 266.243 511.591C267.366 511.406 268.416 510.911 269.272 510.161C270.275 509.316 271.056 508.237 271.545 507.02C272.035 505.803 272.219 504.485 272.08 503.18C271.728 500.524 270.475 498.069 268.531 496.225C266.926 494.699 265.047 493.49 262.993 492.663C259.444 491.194 257.065 490.804 257.104 490.7Z" fill="#FF9A6C"/>
<path d="M272.716 490.544C272.976 490.648 272.456 492.143 271.507 493.703C270.558 495.263 269.765 496.537 269.531 496.433C269.297 496.329 269.752 494.86 270.701 493.248C271.65 491.636 272.495 490.466 272.716 490.544Z" fill="#FF9A6C"/>
<path d="M295.143 492C295.194 492.53 295.163 493.065 295.052 493.586C294.866 495.017 294.596 496.437 294.246 497.837C293.14 502.451 291.55 506.935 289.501 511.214C287.466 515.525 285.001 519.619 282.143 523.434C281.286 524.593 280.366 525.704 279.387 526.762C278.685 527.503 278.282 527.893 278.23 527.854C278.178 527.815 279.53 526.021 281.623 523.044C284.29 519.163 286.646 515.077 288.669 510.824C290.684 506.564 292.349 502.146 293.648 497.616C294.597 494.132 294.987 491.922 295.143 492Z" fill="#FF9A6C"/>
<path d="M309.221 492.624C309.294 493.168 309.294 493.718 309.221 494.262C309.221 495.302 309.052 496.862 308.844 498.682C308.284 503.547 307.415 508.371 306.244 513.125C305.1 517.885 303.623 522.56 301.824 527.113C301.122 528.842 300.524 530.246 300.043 531.182C299.848 531.694 299.581 532.176 299.25 532.612C299.801 530.667 300.456 528.753 301.213 526.879C302.448 523.356 304.008 518.442 305.347 512.904C306.686 507.366 307.583 502.296 308.142 498.604C308.378 496.59 308.739 494.593 309.221 492.624Z" fill="#FF9A6C"/>
<path d="M320.297 496.822C320.58 498.04 320.689 499.292 320.622 500.54C320.647 503.536 320.504 506.531 320.193 509.51C319.91 512.49 319.476 515.453 318.893 518.389C318.733 519.627 318.41 520.838 317.931 521.99C317.658 521.99 318.607 516.348 319.231 509.419C319.855 502.49 320.037 496.835 320.297 496.822Z" fill="#FF9A6C"/>
<path d="M269.896 512.215C270.279 511.295 270.768 510.422 271.352 509.615C272.535 507.652 273.757 505.624 275.083 503.401C276.539 500.97 277.826 498.747 278.723 497.135C279.154 496.229 279.659 495.359 280.231 494.535C280.137 495.561 279.822 496.554 279.308 497.447C278.283 499.672 277.142 501.841 275.889 503.947C272.99 508.731 270.143 512.41 269.896 512.215Z" fill="#FF9A6C"/>
<path d="M294.389 496.446C294.259 496.446 294.701 494.847 294.87 492.299C294.915 491.618 294.858 490.935 294.701 490.271C294.484 489.534 294.086 488.864 293.544 488.321C292.927 487.697 292.155 487.249 291.308 487.02C290.461 486.792 289.568 486.792 288.721 487.021C286.982 487.51 285.394 488.432 284.106 489.699C283.072 490.782 282.16 491.977 281.389 493.261C280.089 495.458 279.309 496.901 279.205 496.849C279.275 496.474 279.407 496.114 279.595 495.783C280.006 494.836 280.466 493.912 280.973 493.014C281.706 491.652 282.61 490.389 283.664 489.257C285.013 487.874 286.704 486.874 288.565 486.358C289.563 486.112 290.608 486.134 291.594 486.423C292.514 486.7 293.343 487.216 293.999 487.918C294.599 488.543 295.024 489.313 295.234 490.154C295.386 490.876 295.426 491.617 295.351 492.351C295.249 493.379 295.058 494.397 294.779 495.393C294.695 495.759 294.564 496.113 294.389 496.446Z" fill="#FF9A6C"/>
<path d="M295.558 492.35C295.558 492.35 295.48 492.038 295.558 491.466C295.686 490.661 295.959 489.886 296.364 489.178C296.971 488.107 297.844 487.212 298.899 486.578C300.212 485.821 301.73 485.493 303.238 485.643C304.747 485.792 306.171 486.41 307.31 487.41C308.212 488.241 308.887 489.288 309.273 490.452C309.538 491.225 309.652 492.041 309.611 492.857C309.625 493.158 309.562 493.458 309.429 493.728C309.364 492.667 309.163 491.618 308.831 490.608C308.406 489.56 307.743 488.625 306.894 487.878C305.84 486.991 304.542 486.443 303.171 486.307C301.8 486.17 300.42 486.45 299.211 487.111C298.227 487.676 297.39 488.464 296.767 489.412C296.244 490.338 295.838 491.325 295.558 492.35Z" fill="#FF9A6C"/>
<path d="M309.339 493.17C309.313 492.736 309.389 492.302 309.561 491.902C309.732 491.503 309.995 491.149 310.327 490.869C310.992 490.2 311.844 489.747 312.771 489.569C313.924 489.358 315.115 489.527 316.164 490.05C317.084 490.523 317.896 491.181 318.552 491.981C319.207 492.782 319.691 493.709 319.973 494.704C320.273 495.495 320.389 496.344 320.311 497.187C320.194 497.187 320.051 496.264 319.518 494.873C318.884 493.057 317.582 491.551 315.878 490.661C314.953 490.2 313.91 490.032 312.888 490.18C312.057 490.327 311.284 490.7 310.652 491.259C310.1 491.809 309.655 492.457 309.339 493.17Z" fill="#FF9A6C"/>
<path d="M404.484 482.497C402.442 480.405 400.272 478.442 397.984 476.621C391.877 483.46 384.623 489.179 376.547 493.521C375.247 490.843 371.022 484.811 366.082 485.721C364.808 485.834 363.629 486.441 362.798 487.414C361.967 488.386 361.55 489.645 361.636 490.921C360.609 488.321 357.736 483.849 353.095 484.798C348.454 485.747 347.57 491.61 347.57 491.61C346.27 489.4 342.903 488.308 342.903 488.308C336.143 488.425 336.481 495.809 336.481 495.809L336.364 495.744C335.62 495.439 334.812 495.321 334.011 495.399C333.211 495.477 332.441 495.75 331.77 496.193C331.098 496.636 330.546 497.237 330.159 497.943C329.773 498.648 329.564 499.438 329.552 500.242C329.396 504.974 329.24 513.047 329.877 515.842C330.813 519.924 338.353 519.352 338.353 519.352C338.353 519.352 340.472 528.452 341.031 531.351C341.59 534.25 344.931 533.691 348.831 533.951C352.731 534.211 357.489 531.507 357.489 531.507C357.489 531.507 363.17 535.992 369.527 534.432C371.499 533.856 373.333 532.884 374.918 531.577C376.502 530.27 377.804 528.654 378.744 526.827C378.744 526.827 386.258 525.527 390.86 522.004C395.462 518.481 398.452 509.576 398.452 509.576C403.652 509.134 406.629 504.298 406.629 504.298L404.484 482.497Z" fill="#FFBF9D"/>
<path d="M386.324 525.006C386.804 524.926 387.269 524.773 387.702 524.551C388.931 523.99 390.07 523.249 391.082 522.354C394.544 519.119 397.06 515.002 398.362 510.446L397.933 510.771C399.872 510.843 401.778 510.257 403.341 509.107C404.158 508.534 404.908 507.871 405.577 507.131C406.321 506.383 406.917 505.501 407.332 504.531C407.759 503.482 407.889 502.335 407.709 501.216C407.527 500.189 407.345 499.188 407.176 498.2C406.825 496.25 406.474 494.3 406.149 492.545C405.486 488.983 404.849 485.733 404.355 482.951C403.902 481.732 403.232 480.605 402.379 479.623C401.69 478.752 401.079 478.024 400.546 477.439C400.044 476.81 399.473 476.239 398.843 475.736C399.265 476.421 399.744 477.068 400.273 477.673C400.754 478.284 401.326 479.038 401.963 479.935C402.712 480.874 403.305 481.928 403.718 483.055C404.173 485.85 404.719 489.1 405.317 492.662C405.616 494.482 405.941 496.393 406.279 498.356C406.448 499.344 406.63 500.332 406.799 501.346C406.951 502.307 406.839 503.291 406.474 504.193C404.771 507.469 401.274 510.108 397.972 509.9H397.634L397.543 510.238C396.298 514.652 393.955 518.677 390.731 521.938C389.399 523.145 387.918 524.176 386.324 525.006Z" fill="#FF9A6C"/>
<path d="M399.727 489.66C399.162 489.627 398.595 489.689 398.05 489.842C396.541 490.117 395.057 490.521 393.617 491.051C391.445 491.837 389.448 493.043 387.741 494.6C385.606 496.558 384.226 499.204 383.841 502.075C383.682 503.525 383.888 504.992 384.439 506.343C384.991 507.694 385.871 508.886 387 509.81C387.987 510.642 389.192 511.174 390.471 511.344C391.568 511.452 392.675 511.328 393.721 510.98C395.124 510.437 396.579 510.041 398.063 509.797C399.103 509.706 399.688 509.927 399.701 509.797C399.21 509.486 398.629 509.349 398.05 509.407C396.517 509.51 395.005 509.816 393.552 510.317C392.586 510.595 391.572 510.67 390.575 510.538C389.453 510.359 388.403 509.868 387.546 509.121C386.542 508.275 385.761 507.194 385.274 505.974C384.786 504.754 384.607 503.433 384.751 502.127C385.103 499.471 386.356 497.016 388.3 495.172C389.902 493.651 391.776 492.447 393.825 491.623C397.4 490.232 399.779 489.829 399.727 489.66Z" fill="#FF9A6C"/>
<path d="M384.114 489.569C383.854 489.673 384.374 491.168 385.336 492.741C386.298 494.314 387.065 495.575 387.299 495.471C387.533 495.367 387.078 493.885 386.129 492.273C385.18 490.661 384.4 489.491 384.114 489.569Z" fill="#FF9A6C"/>
<path d="M361.689 490.973C361.64 491.504 361.676 492.039 361.793 492.559C361.979 493.989 362.244 495.409 362.586 496.81C363.714 501.425 365.313 505.912 367.357 510.2C369.395 514.505 371.86 518.595 374.715 522.407C375.576 523.563 376.496 524.674 377.471 525.735C377.805 526.15 378.195 526.518 378.628 526.827C378.745 526.736 377.328 525.007 375.248 522.03C372.577 518.147 370.22 514.056 368.202 509.797C366.179 505.543 364.509 501.13 363.21 496.602C362.3 493.17 361.845 490.947 361.689 490.973Z" fill="#FF9A6C"/>
<path d="M347.623 491.662C347.542 492.201 347.542 492.748 347.623 493.287C347.623 494.34 347.792 495.887 347.987 497.72C348.548 502.585 349.416 507.409 350.587 512.163C351.737 516.919 353.218 521.589 355.02 526.138C355.709 527.88 356.32 529.271 356.788 530.207C356.977 530.725 357.25 531.208 357.594 531.637C357.041 529.693 356.386 527.779 355.631 525.904C354.331 522.394 352.836 517.467 351.484 511.942C350.132 506.417 349.261 501.321 348.689 497.642C348.446 495.63 348.09 493.634 347.623 491.662Z" fill="#FF9A6C"/>
<path d="M336.534 495.899C336.258 497.114 336.153 498.361 336.222 499.604C336.191 502.6 336.33 505.595 336.638 508.574C337.002 512.071 337.509 515.204 337.938 517.466C338.088 518.703 338.416 519.912 338.913 521.054C339.173 521.054 338.224 515.425 337.535 508.483C336.846 501.541 336.794 495.899 336.534 495.899Z" fill="#FF9A6C"/>
<path d="M387 511.253C386.621 510.331 386.132 509.458 385.544 508.653L381.8 502.4C380.357 499.969 379.07 497.759 378.16 496.147C377.733 495.238 377.229 494.369 376.652 493.547C376.746 494.569 377.061 495.558 377.575 496.446C378.601 498.673 379.747 500.843 381.007 502.946C383.841 507.769 386.701 511.5 387 511.253Z" fill="#FF9A6C"/>
<path d="M362.443 495.471C362.263 495.138 362.135 494.778 362.067 494.405C361.781 493.406 361.585 492.384 361.481 491.35C361.414 490.62 361.453 489.884 361.598 489.166C361.822 488.313 362.271 487.537 362.898 486.917C363.553 486.22 364.377 485.705 365.29 485.422C366.282 485.155 367.328 485.155 368.32 485.422C370.184 485.933 371.879 486.929 373.233 488.308C374.277 489.451 375.176 490.717 375.911 492.078C376.548 493.222 377.004 494.171 377.303 494.834C377.484 495.172 377.611 495.536 377.679 495.913C377.588 495.913 376.86 494.522 375.495 492.325C374.731 491.04 373.824 489.845 372.792 488.763C371.505 487.485 369.911 486.558 368.164 486.072C367.316 485.845 366.424 485.845 365.577 486.073C364.73 486.302 363.959 486.75 363.34 487.372C362.803 487.911 362.409 488.578 362.197 489.309C362.042 489.973 361.981 490.656 362.014 491.337C362.131 493.872 362.573 495.445 362.443 495.471Z" fill="#FF9A6C"/>
<path d="M361.274 491.388C360.996 490.366 360.589 489.384 360.065 488.463C359.447 487.515 358.614 486.727 357.634 486.162C356.428 485.49 355.042 485.208 353.669 485.356C352.294 485.473 350.992 486.024 349.951 486.929C349.096 487.672 348.432 488.608 348.014 489.659C347.674 490.664 347.469 491.708 347.403 492.766C347.403 492.766 347.26 492.467 347.221 491.895C347.193 491.08 347.307 490.266 347.559 489.49C347.898 488.482 348.458 487.563 349.197 486.798C349.936 486.033 350.836 485.443 351.832 485.069C352.828 484.696 353.895 484.549 354.954 484.639C356.014 484.729 357.04 485.054 357.959 485.59C359.008 486.228 359.876 487.123 360.481 488.19C360.888 488.901 361.162 489.681 361.287 490.491C361.36 490.786 361.356 491.096 361.274 491.388Z" fill="#FF9A6C"/>
<path d="M347.507 492.195C347.197 491.47 346.757 490.809 346.207 490.245C345.577 489.683 344.802 489.309 343.971 489.166C342.954 489.011 341.914 489.175 340.994 489.634C339.293 490.528 337.992 492.033 337.354 493.846C336.808 495.237 336.665 496.186 336.561 496.16C336.475 495.321 336.591 494.474 336.899 493.69C337.175 492.692 337.655 491.762 338.308 490.959C338.962 490.156 339.774 489.497 340.695 489.023C341.746 488.504 342.936 488.34 344.088 488.555C345.017 488.738 345.871 489.19 346.545 489.855C346.873 490.146 347.131 490.508 347.297 490.913C347.464 491.319 347.536 491.757 347.507 492.195Z" fill="#FF9A6C"/>
<path d="M327.577 404.601C322.455 408.839 318.399 414.637 317.398 421.176C316.397 427.715 320.154 436.438 325.653 440.143C334.233 439.272 341.695 429.6 344.529 421.475C346.791 414.975 346.31 407.435 345.569 400.298C345.502 399.687 345.291 399.1 344.954 398.586C344.617 398.071 344.163 397.644 343.63 397.339C343.096 397.033 342.498 396.858 341.884 396.828C341.27 396.798 340.657 396.913 340.096 397.165C335.6 399.054 331.387 401.556 327.577 404.601Z" fill="#455A64"/>
<path d="M325.055 464.699C324.88 464.091 324.754 463.469 324.678 462.84C324.47 461.644 324.262 459.889 324.093 457.64C323.239 446.236 324.857 434.782 328.838 424.061C329.605 422.02 330.294 420.395 330.827 419.29C331.062 418.702 331.358 418.14 331.711 417.613C331.546 418.223 331.333 418.818 331.074 419.394C330.619 420.525 329.995 422.176 329.293 424.23C327.462 429.581 326.135 435.091 325.328 440.688C324.546 446.285 324.293 451.944 324.574 457.588C324.678 459.759 324.821 461.488 324.951 462.723C325.059 463.376 325.094 464.039 325.055 464.699Z" fill="#263238"/>
<path d="M320.7 438.7C319.576 436.263 317.569 434.344 315.084 433.33C312.611 432.338 309.94 431.938 307.284 432.161C304.649 432.387 302.038 432.848 299.484 433.539C299.797 436.446 300.752 439.248 302.279 441.741C303.52 443.362 305.1 444.693 306.907 445.641C308.824 446.777 310.951 447.511 313.16 447.8C315.556 448.017 317.958 447.47 320.024 446.239C320.768 445.143 321.22 443.876 321.338 442.557C321.457 441.238 321.237 439.91 320.7 438.7Z" fill="#455A64"/>
<path d="M309.234 438.361C310.283 438.653 311.285 439.09 312.211 439.661C314.537 440.892 316.674 442.451 318.555 444.289C320.419 446.15 321.981 448.29 323.183 450.633C323.749 451.567 324.186 452.573 324.483 453.623C323.849 452.753 323.288 451.831 322.806 450.867C321.513 448.64 319.936 446.591 318.113 444.77C316.269 442.976 314.223 441.401 312.016 440.077C311.052 439.568 310.122 438.995 309.234 438.361Z" fill="#263238"/>
<path d="M306.674 470.277C306.439 470.7 306.373 471.196 306.49 471.665C306.606 472.134 306.896 472.542 307.301 472.806C307.706 473.07 308.196 473.171 308.672 473.088C309.149 473.005 309.576 472.744 309.868 472.359C310.16 471.974 310.295 471.492 310.246 471.011C310.197 470.53 309.967 470.085 309.603 469.767C309.239 469.449 308.768 469.28 308.285 469.295C307.802 469.31 307.342 469.508 306.999 469.848" fill="#99584B"/>
<path d="M225.657 327.237C225.641 327.583 225.593 327.927 225.514 328.264C225.384 329.005 225.202 329.98 224.981 331.215C224.474 333.815 223.863 337.481 223.187 342.083C221.461 354.066 220.74 366.172 221.029 378.275C221.224 385.36 221.77 392.107 222.459 398.204C223.148 404.301 224.045 409.774 224.903 414.35C225.28 416.638 225.748 418.692 226.099 420.512C226.45 422.332 226.788 423.879 227.074 425.14L227.698 428.078C227.784 428.415 227.84 428.759 227.867 429.105C227.73 428.783 227.625 428.447 227.555 428.104C227.373 427.376 227.126 426.414 226.814 425.205C226.502 423.996 226.112 422.397 225.722 420.59C225.332 418.783 224.851 416.69 224.422 414.441C223.499 409.865 222.602 404.392 221.822 398.282C221.042 392.172 220.522 385.399 220.327 378.288C220.03 366.148 220.817 354.006 222.68 342.005C223.421 337.416 224.11 333.698 224.695 331.163C224.981 329.941 225.189 328.966 225.358 328.238C225.423 327.895 225.524 327.56 225.657 327.237Z" fill="#263238"/>
<path d="M422.334 322.22C422.491 322.554 422.617 322.902 422.711 323.26L423.673 326.263C424.089 327.563 424.57 329.175 425.064 331.047C425.558 332.919 426.182 335.064 426.715 337.456L427.612 341.2C427.885 342.5 428.171 343.865 428.457 345.269C429.081 348.09 429.549 351.132 430.121 354.369C431.122 360.778 431.98 367.85 432.513 375.312C433.046 382.774 433.098 389.911 432.981 396.385C432.864 399.622 432.786 402.703 432.552 405.576C432.318 408.449 432.136 411.127 431.889 413.558C431.642 415.989 431.343 418.186 431.096 420.123C430.849 422.06 430.589 423.711 430.342 425.05C430.095 426.389 429.939 427.39 429.796 428.157C429.75 428.523 429.672 428.884 429.562 429.236C429.565 428.869 429.599 428.504 429.666 428.144C429.77 427.364 429.913 426.324 430.082 425.011C430.251 423.698 430.511 422.008 430.719 420.071C430.927 418.134 431.226 415.95 431.408 413.571C431.59 411.192 431.863 408.462 431.993 405.589C432.123 402.716 432.266 399.648 432.357 396.424C432.448 389.924 432.357 382.852 431.837 375.403C431.317 367.954 430.472 360.908 429.51 354.525C428.951 351.34 428.496 348.298 427.911 345.49C427.625 344.086 427.352 342.721 427.105 341.408L426.247 337.664C425.74 335.272 425.168 333.14 424.7 331.255C424.232 329.37 423.803 327.758 423.4 326.445L422.568 323.403C422.453 323.017 422.374 322.621 422.334 322.22Z" fill="#263238"/>
<path d="M375.443 90.8455C374.52 91.1575 373.09 89.3505 370.971 86.6725C369.944 85.3725 368.618 83.7865 367.214 82.0965C365.81 80.4065 364.081 78.6515 362.261 76.8965C354.981 69.6815 347.662 64.9495 348.481 63.1815C348.858 62.3625 351.289 62.5055 354.812 63.8965C359.373 65.8103 363.519 68.5918 367.019 72.0865C368.969 74.0137 370.712 76.14 372.219 78.4305C373.437 80.3245 374.431 82.3529 375.183 84.4755C376.444 88.0765 376.288 90.5595 375.443 90.8455Z" fill="#C0A1E2"/>
<path d="M329.799 465.857C327.947 465.353 326.048 465.039 324.132 464.921C322.209 465.023 320.302 465.314 318.438 465.792C320.158 464.768 322.126 464.234 324.127 464.245C326.129 464.257 328.09 464.814 329.799 465.857Z" fill="#99584B"/>
<path d="M454.014 306.022C454.014 306.204 394.643 306.36 321.414 306.36C248.185 306.36 188.814 306.204 188.814 306.022C188.814 305.84 248.172 305.684 321.414 305.684C394.656 305.684 454.014 305.827 454.014 306.022Z" fill="white"/>
<path d="M462.374 317.462H460.255L452.117 317.527L422.217 317.774L323.417 318.931C284.833 319.425 249.902 319.789 224.617 319.893C211.981 319.893 201.75 319.893 194.717 319.893H186.579L194.717 319.828L224.617 319.581L323.417 318.424C361.988 317.93 396.919 317.566 422.217 317.462C434.866 317.462 445.097 317.462 452.117 317.462H460.255H462.374Z" fill="white"/>
<path d="M359.362 239.942C358.698 276.036 360.196 312.136 363.847 348.05C364.367 353.081 364.991 358.32 367.747 362.597C373.922 372.269 387.559 372.997 399.038 372.542C404.498 372.347 415.769 373.205 418.824 368.642C420.839 365.652 418.031 358.697 418.824 355.174C427.365 317.357 422.373 279.631 412.831 245.181" fill="#263238"/>
<defs>
<linearGradient id="paint0_linear_1776_166" x1="419.339" y1="33.427" x2="320" y2="300.843" gradientUnits="userSpaceOnUse">
<stop stop-color="#DC7A9C"/>
<stop offset="1" stop-color="#FEF5D8"/>
</linearGradient>
<clipPath id="clip0_1776_166">
<rect width="516" height="516" fill="white" transform="translate(62)"/>
</clipPath>
</defs>
</svg>
