<svg id="visual" viewBox="0 0 1600 600" width="1600" height="600" xmlns="http://www.w3.org/2000/svg" xmlns:xlink="http://www.w3.org/1999/xlink" version="1.1"><path d="M0 457L29.7 448.8C59.3 440.7 118.7 424.3 178 422.8C237.3 421.3 296.7 434.7 355.8 442.2C415 449.7 474 451.3 533.2 442.5C592.3 433.7 651.7 414.3 711 411.8C770.3 409.3 829.7 423.7 889 416.5C948.3 409.3 1007.7 380.7 1066.8 363.3C1126 346 1185 340 1244.2 358.2C1303.3 376.3 1362.7 418.7 1422 422.7C1481.3 426.7 1540.7 392.3 1570.3 375.2L1600 358L1600 601L1570.3 601C1540.7 601 1481.3 601 1422 601C1362.7 601 1303.3 601 1244.2 601C1185 601 1126 601 1066.8 601C1007.7 601 948.3 601 889 601C829.7 601 770.3 601 711 601C651.7 601 592.3 601 533.2 601C474 601 415 601 355.8 601C296.7 601 237.3 601 178 601C118.7 601 59.3 601 29.7 601L0 601Z" fill="#fa7268"></path><path d="M0 436L29.7 438C59.3 440 118.7 444 178 440.8C237.3 437.7 296.7 427.3 355.8 423.8C415 420.3 474 423.7 533.2 425.5C592.3 427.3 651.7 427.7 711 436.7C770.3 445.7 829.7 463.3 889 473.2C948.3 483 1007.7 485 1066.8 482.8C1126 480.7 1185 474.3 1244.2 458.8C1303.3 443.3 1362.7 418.7 1422 405C1481.3 391.3 1540.7 388.7 1570.3 387.3L1600 386L1600 601L1570.3 601C1540.7 601 1481.3 601 1422 601C1362.7 601 1303.3 601 1244.2 601C1185 601 1126 601 1066.8 601C1007.7 601 948.3 601 889 601C829.7 601 770.3 601 711 601C651.7 601 592.3 601 533.2 601C474 601 415 601 355.8 601C296.7 601 237.3 601 178 601C118.7 601 59.3 601 29.7 601L0 601Z" fill="#ef5f67"></path><path d="M0 492L29.7 481.7C59.3 471.3 118.7 450.7 178 442.8C237.3 435 296.7 440 355.8 454.3C415 468.7 474 492.3 533.2 497.8C592.3 503.3 651.7 490.7 711 480C770.3 469.3 829.7 460.7 889 463.8C948.3 467 1007.7 482 1066.8 493C1126 504 1185 511 1244.2 506.3C1303.3 501.7 1362.7 485.3 1422 477.5C1481.3 469.7 1540.7 470.3 1570.3 470.7L1600 471L1600 601L1570.3 601C1540.7 601 1481.3 601 1422 601C1362.7 601 1303.3 601 1244.2 601C1185 601 1126 601 1066.8 601C1007.7 601 948.3 601 889 601C829.7 601 770.3 601 711 601C651.7 601 592.3 601 533.2 601C474 601 415 601 355.8 601C296.7 601 237.3 601 178 601C118.7 601 59.3 601 29.7 601L0 601Z" fill="#e34c67"></path><path d="M0 546L29.7 540.3C59.3 534.7 118.7 523.3 178 519.8C237.3 516.3 296.7 520.7 355.8 517.7C415 514.7 474 504.3 533.2 499.5C592.3 494.7 651.7 495.3 711 503.3C770.3 511.3 829.7 526.7 889 527.5C948.3 528.3 1007.7 514.7 1066.8 507.7C1126 500.7 1185 500.3 1244.2 509C1303.3 517.7 1362.7 535.3 1422 531.7C1481.3 528 1540.7 503 1570.3 490.5L1600 478L1600 601L1570.3 601C1540.7 601 1481.3 601 1422 601C1362.7 601 1303.3 601 1244.2 601C1185 601 1126 601 1066.8 601C1007.7 601 948.3 601 889 601C829.7 601 770.3 601 711 601C651.7 601 592.3 601 533.2 601C474 601 415 601 355.8 601C296.7 601 237.3 601 178 601C118.7 601 59.3 601 29.7 601L0 601Z" fill="#d53867"></path><path d="M0 528L29.7 536C59.3 544 118.7 560 178 561.8C237.3 563.7 296.7 551.3 355.8 546.8C415 542.3 474 545.7 533.2 546.5C592.3 547.3 651.7 545.7 711 541.7C770.3 537.7 829.7 531.3 889 531.8C948.3 532.3 1007.7 539.7 1066.8 541.5C1126 543.3 1185 539.7 1244.2 537.8C1303.3 536 1362.7 536 1422 542.7C1481.3 549.3 1540.7 562.7 1570.3 569.3L1600 576L1600 601L1570.3 601C1540.7 601 1481.3 601 1422 601C1362.7 601 1303.3 601 1244.2 601C1185 601 1126 601 1066.8 601C1007.7 601 948.3 601 889 601C829.7 601 770.3 601 711 601C651.7 601 592.3 601 533.2 601C474 601 415 601 355.8 601C296.7 601 237.3 601 178 601C118.7 601 59.3 601 29.7 601L0 601Z" fill="#c62368"></path></svg>