<svg width="1600" height="429" viewBox="0 0 1600 429" fill="none" xmlns="http://www.w3.org/2000/svg">
<path d="M0 319L29.7 327.2C59.3 335.3 118.7 351.7 178 353.2C237.3 354.7 296.7 341.3 355.8 333.8C415 326.3 474 324.7 533.2 333.5C592.3 342.3 651.7 361.7 711 364.2C770.3 366.7 829.7 352.3 889 359.5C948.3 366.7 1007.7 395.3 1066.8 412.7C1126 430 1185 436 1244.2 417.8C1303.3 399.7 1362.7 357.3 1422 353.3C1481.3 349.3 1540.7 383.7 1570.3 400.8L1600 418V178H1570.3C1540.7 178 1481.3 178 1422 178C1362.7 178 1303.3 178 1244.2 178C1185 178 1126 178 1066.8 178C1007.7 178 948.3 178 889 178C829.7 178 770.3 178 711 178C651.7 178 592.3 178 533.2 178C474 178 415 178 355.8 178C296.7 178 237.3 178 178 178C118.7 178 59.3 178 29.7 178H0V319Z" fill="#FA7268"/>
<path d="M0 340L29.7 338C59.3 336 118.7 332 178 335.2C237.3 338.3 296.7 348.7 355.8 352.2C415 355.7 474 352.3 533.2 350.5C592.3 348.7 651.7 348.3 711 339.3C770.3 330.3 829.7 312.7 889 302.8C948.3 293 1007.7 291 1066.8 293.2C1126 295.3 1185 301.7 1244.2 317.2C1303.3 332.7 1362.7 357.3 1422 371C1481.3 384.7 1540.7 387.3 1570.3 388.7L1600 390V178H1570.3C1540.7 178 1481.3 178 1422 178C1362.7 178 1303.3 178 1244.2 178C1185 178 1126 178 1066.8 178C1007.7 178 948.3 178 889 178C829.7 178 770.3 178 711 178C651.7 178 592.3 178 533.2 178C474 178 415 178 355.8 178C296.7 178 237.3 178 178 178C118.7 178 59.3 178 29.7 178H0V340Z" fill="#EF5F67"/>
<path d="M0 284L29.7 294.3C59.3 304.7 118.7 325.3 178 333.2C237.3 341 296.7 336 355.8 321.7C415 307.3 474 283.7 533.2 278.2C592.3 272.7 651.7 285.3 711 296C770.3 306.7 829.7 315.3 889 312.2C948.3 309 1007.7 294 1066.8 283C1126 272 1185 265 1244.2 269.7C1303.3 274.3 1362.7 290.7 1422 298.5C1481.3 306.3 1540.7 305.7 1570.3 305.3L1600 305V178H1570.3C1540.7 178 1481.3 178 1422 178C1362.7 178 1303.3 178 1244.2 178C1185 178 1126 178 1066.8 178C1007.7 178 948.3 178 889 178C829.7 178 770.3 178 711 178C651.7 178 592.3 178 533.2 178C474 178 415 178 355.8 178C296.7 178 237.3 178 178 178C118.7 178 59.3 178 29.7 178H0V284Z" fill="#E34C67"/>
<path d="M0 230L29.7 235.7C59.3 241.3 118.7 252.7 178 256.2C237.3 259.7 296.7 255.3 355.8 258.3C415 261.3 474 271.7 533.2 276.5C592.3 281.3 651.7 280.7 711 272.7C770.3 264.7 829.7 249.3 889 248.5C948.3 247.7 1007.7 261.3 1066.8 268.3C1126 275.3 1185 275.7 1244.2 267C1303.3 258.3 1362.7 240.7 1422 244.3C1481.3 248 1540.7 273 1570.3 285.5L1600 298V178H1570.3C1540.7 178 1481.3 178 1422 178C1362.7 178 1303.3 178 1244.2 178C1185 178 1126 178 1066.8 178C1007.7 178 948.3 178 889 178C829.7 178 770.3 178 711 178C651.7 178 592.3 178 533.2 178C474 178 415 178 355.8 178C296.7 178 237.3 178 178 178C118.7 178 59.3 178 29.7 178H0V230Z" fill="#D53867"/>
<path d="M0 248L29.7 240C59.3 232 118.7 216 178 214.2C237.3 212.3 296.7 224.7 355.8 229.2C415 233.7 474 230.3 533.2 229.5C592.3 228.7 651.7 230.3 711 234.3C770.3 238.3 829.7 244.7 889 244.2C948.3 243.7 1007.7 236.3 1066.8 234.5C1126 232.7 1185 236.3 1244.2 238.2C1303.3 240 1362.7 240 1422 233.3C1481.3 226.7 1540.7 213.3 1570.3 206.7L1600 200V178H1570.3C1540.7 178 1481.3 178 1422 178C1362.7 178 1303.3 178 1244.2 178C1185 178 1126 178 1066.8 178C1007.7 178 948.3 178 889 178C829.7 178 770.3 178 711 178C651.7 178 592.3 178 533.2 178C474 178 415 178 355.8 178C296.7 178 237.3 178 178 178C118.7 178 59.3 178 29.7 178H0V248Z" fill="#C62368"/>
<path d="M1600 90.6525L1570.3 83.8875C1540.7 77.205 1481.3 63.675 1422 62.4375C1362.7 61.2 1303.3 72.255 1244.2 78.4425C1185 84.63 1126 85.95 1066.8 78.69C1007.7 71.43 948.3 55.425 889 53.3625C829.7 51.3 770.3 63.18 711 57.24C651.7 51.3 592.3 27.705 533.2 13.35C474 -0.922455 415 -5.87246 355.8 9.14254C296.7 24.075 237.3 59.055 178 62.355C118.7 65.655 59.3 37.275 29.7 23.1675L0 8.97754V206.978H29.7C59.3 206.978 118.7 206.978 178 206.978C237.3 206.978 296.7 206.978 355.8 206.978C415 206.978 474 206.978 533.2 206.978C592.3 206.978 651.7 206.978 711 206.978C770.3 206.978 829.7 206.978 889 206.978C948.3 206.978 1007.7 206.978 1066.8 206.978C1126 206.978 1185 206.978 1244.2 206.978C1303.3 206.978 1362.7 206.978 1422 206.978C1481.3 206.978 1540.7 206.978 1570.3 206.978H1600V90.6525Z" fill="#FA7268"/>
<path d="M1600 73.3275L1570.3 74.9775C1540.7 76.6275 1481.3 79.9275 1422 77.2875C1362.7 74.73 1303.3 66.15 1244.2 63.2625C1185 60.375 1126 63.18 1066.8 64.665C1007.7 66.15 948.3 66.48 889 73.905C829.7 81.33 770.3 95.85 711 104.018C651.7 112.103 592.3 113.753 533.2 111.938C474 110.205 415 104.925 355.8 92.1375C296.7 79.35 237.3 59.055 178 47.7525C118.7 36.45 59.3 34.305 29.7 33.15L0 32.0775V206.978H29.7C59.3 206.978 118.7 206.978 178 206.978C237.3 206.978 296.7 206.978 355.8 206.978C415 206.978 474 206.978 533.2 206.978C592.3 206.978 651.7 206.978 711 206.978C770.3 206.978 829.7 206.978 889 206.978C948.3 206.978 1007.7 206.978 1066.8 206.978C1126 206.978 1185 206.978 1244.2 206.978C1303.3 206.978 1362.7 206.978 1422 206.978C1481.3 206.978 1540.7 206.978 1570.3 206.978H1600V73.3275Z" fill="#EF5F67"/>
<path d="M1600 119.528L1570.3 111.03C1540.7 102.45 1481.3 85.455 1422 78.9375C1362.7 72.5025 1303.3 76.6275 1244.2 88.425C1185 100.305 1126 119.775 1066.8 124.313C1007.7 128.85 948.3 118.455 889 109.628C829.7 100.8 770.3 93.705 711 96.2625C651.7 98.9025 592.3 111.278 533.2 120.353C474 129.428 415 135.203 355.8 131.325C296.7 127.53 237.3 114 178 107.565C118.7 101.13 59.3 101.625 29.7 101.955L0 102.203V206.978H29.7C59.3 206.978 118.7 206.978 178 206.978C237.3 206.978 296.7 206.978 355.8 206.978C415 206.978 474 206.978 533.2 206.978C592.3 206.978 651.7 206.978 711 206.978C770.3 206.978 829.7 206.978 889 206.978C948.3 206.978 1007.7 206.978 1066.8 206.978C1126 206.978 1185 206.978 1244.2 206.978C1303.3 206.978 1362.7 206.978 1422 206.978C1481.3 206.978 1540.7 206.978 1570.3 206.978H1600V119.528Z" fill="#E34C67"/>
<path d="M1600 164.078L1570.3 159.375C1540.7 154.755 1481.3 145.35 1422 142.463C1362.7 139.575 1303.3 143.205 1244.2 140.73C1185 138.255 1126 129.675 1066.8 125.715C1007.7 121.755 948.3 122.25 889 128.85C829.7 135.45 770.3 148.155 711 148.815C651.7 149.475 592.3 138.255 533.2 132.48C474 126.705 415 126.375 355.8 133.553C296.7 140.73 237.3 155.25 178 152.28C118.7 149.228 59.3 128.603 29.7 118.29L0 107.978V206.978H29.7C59.3 206.978 118.7 206.978 178 206.978C237.3 206.978 296.7 206.978 355.8 206.978C415 206.978 474 206.978 533.2 206.978C592.3 206.978 651.7 206.978 711 206.978C770.3 206.978 829.7 206.978 889 206.978C948.3 206.978 1007.7 206.978 1066.8 206.978C1126 206.978 1185 206.978 1244.2 206.978C1303.3 206.978 1362.7 206.978 1422 206.978C1481.3 206.978 1540.7 206.978 1570.3 206.978H1600V164.078Z" fill="#D53867"/>
<path d="M1600 149.228L1570.3 155.828C1540.7 162.428 1481.3 175.628 1422 177.113C1362.7 178.68 1303.3 168.45 1244.2 164.738C1185 161.025 1126 163.83 1066.8 164.49C1007.7 165.15 948.3 163.83 889 160.53C829.7 157.23 770.3 151.95 711 152.363C651.7 152.775 592.3 158.88 533.2 160.365C474 161.85 415 158.88 355.8 157.313C296.7 155.828 237.3 155.828 178 161.355C118.7 166.8 59.3 177.855 29.7 183.3L0 188.828V206.978H29.7C59.3 206.978 118.7 206.978 178 206.978C237.3 206.978 296.7 206.978 355.8 206.978C415 206.978 474 206.978 533.2 206.978C592.3 206.978 651.7 206.978 711 206.978C770.3 206.978 829.7 206.978 889 206.978C948.3 206.978 1007.7 206.978 1066.8 206.978C1126 206.978 1185 206.978 1244.2 206.978C1303.3 206.978 1362.7 206.978 1422 206.978C1481.3 206.978 1540.7 206.978 1570.3 206.978H1600V149.228Z" fill="#C62368"/>
</svg>
