<svg id="visual" viewBox="0 0 900 600" width="900" height="600" xmlns="http://www.w3.org/2000/svg" xmlns:xlink="http://www.w3.org/1999/xlink" version="1.1"><path d="M0 394L21.5 399.7C43 405.3 86 416.7 128.8 414.5C171.7 412.3 214.3 396.7 257.2 384.3C300 372 343 363 385.8 359.5C428.7 356 471.3 358 514.2 361.2C557 364.3 600 368.7 642.8 377.2C685.7 385.7 728.3 398.3 771.2 397.2C814 396 857 381 878.5 373.5L900 366L900 601L878.5 601C857 601 814 601 771.2 601C728.3 601 685.7 601 642.8 601C600 601 557 601 514.2 601C471.3 601 428.7 601 385.8 601C343 601 300 601 257.2 601C214.3 601 171.7 601 128.8 601C86 601 43 601 21.5 601L0 601Z" fill="#fa7268"></path><path d="M0 444L21.5 444.2C43 444.3 86 444.7 128.8 443.7C171.7 442.7 214.3 440.3 257.2 445C300 449.7 343 461.3 385.8 462.8C428.7 464.3 471.3 455.7 514.2 455C557 454.3 600 461.7 642.8 460.8C685.7 460 728.3 451 771.2 442.8C814 434.7 857 427.3 878.5 423.7L900 420L900 601L878.5 601C857 601 814 601 771.2 601C728.3 601 685.7 601 642.8 601C600 601 557 601 514.2 601C471.3 601 428.7 601 385.8 601C343 601 300 601 257.2 601C214.3 601 171.7 601 128.8 601C86 601 43 601 21.5 601L0 601Z" fill="#ef5f67"></path><path d="M0 495L21.5 486.8C43 478.7 86 462.3 128.8 462.3C171.7 462.3 214.3 478.7 257.2 477.7C300 476.7 343 458.3 385.8 456.8C428.7 455.3 471.3 470.7 514.2 471.5C557 472.3 600 458.7 642.8 451.8C685.7 445 728.3 445 771.2 445.7C814 446.3 857 447.7 878.5 448.3L900 449L900 601L878.5 601C857 601 814 601 771.2 601C728.3 601 685.7 601 642.8 601C600 601 557 601 514.2 601C471.3 601 428.7 601 385.8 601C343 601 300 601 257.2 601C214.3 601 171.7 601 128.8 601C86 601 43 601 21.5 601L0 601Z" fill="#e34c67"></path><path d="M0 487L21.5 489C43 491 86 495 128.8 499.3C171.7 503.7 214.3 508.3 257.2 509C300 509.7 343 506.3 385.8 501.3C428.7 496.3 471.3 489.7 514.2 493C557 496.3 600 509.7 642.8 511.3C685.7 513 728.3 503 771.2 497.3C814 491.7 857 490.3 878.5 489.7L900 489L900 601L878.5 601C857 601 814 601 771.2 601C728.3 601 685.7 601 642.8 601C600 601 557 601 514.2 601C471.3 601 428.7 601 385.8 601C343 601 300 601 257.2 601C214.3 601 171.7 601 128.8 601C86 601 43 601 21.5 601L0 601Z" fill="#d53867"></path><path d="M0 533L21.5 533.5C43 534 86 535 128.8 540C171.7 545 214.3 554 257.2 556.3C300 558.7 343 554.3 385.8 548.8C428.7 543.3 471.3 536.7 514.2 536.2C557 535.7 600 541.3 642.8 545.3C685.7 549.3 728.3 551.7 771.2 551.5C814 551.3 857 548.7 878.5 547.3L900 546L900 601L878.5 601C857 601 814 601 771.2 601C728.3 601 685.7 601 642.8 601C600 601 557 601 514.2 601C471.3 601 428.7 601 385.8 601C343 601 300 601 257.2 601C214.3 601 171.7 601 128.8 601C86 601 43 601 21.5 601L0 601Z" fill="#c62368"></path></svg>