
<svg xmlns="http://www.w3.org/2000/svg" width="429" height="42.957280955656515" viewBox="0 0 349.99999999999994 35.046732714405074" class="looka-1j8o68f"><defs id="SvgjsDefs1122"></defs><g id="SvgjsG1123" featurekey="nameFeature-0" transform="matrix(1.1682242752661043,0,0,1.1682242752661043,-3.7850458274241174,-11.682238296239094)" fill="#111111"><path d="M24.16 10 q0.6 0 1 0.42 t0.4 0.98 l0 2.88 q0 0.56 -0.4 0.98 t-1 0.42 l-15.12 0 l0 6.12 l13.36 0 q0.6 0 1 0.42 t0.4 0.98 l0 2.92 q0 0.56 -0.4 0.98 t-1 0.42 l-13.36 0 l0 6.16 l15.12 0 q0.6 0 1 0.42 t0.4 0.98 l0 2.88 q0 0.56 -0.4 0.98 t-1 0.42 l-19.52 0 q-0.56 0 -0.98 -0.42 t-0.42 -0.98 l0 -26.56 q0 -0.56 0.42 -0.98 t0.98 -0.42 l19.52 0 z M52.816 33.68 q0.6 0 1 0.42 t0.4 0.98 l0 2.88 q0 0.56 -0.4 0.98 t-1 0.42 l-17.48 0 q-0.56 0 -0.98 -0.42 t-0.42 -0.98 l0 -26.56 q0 -0.56 0.42 -0.98 t0.98 -0.42 l3 0 q0.56 0 0.98 0.42 t0.42 0.98 l0 22.28 l13.08 0 z M76.352 10.84 l11.2 26.44 q0.2 0.32 0.2 0.68 q0 0.56 -0.4 0.98 t-1 0.42 l-3.32 0 q-0.44 0 -0.78 -0.22 t-0.5 -0.62 l-2.92 -6.88 l-11.32 0 l-2.88 6.88 q-0.16 0.4 -0.5 0.62 t-0.78 0.22 l-3.32 0 q-0.36 0 -0.68 -0.18 t-0.5 -0.46 t-0.22 -0.62 t0.12 -0.66 l11.28 -26.6 q0.16 -0.4 0.5 -0.62 t0.78 -0.22 l3.76 0 q0.44 0 0.78 0.22 t0.5 0.62 z M73.19200000000001 18.12 l-3.32 7.96 l6.64 0 z M111.06400000000001 10 q0.56 0 0.98 0.42 t0.42 0.98 l0 26.56 q0 0.56 -0.42 0.98 t-0.98 0.42 l-3 0 q-0.56 0 -0.98 -0.42 t-0.42 -0.98 l0 -26.56 q0 -0.56 0.42 -0.98 t0.98 -0.42 l3 0 z M146.8 10 q0.56 0 0.98 0.42 t0.42 0.98 l0 26.56 q0 0.56 -0.42 0.98 t-0.98 0.42 l-3.52 0 q-0.68 0 -1.12 -0.56 l-13.88 -19 l0 18.16 q0 0.56 -0.42 0.98 t-0.98 0.42 l-3 0 q-0.56 0 -0.98 -0.42 t-0.42 -0.98 l0 -26.56 q0 -0.56 0.42 -0.98 t0.98 -0.42 l3.48 0 q0.32 0 0.64 0.14 t0.48 0.42 l13.92 18.92 l0 -18.08 q0 -0.56 0.4 -0.98 t0.96 -0.42 l3.04 0 z M181.496 10 q0.68 0 1.16 0.6 q0.4 0.68 0.12 1.32 l-10.76 26.56 q-0.16 0.4 -0.52 0.64 t-0.76 0.24 l-3.44 0 q-0.44 0 -0.78 -0.24 t-0.54 -0.64 l-10.76 -26.56 q-0.28 -0.72 0.16 -1.32 q0.2 -0.28 0.5 -0.44 t0.66 -0.16 l3.28 0 q0.4 0 0.76 0.24 t0.52 0.64 l7.92 19.88 l7.88 -19.88 q0.2 -0.4 0.54 -0.64 t0.78 -0.24 l3.28 0 z M210.712 10 q0.6 0 1 0.42 t0.4 0.98 l0 2.88 q0 0.56 -0.4 0.98 t-1 0.42 l-15.12 0 l0 6.12 l13.36 0 q0.6 0 1 0.42 t0.4 0.98 l0 2.92 q0 0.56 -0.4 0.98 t-1 0.42 l-13.36 0 l0 6.16 l15.12 0 q0.6 0 1 0.42 t0.4 0.98 l0 2.88 q0 0.56 -0.4 0.98 t-1 0.42 l-19.52 0 q-0.56 0 -0.98 -0.42 t-0.42 -0.98 l0 -26.56 q0 -0.56 0.42 -0.98 t0.98 -0.42 l19.52 0 z M239.88799999999998 24.84 q1.68 1.08 2.58 2.64 t0.9 3.48 q0 4.4 -3.4 6.84 q-3.16 2.2 -8.52 2.2 q-6.08 0 -9.4 -2.64 q-3.04 -2.44 -3.48 -6.88 q-0.08 -0.64 0.36 -1.08 t1.04 -0.44 l3.12 0 q0.56 0 0.96 0.36 t0.44 0.92 q0.08 1.04 0.54 1.78 t1.42 1.3 q1.84 1.04 5.04 1.04 q2.76 0 4.28 -0.64 q1.16 -0.52 1.56 -1.4 q0.24 -0.48 0.24 -1.24 q0 -0.48 -0.18 -0.8 t-0.58 -0.6 q-1.12 -0.76 -2.96 -1.32 q-1.6 -0.48 -4.28 -1.12 q-2.44 -0.52 -4.6 -1.4 q-2.44 -1.04 -3.84 -2.48 q-1.76 -1.76 -1.76 -4.6 q0 -3.96 3 -6.4 q2.92 -2.36 8.44 -2.36 t8.68 2.64 q2.96 2.44 3.16 6.28 q0.08 0.56 -0.36 1.04 q-0.48 0.4 -1 0.4 l-3.12 0 q-0.52 0 -0.92 -0.34 t-0.44 -0.86 q-0.12 -1.04 -0.68 -1.72 q-0.8 -1 -2.56 -1.48 q-1.2 -0.36 -3.06 -0.36 t-2.96 0.38 t-1.62 0.82 t-0.64 0.88 q-0.2 0.68 -0.2 1.28 q0 0.32 0.36 0.68 q0.72 0.64 1.6 0.96 q1.12 0.48 2.76 0.88 t3.42 0.84 t3.38 0.96 q1.88 0.64 3.28 1.56 z M271.824 10 q0.56 0 0.96 0.42 t0.4 0.98 l0 2.88 q0 0.56 -0.4 0.98 t-0.96 0.42 l-7.88 0 l0 22.28 q0 0.56 -0.42 0.98 t-0.98 0.42 l-3 0 q-0.6 0 -1 -0.42 t-0.4 -0.98 l0 -22.28 l-7.88 0 q-0.56 0 -0.98 -0.42 t-0.42 -0.98 l0 -2.88 q0 -0.56 0.42 -0.98 t0.98 -0.42 l21.56 0 z M301.44000000000005 10 q0.6 0 1 0.42 t0.4 0.98 l0 2.88 q0 0.56 -0.4 0.98 t-1 0.42 l-15.12 0 l0 6.12 l13.36 0 q0.6 0 1 0.42 t0.4 0.98 l0 2.92 q0 0.56 -0.4 0.98 t-1 0.42 l-13.36 0 l0 6.16 l15.12 0 q0.6 0 1 0.42 t0.4 0.98 l0 2.88 q0 0.56 -0.4 0.98 t-1 0.42 l-19.52 0 q-0.56 0 -0.98 -0.42 t-0.42 -0.98 l0 -26.56 q0 -0.56 0.42 -0.98 t0.98 -0.42 l19.52 0 z"></path></g></svg>